<?xml version="1.0" encoding="utf-8"?>
<!-- Generator: Adobe Illustrator 21.1.0, SVG Export Plug-In . SVG Version: 6.00 Build 0)  -->
<svg version="1.0" id="Warstwa_1" xmlns="http://www.w3.org/2000/svg" xmlns:xlink="http://www.w3.org/1999/xlink" x="0px" y="0px"
	 viewBox="0 0 792 792" enable-background="new 0 0 792 792" xml:space="preserve">
<g>
	<path d="M753.7,372.7c1.9,1.7,2.2,4.5,2.3,7c0.1,6.7-1.6,13.3-3.5,19.7c-3.6,11.6-8.8,22.7-14.8,33.3
		c-12.1,21.1-27.6,40.3-46.6,55.6c3.4,1.9,6.4,4.6,8.3,8c2.9,0.7,5.7,1.9,8.2,3.5c1.9,1.2,3.7,2.6,4.9,4.6c0.9,1.5,0.3,3.3-0.3,4.8
		c-1.7,4-4.7,7.3-8.1,10c-0.8,4.3-2.4,8.8-5.6,11.9c-2.7,2.7-6.1,4.5-9.5,6.2c-2.5,4.2-5.3,8.4-8.6,12.1c-6,7-13.7,12.4-21.8,16.6
		c-1,0.6-2.1,0.9-2.9,1.7c-6.9,9.1-15.3,17.1-25,23.3c-10,6.5-21.4,10.4-33.1,12c-8.5,1.2-17.2,0.9-25.5-1
		c-5.8-1.4-11.6-3.6-16.6-6.9c-8.9-5.8-15.3-15.1-18.5-25.2c-2.1-6.9-2.4-14.3-1.9-21.5c-15.7,3.8-31.9,5-48,4.7
		c-3.8,4.8-8,9.2-12.9,12.9c-4.2,3.3-8.9,6.1-13.7,8.4c3.6,5.4,6,11.5,7.9,17.7c1.2,4.2,2.1,8.4,2.5,12.7c4.9,4.7,9,10.3,11.6,16.6
		c1.7,4,2.6,8.3,2.2,12.6c-0.5,10.2-6.5,20-15.4,25c-5.8,3.3-12.2,5.3-18.6,6.8c-7.4,1.7-15,2.7-22.6,3.1c-5.2,3-10.8,5.1-16.4,7.1
		c-7.7,2.5-15.6,4.6-23.6,5.7c-7.6,1.1-15.3,1.6-22.9,0.3c-2.1-0.3-4.1-0.9-6.1-1.6c-0.7-0.3-1.3,0.2-2,0.3c-4.8,1.3-9.7,1.8-14.7,2
		c-4.2,0.1-8.4,0-12.5-1c-1.5-0.4-3.2-0.8-4.1-2.1c-0.7-1.6-0.3-3.4,0-5c-4.9,0.2-9.9,0.3-14.7-0.8c-1.3-0.4-2.7-0.7-3.7-1.6
		c-0.7-0.6-0.7-1.5-0.7-2.3c0.1-2.3,0.9-4.4,1.6-6.5c-3.4,0.1-6.8,0-10.1-0.6c-1.5-0.3-3-0.6-4.2-1.6c-1-0.9-0.7-2.4-0.5-3.6
		c0.8-4,2.6-7.7,4.5-11.2c1.3-2.4,2.9-4.6,4.6-6.8c-1.1-4.7,0.1-10,3.4-13.6c3-3.4,7.3-5.9,12-6c2.2-3.6,5-6.9,8.7-8.9
		c-4.2-2-8.4-4.3-12.2-7.1c-3.1-2.2-5.9-4.8-8.5-7.6c-3.7-4.1-7-8.6-9.3-13.7c-2.3-4.9-3.7-10.3-4.3-15.7
		c-0.7-7.2,0.2-14.5,1.9-21.5c2.6-10.2,8.1-19.5,14.9-27.4c7.9-9.2,17.6-16.8,27.9-23.2c-1.1-1.3-2.2-2.7-3.2-4
		c-5.6,3.8-12,6.2-18.5,7.5c-12.2,2.5-25,2-37.2-0.4c-7.2-1.5-14.4-3.7-20.9-7.4c-1.5,4.9-5,9.1-9.4,11.7c-8.3,4.9-19,5.3-27.7,1.3
		c-1.5,2.5-3,5-4.6,7.4c3.6,3.1,6.4,7.2,8.3,11.5c3.1,7,4.3,14.7,4.2,22.3c-0.1,6.1-1.1,12.3-3.1,18.1c-1.6,4.5-3.8,8.9-7.3,12.2
		c-2.3,2.2-5.2,3.9-8.3,4.6c-2.9,4.2-6.7,7.7-10.7,10.9c-2.7,2-5.4,4-8.6,5.2c-1.1,0.4-2.5,0.8-3.6,0c-1.4-1.3-2.2-3.1-3-4.8
		c-2.2-5.3-3.5-11-3.9-16.8c-3.4-1.5-6.2-4.2-7.7-7.6c-3.3,3.6-7.4,6.4-11.8,8.6c-5.7,2.8-11.8,4.6-18.1,5.5
		c-7.6,1.1-15.4,0.7-22.8-1.4c-1.7,3-3.8,5.9-5.7,8.8c1.2,1.7,2.5,3.5,3.2,5.6c1.5,3.9,1.5,8.4,0.2,12.4c1.9,3.3,3.4,6.9,4.3,10.6
		c0.6,2.3,1,4.7,0.8,7.1c-0.1,1.2-0.5,2.6-1.6,3.1c-2.1,1.1-4.5,1.4-6.9,1.5c-5.2,0.3-10.5-0.3-15.5-2.1c-2.7,1.9-6,2.9-9.2,2.8
		c-4.8-0.1-9.5-1.7-13.6-4.1c-4.8-2.8-9-6.5-12.6-10.6c-4.1-4.7-7.5-10-9.8-15.8c-2.1-5.3-3.2-11.1-2.5-16.8c0.3-2.7,1-5.3,2.1-7.7
		c-8.2-6.8-14.1-16.5-16.1-27c-0.6-3.2-0.9-6.5-0.4-9.7c0.8-6.1,3.3-11.7,6.6-16.9c3.5-5.5,7.9-10.7,13.1-14.7
		c-3.2-3.9-5.9-8.1-7.8-12.8c-3.1-7.4-4.6-15.6-3.8-23.6c0.6-5.3,2.6-10.3,5.4-14.8c2.6-4.1,6-7.7,10.1-10.3
		c4.5-2.9,9.7-4.7,14.9-5.4c6.4-0.8,12.9-0.3,19,1.4c-0.1-1.3-0.5-3.2,0.9-4c2-1.1,4.4-1.4,6.6-1.8c4.4-0.7,8.8-0.9,13.2-0.6
		c2.2-2.2,4.5-4.3,7.1-6c2-1.2,4.2-1.9,6.3-2.5c5.2-6.4,10.7-12.5,16.8-18.1c-3.6-3.4-6.8-7.3-9.1-11.7c-2.7-5.2-4.6-10.8-5.5-16.6
		c-1-6.6-0.8-13.4,1.1-19.7c1.3-4.3,3.4-8.3,6.5-11.6c3.8-4.1,9.3-6.4,14.9-5.9c3.5-4.2,7.8-7.8,12.9-9.7
		c-1.2-6.4-1.7-12.9-1.1-19.3c-0.9,1.1-1.3,2.5-2,3.7c-2-1.4-3.2-3.6-3.9-5.8c-0.8-2.7-0.7-5.7,0-8.4c-1.8,1.2-2.9,3.2-4.2,4.9
		c-1.7-2.4-2.2-5.5-2-8.5c0.3-3.4,1.6-6.6,3.4-9.5c-0.2-1.8,0.1-3.6,0.7-5.4c-7.2-7.3-12.4-16.7-14.6-26.8
		c-2.9-13-1.5-26.8,3.1-39.2c1.9-4.9,4.2-9.8,7.6-13.9c2-2.2,4.3-4.3,7.2-4.9c1.4-0.4,2.8,0.5,3.5,1.7c1.2,1.9,1.1,4.3,0.9,6.5
		c-0.8,6.2,0.4,12.5,2.5,18.3c3.6,9.6,10.1,18.1,18.5,24.1c3.2-0.9,6.8-0.7,9.7,1c-0.3-0.7-1-1.1-1.5-1.6c-3.9-3.6-7.4-7.8-10-12.4
		c-6-10.4-7.6-23.1-5-34.8c2.3-10.4,8.9-19.5,17.3-26c5-3.7,11-6.2,17.1-7.3c4.3-0.8,8.7-1,12.9,0.1c1,0.3,2,0.5,2.8,1.1
		c-0.9,0.9-2.1,1.3-3,2.1c-4.1,3.1-6.8,7.6-8.5,12.4c2.9-3.7,6.4-7.1,10.6-9.4c7-4.1,15.1-5.5,23.1-6.3c8.3-0.8,16.7-1.6,24.7-4.3
		c5-1.7,9.9-4,13.4-7.9c1.2-1.2,2-2.7,2.9-4.1c0.3-0.6,1.1-0.2,1.4,0.2c3.1,3.3,4.9,7.7,5.8,12.1c1.3,6.4,0.6,13.1-1.6,19.2
		c2.2-0.3,4.4-0.5,6.6-0.3c-0.6-8.2-0.5-16.5,0.2-24.8c0.6-6.4,1.3-12.8,3.1-19c0.6-1.7,1.1-3.7,2.6-4.9c1.3-0.8,2.9,0,4.1,0.4
		c5.4,2.4,10.2,5.9,15,9.4c6.7,5.1,13.2,10.6,19.1,16.6c8.9-4.1,18.1-7.5,27.5-10.2c3.6-11,8-21.8,13.6-32c1.7-3,3.5-6,5.8-8.5
		c0.7-0.7,1.8-1.7,2.9-1.1c1.7,0.9,2.9,2.4,4.2,3.8c3.5,4.2,6.4,8.8,9.2,13.4c3.3,5.5,6.3,11.1,9,16.8c17.3-1.1,34.6-0.2,51.7,2.7
		c7-8.4,14.8-16.1,23.2-23c3-2.4,6-4.7,9.3-6.5c1-0.5,2-1,3.1-1c1,0.1,1.6,1.1,2.1,1.9c1.5,2.8,2.4,5.8,3.2,8.8
		c1.8,6.7,3.1,13.5,4.1,20.4c0.6,4.3,1.1,8.6,1.4,12.9c4.8,2.1,9.6,4.3,14.3,6.7c5.5,2.8,10.9,6,16.2,9.2c4.7-0.2,9.2,1.6,13.2,3.9
		c7.6-4.5,16-7.5,24.4-10.2c7.6-2.3,15.3-4.3,23.1-5.3c2.8-0.2,5.6-0.7,8.3,0.2c1.5,0.5,1.5,2.3,1.6,3.6c-0.1,4.9-1.3,9.6-2.4,14.3
		c-2.3,8.7-5.2,17.3-8.7,25.6c-1.7,3.9-3.6,7.9-5.8,11.6c0.9,2.2,1.6,4.4,1.9,6.7c0.1,0.6,0,1.2,0.4,1.7c2.8,3.9,5.4,8,7.9,12.1
		c9.8,0,19.6,0.8,29.2,2.5c4.2,0.8,8.3,1.6,12.3,3.1c1.1,0.5,2.3,1,3,2c0.5,1,0,2.1-0.3,3.1c-1.5,3.5-3.6,6.6-5.7,9.7
		c-5.6,7.9-11.8,15.3-18.6,22.2c0.8,2.5,1.7,4.9,2.4,7.4c4.1,1.5,7.1,4.8,9.2,8.5c7.5,0.5,14.9,2.2,22.1,4.3
		c7.2,2.1,14.2,4.6,21.1,7.6c3.1,1.4,6.3,2.9,9.2,4.9c1,0.7,2.2,1.5,2.7,2.7c0.1,1.4-0.9,2.5-1.7,3.5c-3.4,4-7.4,7.4-11.4,10.7
		c-8.7,6.9-18,13.3-28.1,18.1c-1.8,0.9-3.6,1.6-5.5,2.3c-0.3,4.5-1.4,9.3-4.9,12.4c-0.1,3.1-0.3,6.2-0.7,9.2
		c7.1,1.2,14.1,3.6,19.6,8.3c3.2-3.4,6.9-6.3,10.9-8.8c2-1.2,4.1-2.4,6.4-3c0.8-0.2,1.7-0.3,2.5,0.1c0.9,0.7,1.4,1.8,1.8,2.9
		c1,2.6,1.5,5.3,2,8c0.6,4,1,8,1,12c4.1-2.4,8.3-4.6,12.5-6.8c-0.5-6.7-0.8-13.5-0.2-20.2c0.3-1.9,0.4-3.9,1.4-5.5
		c0.5-0.8,1.5-0.6,2.3-0.4c2.4,0.6,4.5,1.9,6.6,3.1c5.5,3.3,10.7,7.2,15.5,11.5c5.5-1.8,11.1-3.6,17-4
		C749,371,751.7,371.1,753.7,372.7"/>
	<path fill="#E6532C" d="M199.2,246.6c-6.4-5.3-11.4-12.3-13.8-20.3c-2.3-7.8-2.1-16.1-0.3-24c2.2-9.8,7.9-19,16.3-24.6
		c5.4-3.6,11.7-6,18.2-6.1c-3.3,3.7-6.1,8-7.8,12.7c-1.9,5-2.4,10.6-1.1,15.8c0.4,1.4,0.7,2.9,1.5,4.1c0.7-0.4,0.8-1.3,1.1-2
		c1.2-4.3,2.9-8.5,5.4-12.2c2.6-3.8,6-7,10-9.3c7.1-4.1,15.3-5.4,23.3-6.3c8-0.9,16.1-1.3,23.8-3.8c6-1.9,11.6-5.2,16-9.8
		c1.5,3,1.8,6.4,1.8,9.7c0,6.7-1.8,13.4-5.4,19.1c-0.6,1-1.5,1.9-1.9,3.1c1.5-0.2,2.8-1.2,4.3-1.6c6.1-2.4,13.3-2.9,19.1,0.4
		c-2.9,1.4-5.6,3.3-7.9,5.5c-0.5,0.5-1.1,1-1.3,1.7c0.2,0.4,0.7,0.2,1.1,0.3c3,0.2,6.1,0.4,9.1,0.9c-1.4,5.8-3.2,11.6-5.7,17.1
		c-2.5,5.5-5.6,10.7-9.7,15.1c-4.5-1.3-9.3-1.9-13.9-0.8c-14.5-4.1-30-5.3-44.8-2.2C223,231.6,210.1,237.8,199.2,246.6 M357.8,239.5
		c5.4-3.2,9.3-8.3,11.9-13.9c2.2-5,3.7-10.4,3.5-15.8c-3.4,1-6.9,1.8-10.5,2.1c-5.8,0.4-11.8-0.3-16.9-3.2c2,11.5,1.5,23.5-1.7,34.8
		C348.9,243.3,353.7,242,357.8,239.5 M266.5,250.9c-2.8,0.4-5.7,1-8.3,2.2c-4.9,2.3-8.9,6-12.3,10.1c-7,8.5-11.8,18.4-16.4,28.4
		c-2,4.6-4.4,9-7.8,12.6c-1.6,1.7-3.6,3.3-6,3.8c-1.6,0.3-3.2-0.4-4.5-1.2c-0.8,4.5-1.1,9.1,0.1,13.5c0.7,2.6,2.1,5.3,4.5,6.7
		c1.5,0.9,3.3,0.7,4.8,0.2c1.9-0.6,3.6-1.9,5-3.2c2-2,3.7-4.4,5.4-6.7c3.2-4.8,6.4-9.6,9.9-14.2c3.4-4.4,7.2-8.6,11.8-11.7
		c3.6-2.4,7.7-4.2,12.1-4.4c3.9-0.2,7.7,1,11,3.2c2.2,1.4,4.2,3.2,6.1,4.9c0.5-2.5,0.7-5.1,0.4-7.7c-0.2-2.4-1.1-4.6-1.9-6.9
		c4.4,0.5,8.2,3.5,10.7,7c0.7-5.7,0.3-11.8-2.3-17c-2.3-4.9-6.3-8.7-10.4-12.2c2-1.4,4.6-1.6,7-1.8c-2.6-2.1-5.5-3.7-8.6-4.7
		C273.6,250.6,270,250.5,266.5,250.9 M174.7,307.4c2.9,2.4,4.9,5.6,7.4,8.4c1.8,2.1,3.9,4.2,6.6,5.4c-0.5-5.6,0-11.4,1.5-16.8
		c-3.7-2.5-5.6-6.8-6.8-10.9c-1-3.4-1.7-6.9-2.9-10.2c-0.9-2.4-2.2-4.7-4.4-6.2c-2.3-1.6-5.4-1.8-7.8-0.5c-3,1.5-5.3,4.1-6.6,7.1
		c1.3-0.4,2.7-0.7,4.1-0.5c-2.3,1.4-4.4,3.1-5.8,5.4c-2.2,3.4-3.8,7.5-3.4,11.6c2-2,4.3-3.9,7.1-4.7c-1,4.1-1.7,8.4-0.9,12.5
		c1.5-1.4,3.3-2.5,5.4-2.8C170.6,304.9,172.9,305.9,174.7,307.4 M234.7,325.3c-1.2-0.1-2.1-0.9-2.7-1.9c-0.5,0.8-1.1,1.6-1.6,2.4
		c1,1.2,2.4,2.3,4.1,2.5c2.5,0.4,5-1.2,6.1-3.5c1.9-3.5,0.7-8.4-2.8-10.3c-0.8,1.3-1.6,2.5-2.4,3.7c1.7,0.2,3.3,1.6,3.3,3.4
		C238.8,323.8,236.8,325.6,234.7,325.3 M185.6,324.8c-0.8-0.5-1.6-1-2.3-1.6c-2.5,2.9-1.5,7.8,1.9,9.5c2,1.1,4.7,0.3,6.1-1.5
		c-0.4-0.8-0.7-1.5-1-2.3c-0.9,1.7-3.2,2.3-4.8,1.1C183.9,328.8,184,326.1,185.6,324.8"/>
	<path fill="#83EA5A" d="M442.1,171.3c-3.5-4.7-8.9-7.3-14.4-8.9c-1.2-4.3-2.8-8.4-4.4-12.5c27-1.6,54.4,2.4,79.9,11.6
		c13.1,4.7,25.8,10.8,37.7,18c-2.1,2.5-3.1,5.8-3,9c0,5.3,1.7,10.5,3.9,15.2c3.5,7.2,8.2,13.9,13.9,19.5c-3.3-0.4-6.7-0.7-10-1
		c-2.2-4.1-4.2-8.3-6.6-12.3c-5.7-9.9-12.4-19.4-20.4-27.6c-7.5-7.6-16.3-14.2-26.3-17.9c-11.5-4.4-24.6-4.7-36.2-0.5
		C451.1,165.7,446.4,168.3,442.1,171.3 M344.1,201.1c2.4,1.8,5.1,3.1,7.9,4.2c7.1,2.5,15.1,1.9,21.8-1.3c0.5-0.2,0.9-0.5,1.5-0.6
		c0.8,0.1,1.1,0.9,1.3,1.6c1.1,3.4,1.3,7,1,10.5c-0.7,8.2-3.9,16.3-9.3,22.6c2.8,2.4,6.1,4.3,9.8,4.5c2.3,0.2,4.4-0.9,6.2-2.1
		c3.8-2.5,6.9-5.9,9.8-9.4c7.5-8.9,12.9-19.3,19.5-28.8c-8.1,1.4-16.4,1.6-24.6,1c-7.2-0.7-14.4-2.1-20.9-5.2c-4.1-2-8-5-10.1-9.1
		c-2.7-5.1-1.8-11.7,1.7-16.2c3-4,7.6-6.5,12.2-8.1c0.4-1.9,0.8-3.9,1.3-5.8c-14.2,4.4-28,10.3-40.6,18.3
		C337.9,184.3,341.6,192.6,344.1,201.1 M184.8,282.3c1.3,4,2,8.1,3.4,12.1c0.7,1.9,1.7,4.2,3.9,4.7c1.4-3.2,3.3-6.2,5.7-8.7
		c0.8-0.8,1.6-1.8,2.7-2.3c-0.2,1.1-0.8,2.1-1.4,3c-1.7,2.9-2.9,6.1-3.9,9.3c-1.9,6.3-3.1,12.9-2.7,19.5c0.3,3.9,1.3,8,3.9,11.1
		c1.8,2.2,4.5,3.8,7.4,4.1c3.5,0.4,7.2-1.2,9.3-4.1c-2.5-1.7-4.6-4.2-5.5-7.2c-1.5-4.7-1.4-9.8-0.6-14.6c0.6-3.9,1.7-7.8,3.7-11.2
		c0.3-0.5,0.6-1,1-1.3c0.3,1.4,0.4,2.9,1.4,4.1c0.9,1.3,2.9,1.8,4.3,0.9c1.3-0.9,2.2-2.2,3-3.4c2.1-3.4,3.7-7.1,5.3-10.7
		c4.3-9.4,9-18.9,15.4-27.1c3.8-4.8,8.3-9.1,13.7-11.9c5.1-2.7,11.1-3.5,16.8-2.8c-0.2-3.6,0.8-7.3,3-10.2
		c-14.4-3.3-29.7-3.3-43.9,1.1c-6.7,2-13.2,5-19.2,8.6c-12.4,7.5-22.7,18.2-30,30.7C183,277.9,184,280.1,184.8,282.3 M600.2,240
		c-1.1,0.8-2.4,1.3-3.7,1.6c3,3.1,5.8,6.5,7.9,10.3c5.2,9.3,7.4,20.1,7.4,30.7c-0.1,17.2-5.4,34.2-14.2,49
		c8.3,13.4,16.9,26.9,27.9,38.3c4.7,4.8,9.8,9.2,15.7,12.5c0.2-5.1,0.7-10.2,0.6-15.4c-2.4,0.1-4.7-0.6-6.7-1.8
		c-3.5-2.1-6.1-5.3-8.3-8.6c-2.3-3.8-4.1-7.9-5.4-12.1c-2.2-7-3.4-14.3-3.9-21.6c-0.5-8.2,0-16.7,3-24.4c1.5-3.6,3.7-7.3,7.4-9
		c-6.1-18.4-14.4-36.1-25.2-52.2C601.9,238.3,601.2,239.3,600.2,240 M269.1,323.5c5.4-7.3,11.7-14.2,19.5-18.9
		c5-3,10.5-5.2,16.2-6.6c11.9-3.1,24.9-2.7,36.3,1.9c-0.9-5.2-2.2-10.3-3.9-15.2c-2.3,1.2-4.7,1.9-7.3,2.3c-6.3,1-12.8,0.1-18.9-1.5
		c-5.2-1.5-10.3-3.7-14.8-6.9c0.1,5.1-0.7,10.3-2.9,15c-0.2,0.4-0.5,0.8-0.9,1.1c-1.7-2.8-3.6-5.3-6.1-7.4c0,3-0.5,6-1.5,8.9
		c-0.6,1.6-1.1,3.4-2.2,4.8c-1.1-0.9-1.9-2-3-2.9c-2.6-2.4-5.5-4.5-8.9-5.6c-2.5-0.8-5.1-0.9-7.7-0.5c3.6,4,5.7,9.2,6.5,14.5
		c0.9,5.7,0.4,11.8-1.8,17.2C268.3,323.6,268.7,323.6,269.1,323.5 M176.7,337.1c-2.5-3.8-3.7-8.3-4-12.8c-0.2-3.6,0.3-7.3,2.2-10.4
		c-1.3-1.6-2.9-3.2-4.9-3.6c-1.4,8.4-0.6,17.2,1.7,25.4c-1.9,0.5-3.8,1-5.6,1.8c-2.9,1.3-5.4,3.3-7.7,5.6c1,0.4,2.1,0.8,3.1,1.3
		C165.8,340.6,171.1,338,176.7,337.1 M201.7,339.1c-0.2,0.5-0.4,0.9-0.6,1.4c5.4,2.4,10.4,5.9,14.3,10.4c5.5-3.5,12.1-4.8,18.5-5.2
		c7.4-0.4,14.9,0.4,21.9,3c2.6-7.2,6.1-14.1,10.2-20.5c-12.2,2.2-23.8,7.5-33.8,14.8c-0.9,0.6-1.8,1.5-2.9,1.6
		c0.4-1.6,1.6-2.8,2.6-4.1c-1.4-0.5-2.7-1.3-3.7-2.3c-1.8-1.7-2.8-4.1-3.3-6.5c-1.9,1.1-4.2,1.5-6.4,1.3c-1.9,2.1-4,4-6.6,5.1
		C208.6,339.5,205,339.7,201.7,339.1"/>
	<path fill="#99525F" d="M249.8,423.6c0.6-0.7,1.1-1.6,2.1-1.9c4.7,6.1,10.6,11.4,17.6,14.7c1.5,0.6,3,1.4,4.6,1.2
		c1.3-0.9,1.7-2.6,2.2-4c1.6-6,1.8-12.2,1.9-18.4c0-2.8-0.1-5.6-0.2-8.5c3-2.5,5.8-5.2,8.5-8c3,1.5,6.2,2.5,9.4,3.3
		c2.7,0.6,5.5,1.2,8.3,1.1c0.8-0.1,1.9-0.2,2-1.2c0.3-2.1-0.2-4.2-0.6-6.3c-1.2-5.6-3.1-11-5.3-16.2c0.3-0.5,0.5-1,0.8-1.4
		c1-0.6,2.1-1.1,3.1-1.7c0.4-0.2,0.9-0.6,1.4-0.4c3.5,0.9,7,1.4,10.6,1.6c1.5,0,3.1,0.1,4.6-0.3c0.5-0.1,1-0.5,1-1
		c0.2-1.6-0.2-3.2-0.5-4.8c1.9-0.1,3.8-0.2,5.7-0.1c0.3,1.3,0.8,2.6,0.9,3.9c-1.6,2.2-3.2,4.3-4.7,6.6c-4.1-0.9-8.3-1.6-12.6-1.7
		c-1.3,0-2.7-0.1-3.9,0.4c-0.6,0.5-0.6,1.4-0.6,2.2c0.1,2.7,0.8,5.3,1.7,7.8c1.3,3.7,3.1,7.3,5.3,10.5c-0.8,1.8-1.5,3.7-2.2,5.5
		c-4.3-0.4-8.6-0.4-12.9,0.1c-1.5,0.3-3.1,0.4-4.3,1.4c-0.8,0.6-0.6,1.6-0.4,2.5c0.6,2.1,1.6,4,2.6,5.9c2.5,4.5,5.4,8.7,8.4,12.8
		c-0.3,1.7-0.7,3.4-1,5.1c-3.2-4.2-6.9-8-11.1-11.1c-1.6-1.1-3.3-2.3-5.2-2.8c-1.1-0.3-1.8,0.7-2.3,1.5c-1.2,2.1-1.8,4.5-2.4,6.9
		c-1.1,4.6-1.8,9.4-1.9,14.2c-11.4-1-23.1-0.5-34,3.1c-1.1-1.5-2.3-3.1-3.5-4.5C243.6,435.2,245.8,428.8,249.8,423.6"/>
	<path fill="#FFEF98" d="M340.9,463.4c-0.8-6.8-3.2-13.3-6.2-19.4c6-7,9.2-15.9,10.8-24.8c1.4-7.4,1.7-15,1.5-22.5
		c3-1.7,6.1-3.4,8.8-5.6c0.3-0.2,0.5-0.5,0.6-0.9c0.8-2.8,2.1-5.5,3.8-7.8c-0.8-2.8-1.5-5.7-1.7-8.6c0-0.3-0.2-0.6-0.4-0.8
		c-1.9-2.1-3.5-4.6-4.4-7.3c-1.7-5-1.1-10.5,0-15.6c1.4-6,3.9-11.7,6.9-17c-0.6-6.5-3.6-12.7-8-17.5c-3.8-4.2-8.6-7.3-13.8-9.4
		c-16.8-6.8-37-4-51.6,6.7c-4.9,3.6-9.3,7.9-13,12.7c-7,8.9-12.2,19.1-16.3,29.5c-6.6-2.6-13.8-3.9-20.9-4c-6.4,0-13,0.8-18.9,3.5
		c1,1.8,2,3.7,2.6,5.7c0.4,1.3,0.9,2.7,0.5,4.1c-0.6,0.1-0.9-0.6-1.3-1c-5.4-9.1-14.3-16.1-24.4-19.2c-7-2.2-14.7-2.4-21.6-0.1
		c-5.5,1.7-10.4,5.3-13.9,9.9c-3.6,4.6-6,10.2-6.4,16.1c-0.1,0.6-0.1,1.2-0.6,1.6c-1.2-1.8-1.4-4.1-1.6-6.2
		c-0.3-6.3,2.3-12.4,6.2-17.2c-3.6-1.4-7.8-1.9-11.4-0.3c-3.2,1.5-5.6,4.3-7.1,7.5c-2,4-2.9,8.5-3.2,13c-0.4,6.5,0.6,13,2.9,19.1
		c3.5,9.6,10.4,17.7,18.6,23.5c4.3,3,9,5.5,14,7c6.9,1.9,14.3,1.5,21-0.7c-0.4-0.8-1.3-1.2-1.8-1.9c-1.6-1.9-3.1-4.4-2.6-7
		c0.4,0.2,0.7,0.5,0.9,1c1.4,2.4,3.5,4.4,5.8,5.9c4.6,3,9.9,4.7,15.3,5.2c10.8,1.4,21.9,0.6,32.5-2.2c11-2.9,21.3-8.1,30.2-15.2
		c18-14.4,30.1-36.1,32.1-59.1c-2.2-0.9-4.4-1.5-6.7-2c-0.8-0.2-1.7-0.2-2.3-0.8c0.6-0.7,1.6-0.9,2.5-1.1c2.3-0.5,4.6-0.8,7-0.4
		c5.3,0.7,10.3,3,14.3,6.4c4.3,3.6,7.5,8.3,9.9,13.3c2.6,5.5,4.2,11.4,5.2,17.3c-8.7,10.3-14.7,22.6-19,35.3
		c-4.1,12.2-6.7,24.9-7.7,37.8c0.3,0.3,0.7,0.4,1.1,0.6c3.3,1.6,6.3,3.8,8.9,6.4c0.6,0.6,1.4,1.3,1.4,2.3c-1.2,0-2.1-0.7-3.1-1.1
		c-10.7-5.1-22.3-8.2-34.1-9.3c-13.1-1.2-26.7,0-39,4.8c-9,3.6-17.4,9.3-23,17.2c-0.7,0.9-1.3,2.2-2.5,2.5c0-0.5-0.1-1.1,0-1.6
		c1.1-4.9,3.8-9.2,7.2-12.8c-1.2-7.2-2-14.6-1.3-21.9c0.3-2.2,0.6-4.6,2-6.4c1.2-1.3,3.1-0.3,4.5,0.2c-0.3-1.5-0.5-3.1-1-4.5
		c-5.1,0.2-10.1,0-15.1-0.8c3.7,7.1,5.8,14.9,7.5,22.6c-5.4,7.1-9.9,15.2-11.1,24.2c-0.7,5.7,0.3,11.7,3.4,16.6
		c2.6,4.3,6.4,7.8,11.1,9.7c6.6,2.7,14.4,2.2,20.6-1.3c3.6-2.1,6.6-5.4,8-9.4c-1.1-0.9-2.2-1.8-3.2-2.9c-1-1.1-2.1-2.2-2.6-3.6
		c0.8-0.1,1.5,0.5,2.2,0.8c5.1,3.1,10.8,5.3,16.5,7.1c7.4,2.2,15,3.7,22.6,4.4c7.3,0.6,14.6,0.6,21.9-0.5c5.1-0.8,10.1-2.1,14.8-4.3
		c4.8-2.3,9.2-5.5,12.3-9.8C340.9,474.5,341.5,468.8,340.9,463.4 M162.2,383.6c-1.2-2-1.7-4.4-3.6-5.9c-0.6-0.5-1.5-0.6-2,0
		c-0.8,0.7-0.6,1.8-0.7,2.7c-1.5-1.2-1.9-3.3-1.9-5.1c0.1-1.2,0.1-2.6,1.1-3.4c1.2-0.7,2.5,0,3.4,0.9c1.7,1.7,2.7,4.1,3.3,6.5
		C162,380.7,162.4,382.1,162.2,383.6 M197.1,375.9c-0.3,0.8-0.6,1.6-1.3,2.1c-0.1-1.4-0.1-2.9-1.1-4c-1-1.1-2.7-1.1-4-0.5
		c-2.2,1.1-3.8,3.1-5.4,5c-0.8,1-1.5,2.1-2.5,2.9c-0.1-2.7,0.8-5.3,2.1-7.7c1.4-2.4,3.4-4.5,6-5.5c1.7-0.7,3.8-0.5,5.2,0.9
		C197.8,370.9,198,373.7,197.1,375.9 M348.1,432.5c2.5-6.3,3.6-13.1,3.9-19.8c0.1-3.8,0-7.6-0.6-11.3c1.2-0.8,2.4-1.5,3.5-2.4
		c-0.6,6.5,0.1,13.1,1.5,19.4c1.3,5.6,3.2,11.1,6.1,16c2.2,3.8,4.8,7.4,8.2,10.1c-4.3,2.4-8.6,4.8-13.2,6.7
		c-4.1,1.6-8.4,2.7-12.7,3.5c-1.2-3.4-2.7-6.7-4.2-9.9C343.9,441.2,346.4,437,348.1,432.5 M340.6,489.2c-0.5-0.7-1.1-1.4-1.6-2.1
		c2.2-2.2,4.3-4.7,5.7-7.5c3.3-6.8,3.3-14.7,1.2-21.8c5.5-0.7,10.9-2.4,16-4.4c4.5-1.8,8.8-3.9,12.9-6.4c3.5,1.6,7.4,2,11.1,1.5
		c4.1,3.1,9.1,4.8,14.1,5.7c2.8,0.5,5.6,0.8,8.4,0.3c1.1-0.1,1.5-1.3,1.8-2.2c0.7-2.5,0.8-5.1,0.8-7.7c0-3.5-0.3-6.9-0.9-10.4
		c3.1-3.5,3.5-8.5,2.8-13c2-2.2,4-4.5,5.9-6.9c3.1,0.2,6.1-1.2,8.8-2.5c3.3,4,7.4,7.1,11.7,9.8c5,3.1,10.4,5.6,16.1,7.2
		c0.6,0.2,1.3,0.2,1.8,0.7c0,0.4-0.4,0.6-0.6,1c-6.6,8.2-14.1,15.5-22.3,22.1c-9.5,7.7-19.8,14.4-30.7,19.9
		C384.1,482.3,362.6,488.6,340.6,489.2 M527.6,514.3c-4.3,5.1-9.3,9.6-14.7,13.5c-11.8,8.5-25.3,14.8-39.6,17.6c-1,0.2-2,0-3.1-0.1
		c-14.1-1.5-28-4.2-41.6-7.9c10.3-0.8,20.3-3.5,29.9-7.3c15.6-6.1,29.7-15.5,42.1-26.6c8.2-7.4,15.7-15.6,21.9-24.9
		c0.8-1.5,2-2.9,2.2-4.6c-1.6,0.9-2.7,2.4-3.9,3.7c-9.9,10.6-20.6,20.4-32.2,29.2c-6.9,5.2-14.1,10-21.9,13.7
		c-8.3,4-16.9,7.3-25.7,9.8c-6.5,1.8-13.1,3.3-19.9,4.1c-0.7,0-1.3,0.2-2,0c-14.6-4.6-28.7-10.4-42.2-17.7
		c6.2,0.5,12.5-0.2,18.6-1.2c11.3-2,22.4-5.2,33-9.5c9.3-3.7,17.9-8.8,26.3-14.2c14.3-9.5,27.6-20.8,38.6-34
		c1.9-2.3,3.8-4.7,5.4-7.2c0.7-1.2,1.5-2.3,1.9-3.6c-1.3,0.5-2.2,1.7-3.2,2.7c-6.3,6.6-12.7,13.1-19.5,19.2
		c-13,11.6-27.7,21.2-43.3,29c-10.7,5.2-21.9,9.2-33.5,12c-9.8,2.3-19.9,3.9-30,3.8c-10.2-6-20.1-12.9-28.2-21.6
		c6.9,0.5,13.8-0.1,20.6-1.3c11.9-2.2,23.4-6,34.4-10.8c10.6-4.6,20.7-10.5,30.2-17.2c11.2-8,21.6-17.4,29.5-28.7
		c0,5.4,1,10.9,3.3,15.8c0.7,1.3,1.4,2.7,2.7,3.6c1.1,0.6,2.5,0.2,3.6-0.1c3.8-1.2,7.3-3.4,10.6-5.7c2.5-1.8,4.8-3.6,7-5.8
		c0.3-0.3,0.8-0.4,1.2-0.5c3-0.9,5.7-2.7,8.1-4.7c5.9,4.7,11.8,9.5,17.1,14.8c6.9,6.8,13,14.5,18.8,22.3
		C526.7,487,525.4,500.8,527.6,514.3"/>
	<path fill="#605E56" d="M472.9,271.8c-0.3,0.1-0.5,0.2-0.8,0.3c-6.9-1.2-14-2.1-21-1.8c-1.2,0.1-2.5,0.1-3.5,0.7
		c-1.1,1.6-1.5,3.5-2,5.3c-0.6,2.3-1,4.6-1.4,7c-4.6,0.1-9.2,1.9-12.4,5.2c-3.8,3.8-5.8,9.4-5.1,14.7c0.3,2.2,1.1,4.4,2.6,6.1
		c-3.7,1.5-7.3,3.4-10.8,5.5c-0.7-0.1-1.4-0.2-2.1-0.4c-0.6-5.5-0.8-11-0.1-16.5c9.1-6.7,17.1-14.9,24.1-23.8
		c5.8-7.3,10.9-15.1,15.6-23.2c5.1,0.1,10.5-1.6,13.9-5.5c3.6-3.8,4.9-9.4,3.9-14.5c-0.6-3.2-2-6.3-4.5-8.3
		c1.4-3.8,2.6-7.6,3.7-11.5c7.8,0.2,15.6,0.5,23.3,1.4c-2.5,0.9-4.6,2.7-6.4,4.5c-4.1,4.2-7,9.4-9.3,14.7
		C475.1,244.4,472.8,258.2,472.9,271.8 M484.3,254c1.3-6.8,3.2-13.4,5.9-19.8c1.7-3.8,3.6-7.6,6.6-10.6c1.5-1.4,3.6-2.9,5.8-2.1
		c0.9,0.2,1.4,0.9,2.1,1.4c1.8-0.1,3.6-0.2,5.4-0.3c-0.9-2.5-2.2-4.8-4-6.7c-1.8-1.5-4.3-2-6.6-1.6c-3,0.5-5.6,2.3-7.6,4.4
		c-3.6,3.9-6.2,8.5-8.4,13.3c-5.3,12-7.8,25.2-7.5,38.3c2.1-1.2,4.6-1.7,7-2C482.8,263.4,483.4,258.6,484.3,254 M569.4,364.2
		c1-5.1,1.4-10.4,1-15.6c-1.1,2.2-2.3,4.4-3.9,6.4c-1,1.2-2.1,2.4-3.5,2.8c-2.4,0.9-5.2,0.5-7.5-0.6c-3.6-1.8-6.5-4.9-8.7-8.2
		c-2.5-3.9-4.1-8.4-4.5-13.1c-0.2-2.8,0.1-5.6,1.3-8.1c1.6-3.2,5.2-5.2,8.7-4.8c3.8,0.4,7.6,1.4,11.2,2.6
		c-4.2-8.7-9.6-16.9-15.9-24.2c-6.3-7.4-13.9-13.7-22.3-18.5c0.7,2.4,1.3,4.8,1.4,7.3c0.1,2.1-0.7,4.1-1.9,5.7
		c-1.6,2.2-4.1,3.4-6.7,3.9c-4.3,0.8-8.7,0-12.9-1.2c-4.1-1.3-8.1-2.9-11.4-5.6c-2.1-1.7-3.8-4.1-4.1-6.8c-0.3-2.5,0.3-5.1,1.9-7
		c1.8-2.1,3.9-3.9,6.1-5.6c-4-0.4-8-0.6-12-0.2c-3,0.3-6,0.7-8.6,2.2c-2.2,1.2-4.2,2.5-6.3,3.8c-6.7,4.4-13.2,9-19.2,14.3
		c2.8-1,5.7-1.6,8.6-1.9c6.3-0.5,12.6,0.4,18.6,2.1c5.8,1.6,11.5,4,16.8,6.9c9.4,5.1,18,11.6,25.6,19c7.4,7.3,13.6,15.9,18.5,25.1
		c4.4,8.4,7.8,17.5,9.3,26.9c0.9,6.1,1,12.4-0.7,18.4c6.7-6.4,13-13.3,18.5-20.9C567.9,367.6,569.1,366.1,569.4,364.2 M542.5,393.9
		c2.9-4.5,3.7-10.1,3.6-15.4c-0.2-9.5-3.1-18.7-7-27.3c-4.2-9.1-9.6-17.6-16.2-25.1c-3.6-4.1-7.8-7.8-12-11.2
		c-8.5-6.9-17.8-12.9-28-16.7c-7.1-2.6-14.8-4.2-22.4-3.7c-4.7,0.4-9.4,1.5-13.4,4c-2.6,1.5-4.3,4.2-5.5,7c3.9-0.9,7.8-1.5,11.7-1.8
		c6.8-0.5,13.8-0.3,20.4,1.8c11,3.3,21.2,9,30.1,16.2c16,13,28,31,32.9,51.1c0.5,1.6,0.3,3.3,0.2,4.9c-0.3,8.4-2.8,16.7-7,24
		c3.3-0.4,6.2-2.2,9-4C540.6,396.7,541.6,395.3,542.5,393.9 M117.7,452.7c7.8-1.8,16-2.3,24-1.4c11.4,1.3,22.3,5.5,32,11.6
		c9.1,5.9,16.5,14.1,22.1,23.3c3.3,5.6,6,11.6,7.4,17.9c2.6,0.8,5.2,1.9,7.6,3.3c1.5-2.4,3.1-4.7,4.4-7.2c-4.1-3.4-7.1-8.1-9.1-13
		c-4-1.4-7.2-4.5-9.2-8.1c-2.6-4.9-3.7-10.7-2.3-16.2c0.7-2.3,1.8-4.8,4.1-5.7c2.9-1.1,6-0.7,8.9-0.1c-3.1-5.1-7.4-9.4-12-13.1
		c-0.7,0.8-1.4,1.9-2.6,1.9c-1.9-0.3-3.3-1.7-4.6-2.9c-2-2-3.7-4.2-5.1-6.6c-0.3-0.6-0.9-0.8-1.4-1c-5.6-2.7-11.5-4.8-17.5-6.2
		c1.7,3.1,3.3,6.4,4.1,9.9c0.3,1.6,0.6,3.4-0.3,4.9c-1.1,2.1-3.2,3.3-5.2,4.2c-3.6,1.5-7.6,1.9-11.5,1.6c-4.5-0.4-9.1-1.5-12.9-4.1
		c-2.2-1.5-4.2-3.6-5-6.3c-0.5-1.6-0.5-3.5,0.3-5c1.2-2.3,2.8-4.2,4.4-6.2c-4.1,0.6-8.1,1.8-12,3.3c-1.6,0.7-3.3,1.3-4.7,2.4
		c-4.6,3.6-8.2,8.3-11.4,13.2C112.8,449,115.4,450.7,117.7,452.7 M160.7,459.2c-12.7-5.1-26.9-6.9-40.3-4.1c2.8,2.7,5.5,5.6,7.6,8.9
		c4.7-1,9.6-0.9,14.4-0.3c5.4,0.7,10.7,2.1,15.8,4.2c10.7,4.3,20,11.8,27.2,20.7c3.3,4.2,6.2,8.9,7.9,14c2.3,0.1,4.5,0.4,6.8,0.9
		c-2.1-9.2-6.8-17.6-12.8-24.8C180.2,469.9,171,463.3,160.7,459.2"/>
	<path fill="#EACC18" d="M646.8,538.1c4.1,1.8,7.7,5,9.4,9.3c1.4,3.2,0.9,6.8-0.2,9.9c-1.7,4.6-4.8,8.4-8,12
		c-10.1,11-23.1,19.2-37.2,24c-6.3,1.9-13,2.5-19.6,1.9c-4.9-0.5-10-1.7-14-4.7c-2.6-1.9-4.5-4.8-4.8-8c-0.5-5.7,1.3-11.3,4.1-16.2
		c2.7-4.8,6.3-8.9,10.3-12.6c8.3-7.5,18.6-12.7,29.3-15.9c3.6-1,7.2-1.8,10.9-2.2C633.6,535,640.6,535.3,646.8,538.1"/>
	<path fill="#C6CDD3" d="M484.4,197.7c1.4,1,2.2,2.6,3.2,4c0.9,1.3,1.6,2.7,2.5,4c-5.3-0.4-10.5-0.6-15.8-0.7c0-0.2,0.1-0.4,0.2-0.6
		c2.4-2.1,5-4.1,7.7-5.8C482.8,198.2,483.5,197.6,484.4,197.7 M467.1,227.9c-2.5,6.1-5.3,12.1-8.4,17.9c4.8-0.5,9.5-3.8,10.9-8.6
		C470.4,234,469.6,230.3,467.1,227.9 M518.4,274.6c-0.9-2.2-1.8-4.5-3.3-6.3c-0.3-0.5-0.9-0.5-1.4-0.2c-2.4,1-4.6,2.5-6.8,3.9
		c-3.9,2.6-7.8,5.4-10.9,8.9c-1.3,1.5-2,3.6-1.4,5.6c0.7,2.2,2.4,3.9,4.2,5.2c2.3,1.6,4.9,2.7,7.5,3.4c3.1,0.8,6.3,1.4,9.5,1.1
		c2-0.2,4.1-1,5.2-2.8c1.4-2.2,1.2-4.9,0.7-7.2C521.1,282.1,519.8,278.3,518.4,274.6 M450.5,275.2c-0.5,0.9-0.7,1.9-0.9,2.8
		c-0.8,3.8-1.1,7.7-1.4,11.5c5.8-5.3,12.3-9.9,18.9-14.3c-4.6-0.5-9.3-1.4-14-1.1C452.2,274.3,451,274.2,450.5,275.2 M431,302.4
		c0.2,2,1.1,4.2,2.9,5.1c0.5,0,1-0.3,1.6-0.4c1.3-4.9,4.5-9.1,7.8-12.8c0-2.2,0.1-4.4,0.3-6.6c-2.6,0.2-5.1,1-7.1,2.6
		C432.8,293.2,430.6,297.8,431,302.4 M152.7,421c-1.1,0.3-2,1.1-2.9,1.8c-3.8,3.2-7.1,6.9-10.1,10.8c-0.7,1-1.5,1.9-1.9,3.1
		c-0.1,1.6,0.7,3.1,1.7,4.2c2.4,2.7,5.9,4.2,9.3,4.9c3.4,0.6,6.9,0.7,10.2-0.3c1.9-0.6,3.8-1.7,4.9-3.4c0.9-1.3,0-2.9-0.4-4.2
		c-2.1-5.1-4.8-10.1-8.1-14.6C154.7,422.4,154,421.1,152.7,421 M111,437.9c-3.3,0.1-6.6,0.3-9.9,0.9c-0.9,0.2-1.9,0.4-2.7,0.8
		c-0.6,0.3-0.6,1.2-0.8,1.8c2.8,1,5.6,2.1,8.3,3.5C107.5,442.5,109.2,440.2,111,437.9 M202.3,461.4c-1,0.1-2.2,0.3-2.7,1.3
		c-1.3,2.1-1.7,4.6-1.6,7.1c0.3,4.8,2.6,9.6,6.6,12.4c-1.3-7,0.2-14.1,3.2-20.5C206,461.4,204.1,461.2,202.3,461.4"/>
	<path fill="#BD773D" d="M371.5,176.1c1.5,2.8,4.5,4.4,7.4,5.5c6.3,2.3,13.1,2.9,19.8,3c6.2,0.1,12.3-1,18.2-2.9
		c2.9-1,5.8-2.2,8.3-4c1.8-1.3,3.4-3,3.9-5.2c0.4-1.4,0.1-2.9-0.1-4.3c3.3,1.5,6.3,3.7,8.6,6.5c-4.4,3.7-8.4,7.7-12.1,12
		c-2.6,3-5,6.2-7.5,9.3c-5.5,1.6-11.3,2.2-17.1,2.4c-7.9,0.2-15.9-0.6-23.5-2.9c-4.2-1.4-8.5-3.3-11.7-6.5c-2.2-2.2-3.4-5.4-2.8-8.5
		c0.8-4.5,4.2-8.1,8.1-10.2C370.8,172.2,370.5,174.3,371.5,176.1 M279.5,239c-2.1,2.1-2.6,5.2-2.2,8.1c5.1,1.6,9.8,4.4,13.2,8.5
		c1.1,1.4,2.3,2.8,2.9,4.6c-0.9,0-1.8-0.4-2.7-0.5c-1.1-0.2-2.3-0.1-3.4,0c2.6,1.8,4.7,4.3,6.1,7.1c0.7,1.3,1.1,2.7,1.7,4
		c4.7,4.3,10.7,7.1,16.8,8.9c5.4,1.5,11.2,2.4,16.8,1.5c3.3-0.5,6.7-1.8,8.7-4.5c1.3-1.7,1.5-3.9,1.3-6c-0.3-2.8-1.3-5.6-3.1-7.8
		c-2.3,2.9-6,4.5-9.7,4.7c-5.4,0.2-10.6-1.5-15.5-3.7c-5.4-2.4-10.6-5.5-14.6-9.8c-2.9-3.1-5.5-6.7-6.4-11c-0.6-2.5-0.2-5.3,1.6-7.2
		C287,235.2,282.4,235.9,279.5,239 M170.2,271.9c2.4-0.2,5,0.1,7.2,1.1c3.7-7,8.4-13.4,13.9-19.1c0.2-0.2,0.6-0.6,0.1-0.7
		c-1.6-0.3-3.2-0.1-4.6,0.4c-3.3,1.1-6.2,3.2-8.6,5.7C174.6,262.8,171.9,267.2,170.2,271.9 M546.6,201.8
		c4.1,9.2,10.7,17.1,18.7,23.2c5.5,1.3,10.9,3,16,5.5c3.6,1.8,7,4,10.1,6.5c1.3,0,2.6,0,3.8-0.5c1.7-0.8,3-2.4,3.4-4.3
		c0.6-2.3,0.3-4.8-0.2-7.1c-0.8,0.4-1.7,0.6-2.6,0.6c-2.7-0.1-5.2-1.1-7.7-2.1c-4.5-2.1-8.7-4.8-12.7-7.7
		c-4.7-3.5-9.1-7.5-12.4-12.3c-2.9-4.2-5.3-8.9-6.3-13.9c-0.4-2.2-0.6-4.6,0.6-6.6c-2.6-1.4-5.7-2.3-8.6-1.3c-2,0.6-3.6,2.3-4.3,4.2
		c-0.9,2.4-0.7,5.1-0.3,7.6C544.5,196.3,545.4,199.1,546.6,201.8 M627.5,297.7c-2.1,2.9-3.2,6.4-4,9.8c-1.8,8.7-1.2,17.8,0.5,26.5
		c1.4,7.1,3.7,14.1,7.9,20c1.9,2.6,4.2,5.1,7.2,6.4c1.8,0.8,4,0.3,5.5-0.9c1.9-1.5,2.9-3.8,3.4-6.1c-2.4,0.2-4.1-1.7-5.3-3.5
		c-2.7-4.1-4.3-8.8-5.7-13.5c-1.1-4.1-2-8.2-2.5-12.4c-0.7-5.7-0.3-11.5,1-17.1c0.8-3,1.8-6.1,4-8.3c-1.7-2.4-4.5-4.2-7.5-3.9
		C630,294.9,628.5,296.3,627.5,297.7"/>
	<path fill="#F4E1A1" d="M385.6,178.1c-3.1-0.8-6.5-1.6-8.9-3.9c-1.4-1.3-0.9-3.3-0.7-4.9c0.9-5.6,2.6-11,4.3-16.3
		c2.2-6.6,4.7-13.1,7.3-19.5c2.2-5.2,4.4-10.3,7.1-15.2c0.7-1.2,1.3-2.4,2.2-3.3c0.7-0.6,1.3,0.5,1.7,1c3.1,4.3,5.5,9.1,8,13.8
		c5.4,10.7,10.5,21.5,14.7,32.7c0.9,2.7,1.9,5.5,2.3,8.4c0.2,1.5-0.9,2.7-2,3.5c-2.3,1.6-5.1,2.5-7.8,3.3
		C404.6,180,394.9,180,385.6,178.1 M509.2,129.6c-0.5-2.6-1-5.2-2-7.6c-0.3-0.5-0.6-1.4-1.3-1.1c-2.1,0.9-3.8,2.6-5.6,4.1
		c-7.8,6.9-14.9,14.5-21.9,22.2c11.8,2.4,23.3,5.8,34.6,10.1C512,148,510.9,138.8,509.2,129.6 M313.4,186.5
		c0.5-3.5,0.9-7.1,1.1-10.6c0.2-2.5,0.1-5,0.5-7.4c0.2-1.1,0.4-2.4,1.5-3c1.6-0.7,3.4-0.3,4.9,0.4c3,1.4,5.3,3.9,7.5,6.3
		c4.5-3.2,9.2-5.9,14-8.5c-4.3-4.2-8.7-8.2-13.2-12c-4.2-3.5-8.3-7.1-12.8-10.2c-1.3-0.8-2.5-1.8-4-2.1c-0.7,0-0.8,0.8-1,1.3
		c-0.8,3-1.1,6.1-1.5,9.1c-0.5,4.8-0.7,9.6-0.9,14.4c-0.2,6.8-0.3,13.5,0.2,20.3C310.9,185,312.2,185.7,313.4,186.5 M310,259
		c4.8,2.5,10.3,4.1,15.7,3.5c2.6-0.4,5.4-1.4,6.6-3.9c5.3-9.2,7.8-19.9,8.2-30.5c0.3-7.1,0.3-14.3-1.4-21.2
		c-1.4-6.5-3.7-12.8-6.5-18.8c-2.2-4.6-4.6-9-7.6-13.1c-1.2-1.5-2.3-3-3.9-4c-0.5-0.3-1.3-0.7-1.7-0.1c-0.5,1.7-0.3,3.6-0.4,5.4
		c-0.3,11.5-1.3,23.1-4.8,34.1c-3.2,10.6-8.8,20.8-17.4,28.1c-1.2,0.9-2.1,2.3-2.1,3.8c-0.1,2.7,1.4,5.2,3,7.2
		C301.1,253.4,305.5,256.5,310,259 M162.4,275.6c0.5-1.2,0.8-2.5,1.4-3.8c3.1-8,8.3-15.4,15.7-19.8c-4.8-3.8-9-8.5-12.3-13.7
		c-5.8-9.3-8.5-20.6-7.1-31.5c0-1,0.4-2-0.1-2.9c-0.7-0.8-1.6,0-2.1,0.6c-3.1,3.3-5.3,7.4-7.1,11.5c-5,11.6-6.7,24.8-4.1,37.3
		c1.9,9.5,6.2,18.5,12.7,25.7C160.1,277.8,161.2,276.7,162.4,275.6 M566.7,199.7c4.8,7.2,11.6,13,19.1,17.2c2.2,1.2,4.4,2.3,6.8,2.9
		c0.8,0.2,1.9,0.4,2.6-0.3c2.2-2.1,3.7-4.8,5.2-7.4c4-7.8,7.1-16,9.8-24.3c1.8-5.7,3.6-11.4,4.5-17.4c0-0.7,0.4-1.9-0.6-2.1
		c-1.7-0.2-3.4,0.1-5,0.3c-1.6,0.3-3.2,0.6-4.8,0.9c-10.3,2.3-20.5,5.5-30.3,9.6c-4.1,1.8-8.3,3.8-11.6,6.8c-1,0.8-0.8,2.3-0.6,3.4
		C562.7,193.1,564.6,196.5,566.7,199.7 M649.2,255.2c1.2-1.7,2.6-3.3,3.3-5.3c0.2-0.7-0.6-1-1-1.2c-1.9-0.6-4-1-6-1.3
		c-9.7-1.3-19.4-1.8-29.1-2.1c5.6,10,10.4,20.4,14.4,31C637.1,269.6,643.4,262.6,649.2,255.2 M640.5,331.7c1,3.8,2.2,7.6,4,11.1
		c0.9,1.6,1.8,3.2,3.2,4.3c0.5,0.4,1.2,0.8,1.9,0.5c3.2-0.9,6.3-2.4,9.3-3.9c6.1-3.2,11.9-7,17.5-10.9c4.7-3.4,9.4-6.8,13.7-10.7
		c1.1-1.1,2.3-2.1,3-3.5c-0.7-0.9-1.8-1.4-2.8-1.9c-4.5-2.3-9.2-4.1-14-5.8c-7-2.5-14.1-4.7-21.3-6.2c-3.9-0.8-7.8-1.5-11.8-1.1
		c-1.2,0.2-1.8,1.5-2.3,2.5c-1.5,3.6-2,7.6-2.2,11.5C638.7,322.4,639.4,327.1,640.5,331.7 M713,394.6c2.6,0.4,5.2-0.1,7.8-0.7
		c3-0.7,5.6-2.4,7.9-4.5c1.1-1,2.2-2.2,2.5-3.7c0.2-1.3-0.7-2.4-1.5-3.4c-2.2-2.8-4.9-5.1-7.5-7.4c-3.7-3-7.4-6.1-11.6-8.4
		c-0.5-0.2-1.2-0.8-1.7-0.2c-0.8,1.7-0.6,3.6-0.7,5.4c0.1,7,0.7,14,2,20.9C710.4,393.8,711.8,394.4,713,394.6 M685.8,404.2
		c1.1-6.1,0.8-12.4,0.4-18.6c-0.3-3.4-0.5-7-1.6-10.3c-0.2-0.8-1.1-0.5-1.6-0.2c-1.9,1-3.6,2.5-5.2,4c-2.5,2.2-4.8,4.6-6.9,7.2
		c3.1,4.1,4.9,9,5.3,14.1C679.6,401.1,682.8,402.5,685.8,404.2"/>
	<path fill="#FFF932" d="M589.2,261.1c-0.9-3.6-1.1-7.3-1-10.9c0-1.1,0.2-2.2-0.2-3.2c-1,1.2-1.2,2.8-1.5,4.3
		c-0.7,4.1-0.9,8.4,0.3,12.4c0.7,2.2,2,4.1,3.9,5.4c-0.6,3.3-1,6.7-0.6,10.1c0.2,1.7,0.6,3.4,1.5,4.9c1,1.8,2.9,3.1,4.9,3.1
		c1.6-0.1,2.8-1.5,3.5-2.8c0.8-1.6,1.4-3.3,1.1-5.1c-0.7,1-1,2.2-2,3c-0.9,0.9-2.3,1.6-3.6,1c-1.6-0.6-2.3-2.3-2.7-3.8
		c-0.7-3.1-0.6-6.4-0.4-9.6c1.1,0.3,2.2,0.6,3.3,0.1c0.9-0.3,1.5-1,2-1.8c0.3,1.3,0.4,2.6,1.1,3.8c0.7,1.5,2.2,2.7,3.8,2.7
		c1,0,1.8-0.6,2.6-1.3c1.2,11.2-0.1,22.6-3.3,33.4c-2.7,9-6.7,17.7-12,25.5c-3.9,5.8-8.5,11.1-13.8,15.6c-0.3-3.1-0.9-6.3-1.5-9.4
		c0.6-2.2,1.4-4.3,1.6-6.6c0.1-0.6-0.3-1.1-0.8-1.5c-1.2-0.9-2.5-1.4-3.8-2c-3.2-8.2-7.7-15.9-12.8-23c-5.6-7.7-12-14.8-19.5-20.7
		c-5.1-4-10.7-7.4-16.5-10.2c-0.3-0.2-0.7-0.3-0.8-0.6c-1.3-2.9-2.7-5.8-4.5-8.4c-0.5-0.7-1-1.5-1.9-1.8c-1.7,0.1-3.3,1-4.8,1.7
		c-2,0.9-3.8,2.1-5.7,3.1c-2.6-0.4-5.1-0.8-7.7-0.9c8-7.2,16.7-13.6,26.2-18.6c5-2.6,10.1-4.9,15.3-7.1c1.1-0.5,2.2-0.8,3.2-1.5
		c-1.9-0.4-3.9,0-5.8,0.2c-6.4,1-12.5,3.2-18.4,5.8c-10.5,4.9-20.4,11.4-28.3,19.9c-0.5,0.4-0.8,1.3-1.6,1.2
		c0.3-7.3,1.4-14.6,3.4-21.6c1.5-5,3.2-10,6.2-14.3c1.1-1.4,2.5-3.2,4.5-3.2c15.3-1.3,30.8-1.9,46.2-0.5c10.2,1,20.6,3,29.9,7.6
		c4.8,2.4,9.2,5.5,13.1,9.2c2.5,2.5,4.9,5.1,6.8,8.1c3.3,5.1,5.3,10.9,6.4,16.8c0.4,1.2-0.5,2.5-1.6,2.8c-1.1,0.1-1.9-0.7-2.4-1.6
		c-1.5-2.7-1.4-5.8-2.3-8.6c-0.7,1-0.8,2.4-1.7,3.3c-1.2,1.3-3.3,1.2-4.6,0.2C590.4,264.7,589.7,262.9,589.2,261.1 M357.5,311.5
		c2-0.8,4.2-1.4,6.4-1.3c2.9,0.1,5.7,1.4,7.7,3.6c1.5,1.6,2.3,3.6,3,5.7c2.2-1.1,4.5-1.9,6.7-2.6c0.6-2.1,0.8-4.3,0.8-6.5
		c-7-0.2-14-1.7-20.7-3.9c-5.2-1.8-10.3-4-14.6-7.4c0.1,1.3,0.3,2.7,0.4,4C351,305.2,354.5,308.1,357.5,311.5 M388.3,309.9
		c0,1.7-0.1,3.5-0.3,5.2c7.3-1.4,14.8-1.8,22.2-1.3c-0.4-3.9-0.5-7.8-0.4-11.6C403.2,306.1,395.9,308.9,388.3,309.9 M520.2,405.1
		c6.4-8.1,10.4-18.1,11-28.4c0-1.5,0.3-3-0.2-4.4c-3.6-14.5-11.6-27.6-21.9-38.3c-7.7-8.1-16.9-14.9-27.1-19.6
		c-5.9-2.7-12.1-4.9-18.6-5.4c-12.7-1.3-25.5,2.4-36.8,8.1c2.2,1,4.4,2,6.2,3.6c0.6,0.5,1.2,1,1.5,1.8c-1.5,0-2.9-0.5-4.4-0.8
		c-5.8-1.3-11.8-1.9-17.8-2.2c-8.3-0.2-16.6,0.2-24.7,2c-4.7,1.1-9.5,2.6-13.5,5.3c-1.7,1.1-3.2,2.6-4.5,4.3
		c-2.3,3.1-4.3,6.6-5.9,10.1c-2.1,4.5-3.7,9.2-4.4,14.1c-0.5,3.7-0.4,7.6,1.3,11c2.4-2.1,5.6-3.1,8.7-3.4c7.2-0.8,14.7,2.6,18.8,8.6
		c1.2,1.9,2.1,4.3,0.9,6.4c4.3-1.3,7.8-4.6,10.2-8.4c3-4.8,4.6-10.3,5.9-15.7c0.2-0.8,0.3-1.6,0.9-2.2c1.1,2.7,1.4,5.7,1.4,8.6
		c2.4-0.2,4.9-0.7,7-1.8c3.4-7.2,8.1-13.9,14.2-19.2c4.2-3.6,9.3-6.5,14.8-7.2c5.9-0.9,11.9,1.5,16.6,4.9c3.7,2.7,6.9,6.7,6.8,11.5
		c-0.7-0.2-1-1-1.4-1.5c-4.1-5.7-11.2-8.5-18-8.8c-3.2-0.3-6.5,0.6-9.3,2.1c-4.2,2.1-7.6,5.4-10.6,8.9c-3.9,4.8-7.1,10.2-9.1,16
		c-1.7,4.9-2.7,10.2-1.9,15.4c0.4,2.9,1.6,5.7,3.5,7.9c2.2,2.3,4.8,4.3,7.7,5.8c4.6,2.3,10.1,3.6,15.1,1.9c4.2-1.5,7.7-4.5,10.7-7.8
		c3.9-4.3,7.1-9.2,9.7-14.4c0.4-0.7,0.7-1.6,1.5-2c0.5,3.3-0.3,6.8-1.3,9.9c1.5,0.2,3.1,0.2,4.7,0.2c0.5,0.1,0.7-0.3,1-0.6
		c2.3-2.3,4.9-4.2,7.9-5.4c4.4-1.8,9.5-1.6,13.7,0.4c0.3,0.2,0.8,0.4,0.8,0.9c-1.1,0.1-2.3,0.1-3.4,0.2c-4,0.4-7.8,2.2-10.9,4.7
		c-4.2,3.3-7.4,7.8-10.3,12.3c-3.2,5.2-5.9,10.9-7.1,17c-1.1,5.4-0.7,11.3,2.3,16c1.4,2.4,3.8,4.1,6.3,5.4c4.3,2.2,9.2,3.3,14,3.4
		c3,0.1,6-1.2,8.4-3c3.6-2.7,6.5-6.2,8.9-10c2.5-3.8,4.6-7.9,6.3-12.1c0.7-1.5,1-3.2,2-4.6c1.3,3,0.6,6.4-0.1,9.5
		C512.5,413.4,516.7,409.5,520.2,405.1 M360.9,392.9c-1.5,5.7-1.3,11.7-0.5,17.5c1,6.9,3.1,13.7,6.3,19.9c2,3.8,4.4,7.5,7.9,10.2
		c2.3,1.8,5.2,2.9,8.1,2.6c0.3-3.4,1.9-6.6,4-9.2c3.3-4.1,8.4-6.2,13.5-7.2c2.4-0.4,5.1-0.7,7.3,0.6c1.2-3.6,0.6-7.6-0.8-11.1
		c-1.8-4.9-5-9.2-8.4-13.1c-0.7-1-1.8-1.8-2-3.1c4.6,0.8,8.4,3.9,11.1,7.5c2.1-0.3,4.1-1,5.8-2.3c-1.2-5.2-1.2-10.7-0.2-16
		c-4.1-7.5-3.7-16.6-1.2-24.6c-1.7,0.6-3.5,1-5.3,0.9c-1.2,5.1-3.8,9.9-7.7,13.5c-3.9,3.8-9.5,5.5-14.9,5.4
		c-3.6,3.8-7.6,7.2-12.2,9.6c-1.5,0.7-3.4,1.6-4.9,0.5c-1.9-1.5-3-3.8-4.2-5.9C361.8,389.9,361.3,391.4,360.9,392.9 M748.7,376.8
		c-1.4-0.4-2.9-0.1-4.3,0.2c-3.4,0.8-6.8,1.9-10.1,3c0.9,1.2,1.9,2.5,2.2,4c0.2,2.2-1,4.3-2.3,6c-3.7,4.4-9.1,7.3-14.7,8.6
		c-3.1,0.7-6.3,1.3-9.5,0.8c-1.5-0.2-3.1-0.7-3.9-2c-0.7-1.4-0.9-3-1.2-4.5c-4.5,2.1-9,4.4-13.4,6.8c-0.2,2.6-0.5,5.1-1,7.6
		c2.9,2.4,5.6,5.2,7.6,8.4c0.6,1,1.3,2,1.4,3.1c-1-0.1-1.7-0.8-2.4-1.3c-6.2-5.1-13.5-8.7-21.3-10.6c-1.1,5.9-4.1,11.3-8.2,15.6
		c2.8,7.4,4,15.3,3.9,23.1c-0.1,12.3-3.2,24.5-8.1,35.8c3.2,0.6,6.3,2.1,8.9,4.1c3.4-1.2,7.1-1.1,10.6-0.5
		c17.8-12.8,32.5-29.6,44.3-48.1c6.6-10.4,12.3-21.4,16.8-32.9c2.2-5.8,4.2-11.7,5.4-17.9c0.4-2.4,0.9-4.9,0.5-7.4
		C749.8,378,749.5,377,748.7,376.8 M576.9,392c-3.9-3.7-7.6-7.7-11-11.8c-0.2,0.9-0.1,1.8-0.1,2.7c0,4.7-0.4,9.4-0.8,14.1
		C568.9,395,572.9,393.4,576.9,392 M461.5,385.6c-3,5.7-7.4,10.8-12.9,14.2c-2.7,1.6-5.7,3.1-9,3c-2,2.2-4.3,4.1-6.8,5.8
		c5.2,6.9,12.9,12,21.4,14c-1.7-6.7-0.8-13.8,1.6-20.2c2.2-6.1,5.6-11.8,9.5-17C464,385.6,462.7,385.6,461.5,385.6 M559.5,402.2
		c0.5-0.8,0.5-1.8,0.7-2.7c0.6-4.4,0.7-8.9,0.5-13.3c-4.8,5.1-9.9,10-15.7,14c4.1,1,8.3,1.9,12.5,2.2
		C558.2,402.5,559,402.6,559.5,402.2 M687,519.2c-1.7-1.6-2.9-3.7-3.9-5.9c-0.9,0.7-1.8,1.5-2.7,2.1c-0.5,2.4-1.3,4.7-2.7,6.7
		c-2.7,4.1-7.9,6.5-12.8,5.6c0.3-1,1.4-1.3,2.2-1.8c3-1.6,5.7-4.2,6.8-7.5c-2.8,0.7-5.6-0.1-8.1-1.4c-2.9-1.6-5.5-3.9-7.2-6.8
		c-1.1-2-1.5-4.2-1.6-6.5c-1.2,1.8-2.6,3.6-4.2,5.1c-0.5,0.4-1.1,0.8-1.1,1.5c-0.7,3.9-3.2,7.6-7,9.1c-1.6,0.6-3.4,1.3-5.1,1.1
		c0.2-1,1.1-1.5,1.8-2.2c1.6-1.5,3-3.2,3.8-5.2c-3.9,0.9-8.1,0.7-11.7-1c-4.5-2.1-8.3-6.4-9-11.4c-0.5-3.9,0.4-8,2.4-11.4
		c1.1-1.8,2.5-3.4,4.5-4.2c2.3-0.8,4.7-1.1,7.1-1.1c-1.8-1.3-4-2-6.2-2.2c-3.8-0.4-7.6,0.2-11.2,1.1c-3,0.8-5.9,1.7-8.6,3.1
		c-0.7,0.3-1.5,0.8-2.3,0.6c0.9-2.3,2.9-3.8,4.8-5.2c3.4-2.3,7.4-3.8,11.4-4.4c5.1-0.8,10.6-0.2,15.1,2.4c2.6,1.5,5,3.6,6.2,6.4
		c4.6,1.7,9.2,4.1,12.1,8.1c0.7-1,1.6-1.9,2.8-2.3c2.1-0.7,4.4-0.9,6.6-0.9c-3.9-4.4-10.2-5.7-15.8-5.8c-0.7-0.1-1.7,0.2-2.1-0.5
		c1.9-1.7,4.4-2.5,6.8-2.9c5.1-13.7,8.5-28.4,6.9-43.1c-0.8-6.6-2.6-13.1-5.8-18.9c-0.1,2.3-0.9,4.7-2.7,6.2
		c-1.1,1.1-2.6,1.5-4.1,1.5c-0.2,3.9-0.1,8.1,2.2,11.4c1.9,2.8,6.7,2.9,8.5-0.1c0.8,2.9-2.1,5.9-5,5.6c-1.9-0.1-3.5-1.4-4.7-2.8
		c-1.9-2.5-2.6-5.6-2.8-8.6c-1.2,2.2-3,4.3-5.5,5.1c-3.8,1.3-8.4-0.4-10.4-3.9c-1.8-3-2.5-6.8-1.9-10.2c0.6,0.5,0.7,1.4,0.9,2.2
		c0.9,2.7,2.1,5.4,4.3,7.2c2.6,2.2,6.9,2,9.3-0.4c1.5-1.5,2.2-3.6,2.4-5.7c-1.5-0.5-2.8-1.2-3.9-2.3c-2.5-2.5-3.7-6.1-4.2-9.5
		c-0.7,1.7-1.6,3.4-3,4.6c-1.2,1-2.9,1.5-4.5,1.3c-2.2-0.2-4.4-0.9-6-2.5c-2.5-2.3-3.5-5.8-3.7-9.1c-0.1-2.2,0-4.6,0.8-6.7
		c0.5,0.8,0.3,1.7,0.5,2.6c0.4,3.5,1.4,7.2,4,9.7c1.8,1.7,4.5,2.4,6.9,1.7c2-0.7,3.4-2.4,4.2-4.3c0.6-1.2,0.9-2.5,1.6-3.6
		c0.4,3.5,1,7.1,2.6,10.2c1,1.9,2.5,3.8,4.7,4.5c1.9,0.6,4.4,0.4,5.8-1.2c1.4-1.7,1.8-4,1.7-6.1c-0.2-0.4-0.4-0.7-0.7-1.1
		c-5.7-8.2-14.1-14.4-23.4-18c-6.9-2.7-14.2-4.1-21.6-4.3c-9.4-0.3-18.7,1.1-27.7,3.7c-15.4,4.5-29.7,12.5-42.3,22.3
		c-3.3,2.5-6.4,5.3-9.4,8.1c-0.8,0.6-1.4,1.5-2.5,1.5c0.3-1.4,1.2-2.6,1.9-3.8c4.5-7.2,10.9-13.1,17.7-18.1
		c-3.8-0.4-7.6-0.9-11.2-1.8c-3.5,1.7-7.4,2.9-11.4,2.5c-5.7,7.6-13.2,14.3-22.4,17.3c-1.7,2.8-3.4,5.5-5.5,8
		c5.8,4.6,11.5,9.2,16.7,14.5c6.3,6.3,11.8,13.2,17.1,20.3c2.5-6.6,5.4-13.4,10.7-18.3c0.7-0.5,1.3-1.3,2.2-1.3
		c-0.3,1.5-1.3,2.7-1.9,4.1c-4.6,9.4-7.4,19.6-9.1,29.8c-1.4,8.5-2,17.1-1.1,25.7c0.8,7.6,2.7,15.2,6,22.1c1.6-4.1,3.5-8.2,6.5-11.5
		c0.7-0.7,1.3-1.6,2.3-1.9c-0.2,2-1.2,3.7-1.9,5.6c-2.9,7.7-4.6,15.9-5.1,24.2c-0.4,7,0.1,14,1.9,20.8c1.7,6.1,4.5,12,8.7,16.8
		c3.9,4.6,9,8.2,14.6,10.4c5.2,2,10.6,3.2,16.2,3.6c-2.6-0.7-5.2-1.7-7.5-3.1c-3.8-2.4-6.7-6.4-7.3-10.9c-0.9-6,1-12,3.7-17.2
		c5.3-9.9,13.8-17.8,23.4-23.5c10.1-6,21.5-10.2,33.3-10.9c7.1-0.4,14.5,0.5,20.9,3.8c4.2,2.1,8.1,5.5,9.9,9.9
		c2,5,1.2,10.8-1.2,15.5c6.8-4.2,13.4-8.8,18.6-14.9c3.5-4.1,6.4-8.7,8.6-13.6c5.2-1.1,9.8-4.6,12.1-9.4
		C693.4,523.1,689.6,521.8,687,519.2 M152.1,416.4c1.2-0.6,2.5,0.1,3.4,0.9c2.1,1.8,3.7,4,5.3,6.2c6.2,0.8,12.4,2.3,18.3,4.5
		c-0.6-1.4-0.9-2.9-1.6-4.2c-2.4-0.3-4.7-0.6-7-1.3c-8-2.4-15.3-6.5-21.8-11.6c-4.2,4-8.3,8.1-11.5,12.8c2-0.3,4.1-0.4,6.1-0.7
		C146,420.6,148.7,417.8,152.1,416.4 M207.7,511.7c-5.5-3.8-11.9-6.1-18.5-7.1c-0.9-0.2-2-0.2-2.7-0.9c0.5-0.4,1.1-0.6,1.8-0.8
		c-1.9-5.3-5.1-10-8.8-14.1c-4.3-4.7-9.3-8.7-14.8-12c-10.2-6-22.3-9.4-34.2-8.1c0.6,1.8,1.3,3.6,1.1,5.5c-0.9,0-1.4-1.1-2-1.7
		c-5.3-7-12.1-13-19.4-17.8c-3.9-2.6-8-5.1-12.5-6.8c-6.8-2.6-14.2-3.7-21.5-2.8c-5.4,0.7-10.7,2.6-14.9,6
		c-4.5,3.6-7.7,8.7-9.5,14.1c-1.8,5.8-1.5,12-0.2,17.9c1.3,5.8,3.6,11.4,7.1,16.2c2,2.8,4,5.7,6.9,7.7c1.8,1.3,4,2,6.2,2.2
		c-1.3-2.3-0.6-5.1,0.4-7.4c3.6-8,12.2-13.5,21-13.3c2,0.1,4,0.4,5.6,1.6c1.2,0.9,1.8,2.3,2.5,3.6c1.2-3,2.1-6.2,2-9.5
		c-0.2-7.6-3.8-14.8-8.5-20.6c-0.7-0.9-1.6-1.7-1.9-2.8c0.8,0,1.5,0.4,2.2,0.8c7.5,4.7,12.9,12.9,13.8,21.8c0.7,6.7-1.4,13.7-5.6,19
		c0.4,4.9,0.2,9.8-1.1,14.6c-0.5,1.5-1.1,3.1-2.4,4c-1.9,0.8-4,0.4-6,0.2c-5.6-1-11-3.1-15.9-6.1c-3.7,0.7-7.6,0.7-11.2-0.6
		c-2.8-1-5.2-2.7-7.4-4.7c-3.6,3.3-6.9,7.1-9.7,11.2c-3.2,4.8-6,10.2-7,16c-0.5,2.7-0.4,5.6,0,8.3c1.7,11.5,8.9,22.1,19.1,27.9
		c4.8,2.7,10.5,4.3,16.1,3.4c-0.8-1.8-0.7-3.8-0.2-5.7c1.1-4.1,3.7-7.8,7-10.5c2.6-2.2,5.4-4.1,8.7-5.1c1.7-0.6,3.6-0.8,5.4-0.2
		c0.8-2.5,1.3-5.2,0.9-7.8c-0.5-3.3-2.4-6.1-4.6-8.5c-3.6-4-7.9-7.2-12.6-9.8c-0.7-0.5-1.6-0.8-2-1.6c0.5-0.1,0.9-0.2,1.4-0.2
		c5.4,0.5,10.6,2.5,15.1,5.7c3.7-8.3,8.6-16,14.7-22.7c3.7-3.9,7.8-7.5,12.6-10c1.1-0.5,2.1-1.2,3.4-1.1c-0.1,0.9-0.9,1.5-1.5,2.1
		c-2.1,2-4.1,4.1-6.1,6.3c-7.6,8.7-14.3,18.4-18.9,29.1c1.7,1.8,3.1,3.8,3.8,6.2c1.3,3.7,1.8,7.7,0.9,11.5c-0.4,2.2-1.3,4.2-2.3,6.1
		c0.2,0.8,0.7,1.4,1,2.2c2.3,4.8,3.9,10,4.2,15.3c0,1.9,0,4.2-1.5,5.5c0.7,0.4,1.4,0.8,2.2,1.3c2.9-3.4,5.8-6.8,8.7-10.2
		c7.4,1.4,15.1,2,22.6,1.2c6.1-0.6,12.1-2.2,17.6-4.9c4.7-2.3,9-5.4,12.8-9.1c-0.2-1.8-0.2-3.6-0.2-5.4c-5.1-3.1-8.5-9-8.2-15.1
		c0.1-1.7,0.1-3.6,1.1-5.1l0.3,0.1c0.6,1.1,0.4,2.4,0.7,3.5c0.8,4.1,3.7,7.5,6.9,10c0.7-3.8,1.9-7.6,4-10.9c0.9-1.2,1.7-2.5,3-3.3
		c0.2,1.1-0.2,2.2-0.5,3.3c-1.2,4.9-2,10-1.9,15.1c0,4.9,0.9,10.2,4.3,14c0.3-0.8,0.8-1.5,1.5-2c1.8-1.4,4.2-1.8,6.4-2
		c6.1-0.4,12.4,1.1,17.6,4.3c2,1.3,3.9,2.9,5.2,5c4.5-3,7-8,8.6-12.9c2.2-7,2.9-14.4,2.2-21.6c-0.6-5.7-2.1-11.3-4.9-16.2
		C214.7,517.7,211.4,514.3,207.7,511.7 M397.1,535c-10.2-4.3-20-9.2-29.4-15c-9.4-5.9-18.3-12.5-26.1-20.3
		c-8.4,6.2-16.7,12.8-24,20.3c-7.3,7.5-13.7,16.2-16.5,26.4c-1.6,6.4-2.6,13.1-2.2,19.8c2.5-1.9,3.8-5,4.5-8c0.3-0.9,0.1-2,0.6-2.9
		c0.3,0.7,0.5,1.3,0.5,2.1c0.1,1.4,0.6,2.6,1.1,3.9c1,2.2,2.4,4.3,4.3,5.7c1.6,1.2,3.7,1.8,5.7,1.4c2-0.5,3.4-2.4,4.3-4.2
		c1.1-2.3,1.4-4.9,1.7-7.4c0.7,0.9,0.8,2.1,0.9,3.2c0.1,3-0.5,6.1-2.2,8.6c-1.2,1.8-3,3.2-5.2,3.4c-2.7,0.3-5.6-0.5-7.6-2.4
		c-2-1.8-3.1-4.5-3.6-7.1c-0.8,2.8-2.2,5.8-4.8,7.3c0.4,2.6,1,5.2,2,7.7c0.3,1.3,1.5,2,2.6,2.7c1.9,1.2,4.7,1.2,6.4-0.4
		c1.5-1.5,1.3-3.7,1.8-5.6c0.7,0.2,0.7,1,0.9,1.6c0.6,2.8-0.2,6-2.6,7.8c-1.7,1.3-4,1.1-5.9,0.5c2.3,3.9,5.2,7.4,8.4,10.5
		c5.6,5.5,12.2,9.6,19.1,13.2c8.1,4.3,16.7,7.7,25.3,10.9c0.7,0.3,1.4,0.5,1.8,1.1c-1.7,0.6-3.5,0.2-5.3,0
		c-7.3-1.1-14.4-3.4-21.3-6.1c-4.2,2.4-7.5,6.3-10.3,10.2c-3.9-0.1-7.8,1.6-10.5,4.3c-1.8,1.9-3,4.5-2.8,7.1c3.3,0.2,6.2,2,8.7,4.1
		c0.7-1.5,1.6-3,2.9-4.1c3.4-3.1,8.3-4.5,12.9-3.9c0.4,0.1,1,0.1,1.1,0.6c-1.3,0.9-2.9,1.1-4.3,1.8c-4.2,1.9-7.8,6-7.9,10.8
		c1.4-0.7,2.9-0.9,4.4-0.6c3.6,0.6,6.6,2.7,9.1,5.2c0.1-1.5,0.4-2.9,1-4.3c1.7-4,5.7-7,10-7.6c2.1-0.3,4.4,0.1,6.1,1.4
		c-0.9,0.8-2.2,0.8-3.2,1.4c-4.2,1.9-7.4,5.9-8.5,10.3c0.8-0.5,1.7-1.4,2.8-1.1c3.5,0.6,6.8,2.4,9.7,4.5c3.6,2.5,6.7,5.9,8.5,9.9
		c1.8,3.7,3,7.9,2.3,12.1c5.7,1.3,11.5,1.2,17.3,0.7c7.4-0.7,14.7-2.3,21.8-4.2c7.1-2,14.2-4.4,21-7.5c0.8-0.3,1.5-0.9,2.3-0.9
		c9.7-1,19.4-2.5,28.7-5.4c5.3-1.7,10.6-3.9,14.8-7.5c2.2-2,4-4.4,5.4-7c3.3-5.9,3.7-13.2,1.6-19.6c-2.1-6.4-6.6-11.6-11.4-16.1
		c-0.8-4.5-2-8.9-3.3-13.3c-2-6.2-4.2-12.4-7.2-18.2c-5.4,2.1-11,3.8-16.8,4.8c-5.6,1-11.4,1.4-17.1,0.4c-0.4-0.1-0.7-0.2-1-0.5
		c2.3-0.8,4.8-1.1,7.2-1.8c12.7-3.2,25.2-7.6,36.4-14.4c5.6-3.4,10.8-7.5,15.2-12.4c-18.7-1.1-37.3-3.9-55.4-8.7
		C414.8,541.8,405.8,538.6,397.1,535 M504.5,538.6c-6.2,3.6-13,6.1-19.9,7.8c17.2,0.8,34.6-0.4,51.4-4.2c0.3-1.6,0.6-3.2,0.9-4.7
		c-3.9-5.4-6.5-11.7-8.2-18.1C521.8,527.1,513.4,533.4,504.5,538.6 M104.7,601.9c2.1-1.1,4.6-1.8,7-1.4c0.6-2.9,0-6-1.6-8.5
		c-2.3-3.7-6.1-6.3-10.2-7.8c-5.4-0.1-10.8-1.1-15.8-3.2c-8.9,2.8-18.9,1.3-26.8-3.6c-1.2,3.2-1.7,6.7-1.4,10.2
		c0.4,4.5,2,8.8,4.2,12.8c3.1,5.6,7,10.7,11.8,15c3.8,3.4,8.4,6.1,13.4,7.1c2.5,0.6,5.2,0.9,7.6,0c-0.9-3.1,0.1-6.3,1.2-9.1
		C96.1,608.5,99.9,604.3,104.7,601.9 M211.8,454.5c1.6-2.5,3.3-4.9,5.2-7.3c-2.4-7.8-5.4-15.5-8.9-22.8c-1.5-0.4-2.9-0.7-4.3-1.2
		c-0.9,5.6-2.7,11-5.2,16.1C203.7,443.7,208.2,448.8,211.8,454.5 M685.5,490.9c-3-1.2-6.2-1.4-9.3-1.2c0.4,0.7,0.8,1.3,1.2,2
		c3.4,1.1,6.6,2.6,9.5,4.7c1.5-0.5,3.2-0.8,4.8-1C690.1,493.4,687.9,491.9,685.5,490.9"/>
	<path fill="#FFFFFF" d="M344.9,289.5c-0.8-3.1-1.8-6.1-2.9-9.1c2-3.1,2.1-7,1.5-10.6c-0.8-4.3-2.4-8.5-5-12.1
		c1.1-2.4,2.2-4.8,3.2-7.2c7.3-0.6,14.6-2.8,20.6-7.1c4.2,3,8.9,5.9,14.1,6.3c4.9,0.3,9.5-1.8,13.3-4.7c4.5-3.4,8.2-7.7,11.5-12.2
		c6.9-9.2,12.4-19.3,19-28.8c6.2-9.1,13.1-17.8,21.7-24.8c4.9-3.9,10.4-7.2,16.3-9.2c11.2-3.8,23.7-2.6,34.5,2.1
		c9.8,4.3,18.1,11.2,25.3,18.9c8.5,9.1,15.1,19.9,21.2,30.7c-7.6-0.3-15.3-0.1-22.9,0.2c-1.5-5-4.2-9.8-8.5-12.9
		c-1.7-1.3-3.8-1.9-5.9-2.1c-1.6-0.3-3.3-0.5-4.9-0.7c-0.4-0.1-0.9,0-1.1-0.4c-1.7-2.9-3.6-5.7-5.6-8.4c-1.4-1.7-2.7-3.5-4.4-4.8
		c-0.7-0.5-1.6-0.7-2.3-0.3c-3,1.1-5.5,3.3-8.1,5.3c0.1-1.7,0.3-3.5-0.1-5.2c-0.9,0.6-1,1.8-1.5,2.7c-8,20.8-16.9,41.4-29,60.2
		c-6.4,9.9-13.6,19.3-22.1,27.5c-7.2,7-15.4,13.1-24.6,17.1c-6.3,2.7-13.1,4.2-19.9,3.9c-5.9-0.3-11.7-1.9-17.3-4
		c-5.2-2.1-10.3-4.5-14.4-8.3C345.9,291,345.1,290.5,344.9,289.5 M229.4,327.1c-0.6,0.7-1.2,1.4-1.8,2.1c0.3,3.9,3.1,7.4,6.8,8.6
		c3.3-2.9,6.9-5.2,10.8-7.3c5.7-3,11.9-5.3,18.3-6.4c2.6-5.9,3-12.6,1.4-18.8c-1.2-4.4-3.4-8.7-7-11.6c-3,1.5-5.9,3.4-8.4,5.8
		c-4.4,4-7.8,8.8-11,13.7c4.3,2.4,5.7,8.5,3.2,12.6c-1.2,2.2-3.6,3.9-6.2,4.1C233.2,330.1,230.9,328.9,229.4,327.1 M366,325.5
		c1.3-1.5,2.8-2.7,4.4-3.8c-0.3-2.4-1.4-4.9-3.5-6.2c-2-1.2-4.4-1.1-6.6-0.4c2.2,3.3,4,6.8,5.1,10.6
		C365.5,326.2,365.9,325.6,366,325.5 M177.5,317.2c-1.2,3.5-1,7.3-0.2,10.9c0.7,3.1,1.8,6.1,3.9,8.5c5-0.2,10,0.5,14.8,2
		c0.2-0.5,0.3-0.9,0.5-1.4c-1.8-1.2-3.3-2.9-4.4-4.8c-2.1,2.5-6.2,2.7-8.6,0.6c-3.2-2.5-3.7-7.6-1.1-10.7
		C180.5,320.8,179,319,177.5,317.2 M557.6,328.1c-2.1-0.3-4.3-0.6-6.5-0.2c-1.6,0.4-3,1.5-3.8,3c-1.1,2.2-1.1,4.8-0.7,7.2
		c0.6,3.9,2.6,7.4,5.1,10.4c1.7,2,3.6,3.9,6.1,4.8c1.5,0.6,3.4,0.5,4.6-0.7c1.4-1.4,2.5-3.1,3.5-4.8c2.3-3.8,4.3-7.8,5.8-11.9
		c0.3-1.1,0.8-2.1,0.7-3.3c-1.1-0.9-2.4-1.3-3.7-1.8C565.1,329.6,561.4,328.7,557.6,328.1 M645.6,384.6c1.4,0.7,3,1.1,4,2.3
		c-0.8,0.4-1.7,0.3-2.6,0.2c-5.7-0.4-11.2-2.3-16-5.2c-5.6-3.4-10.4-7.9-14.8-12.7c-8.6-9.7-15.6-20.7-22.4-31.7
		c-4.9,6.9-10.7,13.2-17.5,18.3c-0.1,3.1-0.3,6.3-1.1,9.3c-0.9,3.8-3.3,7-5.4,10.1c4.1,5.4,8.8,10.3,14,14.7
		c5-1.4,10.1-2.4,15.3-2.9c14.4-1.5,29.4,0.3,42.3,7.1c9.7,5,18,12.8,23.3,22.4c3-3.9,4.8-8.6,4.9-13.5c0.2-5.8-2.3-11.7-6.5-15.7
		c-4.5-4.3-10.5-6.6-16.6-7.6C646.2,381.2,645.9,382.9,645.6,384.6 M319.1,374.6c0.1-2-1-3.8-1.9-5.5c-2.6-4.5-5.7-8.8-9-12.8
		c-0.9,5-2.2,9.9-4,14.6c2.8,1,5.7,1.8,8.6,2.6C314.8,374,317,374.7,319.1,374.6 M369.9,390.8c1.7-0.6,3.1-1.8,4.5-2.9
		c2.5-2.2,4.8-4.6,6.9-7.2c1.2-1.6,2.5-3.3,3.2-5.2c0.4-1.5-0.5-3-1.4-4.1c-3.3-3.7-8.6-5.5-13.5-4.7c-1.8,0.2-3.6,0.6-5,1.8
		c-1,0.9-1,2.4-1.2,3.7c-0.2,4.4,0.7,8.8,2,12.9c0.6,1.8,1.3,3.7,2.6,5.2C368.3,390.8,369.2,391.1,369.9,390.8 M310.2,383.4
		c-0.3,1.4,0.3,2.8,0.7,4.1c1.1,3,2.7,5.9,4.5,8.7c1.7-3.6,3.6-7.1,5.6-10.6c-1.7-0.5-3.4-1.1-5.2-1.5
		C314,383.7,312.1,383.1,310.2,383.4 M302.9,399.7c0.1-2-0.7-3.8-1.3-5.6c-1.2-3.3-2.6-6.6-4-9.8c-2.4,3.8-5,7.4-7.9,10.9
		c3.1,1.7,6.4,3.3,9.8,4.3C300.7,399.6,301.8,400.1,302.9,399.7 M420.4,410.5c1.9-0.2,3.5-1.2,5.1-2.2c2.8-1.8,5.4-3.9,7.8-6.2
		c-6-1.4-11.8-3.9-16.6-7.8c-0.2,3.2-0.2,6.5,0.3,9.7c0.2,1.8,0.6,3.5,1.4,5.1C418.8,409.8,419.5,410.6,420.4,410.5 M299.4,410
		c-0.7,0.2-1.7,0.2-1.9,0.9c0.4,1.4,1.2,2.6,2,3.8c2,3.1,4.2,6,6.3,8.9c1.1-4.4,2.3-8.7,3.8-13C306.3,409.8,302.8,409.6,299.4,410
		 M268.4,430.8c1.1,0.8,2.3,1.8,3.6,2.1c0.6-0.3,0.6-1,0.8-1.6c0.5-2.5,0.6-5,0.7-7.5c0.2-4.5,0.1-9.1-0.2-13.6
		c-5.1,3.7-10.6,6.9-16.4,9.5C260.5,423.7,264.3,427.5,268.4,430.8 M416,412.3c-0.4-0.7-0.8-1.4-1.2-2.1c-1.5,0.9-3.1,1.6-4.8,2
		c0.7,1.3,1.2,2.7,1.6,4.1C413.1,415,414.6,413.6,416,412.3 M183,423.9c1.6,4.5,3.5,8.9,6.1,12.9c1,1.4,1.9,3,3.5,3.6
		c0.7-0.5,1.2-1.3,1.6-2.1c2.5-5.4,3.9-11.2,4.9-17c-0.5-0.3-1-0.5-1.6-0.8C193,422.8,188,423.7,183,423.9 M288.4,426
		c-0.8,0.6-1,1.8-1.2,2.8c-1,4.9-1.3,10-1.2,15c5.4,0.8,10.7,2,15.9,3.7c0.2-2,0.4-4,0.6-5.9c-3.2-4.9-6.7-9.6-11-13.6
		C290.5,427.2,289.6,426.1,288.4,426 M400.9,430.5c-5.5,0.1-10.5,3.8-12.9,8.6c-0.5,1.2-1,2.6-0.7,3.9c0.3,1.1,1.3,1.6,2.1,2.2
		c3.2,2.2,6.9,3.6,10.7,4.6c2,0.5,4.1,0.9,6.1,0.3c0.6-1,0.6-2.2,0.7-3.4c0.1-3-0.1-6-0.5-8.9c-0.3-2-0.7-4.1-1.7-5.9
		C404,430.7,402.3,430.5,400.9,430.5 M228,435.8c-0.7,2-0.6,4.2-0.6,6.3c0,4.5,0.5,8.9,1.2,13.3c4-3.3,8.6-5.7,13.3-7.7
		c-1.9-2.7-4-5.1-6.2-7.5c-1.9-1.8-3.7-3.7-6.1-4.9C229.1,435.2,228.2,435.1,228,435.8 M463.9,447c0.4,1.1,0.7,2.3,1.6,3.1
		c0.9,0.5,1.9-0.2,2.7-0.6c3.5-2,6.7-4.6,9.6-7.4c-5.6-0.5-11.2-2.6-15.5-6.3C462.4,439.6,462.8,443.4,463.9,447 M644.4,488.8
		c-2.6-0.8-5.4-1.3-8.2-1c-1.1,0.2-2.1,0.4-3.1,0.9c-1.2,0.8-2,2-2.7,3.3c-1.5,3-1.9,6.7-0.6,9.8c1.2,3,3.5,5.6,6.6,6.6
		c2.7,1,5.8,0.8,8.5-0.2c1.6-0.7,2.8-1.9,4-3.1c2.2-2.4,4.1-5,5.6-7.9c0.3-0.6,0.7-1.3,0.7-2c-0.5-0.9-1.4-1.5-2.1-2
		C650.5,491.3,647.5,489.9,644.4,488.8 M79.9,510c3.8,3,8.1,5.5,12.8,6.8c1.6,0.4,3.6,0.9,5-0.2c0.8-1,0.8-2.4,1-3.6
		c0.4-4.4,0-8.9-0.8-13.3c-0.5-2.1-1-4.4-2.4-6.1c-1.7-1.7-4.5-1.5-6.7-1.1c-2.3,0.5-4.6,1.5-6.6,2.9c-2.2,1.7-4.1,3.9-5.4,6.4
		c-0.6,1.4-1.2,3.1-0.5,4.5C77.3,507.8,78.6,508.9,79.9,510 M662.2,499.4c-1.3,3.4-0.7,7.4,1.5,10.3c1.8,2.3,4.3,4.2,7.1,4.9
		c1.6,0.4,3.2-0.4,4.5-1.1c2.9-1.7,5.2-4.1,7.3-6.7c1.1-1.4,2.2-2.9,2.8-4.6c0.4-0.7-0.3-1.3-0.8-1.7c-2.5-2.1-5.4-3.5-8.5-4.5
		c-3-1-6.3-1.4-9.4-0.8C664.5,495.4,662.9,497.3,662.2,499.4 M690,503.9c-0.9,2.2-2.2,4.2-3.6,6c1,3.9,4,7.7,8.1,8.6
		c2,0.5,4.1-0.1,5.8-1.3c2.5-1.7,4.5-4,6.3-6.4c0.9-1.3,1.8-2.6,2.4-4c0.4-0.8-0.4-1.4-0.9-1.8c-2.2-1.7-4.7-3-7.3-4
		c-3.3-1.2-6.9-1.7-10.3-0.8C690.8,501.4,690.5,502.7,690,503.9 M84.5,575.8c3,2.2,6.6,3.5,10.2,4.4c2.7,0.6,5.5,1.1,8.2,0.6
		c0.8-0.2,1.8-0.5,2-1.5c0.3-1.6,0-3.2-0.3-4.7c-0.7-3.7-1.8-7.3-3.3-10.7c-0.7-1.6-1.5-3.2-2.7-4.5c-0.9-0.9-2.3-0.8-3.4-0.5
		c-1.4,0.4-2.7,1-4,1.7c-2.6,1.4-5.1,3.2-6.7,5.7c-1.3,1.9-2.4,4.2-2.2,6.6C82.3,574.2,83.5,575.1,84.5,575.8 M203.5,570.7
		c-2.9-1.6-6-2.8-9.2-3.4c-2.4-0.4-4.9-0.6-7.3-0.1c-0.7,0.2-1.5,0.5-2,1.1c-0.4,0.5-0.4,1.2-0.5,1.8c-0.3,4.2,0.3,8.4,1.1,12.5
		c0.5,2.4,1.2,4.7,2.3,6.9c0.5,0.9,1.2,2,2.3,1.7c2-0.4,3.8-1.6,5.4-2.8c3.8-2.9,7.3-6.2,10-10.1c0.7-1.2,1.7-2.5,1.3-4
		C206.5,572.7,204.9,571.6,203.5,570.7 M111.2,605.5c-1.1-0.7-2.6-0.5-3.8-0.2c-2.7,0.8-5.3,2.3-6.7,4.7c-1.6,2.4-2.9,5-3.4,7.9
		c-0.1,1.1-0.1,2.5,0.8,3.2c2.4,1.7,5.3,2.5,8.2,3.1c3.5,0.6,7,0.9,10.5,0.3c0.7-0.2,1.6-0.3,2-1c0.3-1.4-0.1-2.9-0.5-4.3
		c-0.9-3.4-2.3-6.6-4-9.7C113.5,608.1,112.6,606.6,111.2,605.5 M316.4,643c-1.6-1.6-3.8-3.1-6.2-3c-1.3,0-2.2,1.1-3,2
		c-2.4,2.8-4.3,6-5.9,9.3c-0.9,1.9-1.8,3.9-1.9,6.1c-0.1,0.6,0.4,1.1,0.9,1.2c3.4,0.7,7,0.3,10.4,0.1c1.9-3.4,4-6.8,6.6-9.7
		C316,647.4,315.9,645.1,316.4,643 M329.8,649.9c-1.6-1.2-3.8-1.7-5.7-0.9c-1.4,0.7-2.4,1.9-3.4,3c-2.5,3.2-4.5,6.7-6.2,10.3
		c-0.8,1.8-1.6,3.7-1.6,5.8c0.6,0.6,1.5,0.8,2.3,0.9c4.3,0.5,8.6,0.1,12.9-0.4c1.9-4.3,4.4-8.4,7.3-12.1
		C333.9,654.1,332.2,651.6,329.8,649.9 M349.3,656.5c-1.8-1-4-1.6-6-0.9c-1,0.5-1.7,1.3-2.4,2.1c-1.8,2.1-3.4,4.5-4.8,6.9
		c-1.8,3.1-3.6,6.2-4.5,9.7c-0.1,0.8-0.5,1.8,0.2,2.5c1.2,0.7,2.6,0.7,4,0.8c5.2,0.2,10.4-0.2,15.5-1c2.1-0.4,4.2-0.7,6.2-1.6
		c1.2-0.7,1.6-2.2,1.7-3.6c0.2-3-0.7-6.1-2.6-8.4C354.4,660.5,352.2,658.1,349.3,656.5"/>
</g>
</svg>
