<?xml version="1.0" encoding="utf-8"?>
<!-- Generator: Adobe Illustrator 21.0.0, SVG Export Plug-In . SVG Version: 6.00 Build 0)  -->
<svg version="1.1" id="Warstwa_1" xmlns="http://www.w3.org/2000/svg" xmlns:xlink="http://www.w3.org/1999/xlink" x="0px" y="0px"
	 viewBox="0 0 792 792" style="enable-background:new 0 0 792 792;" xml:space="preserve">
<style type="text/css">
	.st0{fill:#F2CB01;}
	.st1{fill:#967D12;}
	.st2{fill:#FFFFFF;}
</style>
<path class="st0" d="M734.6,57.1l1.4,678.3H57.4l0,0L56,57.1l678.7-0.4v0.4H734.6z M718.4,104.8c0-14.6-11.9-26.5-26.5-26.5
	s-26.5,11.9-26.5,26.5s11.9,26.5,26.5,26.5S718.4,119.4,718.4,104.8 M718.4,690.2c0-14.6-11.9-26.5-26.5-26.5s-26.5,11.9-26.5,26.5
	s11.9,26.5,26.5,26.5S718.4,704.8,718.4,690.2 M630.5,367.9l-3.2-167.2V200l-62-63.3H227.9l-63.3,62.7V331l146.9-0.2l0.4-88.4
	l9.6-8.5l152-0.6l7.9,9.6l-0.6,83.4l-8.5,9.3l-86.9,0.6l-61.5,62.5l1.3,118.2h145.4l-0.6-76.1l6.6-7.1h90.1L630.5,367.9z
	 M470.6,554.3h-146v98.6h146V554.3z M129.3,104.8c0-14.6-11.9-26.5-26.5-26.5c-14.6-0.1-26.5,11.8-26.5,26.5
	c0,14.6,11.9,26.5,26.5,26.5S129.3,119.4,129.3,104.8 M129.3,690.2c0-14.6-11.9-26.5-26.5-26.5s-26.5,11.9-26.5,26.5
	s11.9,26.5,26.5,26.5S129.3,704.8,129.3,690.2"/>
<path class="st1" d="M752.2,57v678.1l-12.6,0.5l-1.4-678.3L752.2,57z M691.7,82.3c-12.5,0-22.7,10.2-22.7,22.7s10.2,22.7,22.7,22.7
	s22.7-10.2,22.7-22.7S704.2,82.3,691.7,82.3 M102.5,82.3C90,82.3,79.8,92.5,79.8,105s10.2,22.7,22.7,22.7s22.7-10.2,22.7-22.7
	S115,82.3,102.5,82.3 M102.5,667.7c-12.5,0-22.7,10.2-22.7,22.7s10.2,22.7,22.7,22.7s22.7-10.2,22.7-22.7S115,667.7,102.5,667.7
	 M691.7,667.7c-12.5,0-22.7,10.2-22.7,22.7s10.2,22.7,22.7,22.7s22.7-10.2,22.7-22.7S704.2,667.7,691.7,667.7 M738.2,42.9v10.6
	l11.1-0.3L738.2,42.9z M55.7,40.4v13.1l678.7-0.3V40.4H55.7z M42.3,53.3l9.6,0.3V43.3L42.3,53.3z M39.8,57v678.9l13.4-0.2L51.9,57.3
	L39.8,57z M43.1,739.6l10.2,8.6v-8.7L43.1,739.6z M57.1,739.5v10.9l678.7,1.2v-12.1L57.1,739.5L57.1,739.5z M739.6,739.4
	L739.6,739.4L739.6,739.4v10.4l10-10.8L739.6,739.4z"/>
<path class="st2" d="M623.4,202.4l3.1,164.8l-61.7,63.6h-90.2l-8.7,9.4l0.6,73.8H328.8l-1.2-112.9l59.2-60.5l87-0.6l10.6-11.6
	l0.6-86.2l-9.9-12l-155.3,0.6l-12,10.6l-0.4,86.4L168.1,328V201.7l61.1-60.5h334.3L623.4,202.4z M466.6,559H328.2v91h138.4V559
	L466.6,559z"/>
<path d="M627.1,200.3l-62-63.3H227.6l-63.3,62.7v131.6l146.9-0.2l0.4-88.4l9.6-8.5l152-0.6l7.9,9.6l-0.6,83.4l-8.5,9.3l-86.9,0.6
	L323.6,399l1.3,118.2h145.4l-0.6-76.1l6.6-7.1h90.1l63.9-65.8L627.1,201V200.3z M564.7,430.3h-90.2l-8.7,9.4l0.6,73.8H328.7
	l-1.2-112.9l59.2-60.5l87-0.6l10.6-11.6l0.6-86.2l-9.9-12l-155.3,0.6l-12,10.6l-0.4,86.4L168,327.5V201.2l61.1-60.5h334.3l59.9,61.2
	l3.1,164.8L564.7,430.3z M691.7,664c-14.6,0-26.5,11.9-26.5,26.5s11.9,26.5,26.5,26.5s26.5-11.9,26.5-26.5S706.3,664,691.7,664z
	 M691.7,713.1c-12.5,0-22.7-10.2-22.7-22.7s10.2-22.7,22.7-22.7s22.7,10.2,22.7,22.7C714.4,702.9,704.2,713.1,691.7,713.1z
	 M691.7,78.6c-14.6,0-26.5,11.9-26.5,26.5s11.9,26.5,26.5,26.5s26.5-11.9,26.5-26.5S706.3,78.6,691.7,78.6z M691.7,127.7
	c-12.5,0-22.7-10.2-22.7-22.7s10.2-22.7,22.7-22.7s22.7,10.2,22.7,22.7S704.2,127.7,691.7,127.7z M102.5,664
	C87.9,664,76,675.9,76,690.5S87.9,717,102.5,717s26.5-11.9,26.5-26.5S117.1,664,102.5,664z M102.5,713.1
	c-12.5,0-22.7-10.2-22.7-22.7s10.2-22.7,22.7-22.7s22.7,10.2,22.7,22.7C125.2,702.9,115,713.1,102.5,713.1z M324.3,653.3h146v-98.6
	h-146V653.3z M328.1,558.5h138.4v91H328.1V558.5z M102.5,78.6C87.9,78.5,76,90.4,76,105.1c0,14.6,11.9,26.5,26.5,26.5
	s26.5-11.9,26.5-26.5S117.1,78.6,102.5,78.6z M102.5,127.7c-12.5,0-22.7-10.2-22.7-22.7S90,82.3,102.5,82.3s22.7,10.2,22.7,22.7
	S115,127.7,102.5,127.7z M737.1,36.6H53L36,54.3v684.4l18.5,15.5l684.4,1.2h0.8l16.3-17.7V54.2L737.1,36.6z M51.9,43.3v10.3
	l-9.6-0.3L51.9,43.3z M39.8,57l12.1,0.3l1.3,678.4l-13.4,0.2C39.8,735.9,39.8,57,39.8,57z M53.3,748.2l-10.2-8.6l10.2-0.1V748.2z
	 M55.7,40.4h678.7v12.8L55.7,53.5V40.4z M735.8,751.6l-678.7-1.2v-10.9l0,0h678.7V751.6z M57.1,735.7L55.7,57.4L734.4,57v0.4
	l1.4,678.3H57.1z M738.2,42.9l11.1,10.3l-11.1,0.3V42.9z M739.6,749.8v-10.4l10-0.4L739.6,749.8z M752.2,735.1l-12.6,0.5l-1.4-678.3
	l14-0.3V735.1z"/>
</svg>
