<?xml version="1.0" encoding="utf-8"?>
<!-- Generator: Adobe Illustrator 21.1.0, SVG Export Plug-In . SVG Version: 6.00 Build 0)  -->
<svg version="1.0" id="Warstwa_1" xmlns="http://www.w3.org/2000/svg" xmlns:xlink="http://www.w3.org/1999/xlink" x="0px" y="0px"
	 viewBox="0 0 792 792" enable-background="new 0 0 792 792" xml:space="preserve">
<g>
	<path d="M635.9,380c-0.8-3.7-2.4-7.3-5-10.1c0.2-5.5-1.5-10.9-4.2-15.6c-3.7-6.1-9.3-10.9-15.6-14.1c-7.6-3.8-16.1-5.8-24.6-6.3
		c-6.8-0.4-13.7,0.1-20.3,1.4c-4.9,1-9.8,2.5-14.3,4.7c-3-1.7-6.2-3-9.6-3.5c-5.9-1-12.1,0.4-17.3,3.3c-0.5,0.4-1,0.1-1.5,0
		c-21.6-4.6-43.6-8.3-65.7-8.9c-8.8-0.3-17.5-0.1-26.3,0.3c-4.7-3-10.1-4.8-15.5-5.8c1.3-3.4,2.8-6.8,4.5-10.1
		c2.8,3.1,6.7,5.2,10.8,5.7c2.6,0.4,5.3,0.3,7.7-1c1.6-0.9,2.8-2.5,3.3-4.3c2.9,1.4,6.5,1.8,9.5,0.2c1.9-1,3.1-2.8,3.9-4.7
		c1.2-2.9,0.8-6.1,0.2-9.1c-0.5-2.7-1.4-5.4-1.8-8.1c-0.6-5.4,0.3-11,2.3-16c6.8,2.6,14.3,4.2,21.6,3.1c5.7-0.8,11-3.4,15.6-6.8
		c3.6-2.7,7-5.8,10-9.1c6.4-7.4,10.2-17.1,10.5-26.9c2.8-1.5,5.3-3.3,7.7-5.4c6.9-6.2,12-14.4,14.7-23.3c1.5-5.2,2.1-10.6,1.3-16
		c-0.7-5.6-2.6-11-5.7-15.7c-4.9-7.7-12.7-13.4-21.4-16.2c0.9-11.5-0.1-23-2-34.3c-2-11.4-4.9-22.6-8.8-33.5
		c-3.7-10.3-8.5-20.3-14.9-29.1c-5.4-7.5-12-14.2-19.8-19.2c-8.9-5.8-19.3-9.2-29.9-9.8c-6.7-0.4-13.4,0.1-19.9,2
		c-5.4,1.5-10.6,3.9-15.3,7c-10.6,7.2-18.5,18-22.7,30c-6.9-2.1-14.1-3.5-21.3-3.1c-5.5,0.3-11.1,1.7-15.8,4.6
		c-3.7,2.3-6.9,5.5-9.1,9.2c-3.6-4-8-7.2-12.9-9.4c-4.9-2.2-10.3-3.4-15.7-3.9c-11-0.8-22.1,1.4-32.3,5.7
		c-9.9,4.2-19,10.3-26.6,17.9c-7.1,7.1-13.1,15.5-17,24.8c-4.2,10-6,21.2-4.7,32c1.2,9.7,4.8,19,10.4,27
		c5.4,7.8,12.9,14.2,21.6,17.9c-0.7,3.3-0.5,6.9,0.5,10.1c0.9,3.2,2.5,6.3,4.7,8.8c2.8,3,6.4,5.3,10.2,6.8
		c5.9,19.3,12.2,38.4,18.9,57.5c7.2,20.5,14.7,40.8,22.8,60.9c-4.3,3.7-8.3,7.8-12,12.1c-1.2,1.3-2.2,2.8-3.3,4.1
		c-2.4,0.7-4.7,1.9-6.7,3.5c-3.8,3-6.7,7-8.7,11.4c-2.3,4.9-3.4,10.4-2.6,15.8c-1.6,4.6-2.4,9.9-0.7,14.6c-3,7-5.1,14.3-6.4,21.8
		c-2.1,12.3-2.5,25.1,0.2,37.4c-0.4,0.3-0.7,0.6-1.1,1c-5.8-1.5-12.1-0.9-17.6,1.5c-5-2.6-10.3-4.6-15.8-6.1
		c-15.4-4.2-32.4-2.4-46.4,5.2c-8.5,4.6-15.9,11.4-20.8,19.7c-5.2,8.5-7.6,18.5-7.3,28.4c-0.8,1.3-1.7,2.5-2.4,3.9
		c-2.9,5.4-4.1,11.6-4,17.7c0,5.7,1.2,11.4,3.1,16.8c2.9,8.3,7.6,15.8,13,22.7c9.5,11.8,21.4,21.7,34.2,29.7c0.7,0.5,1,1.4,1.5,2.1
		c6.8,10.7,16.4,19.5,27.5,25.5c6.2,3.3,12.9,5.9,19.8,6.8c7.1,1,14.6,0.1,21.1-3.1c5.3-2.6,9.7-7,12.1-12.4c0.1-0.4,0.6-0.3,1-0.4
		c7.4-1.1,14.2-5.3,18.9-11c4.5-5.4,7.1-12.3,7.6-19.3c3.5-0.5,6.5-2.9,8.6-5.6c2.7-3.4,4.5-7.4,5.9-11.5
		c6.5,10.8,13.2,21.5,20.2,32c11.5,17,23.9,33.4,37.3,48.9c0.2,0.3,0.5,0.5,0.5,0.9c0.1,4.1,0.8,8.2,2.2,12
		c1.7,4.4,4.5,8.5,8.4,11.2c-1,6.8-1.3,13.7-0.8,20.6c0.7,10.9,3.1,21.9,8.2,31.6c4,7.8,10,14.7,17.6,19c4.5,2.5,9.4,4.1,14.5,4.8
		c6.6,1,13.4,1,19.9-0.5c4.6-1.1,9-3,13-5.7c5.6,0.6,11.3,0.1,16.5-2.2c3.8-1.6,7.1-4.2,9.8-7.3c3.3-3.9,5.7-8.5,7.4-13.3
		c1.9-5.5,3-11.3,3.7-17.1c1.3-12.5,0.6-25.2-1.6-37.6c-1-5-2.1-10-4.2-14.6c1.1-0.9,2.3-1.8,3.4-2.8c1.4-1.2,2.2-3,2.5-4.9
		c0.5-2.8,0.4-5.6,0.4-8.4c-0.1-8.6-1-17.3-4-25.4c-1.8-4.6-4.4-9.1-8.3-12.3c-3.1-2.6-7-4.2-11.1-4.6c-1.8-2.8-4.1-5.3-7-7
		c-4.6-2.9-10.2-3.7-15.6-3.3c-1.5-1.7-3.4-3.2-5.6-4.1c-3.3-1.4-6.9-1.4-10.3-0.7c-9.4-16.2-18.4-32.6-27.1-49.1
		c6.2-5.8,11.6-12.5,15.6-20.1c4.3-8.1,7-17,8.1-26.1c1.3-10.1,0.8-20.4-0.6-30.5c-1.4-9.9-3.9-19.5-6.7-29.1
		c1.3-8.5,2.1-17.1,2.9-25.7c19.7-0.6,39.5,0.9,59,4.3c1.1,4.2,3.3,8.3,6.7,11.1c2.8,2.4,6.3,3.8,9.9,4.6
		c2.4,13.8,12.3,26,25.2,31.6c4.5,1.9,9.4,2.8,14.2,2.1c3.8-0.5,7.5-2.1,10.5-4.7c4,2.5,8.3,4.5,12.8,5.7c7.1,1.9,14.9,1.8,21.9-0.8
		c4.8-1.8,9.2-4.9,11.8-9.4c1.8-3,2.7-6.4,3.1-9.8c1.8-0.3,3.6-0.8,5.2-1.7c2.6-1.4,4.7-3.7,6.4-6.1c1.7-2.7,3.2-5.6,4-8.7
		c1-4,1.1-8.2,0.7-12.3c1.8-2.3,3.1-4.9,4.1-7.6C636.7,394.5,637.4,387,635.9,380 M345.5,168.5c-1.5-0.5-3.1-0.9-4.7-1.2
		c3.9-3.8,6.8-8.5,9.1-13.5c0.7,0.6,1.3,1.1,2,1.7C349.7,159.8,347.5,164.2,345.5,168.5"/>
	<path fill="#FFD7B0" d="M500.7,223.5c-3-3-7.3-4.3-11.5-4.2c-5.1,0.1-9.9,2.3-14,5.1c-3.8,2.6-7,5.9-10.1,9.3
		c-3,3.3-6.5,6.5-10.8,8.1c-5.2,1.9-11.2,0.8-15.7-2.3c-4-2.6-6.7-7.1-6.8-11.9c-0.2-4.7,1.9-9.6,5.9-12.1c3.8-2.4,8.5-2.9,12.3-5.2
		c5.1-3,9.2-7.4,12.5-12.2c3.1-4.6,5.6-9.7,6.9-15.1c-0.5-1.1-0.9-2.2-1.4-3.3c-4.7,0-9.4-0.8-13.7-2.6c-4.6-1.9-8.7-4.9-12.3-8.3
		c-0.9,1.6-1.8,3.4-3.3,4.5c-0.5-0.2-0.3-0.7-0.3-1.1c0.1-1.5,0.4-3.1,0.3-4.6c0-4.7-1.1-9.6-3.9-13.5c-2.2-3-5.7-5-9.5-5.4
		c-5.6-0.6-11.2,1.1-16,4c-0.6,0.3-1.3,0.8-2,0.8c0-1.1,0.6-2.1,1-3.1c1.7-3.9,4.3-7.3,7.7-9.9c-8.1-4.3-16.9-7.1-25.9-8.8
		c0.2,3.7-0.2,7.5-1.3,11.1c-0.3,1-0.7,2.1-1.4,2.9c-0.6-0.5-0.5-1.3-0.6-1.9c-0.3-2.6-1.1-5.2-2.8-7.2c-1.4-1.8-3.6-2.9-5.9-3
		c-2.1,0-4.1,0.9-5.7,2.2c-1.1,0.8-2.2,1.7-3,2.8c-4.4,5.9-8.1,12.2-11.6,18.7c-2.4,4.5-4.7,9-6.7,13.6c1,0.4,1.9,0.9,2.9,1.4
		c0.8-2.3,1.6-4.6,2.6-6.8c2-4.6,4.5-9.1,8.2-12.6c2.5-2.4,5.9-4.2,9.5-4c2.6,0.1,5.4,1,7.1,3.2c1.7,2.1,2.1,4.9,2.1,7.5
		c-0.1,4.8-1.4,9.4-2.9,13.9c-1.9,5.6-4.3,11.1-6.9,16.5c1.1,1.8,2.2,3.6,3.1,5.4c-1.7,0.6-3.4,1.2-5.2,1.8
		c-4.2-6.4-9.5-12.2-15.9-16.5c-5.4-3.6-11.6-6.2-18.1-6.8c-4-0.3-8,0.1-11.7,1.7c-4,1.7-7.3,4.7-9.8,8.3c-4.2,6-5.9,13.4-5.6,20.7
		c0.3,4.6,1.8,9.1,4.6,12.8c4,5.2,10,8.5,16.1,10.6c6.6,2.3,13.7,3.2,20.6,2.3c8.9-1.1,17.5-5.2,23.8-11.7c1.5,1.4,3,2.8,4.5,4.3
		c-1.1,1.4-2.2,2.7-3.5,3.9c5.7,2,11.9,2.3,17.9,1.8c5.3-0.5,10.6-1.7,15.3-4c1-0.5,1.9-1.2,3-1.5c0.5,0.7,0.7,1.6,1,2.4
		c2,6.7,1.9,14-0.6,20.5c-1.8,4.7-4.9,8.9-8.9,11.9c-3.2,2.5-7,4.3-10.9,5.5c-1.1,6.8-2.4,13.6-4.7,20.2c-1.5,4.2-3.4,8.3-6.2,11.9
		c-2.1,2.8-5,5.2-8.5,6c-3.3,0.7-6.7,0-9.6-1.5c-3.7-1.9-6.7-4.9-9.1-8.3c-5.2-7.6-7.5-16.7-8.7-25.7c-2.1-0.9-4.4-2.2-5-4.6
		c-0.3-0.6,0.7-0.3,1-0.3c2.5,0.8,5.2,1.1,7.8,1.3c5.5,0.3,11,0,16.5-0.8c-3.7-1.6-7.1-3.6-10.2-6.2c-2.9-2.4-5.5-5.2-7.3-8.6
		c-1,2.5-2.4,4.8-4.1,6.8c-2.7,3-6.5,5.1-10.6,5.5c0.7,8.9,1.9,17.9,4.6,26.5c1.5,4.8,3.6,9.5,6.4,13.7c2.5,3.8,5.7,7.2,9.5,9.8
		c4,2.8,8.6,4.6,13.3,5.7c-0.1,2-0.3,4-0.4,6.1c-1.7-0.1-3.3-0.3-4.9-0.6c-0.1,1.2-0.2,2.3,0,3.5c0.8,1.3,2.3,1.8,3.7,2.4
		c5.3,2,11,3,16.7,3.7c6,0.6,12.1,0.9,18.1,0c1.1-0.1,1.9-0.7,2.9-1.1c1.2-0.6,2.4-1.1,3.7-1.6c4.7-13.4,12.4-25.5,21.2-36.6
		c5.8-7.3,12.1-14.2,19-20.5c0.7-0.6,1.3-1.3,2.1-1.7c0.8-0.2,1.6,0.3,2.4,0.6c4.6,2.4,9.5,4.4,14.7,5.1c4.6,0.7,9.5,0.2,13.8-1.6
		c4.7-1.9,8.8-5.1,12.4-8.7c3-2.9,5.6-6.1,7.6-9.7c2.6-4.6,4.4-9.8,4.9-15.1c0.2-2.7,0.1-5.5-0.9-8.1
		C504.4,228,502.7,225.5,500.7,223.5 M427,193.9c-1.7,5-3.9,9.9-6.9,14.3c-2,2.9-4.4,5.7-7.4,7.6c-2.7,1.8-6.1,2.7-9.3,2.4
		c-3.6-0.4-7-2-9.8-4.3c-3-2.6-4.8-6.5-5.2-10.5c-0.7-6,0.7-12,2.7-17.7c1.6-4.4,3.4-8.8,5.9-12.7c2.4-3.7,5.3-7,9-9.3
		c2.1-1.3,4.5-2.3,7.1-2.6c4.5-0.6,9.3,0.8,12.7,3.8c3.2,2.9,4.5,7.3,4.6,11.4C430.5,182.4,428.9,188.3,427,193.9 M487.4,235.3
		c-5.9-0.4-11.6,2.9-14.9,7.6c2.8-1.1,6-1.1,8.7,0.3c1.5,0.7,2.7,2,3.4,3.6c-0.7,0.2-1.4-0.2-2.1-0.4c-2.2-0.7-4.6-0.9-6.8-0.2
		c-2.3,0.7-4.2,2.2-5.8,3.9c-0.4,0.4-0.3,0.9-0.4,1.4c-0.3,2.7-0.2,5.6,0.8,8.2c0.3,1,1,1.8,1.2,2.9c-1.1,0-2-0.6-2.9-1.1
		c-2.1-1.4-3.3-3.7-4-6.1c-1.2-4.8-0.5-10,1.9-14.3c2.5-4.5,7.1-7.6,12-8.8c2.9-0.7,6-0.9,8.9,0c1.7,0.5,3.3,1.5,4.5,2.9
		c0.2,0.3,0.3,0.6,0.3,0.9C490.5,236,489,235.3,487.4,235.3"/>
	<path fill="#1AB4DD" d="M377.1,170.1c-0.4-1.1-1.3-2-2.4-2.1c-2.1-0.4-4.1,0.9-5.4,2.5c-2.2,2.8-3.2,6.3-4,9.7
		c-1.1-1.1-2.3-2.1-3.6-3c0.6-3.3,1.8-6.5,3.7-9.2c1.5-2.2,3.5-4.3,6-5.4c1.2-0.6,2.7-0.9,4-0.2c1.5,0.7,2.3,2.3,2.4,3.9
		C378,167.6,377.3,168.8,377.1,170.1 M418.1,175.2c-2.2,0-4.3,0.8-6.2,2c-3.6,2.3-6.4,5.7-8.3,9.5c-2.3,4.5-3.8,9.4-4.1,14.5
		c-0.2,3.2,0,6.5,1.4,9.4c0.9,1.8,2.5,3.5,4.5,3.8c1.7-0.1,3.4-0.8,4.9-1.6c0.4-0.2,0.8-0.6,1.3-0.6c-2.5,0-4.7-2-5.4-4.3
		c-0.9-2.9-0.5-6.1,0.1-9c1-4.4,2.5-8.7,5.3-12.2c1.5-1.8,3.3-3.3,5.6-3.8c1.7-0.3,3.6,0,4.8,1.3c1.4,1.5,1.9,3.6,2.1,5.6
		c0.6-2.1,1.2-4.1,1.6-6.2c0-2.1-0.7-4.2-2.1-5.8C422.3,176,420.2,175.2,418.1,175.2"/>
	<path fill="#D14554" d="M364.3,278.6c0.5-0.3,0.9-0.8,1.4-1c7.1-0.8,14.1-2.6,20.8-5.1c-1.1,5.3-2.6,10.6-5,15.5
		c-1.2,2.4-2.7,4.7-4.8,6.4c-1.6,1.4-3.8,2.3-6,2.1c-3.5-0.1-6.6-2-9-4.5c-0.9-0.9-1.8-2-2.6-3C359,285,361.3,281.2,364.3,278.6"/>
	<path fill="#80402F" d="M445.5,218.1c4.9-1.6,9.3-4.4,13.3-7.6c6-4.8,11.2-10.9,14.2-18c2.7,7.6,4.9,15.4,6.6,23.3
		c-5.9,2.8-11.1,6.8-15.8,11.3c-2.2,2.2-4.1,4.7-6.5,6.7c-3.6,3.1-9.2,3.5-13.2,1c-2.7-1.6-4.9-4.2-5.7-7.2c-0.7-2.5,0-5.3,1.9-7.1
		C441.6,219.2,443.7,218.8,445.5,218.1 M448.5,279.2c-2.7,2.6-5.3,5.1-7.8,7.8c-6.8,7.1-12.9,15-17.8,23.6c1.7,2.7,4.3,4.9,7.3,5.9
		c1.5,0.6,3.3,0.5,4.8-0.3c0.9-0.5,1.3-1.6,1.3-2.6c-0.1-2.6-1.9-4.9-2.1-7.5c0.9,0.1,1.3,0.9,1.9,1.5c2.1,2.6,5.4,4.3,8.8,4.3
		c1.4,0,2.7-0.7,3.7-1.5c1.1-0.9,1.3-2.4,1.5-3.7c0.3-3.5-0.9-6.9-1.8-10.2C446.8,290.9,447.2,284.9,448.5,279.2"/>
	<path fill="#5BC438" d="M402.3,62.5c-5.3,5.1-8.4,12-9.6,19.2c-2.5-1.3-5.1-2.5-7.7-3.6c3.6-11.2,11-21.4,21.3-27.3
		c5-2.9,10.7-4.8,16.5-5.5c6.7-0.8,13.5-0.6,20.1,1.1c8.8,2.3,16.7,7.2,23.4,13.2c7.3,6.6,13.2,14.5,18,23
		c5.6,10,9.4,20.9,12.6,31.9c5.9,20.8,8.9,42.5,8.2,64.2c0,0.9-0.1,1.8,0.4,2.6c1.1-1.1,1.5-2.6,2-3.9c1-2.8,1.6-5.6,2.2-8.5
		c8.6,3.9,15.9,11.2,18.7,20.3c2.9,9.3,1.3,19.8-3.9,28.1c-3,4.8-7.1,8.9-11.8,12c-1.3-4.2-3.7-8.2-7.1-11.2
		c-4.2-3.7-9.8-5.6-15.4-5.1c-1.4,0.1-2.8,0.4-4.1,0.6c-8.1-35.6-24.9-69.4-49.3-96.6c6.4-5.2,11.3-12.4,13.6-20.4
		c1.7-5.8,2.1-11.9,1.1-17.9c-0.9-5.2-3-10.2-6.4-14.2c-2.7-3.3-6.2-5.8-10-7.5c-5.4-2.3-11.4-2.8-17.2-1.9
		C412.1,55.8,406.5,58.4,402.3,62.5 M344.3,137.2c3.1,4.6,6.7,8.9,10.6,12.8c3.4-6.1,6.9-12.1,10.8-17.9c1.5-4.4,3.7-8.9,7.7-11.6
		c2.5-1.7,5.9-2.4,8.8-1.4c2.7,0.8,4.7,2.8,5.9,5.3c10,1.5,19.9,4.7,28.8,9.5c-3.1-5.4-6.6-10.5-10.5-15.3
		c-6.2-7.6-13.4-14.3-21.2-20.3c-1.1-0.9-2.3-1.7-3.1-2.9c1.1,0.1,2.2,0.6,3.2,1c8.4,3.5,15.9,8.8,22.3,15.1
		c7.3,7.1,13.4,15.3,18.7,23.9c4.1-0.8,8.5-0.5,12.2,1.5c3.1,1.7,5.4,4.7,6.4,8.1c1.7,5.4,1,11.2-0.3,16.6c2,2.2,4.2,4.2,6.7,5.9
		c3.9,2.7,8.5,4.2,13.2,4.7c-5.2-10.7-11.3-21-18.3-30.7c-11-15.3-24-29.3-39.1-40.9c-9-6.8-18.7-12.8-29.3-16.8
		c-7-2.6-14.4-4.3-21.8-3.7c-5.2,0.4-10.4,2.2-14.4,5.6c-2.8,2.3-4.7,5.6-5.9,9c-2,6.1-2.1,12.7-1,19
		C336.2,122.1,339.6,130.1,344.3,137.2 M350.2,321.9c0.5-0.2,1.1-0.2,1.4-0.7c1.3-1.6,3.1-2.7,5.1-3.2c-2.2-1-4.4-2.3-6.3-3.8
		c-7.1-5.4-12.2-13-15.7-21.2c-4.8-11.1-6.9-23.1-7.7-35c-5.3-1.9-9.4-6.4-11.8-11.4c-3-6-3.3-13.3-0.9-19.5
		c-1.9-1.7-3.5-3.7-4.9-5.8c-9.8,3.3-20.2,5.6-30.5,4.7c11.7,37.4,24.4,74.5,38.9,110.9C327.5,330,338.7,325.2,350.2,321.9
		 M352.8,331.8c-1.5,1.5-3.2,2.9-4.7,4.4c-7,6.7-13.4,14.1-18.6,22.3c5.5,0.3,11,1.1,16.5,2.4c5.1,1.2,10.2,2.7,15,4.9
		c8.9-11.6,19.5-21.8,31.5-30.2c-5.3,0.3-10.7,0.1-16-0.8c-4.7-0.9-9.4-2.2-13.6-4.5c-1.8-1-3.6-2.2-4.7-4c-0.5-0.8-0.2-1.7-0.2-2.6
		C354.7,325,353.5,328.7,352.8,331.8 M467,339.5c-13.2-0.9-26.5-1-39.7-0.1c-2.7,0.9-4.9,2.9-6.7,5c-3.3,3.8-5.7,8.2-7.8,12.8
		c-4.8,10.5-7.9,21.6-10.4,32.8c3.3,5.2,7,10.2,10.1,15.5c2.4,3.9,4.6,8,6.7,12c3.6-2.5,7.2-5.1,10.7-7.8c0.2-2.1,0.4-4.2,0.6-6.3
		c-3,0.2-6,0.5-9,0.8c-0.1-2.4-0.2-4.8-0.3-7.2c25.1-2.6,50.5-2.4,75.4,1.5c-0.2-8.5,1.5-16.9,4.1-24.9c3.2-9.9,8.2-19.5,15.5-27
		C499.9,343.3,483.5,340.6,467,339.5"/>
	<path fill="#FFFFFF" d="M421,101.3c2.9,1.1,5.8,2.4,8.8,3.3c1.2-3.6,2.8-7.1,4.2-10.7c-6.4-1.3-12.7-2.8-19.1-4.1
		c1.7-4.8,4.2-9.3,6.7-13.7c2.5-4.2,5.1-8.3,7.8-12.4c-0.5,0.1-0.9-0.1-1.4-0.1c-3.3-0.7-6.6-0.9-10-0.8c-3.4,4.4-6.2,9.2-8.9,14.1
		c-1.9,3.7-3.7,7.4-5.2,11.3c-2.3-1.5-4.7-2.9-7.1-4.4c1-6.1,3-12.2,7.2-16.8c3.4-3.9,8.3-6.4,13.3-7.2c6.4-1.1,13.4-0.3,19,3.1
		c4.1,2.5,7.2,6.4,8.8,10.9c1.8,5.2,2.1,10.8,1.3,16.2c-1.3,9-6.1,17.4-13,23.2C429.5,109.2,425.3,105.1,421,101.3 M285.5,218
		c6.9-0.5,13.6-2.5,20.2-4.6c-1.6-5.3-2-10.9-1.5-16.4c0.7-7.7,3.7-15.3,9-21c5.1-5.5,12.3-8.9,19.8-9.4c0.8-0.6,1.5-1.4,2.2-2.2
		c4.1-4.7,7-10.4,9.4-16.1c-2.5-2.9-4.7-6-6.7-9.3c-4.7-7.8-8.3-16.3-10.1-25.3c-5.8,0-11.7,0.9-17.1,3.3c-5,2.2-9.5,5.8-12.4,10.6
		c-2.4,3.8-3.3,8.5-2.6,12.9c0.4,2.6,1.5,5.4,3.7,6.9c2.5,1.7,5.8,2.2,8.8,2c4.9-0.3,9.7-1.9,13.7-4.7c0.8-0.5,1.6-1.1,2.5-1.3
		c-0.2,1.3-1.1,2.4-1.9,3.4c-5.4,7.3-15.6,10.5-24.2,7.8c-1.8,2.9-4.6,5.2-8,5.9c-3.7,0.9-7.7,0.6-11-1.3c-1.6,4.1-4.4,7.8-8.2,10.1
		c-3.1,2-6.9,2.9-10.6,2.4c-3.5-0.4-6.6-2.2-9.1-4.7c-3.3-3.4-5.3-8.1-5.4-12.9c0-1.3-0.1-2.7,0.5-3.9c0.9,0.9,0.8,2.4,1.2,3.5
		c0.9,3,2.7,5.8,5,7.9c1.9,1.7,4.2,3.1,6.8,3.5c3.4,0.5,7-0.7,9.4-3.2c2.4-2.5,4.1-5.7,4.5-9.1c0.6-4,0.2-8.1-0.7-12
		c-1.9-8.4-6.6-16.4-13.7-21.4c-1-0.8-2.3-1.3-3.1-2.4c1.5-0.1,2.9,0.5,4.2,0.9c4.5,1.6,8.4,4.6,11.5,8.2c3.4,3.9,5.9,8.5,7.5,13.4
		c1.4,4.5,2.1,9.3,1.5,14c2.5,1,5.3,1.2,7.9,0.3c1.6-0.6,2.7-1.9,3.7-3.3c-2.8-3.3-4.1-7.6-4.3-11.8c-0.2-5.7,1.3-11.6,4.8-16.3
		c-1.1-3.9-2.8-7.7-5.2-11c-2.4-3.3-5.5-6.1-9.2-7.8c-0.7-0.4-1.6-0.7-2-1.4c0.4,0,0.7-0.1,1.1-0.1c4,0.3,8.1,1.5,11.4,3.8
		c4.1,2.7,7.2,6.7,9.3,11.1c4.3-3.4,9.5-5.7,14.9-7c-0.9-3-2.1-6-3.7-8.7c-2-3.3-4.7-6.3-8.1-8.2c-1-0.6-2.1-0.9-3.1-1.5
		c-0.2-0.2-0.6-0.3-0.5-0.6c1.1-0.3,2.2,0,3.3,0.1c3.7,0.5,7.2,2.1,10.1,4.4c4.2,3.4,7.2,8.3,8.7,13.5c2.5-0.2,5-0.2,7.4-0.1
		c-0.6-4.8-0.5-9.7,0.5-14.4c-2.8-4.6-7-8.2-11.8-10.6c-5.7-2.9-12.1-4.1-18.5-4.2c-5.9,0-11.7,0.8-17.3,2.5
		c-10,3-19.3,8.3-27.1,15.2c-6.9,6.1-12.8,13.5-16.9,21.9c-5,10.1-7.3,21.7-6.1,32.9c0.9,9.1,4.3,18,10.1,25.2
		c6.1,7.9,14,14.6,23.3,18.3c3.9,1.6,8,2.5,12.1,3.1c1.1,0.2,2.4,0.2,3.3,0.9c-1,0.7-2.1,0.9-3.3,1.1c-5.2,1.1-10.7,0.5-15.8-0.9
		c-0.2,3.1,0.6,6.3,2.6,8.7c2.5,3.1,5.8,5.6,9.5,7.2C276.1,217.8,280.9,218.3,285.5,218 M378.8,162.9c0.3-2.2,0.6-4.6-0.1-6.8
		c-0.3-1.3-1.2-2.6-2.5-3.2c-2.1-0.9-4.6-0.8-6.7,0.3c-2.5,1.3-4.5,3.5-6.1,5.8c-3.1,4.5-5.1,9.6-6.8,14.8c1.1,0.7,2.2,1.4,3.2,2.1
		c1.3-4.4,3.1-8.8,6.4-12.1c2.1-2.2,5-3.8,8.1-3.7C376.2,160.2,377.9,161.3,378.8,162.9 M412.1,165.3c-2.6,0.7-4.9,2.2-6.9,4
		c-4,3.5-6.9,8.1-8.9,13c-2.1,5.1-4,10.5-4.4,16c-0.3,3.8,0.3,7.9,2.7,11c1.5,2,3.7,3.4,6,4.3c-2.1-2.5-2.8-5.8-3-8.9
		c-0.2-5.5,1-10.9,3-16c1.9-4.9,4.8-9.5,9.1-12.6c2.9-2.1,6.6-3.4,10.2-2.9c2.8,0.5,5.4,2.2,6.7,4.7c0-3.1-0.3-6.6-2.4-9.1
		C421.3,165.5,416.3,164.1,412.1,165.3 M372.4,172.9c-1.6,1-2.5,2.9-2.5,4.7c0,0.8,0.3,1.8,1.2,2.1c1.1,0.2,2-0.7,2.6-1.5
		c0.9-1.4,1.5-3.2,0.9-4.7C374.2,172.7,373.1,172.5,372.4,172.9 M417,190.1c-1.5,0.6-2.5,2.1-3,3.6c-0.4,1.4-0.6,3.1,0.3,4.3
		c0.6,0.8,1.8,0.9,2.6,0.4c1.3-0.7,2.1-2.1,2.6-3.5c0.4-1.3,0.5-2.9-0.2-4.1C418.8,190,417.8,189.7,417,190.1 M388,264.3
		c-3.5,0.5-7.1,0.5-10.6,0c-1.1-0.2-2.2,0.3-3.3,0.6c-7.4,1.8-15,2.7-22.6,1.9c0.2,1.8,0.9,3.7,2.3,5c1.6,1.5,3.9,1.8,6.1,1.9
		c4.1,0.1,8.2-0.4,12.3-1.2c5.2-1,10.4-2.4,15.3-4.5C387.6,266.8,387.8,265.6,388,264.3 M624.4,370.1c2.3,3.6,4.2,7.5,4.9,11.8
		c0.9,5.2-0.1,10.5-2.2,15.3c-1.8-4.2-4.6-8-8.3-10.7c-0.9-0.6-1.8-1.3-2.9-1.4c0.2,1,1,1.7,1.5,2.5c1.8,2.6,3,5.7,3.9,8.7
		c1.3,4.5,2,9.2,2,13.9c-0.1,3.6-0.5,7.3-2.3,10.5c-1.8,3.2-3.8,6.8-7.4,8.3c-0.7-4.6-2-9.4-5-13.1c-0.8-0.8-1.5-2-2.7-2.2
		c0,1.3,0.7,2.4,1,3.6c1.3,4.7,1.4,9.7,0.9,14.5c-0.6,4.7-2,9.6-5.4,13c-5,4.7-12.1,6.8-18.8,6.5c-5.3-0.2-10.5-1.8-15.1-4.4
		c1.5-2.5,2.6-5.2,3.3-8c1.7,1,3.3,2.2,4.6,3.7c2-1.7,4-3.5,6-5.2c-4.6-5.2-11.3-8.3-18.1-9.4c-1.9-0.3-3.7-0.4-5.6-0.4
		c0.1,2.6,0.2,5.3,0.3,7.9c1.8,0,3.7,0.2,5.4,0.5c-0.9,3.8-2.7,7.8-6.1,10c-3.6,2.3-8.1,2.4-12.2,1.6c-7.3-1.5-13.5-6.2-17.9-12.1
		c-5.3-7.1-7.8-15.9-8.3-24.6c-0.3-6.2,0.3-12.4,1.5-18.5c0.2-1.4,0.8-2.9,0.6-4.3c-0.9,0.4-1.2,1.4-1.7,2.2
		c-4,7.7-6.6,16.4-6.6,25.1c-1.7-0.1-3.4-0.6-4.7-1.7c-2-1.7-3-4.2-3.6-6.7c-1.1-4.9-1-10.1-0.5-15.1c0.7-6.5,2.1-12.9,4.3-19.1
		c1.2-3.6,3-7,4.8-10.4c2.8-4.8,6-9.5,10.2-13.3c3.1-2.9,6.9-5.3,11.1-6.1c3.2-0.7,6.7-0.4,9.5,1.4c-2.2,1.8-4.2,3.9-5.8,6.3
		c-0.8,1.3-1.8,2.6-2.1,4.1c1.1-0.3,1.9-1.2,2.8-1.9c8.1-6.2,18-10,28.1-11.4c9-1.3,18.3-1,27.2,0.8c7.8,1.7,15.6,4.9,21.5,10.4
		c4.2,3.9,7.3,9.5,7.1,15.4C623.5,368.9,624.1,369.5,624.4,370.1 M572.5,394.5c0.7-2,0-4.2-1.2-5.9c-2-2.8-5.1-4.7-8.1-6.2
		c-1.7-0.8-3.4-1.7-5.3-1.7c-0.3,1.2,0.1,2.5,0.3,3.7c0.7,3,1.6,5.9,3.1,8.6c1.2,2.2,3.2,4.3,5.8,4.7
		C569.3,398.1,571.8,396.7,572.5,394.5 M582.1,375.7c2.4-1.1,3.3-4.6,1.8-6.8c-1.1-1.6-3.1-2.4-5-2.8c-3.4-0.6-6.9-0.5-10.3,0.1
		c-1.4,0.3-2.9,0.5-4,1.4c0.2,1,0.9,1.8,1.6,2.5c2.6,2.4,5.6,4.4,8.9,5.5C577.2,376.4,579.8,376.8,582.1,375.7 M587,351.6
		c0.3-1.2-0.3-2.4-1.2-3.1c-1.3-1-3.1-1.3-4.7-1.1c-1.7,0.2-3.3,0.9-4.9,1.6c-2.8,1.4-5.4,3.1-7.7,5.2c-0.3,0.4-0.9,0.8-0.8,1.3
		c0.5,0.4,1.2,0.5,1.8,0.5c2.9,0.3,5.9,0.2,8.8-0.1c2.2-0.2,4.5-0.5,6.5-1.6C585.9,353.8,586.8,352.8,587,351.6"/>
	<path fill="#FFED33" d="M288.1,395.4c1.8,0.5,3.8-0.1,5.3-1.1c2.1-1.4,3.7-3.4,5.1-5.5c2.5-3.8,4.7-7.8,5.8-12.3
		c0.7-3,1.1-6.2,0.3-9.3c-0.4-1.4-1.1-2.8-2.4-3.6c-1.4-0.8-3.2-0.9-4.7-0.5c-3.5,0.8-6.4,3.4-8.6,6.1c-3.5,4.4-6,9.8-6.4,15.4
		c-0.2,2.7,0.1,5.6,1.5,7.9C284.8,394.1,286.4,395,288.1,395.4 M290.5,387.6c4.1-4.1,7.5-9,9-14.6c0.3-0.8,0.5-1.7,1-2.4
		c0.5-0.1,0.5,0.7,0.6,1c0.4,4.4-1.4,8.8-3.9,12.3c-2,2.7-4.7,5.2-8.1,5.6C289.3,388.7,290,388.2,290.5,387.6 M371.7,383.6
		c-4.8,1-8.7,4.5-11.1,8.7c-3,5.3-3.8,12-1.4,17.6c1.5,3.5,4.3,6.4,8,7.5c4,1.2,8.4,0.1,11.7-2.3c4.8-3.4,7.7-9.2,8.2-15
		c0.4-4.7-0.9-9.7-4.2-13.2C380.2,384,375.7,382.7,371.7,383.6 M380.9,407.4c-1.2,2.2-2.9,4.3-5.1,5.4c-1,0.4-2.1,0.9-3.2,0.6
		c0.1-0.6,0.6-1.1,1.1-1.5c4.6-3.7,6.9-9.6,7.2-15.3c0.1-1.3-0.3-2.7,0.4-3.9c0.8,0.3,1,1.2,1.2,1.9
		C383.7,398.9,383,403.6,380.9,407.4"/>
	<path fill="#5979B8" d="M292,405.8c-2.7,0.6-5.7-0.2-7.7-2.1c-1.6-1.5-2.1-3.9-2.1-6c2.4,1.9,5.7,2.8,8.7,2
		c3.5-0.9,6.3-3.4,8.6-6.1c3.7-4.4,6.6-9.7,8.3-15.2c1.2-4.2,1.9-8.7,0.7-12.9c-0.8-2.7-2.5-5.2-5.1-6.5
		c6.4-7.3,13.6-14.1,21.7-19.5c7.2-4.9,15.2-8.7,23.5-11.2c-0.1,0.7-0.8,1.1-1.3,1.5c-7.7,6.8-14.8,14.3-20.6,22.7
		c-5.9,8.5-10.4,17.8-14.4,27.3c-1.7,3.9-3,7.9-5.2,11.6c-2.3,4.1-5.2,8-8.8,11.1C296.4,404,294.3,405.4,292,405.8 M404.2,333.6
		c2.3-1.2,4.6-2.4,7.1-3.1c4.3,0.1,8.7,1.1,12.2,3.7c-4.3,2.7-7.7,6.6-10.5,10.8c-5.2,7.8-8.6,16.7-11.4,25.6
		c-3.4,11.3-5.9,22.8-7.9,34.4c-1,5.6-3,11-6.4,15.6c-2.4,3.3-5.7,6.1-9.5,7.4c-4.4,1.6-9.4,1.3-13.8-0.2c-3.7-1.3-7.1-3.8-9.3-7
		c-3.3-4.6-4.5-10.3-4.4-15.8c0.1-6.2,1.7-12.2,4.2-17.8c3.7-8.3,8.9-15.9,14.7-22.9c6.4-7.7,13.5-14.9,21.3-21.2
		C394.9,339.6,399.4,336.3,404.2,333.6 M381.6,419.1c8.3-5.9,12.2-17.3,9.4-27.1c-1.2-4.3-3.8-8.2-7.5-10.7
		c-3.4-2.4-7.8-3.3-11.9-2.6c-5.3,0.8-9.9,4-13.1,8.2c-3.4,4.4-5.3,10-5.4,15.5c-0.1,5,1.4,10.1,4.6,14c2.4,3,5.9,5.2,9.8,5.9
		C372.4,423.4,377.6,422,381.6,419.1 M427.5,431.3c0.4-4,0.8-8.1,1.3-12.1c-4.1,3-8.3,5.8-12.5,8.7c-2.6-5.5-5.3-10.9-8.3-16.2
		c-2.3-4.1-4.9-8.1-7.5-12c-0.6,3.8-1,7.6-1.9,11.4c-1.2,4.8-3,9.5-5.9,13.5c-2.6,3.7-6.1,6.9-10.3,8.8c-4.9,2.3-10.5,2.7-15.8,1.8
		c-5-0.8-9.8-2.9-13.5-6.4c-3.6-3.3-6.1-7.8-7.4-12.5c-1.6-5.5-1.7-11.2-0.9-16.8c0.8-5.3,2.6-10.5,4.8-15.3
		c2.1-4.5,4.6-8.8,7.4-12.9c-10-3.5-20.5-5.6-31.1-6.6c-4.1,7.5-7.4,15.5-10.4,23.5c-1.8,4.7-4.2,9.2-7.2,13.2
		c-3,4-6.7,7.6-11.3,9.6c-4.3,1.9-9.3,1.8-13.5-0.2c-3.4,8.3-5.7,17.1-6.7,26.1c-0.7,6.6-0.7,13.4,0.9,19.9
		c5.4-4.3,10.9-8.5,16.8-12.2c8.5-5.3,17.7-9.7,27.5-11.8c6.3-1.4,12.7-1.7,19.1-0.9c5.4,0.6,10.6,2.1,15.5,4.4
		c4.6,2.2,8.8,5.2,12.5,8.6c6.6,6.2,11.6,13.8,15.8,21.8c-2.5,1.3-5,2.6-7.5,3.9c-2-3.8-4.2-7.5-6.9-10.9
		c-5.1-6.8-11.8-12.7-19.7-15.9c-6-2.5-12.5-3.4-18.9-3.2c-10.9,0.5-21.3,4.8-30.7,10.2c-8.5,4.9-16.3,10.8-23.7,17.2
		c2.3,1.8,4.2,4.1,5.4,6.7c0.2,0.4,0.5,1.3-0.2,1.4c-1,0-1.8-0.6-2.7-1c-3-1.5-6.2-2.6-9.5-2.9c-2.3-0.2-4.7,0.3-6.7,1.4
		c7.9,6.9,13.8,15.9,18.3,25.3c4.3,9,7.6,18.5,10.7,28c1.4,3.8,2.1,7.9,3.1,11.8c2.2,9.4,4.6,18.9,7.8,28c1.5,3.9,3,7.9,5.3,11.4
		c1,1.3,2.1,2.7,3.7,3.1c1.5,0.3,2.8-0.7,3.8-1.8c2.2-2.6,3.6-5.8,4.7-8.9c1.3-4,2.3-8.3,2.1-12.5c10.2-12.2,20.5-24.3,30.3-36.8
		c2.2,1.7,4.5,3.5,6.7,5.2c-4.7,6.4-9.4,12.8-14.3,19.1c15.6,2.2,31.9,1.1,46.5-4.9c13.9-5.5,26-15.7,33.7-28.7
		c3.7-6.3,6.3-13.2,7.8-20.4c2.1-9.9,2.2-20.2,0.9-30.3C433.9,451,431.1,441,427.5,431.3 M368,554.5c-9.1,0.4-18.2-0.4-27.1-2.3
		c-2.8,3.4-5.6,6.8-8.5,10.1c8.3,14.2,16.9,28.2,26.2,41.7c11.5,16.9,24.1,33.1,37.5,48.5c-0.1,4.1,0.1,8.3,1.6,12.2
		c1.3,3.4,3.6,6.3,6.7,8.2c4.3,2.7,9.6,3.2,14.6,2.5c5.7-0.9,11.1-3.3,15.9-6.5c7.5-5,13.6-12,18-19.8c2.3-4.1,4-8.4,5.3-12.9
		c2-6.9,3.1-14,3.3-21.1c0.1-5.3-0.4-10.7-2.3-15.7c-1.2-3-3.1-6-6.2-7.4c-3.2-1.6-7-1-10.2,0.3c-10.2-17.3-20.4-34.6-30.3-52.1
		C399.5,549.2,383.8,553.9,368,554.5"/>
	<path fill="#895127" d="M295.9,563.7c2.3,6.9,4.7,13.9,8.3,20.2c0.8,1.3,1.7,2.6,2.6,3.8c-0.4,7.5-3.8,14.8-9.4,19.9
		c-2.3,2-4.9,3.6-7.7,4.7c-0.3-11-4.9-21.9-13-29.4c-1.2-3.3-2.2-6.7-3.4-10c-3-8.3-6.3-16.5-10.2-24.4c-4.1-8.3-8.8-16.3-14.6-23.5
		c-5.8-7.3-12.9-13.7-21.1-18.1c-4.5-2.4-9.4-4.2-14.3-5.6c-6.6-1.9-13.5-3-20.4-2.8c-8,0.1-16.2,2.1-23,6.6
		c0.6-5.7,2.8-11.2,5.8-16.1c5-8.2,12.5-15,21.2-19c10.5-4.9,22.6-5.7,33.9-3.4c9.8,1.9,19.4,5.8,27.2,12.1c8,6.3,13.8,14.9,18.3,24
		c4.6,9.4,8,19.3,11.3,29.2C290,542.5,292.5,553.2,295.9,563.7 M423.7,683.2c-5.9,1.3-12.2,1.3-18.1-0.3c-0.9,7-0.9,14.1-0.1,21.1
		c0.7,5.8,2,11.5,4.1,16.9c3.2,8.2,8.8,15.8,16.5,20.2c4.7,2.8,10,4.3,15.4,4.9c6.1,0.8,12.5,0.5,18.4-1.5c5.1-1.7,9.8-4.6,13.6-8.5
		c3.4-3.6,6.1-7.8,8.1-12.3c4.2-9.7,5.5-20.4,5.6-30.8c0.2-13.3-1.5-26.5-4.1-39.5c-0.1-0.8-0.5-1.7-0.3-2.5
		c0.9-4.9,1.7-9.8,2.2-14.7c0.6-6.8,0.8-13.7-0.5-20.4c-0.9-4.8-2.6-9.6-6-13.2c-2.9-3.3-7.2-5.1-11.6-5.5c1.3,3.9,2,8,2.3,12.1
		c0.5,6.6,0.1,13.3-0.9,19.9c-0.8,5.2-2,10.4-3.8,15.5c-3.1,9.3-8.5,17.8-15.5,24.7C442.2,675.9,433.4,681.1,423.7,683.2"/>
	<path fill="#C1845A" d="M274,586c5,5.6,8.4,12.6,9.2,20c0.4,4.2,0.1,8.6-2.1,12.3c-1.3,2.2-3.2,4-5.3,5.5c1.4-2.7,1.3-6,0.8-8.9
		c-1.2-6.9-4.3-13.4-8.5-18.9c-0.7-1-1.6-1.8-2.2-2.8c-2.4-7.3-4.9-14.6-7.8-21.7c-3.4-8.3-7.3-16.5-12.2-24
		c-4.6-7-10.2-13.3-16.8-18.3c-4.5-3.4-9.3-6.2-14.5-8.5c-5-2.2-10.4-3.5-15.8-4.3c-5.8-0.8-11.8-0.9-17.6,0.3
		c-4.5,0.9-8.8,2.6-12.4,5.5c-1.9,1.5-3.5,3.4-4.8,5.4c0.3-3.4,1-6.8,2.4-9.9c1.3-2.9,3.6-5.3,6.2-7.1c4.6-3.2,10.1-4.8,15.6-5.5
		c10.9-1.3,21.9,0.9,31.9,5.2c9.1,3.9,17,10.3,23.5,17.8c6.5,7.5,11.8,16.1,16.3,25c5.1,10.2,9.2,20.8,13.3,31.5
		C273.5,585.1,273.7,585.6,274,586 M261.4,594.9c4.3,5.3,8.2,11,10.3,17.5c1,3.4,1.5,7.4-0.3,10.7c-1.2,2.3-3.4,4-5.8,4.9
		c-3.3,0.8-6.7,1.5-10.1,1.3c-6.9-0.3-13.6-2.7-19.7-6.1c-10.9-6.1-19.8-15.1-27.1-25.1c-12.6-9.1-24.3-19.8-32.9-32.7
		c-4.6-6.9-8.3-14.6-10.3-22.7c-0.6-5.3,0.8-11,4.6-14.8c4-4.1,9.9-5.9,15.5-6.6c6.8-0.8,13.7,0,20.3,1.7c3.9,1,7.7,2.7,11.2,4.7
		c8.8,4.8,16.5,11.5,22.6,19.4c5.5,7.1,9.8,15.1,13.3,23.4c3.1,7.4,5.6,15,7.8,22.7C261,593.7,261.1,594.4,261.4,594.9 M259.2,596
		c0.1-0.7-0.9-0.8-1.4-0.9c-3.2-0.2-6.5-0.2-9.7-0.2c-6.6,0-13.2,0-19.9,0.2c-4.2,0.1-8.5,0.2-12.7,0.7c-1,0.2-2.2,0.1-3,1
		c0.6,0.9,1.7,1.1,2.6,1.5c4,1.2,8.2,1.5,12.3,1.7c6,0.2,12.1,0,18.1-0.5c3.6-0.4,7.3-0.7,10.8-1.7
		C257.4,597.3,258.5,596.9,259.2,596 M488.8,650.8c-0.2,0.9,0.1,1.9,0.2,2.8c0.9,5.2,1.8,10.3,2.5,15.5c1.9,12.9,2.5,26,0.5,38.9
		c-1.7,11-5,22-11.5,31.2c3.2-0.2,6.2-1.4,8.7-3.3c3.7-2.9,6.1-7,7.8-11.3c2.3-5.8,3.4-11.9,4-18.1c1.2-12.7,0.5-25.6-1.5-38.2
		c-0.9-5.3-2.1-10.7-3.9-15.8c1.1-0.6,2.3-1.3,3.1-2.3c1.3-1.4,1.9-3.3,2.1-5.2c0.5-3.4,0.1-6.9-0.2-10.3
		c-0.5-6.5-1.4-13.2-4.1-19.2c-1.6-3.6-4.2-7.2-8.1-8.6c0.6,2,1.1,4.1,1.4,6.2C492,625.6,490.6,638.3,488.8,650.8"/>
</g>
</svg>
