<?xml version="1.0" encoding="utf-8"?>
<!-- Generator: Adobe Illustrator 21.0.0, SVG Export Plug-In . SVG Version: 6.00 Build 0)  -->
<svg version="1.1" id="Warstwa_1" xmlns="http://www.w3.org/2000/svg" xmlns:xlink="http://www.w3.org/1999/xlink" x="0px" y="0px"
	 viewBox="0 0 792 792" style="enable-background:new 0 0 792 792;" xml:space="preserve">
<style type="text/css">
	.st0{fill:#FFD5AB;}
	.st1{fill:#7B2901;}
	.st2{fill:#BB4D5B;}
	.st3{fill:#FF0122;}
	.st4{fill:#FFFFFF;}
	.st5{fill:#40D4FF;}
	.st6{fill:#FEF500;}
	.st7{fill:#0052AD;}
	.st8{fill:#895127;}
	.st9{fill:#C1845A;}
</style>
<path class="st0" d="M574.8,289.6c-5.5-2.6-11.6-3.6-17.7-3.7c-5.1-0.1-10.3,0.4-15.2,1.6c-0.8,0.1-1.3,0.6-1.9,1.1
	c-5.9,4.4-12.4,8-19.4,10.4c-5.2,1.8-10.7,3-16.2,2.9c-4.7-0.1-9.6-1.2-13.4-4.1c-3.1-2.3-5.2-5.9-5.4-9.8c-0.2-3.1,0.8-6.1,2.5-8.7
	c-2.3-2.7-3.7-6.3-3.3-9.9c0.5-3.9,3-7.4,6.1-9.7c4.3-3.2,9.8-3.7,15-4.2c2.6-0.3,5.4-0.3,7.9-1.4c3.9-1.8,6.7-5.1,9.2-8.4
	c-2.1-4.9-4.4-9.8-6.7-14.6c-6,3-13.2,3.2-19.6,1.2c-4.4-1.3-8.1-4.1-11.4-7.2c-3.5-3.3-6.2-7.4-8.6-11.5c-2.7-4.6-5.2-9.3-8-13.9
	c-2.3-3.7-4.7-7.3-7.2-10.9c-4.1,1.4-7.8,3.8-11.3,6.3c-0.9,0.6-1.8,1.4-3,1.5c-0.1-0.9,0-1.9,0.2-2.8c1.1-4.4,3-8.5,5.4-12.3
	c-10.6-3.9-22.2-5.9-33.4-4.3c1.1,4.9,1.6,10,1,15c-0.2,1.1-0.2,2.4-1.2,3.1c-1.3-1.4-2-3.1-3-4.7c-2-3.3-4.6-6.6-8.2-8.3
	c-2.1-1-4.6-1.5-6.9-0.7c-2,0.7-3.5,2.3-4.8,3.9c-0.7,0.9-1.5,1.5-2.1,2.5c-4.9,7.8-8.9,16.2-12,24.9c1.4,0.7,2.7,1.4,4.1,2.1
	c1.9-5.2,4.3-10.3,8-14.5c2.5-2.9,5.8-5.2,9.6-5.8c3.2-0.5,6.6,0.2,9.3,2c3.1,2.1,4.9,5.7,5.7,9.4c1,4.9,0.5,10-0.5,14.9
	c-1.3,5.9-3.6,11.6-6.8,16.7c2,2.6,3.8,5.4,5.5,8.2c-2.9,1.6-5.8,3.1-8.7,4.7c-5.1-8.5-11.9-16-19.8-22.1
	c-8.3-6.6-18.6-10.9-29.3-11.3c-5.6-0.2-11.4,0.8-16.4,3.4c-4.1,2.1-7.5,5.3-9.9,9.2c-2.3,3.7-3.7,7.9-4.5,12.1
	c-1.3,7-1.2,14.3,0.6,21.2c2.5,9.5,8.5,18,16.3,23.8c8.4,6.3,18.8,9.8,29.3,10.6c6.2,0.5,12.6,0.2,18.7-1.2c4.7-1.1,9.3-3,13.1-6
	c3.4-2.6,6.2-6.1,7.7-10.2c3.2,0.8,6.3,1.6,9.5,2.4c-0.6,2.1-1.6,4.1-2.6,6c5.9-0.4,11.8-1.4,17.5-3.1c9-2.6,17.4-7.3,24.2-13.7
	c1.5-1.4,2.8-3,4.5-4.2c0.4-0.3,0.9,0.2,1.1,0.5c1.1,1.5,1.9,3.3,2.6,5c1.2,3.2,2.2,6.4,2.7,9.8c0.8,5.1,1,10.7-1.1,15.6
	c-1.3,3.2-4,5.7-7,7.3c-4.7,2.6-10.6,2.8-15.6,0.8c0.3,3.2,0,6.5-1,9.6c-1.2,3.6-3.7,6.7-7,8.5c-0.2,9.2-1,18.5-3.7,27.4
	c-1.5,4.8-3.5,9.5-6.6,13.5c-2.7,3.5-6.3,6.3-10.4,7.9c-4.5,1.7-9.4,2.1-14.1,1.3c-4.4-0.8-8.5-3-11.9-6c-3.6-3.3-6.4-7.4-8.6-11.7
	c-2.7-5.4-4.7-11.1-6.2-17c-0.5-1.5-0.6-3.2-1.2-4.7c-2.1-1.2-4.3-2.5-5.6-4.6c-0.5-0.8-0.9-1.8-0.5-2.7c0.2-0.5,0.8-0.6,1.2-0.3
	c1.5,0.8,2.9,1.7,4.5,2.4c5.4,2.3,11.2,3,17,3.2c11.3,0.4,22.8-1.8,33-6.8c-1-0.3-2.1-0.4-3.2-0.7c-5.3-1.3-10.4-3.5-15.3-6.1
	c-0.7,2.2-1.8,4.2-3.4,5.9c-2.5,2.8-6.2,4.3-9.9,4.6c-5.5,0.5-11-1.2-15.9-3.7c-4.5-2.4-8.6-5.5-12.3-9c-3.2,2.9-7.4,5-11.8,5
	c-4.3,0-8.4-2.1-11.3-5.2c-3.3-3.5-5.4-8-6.4-12.6c-2,1.4-4.5,2.3-7,2.3c-0.1,2.3,0,4.5,0.2,6.8c1.1,9.1,5.5,17.6,11.1,24.7
	c6.2,7.9,13.9,14.4,22.1,20.2c0.8,1.3,1.5,2.7,2.4,4c5.2,8,12.3,14.8,20.8,19.2c5.1,2.6,10.5,4.3,16.1,5.4
	c6.1,1.2,12.3,1.7,18.5,1.4c5.5-3.9,11.3-7.4,17.3-10.5c20.1-10.2,42.5-15.2,64.9-16.3c12.6-0.6,25.2-0.2,37.7,1.3
	c6.2-1.5,12.1-4,17.7-7c5.7-3.2,11.2-7,15.9-11.6c5.8-5.7,10.4-12.7,12.5-20.7c2.1-8.1,1.2-17.2-3.6-24.3
	C583.6,295.2,579.5,291.8,574.8,289.6 M477.3,234.4c-0.6,5.5-2.1,10.9-4.3,16c-1.8,4-4.1,7.8-7,11.1c-2.9,3.2-6.5,5.9-10.6,7.5
	c-5.1,2-10.8,2.2-16,0.8c-4.1-1.1-7.8-3.8-10.2-7.4c-2.5-3.8-3.6-8.4-3.7-12.9c-0.1-5.3,1-10.5,2.6-15.5c1.4-4.3,3.2-8.5,5.4-12.4
	c2.5-4.3,5.5-8.4,9.4-11.5c3.1-2.6,6.8-4.5,10.8-5.1c4.8-0.8,9.9,0.2,14.1,2.7c3.6,2.2,6.2,5.7,7.7,9.5
	C477.6,222.6,477.9,228.6,477.3,234.4 M571.4,311.8c-1.4,0.2-2.8-0.1-4.2-0.2c-5.3-0.6-10.7-0.4-15.7,1.4c-4.7,1.6-9,4.4-12.5,7.9
	c4.6,1.2,9.1,3.5,12.2,7.1c0.7,0.9,1.7,2.1,1.1,3.4c-1.2-0.3-2.2-1.1-3.3-1.7c-4.7-2.6-10.4-3.2-15.7-2.5c-2.5,3.4-4.6,7.4-5.2,11.6
	c-0.3,1.8-0.3,3.6-0.2,5.4c0,0.5-0.1,1.1-0.3,1.5c-1.2-0.3-1.9-1.4-2.5-2.4c-2.6-4.7-2.7-10.4-0.8-15.4c1.7-4.4,4.8-8.2,8.4-11.2
	c4.1-3.5,8.8-6.4,13.9-8.3c4.9-1.8,10.3-2.6,15.5-1.8c2.5,0.3,4.9,1,7.1,2.2C570.3,309.5,571.7,310.4,571.4,311.8"/>
<path class="st1" d="M494.5,290.8c-1.3-1.6-2-3.8-1.8-5.9c0.2-2.5,1.3-4.9,2.9-6.9c-1.9-1.8-3.3-4.4-2.8-7.1
	c0.6-3.6,3.5-6.7,6.9-7.9c2.8-0.9,5.8-0.6,8.7-1c4.3-0.4,8.4-1.9,11.9-4.3c2.1-1.5,4-3.3,5.7-5.2c4.1,9.9,7.7,19.9,10.4,30.2
	c-7.6,5.7-16.6,9.8-26,11.2c-3.6,0.5-7.4,0.6-11-0.3C497.6,293,495.7,292.2,494.5,290.8"/>
<path class="st2" d="M395.7,358.5c1.5-2.8,4.1-4.8,6.9-6c10.2,0,20.7-1.2,30.1-5.4c-1.2,4.5-3,8.8-5.6,12.6
	c-2.3,3.2-5.4,5.9-9.1,7.2c-4.7,1.6-10.1,1.4-14.5-1.1C400.3,364,397.8,361.4,395.7,358.5"/>
<path class="st3" d="M456.9,111.5c-5.2,2.8-9.4,7.3-11.9,12.6c-3.8-2.7-7.6-5.3-11.7-7.6c4.2-7.6,10.1-14.5,17.5-19.3
	c4.8-3.2,10.3-5.4,16-6.4c6.2-1.1,12.6-0.8,18.8,0.5c9.8,2,19.2,5.8,27.6,11.1c8.5,5.3,16,12.2,22.3,19.9
	c6.1,7.5,11.2,15.8,15.5,24.4c5.2,10.3,9.2,21.2,12.6,32.3c3.1,10.3,5.8,20.7,7.9,31.2c2.6,13.1,4.3,26.5,3.8,39.9
	c0,1.6-0.2,3.2,0.1,4.8c0.1,0.5,0.7,0.9,1.1,0.5c1.1-0.6,1.6-1.9,2.2-3c1.9-4.5,2.7-9.4,3.2-14.3c8.1,4,15.3,10,20.3,17.4
	c2.7,4,4.7,8.5,5.5,13.2c1,5.4,0.3,11.1-1.9,16.2c-2.1,4.7-5.3,8.8-9.3,12c-3.8-7.1-9.9-13-17.4-16.1c-6-2.6-12.6-3.7-19.1-3.8
	c-5.3-0.1-10.6,0.4-15.8,1.2c-2.9-10.2-6.5-20.3-10.5-30.1c-10.4-25.3-23.4-49.5-39.1-71.9c5.4-0.7,10.6-2.9,14.7-6.4
	c3.5-3.1,6-7.2,7.1-11.7c1.4-5.3,0.9-10.8-0.5-16.1c-2.4-9.3-7.5-18.1-14.8-24.4c-7.5-6.5-17.3-10.2-27.2-10.3
	C468,107.4,462.1,108.7,456.9,111.5 M382.8,116.1c-3.8,1.6-6.9,4.5-9.1,7.9c-3.3,5.1-4.8,11.2-5.6,17.1c-1,8.2-0.3,16.5,1.4,24.5
	c2.3,10.6,6.2,20.7,11.4,30.2c1.4-2.6,2.7-5.2,4.2-7.7c2.2-4,4.7-7.9,8.3-10.8c0.5-2,1.1-4.1,2.1-6c1.6-3.1,4.1-6,7.5-7
	c3.1-0.9,6.7-0.6,9.4,1.2c1.5,1,2.7,2.3,3.7,3.8c10.6-1.9,21.6-0.9,32,1.9c-4.3-5.3-8.8-10.5-13.5-15.5c-6.3-6.8-13-13.2-19.9-19.3
	c-0.8-0.7-1.7-1.4-2.1-2.4c1.4-0.2,2.7,0.5,4,1.1c4,2,7.7,4.6,11.3,7.3c11.8,9.1,22.2,20,31.7,31.4c4.9-3.8,11.3-6.3,17.6-5.4
	c-1.2-1.6-2.5-3.1-3.8-4.6c-12.5-14.7-26.7-28.2-43.3-38.1c-9.3-5.4-19.3-9.9-30-11.3C394.3,113.7,388.2,113.8,382.8,116.1
	 M469.6,187.1c3.1,4.9,6,9.8,8.9,14.8c2.7,4.6,5.3,9.2,8.5,13.4c2.7,3.5,6,6.7,10.2,8.4c4.9,2.1,10.5,2,15.4,0
	c-1.2-2.4-2.5-4.8-3.8-7.2c-4.8-8.8-9.9-17.4-15.5-25.7c-0.1,3.5-0.7,6.9-2.1,10.1c-0.6,1.2-1.1,2.6-2.3,3.4c-0.8-1-1-2.3-1.4-3.5
	c-0.6-1.8-1.2-3.6-2.1-5.3c-1.4-2.8-3.6-5.4-6.4-6.8C476.1,187.1,472.8,186.9,469.6,187.1 M348.5,355.6c-9-7.7-17-17.1-21.5-28.3
	c-2.6-6.4-3.7-13.4-3.2-20.2c0.1-2,0.5-3.9,0.8-5.9c-2-4.7-1.5-10-0.4-14.8c-1.9,0.1-4.1-0.5-5.2-2.2c-1.4-1.9-1.5-4.5-1.2-6.8
	c0.4-2.9,1.6-5.6,3-8.1c-0.1-0.9-0.6-1.8-0.8-2.7c-1.9-6.7-2.5-13.8-2-20.7c0.5-5.6,1.6-11.1,3.8-16.3c1.9-4.4,4.7-8.6,8.1-12
	c3.3-3.2,7.2-5.7,11.4-7.5c10.4-4.3,22.3-3.9,32.9-0.6c0.6-1.3,1.2-2.7,1.8-4c-1.2-2-2.2-4.1-3.5-6c-9.3-3.4-18.9-6-28.7-7.7
	c-13.8-2.3-28.1-2.8-41.9,0c-2.5,15.9-4.2,32-4.3,48.1c-0.3,22.9,3.1,45.9,10.6,67.5c3.7,10.8,8,21.3,12.7,31.6
	c4.1,8.7,8.3,17.3,13.4,25.4C338.9,361.2,343.6,358.2,348.5,355.6 M603.8,398.4c-4.7-4.8-10.2-8.7-16-12c-7.5-4.2-15.5-7.4-23.7-9.9
	c-10.6-3.1-21.6-5-32.7-5.9c-12.8-1-25.7-0.8-38.4,0.8c-0.7,0-1.2,0.5-1.7,0.9c-8.1,5.8-15.1,13.1-20.5,21.5
	c-5.8,8.9-9.7,19-11.6,29.4c12.1-4.6,25.5-4.9,38.1-1.9c1.2-3.4,3.8-6,6.8-7.8c4.6-2.7,10-3.8,15.3-4.3c2.4-6.6,8.3-11.4,14.7-13.8
	c1.7-0.6,3.4-1.2,5.2-1c0.2,0.9-0.5,1.5-1,2.1c-3.3,3.8-6,8.1-8.2,12.7c15.6,1.5,30.6,7.7,43.2,16.8c9.3,6.6,17.8,14.6,24,24.3
	c5.9-3.3,11-8.2,14.1-14.3c3.2-6.2,4-13.6,2.6-20.4C612.4,409,608.5,403.2,603.8,398.4 M398.5,412.8c4.3-5.5,9.2-10.5,14.3-15.3
	c-6.2-0.8-12.3-2.1-18.3-4c-4.8-1.5-9.5-3.4-13.7-6.2c-0.3-0.1-0.5-0.5-0.9-0.4c-4.1,3.7-8,7.6-11.6,11.8
	C378.9,402.2,388.9,407.1,398.5,412.8"/>
<path class="st4" d="M335.8,182c-9.1-1-18.4-1-27.5,0.5c-4.1,0.7-8.2,1.6-12.1,3.1s-7.7,3.5-10.5,6.6c-1.3,1.6-2.7,3.5-2.4,5.7
	c0.9,0.2,1.8-0.3,2.6-0.6c2.2-1,4.4-1.9,6.7-2.7c-0.9,4.5-1.6,9.1-2.1,13.7c-4.1-1.6-7.9-4.3-10.4-8c-2.5-3.5-3.7-7.9-4-12.2
	c-0.2-3-0.1-6,0.7-8.9c0.9-3.7,2.8-7.2,5.1-10.2c3.4-4.5,7.9-8.2,12.5-11.5c1.1-0.8,2.2-1.5,3.1-2.6c-0.7-0.3-1.4-0.4-2.1-0.4
	c-3.6,0.1-7,1.2-10.2,2.7c-2.5-4.2-4.4-8.7-5.8-13.4c-3.3-10.9-4.4-22.4-4.4-33.8c0.1-11,3.4-22,9.4-31.2
	c5.3-8.1,12.5-14.9,20.6-20.1c4.5-2.8,9.2-5.2,14.2-6.9c4.9-1.8,10-2.7,15.1-3.4c11.6-1.4,23.3-1.1,34.9,0.7c3.4-3,8-4.4,12.5-4.6
	c7.1-0.3,14.3,2,19.7,6.6c8.2,6.9,12.7,17.7,12.7,28.4c0,4.2-0.5,8.5-2.4,12.2c-5.9-7.9-14.5-13.5-23.8-16.7
	c-0.6-0.2-1.3-0.4-1.8-0.7c-0.7-3.5-2.1-6.9-4.2-9.8c-1.5-1.9-3.3-3.7-5.5-4.7c-0.6-0.3-1.2-0.4-1.9-0.4c-0.1,1,0.5,1.8,0.9,2.7
	c1.7,3.3,3,6.8,3.4,10.5c-5.3-0.9-10.9-1.2-16,0.6c-2.5,0.8-4.8,2.3-6.6,4.2c-1.2-4.7-3.2-9.4-6.4-13.1c-1.2-1.3-2.5-2.7-4.2-3.4
	c-0.4-0.2-0.9-0.1-1.4,0c0.5,1.6,1.3,3.1,2,4.7c1.7,3.8,2.7,7.9,3.5,12c1.1,5.7,1.4,11.6-0.3,17.2c-1.1,3.6-3.1,7.1-5.9,9.7
	c-1.9,1.7-4.3,2.8-6.9,3s-5.2-0.6-7.5-1.7c1.7-5.2,1.4-10.9,0.3-16.1c-1.5-6.3-4.7-12.3-9.7-16.6c-1-0.7-2-1.7-3.3-1.6
	c-0.7,0.3-0.1,1.3,0.1,1.8c2,4,3.7,8.1,4.6,12.4c0.6,2.8,1,5.7,1.1,8.6c0.1,4.5-1.6,9.2-5,12.3c-3,2.8-7.3,4.2-11.3,3.2
	c-2.7-0.7-4.8-2.6-6.5-4.7c-2.4-3.1-3.6-7.1-4.1-10.9c-0.3-1.4-0.2-3-0.8-4.3c-1,0.5-1.4,1.6-1.8,2.6c-1.2,3.4-1.3,7.1-0.6,10.6
	c0.9,4.4,3.1,8.5,6.1,11.9c2.6,2.8,6.3,4.2,10,4.5c6.3,0.4,12.7-2.2,16.9-6.8c6.4,4.5,15.5,4.3,21.8-0.2c0.5,0.3,0.9,0.6,1.4,0.9
	c-2.6,2.7-4.8,5.7-6.5,9.1c-1.1,2.3-2.1,4.7-2.3,7.3c0,1.1-0.1,2.4,0.9,3c1.4-1.7,2.4-3.7,3.7-5.5c4-5.9,9.6-10.8,15.9-14.1
	c2-1,4-1.8,6.1-2.6c-2.2-3.8-4-7.8-5.3-12.1c-1.1-3.7-1.8-7.6-0.9-11.4c0.7-2.9,2.7-5.4,5.5-6.5c3.4-1.3,7.2-1.1,10.7-0.5
	c6.2,1.1,12.1,3.5,17.5,6.8c4.1,2.6,8,5.7,11,9.6c2.1,2.8,3.8,6.1,4.3,9.7c-7.6-1.8-15.7-2.7-23.5-1.1c-5.8,1.1-11.3,3.8-15.5,8
	c-4.5,4.4-7.5,10.1-9.4,16.1c-2.5,8.1-2.9,16.8-2.1,25.2c1.1,11.2,4.2,22.2,8.5,32.6c0.5,1.1,1,2.3,1.4,3.4
	C358.1,185.8,347,183.2,335.8,182 M352.6,106.4c0.9,0.5,1.9,0.9,3,1.1c0.3-0.1,0.6-0.2,0.8-0.4c-0.7-1.5-1.2-3-1.8-4.5
	C353.9,104,353.3,105.2,352.6,106.4 M484.1,135c-4.3,1.6-8.5,3.4-12.7,5.1c-0.4-0.2-0.6-0.7-0.8-1.1c-1.6-2.5-3.2-5.1-4.7-7.6
	c-1.8,1.8-3.5,3.6-5.2,5.4c9.9,9.2,18.9,19.4,27.1,30.1c1.1,1.4,2.1,3,3.3,4.3c6.2-0.7,12.4-3.6,16.3-8.6c3.3-4.3,4.6-9.9,4.1-15.2
	c-0.8-9.4-5.4-18.3-12.2-24.7c-6.5-6.3-15.3-9.9-24.3-10.3c-5.4-0.3-11,0.7-15.7,3.4c-4.5,2.5-8.3,6.5-10.1,11.3
	c1.8,1.4,3.5,2.8,5.3,4.2c4.5-3.7,8.7-7.8,13-11.7c2.1,4.1,4,8.2,6,12.3c5.1-2.9,10.2-5.8,15.3-8.7c4.7,11.5,9.5,22.9,14.2,34.4
	c-4.5,1.7-9.1,3.5-13.7,5.2C487.5,153.6,485.8,144.3,484.1,135 M412.2,205.3c-0.5-1.4-1.4-2.8-2.7-3.6c-1.9-1.2-4.4-1.3-6.4-0.3
	c-2.4,1.1-4.2,3.1-5.7,5.2c-2.5,3.6-4.3,7.6-5.6,11.8c1.3,0.9,2.5,1.8,3.8,2.8c1.4-2.9,3-5.8,5.3-8.1c2.2-2.1,5.3-3.4,8.3-2.8
	c1.5,0.2,2.9,1,4.1,1.9C413.2,209.8,413,207.4,412.2,205.3 M464.4,212.9c-3.8-2.3-8.7-2.7-12.9-1c-4.4,1.8-7.9,5.4-10.6,9.3
	c-3.2,4.7-5.5,10-7.2,15.4c-1.6,5.3-2.6,11-1.7,16.5c0.6,3.6,2.5,7.1,5.6,9.1c-0.9-5.4-0.2-11,1.1-16.3c1.3-5.1,3.1-10.2,6-14.7
	c2.3-3.6,5.3-6.8,9.2-8.6c3.5-1.6,7.8-2.1,11.4-0.6c2.4,1,4.2,2.8,5.7,4.8c-0.1-1.6-0.3-3.2-0.7-4.7
	C469.6,218.5,467.7,214.9,464.4,212.9 M406.3,225.6c-1.3,0.5-1.9,1.9-2.3,3.2c1.1,1.2,2.2,2.3,3.3,3.5c1.2-1.6,1.6-3.7,1-5.6
	C408,226,407.2,225.3,406.3,225.6 M457,244.3c-2.2,0.6-3.2,3.1-3.1,5.2c0,1.5,0.7,3.1,2.1,3.7c1.1,0.5,2.5,0,3.2-0.9
	c1.6-1.8,1.9-4.6,0.7-6.6C459.3,244.7,458.1,243.9,457,244.3 M435.2,330.7c-8.9,5.4-19.2,8-29.5,8.8c-6.2,0.4-12.4,0.3-18.4-1.3
	c0.4,1.7,0.9,3.3,1.4,4.9c0.3,1.3,1.5,2,2.6,2.5c2.8,1.2,5.8,1.6,8.8,1.9c11.5,0.7,23-1.5,33.8-5.5
	C434.7,338.3,435,334.5,435.2,330.7 M591.8,460c1.5,3,2.7,6.1,3.5,9.3c0.9,4,1.3,8.2,0.1,12.2c-0.7,2.7-2.4,5-4.3,6.9
	c-2.2,2.2-5.3,3.6-8.5,3.5c-0.6-3.1-1.6-6.2-3-9c-1.6-3.1-3.5-6.1-6.2-8.3c-0.8-0.6-1.7-1.2-2.7-1c-0.6,0.2-0.4,0.8-0.3,1.2
	c0.7,2.4,1.6,4.8,2.1,7.3c1.6,6.4,2,13.2,1.1,19.8c-0.7,5.2-2.1,10.3-4.7,14.8c-2.9,5.1-7.3,9.5-12.8,11.8c-0.7-1.2-1.2-3-2.8-3.3
	c-0.6,2.3-0.5,4.7-1.3,7c-1,3.7-3.6,7-7.1,8.7c-5.2,2.6-11.6,3-16.9,0.5c-4.4-2-7.8-6-9.2-10.6c-0.9-3-1.2-6.2-1.3-9.3
	c0-2.6,0.3-5.1,0.4-7.6c0-0.7,0.1-1.5-0.3-2.1c-0.5-0.5-1.1,0.1-1.5,0.5c-1.8,2.1-2.7,4.8-3.5,7.5c-1.4,5.6-1.4,11.5,0,17.1
	c-4.2,0.8-8.5,0.7-12.5-0.7c-3.4-1.2-6.2-3.6-8-6.7c-2-3.3-2.8-7.1-3.3-10.9c-0.9-7.3,0.5-14.8,2.9-21.7c0.4-1.3,1-2.7,0.9-4.1
	c-1.7,0.3-2.8,1.8-3.9,2.9c-6.4,7.2-9,17.1-8.5,26.6c-3.7-0.8-7.3-2.4-10.3-4.8c-2.9-2.4-5-5.5-6.3-9c-1.5-4.2-1.9-8.7-1.8-13.1
	c0.2-7.2,2.1-14.3,5.4-20.7c0.9-1.8,1.9-3.5,2.9-5.2c0.4-0.7,0.8-1.3,0.9-2.1c-1.7,0.2-3.1,1.2-4.5,2.1c-6.1,4.4-10.1,11.1-12,18.3
	c-0.8,3.1-1.2,6.2-1.4,9.4c-3.5-0.7-6.5-3.2-8.4-6.2c-2.5-3.7-3.8-8.1-4.6-12.4c-0.9-5.5-0.9-11.1-0.3-16.6c1-9,5.6-17.6,12.4-23.6
	c8.4-7.6,19.8-11.2,31-10.8c4.1,0.1,8.1,0.8,12,1.7c9.4,2.1,18.6,5.2,27.3,9.4c3.4,1.6,6.6,3.4,9.9,5.1c0.6,0.3,1.7,0.9,1.8-0.2
	c-0.1-1.4-1.1-2.5-1.9-3.6c-2.7-3.1-6-5.6-9.5-7.8c-5.2-3.2-10.8-5.8-16.5-7.9c1.1-2,3.2-3.4,5.3-4.3c4-1.7,8.4-2.2,12.8-2.3
	c8.5,0,16.9,1.9,24.8,5c6.9,2.8,13.4,6.6,19.3,11.2C578.2,440.9,586.5,449.5,591.8,460 M504.7,447c3-0.4,6-1.2,8.9-2.3
	c1.2-0.5,2.6-1.1,3.4-2.3c-0.9-1.4-2.6-2-4-2.6c-3.5-1.4-7.3-2.7-11.1-1.9c-2.2,0.4-4.4,1.1-6,2.6c-1.1,1-1.7,2.7-1.1,4.1
	c0.6,1.2,1.9,1.8,3.1,2.2C500.1,447.4,502.4,447.3,504.7,447 M530,457.6c0.4-1,1-2,0.6-3.1c-0.5-0.6-1.3-0.8-2-1
	c-2.5-0.6-5.2-0.7-7.7-0.4c-1.9,0.2-3.8,0.5-5.5,1.3c-1.9,0.8-3.5,2.2-4.2,4.2c-0.8,2.1-0.3,4.7,1.3,6.3c3.3,2.9,8.8,2.9,12.1,0
	C526.8,462.8,528.7,460.3,530,457.6 M550.7,475.1c0.2-3-0.3-6-1.2-8.9c-0.3-0.7-0.5-1.4-1-1.9c-0.4,0-0.8,0.1-1.2,0.2
	c-1.9,0.5-3.6,1.4-5.2,2.4c-2.2,1.4-4.3,3.1-5.5,5.5c-1.1,2.6-1.3,5.7,0.1,8.2c1.1,2.1,3.6,3.4,6,3.1
	C546.8,483,550.5,479.3,550.7,475.1"/>
<path class="st5" d="M465.8,226.1c3,2.2,4.7,5.9,5,9.5c-0.5,3.9-1.6,7.8-3.1,11.4c0.1-2.6-0.1-5.2-1.3-7.6c-0.9-1.8-2.4-3.4-4.3-4.1
	c-2.1-0.7-4.4,0-6.2,1.3c-3.5,2.5-5.8,6.3-7.3,10.3c-1.3,3.9-1.9,8-1.5,12.1c0.2,1.8,0.6,3.6,1.4,5.3c-2.4,0.3-4.8,0.2-7.1-0.4
	c-1.5-5-0.9-10.4,0.1-15.4c1.3-5.8,3.3-11.6,6.8-16.6c2.3-3.1,5.3-5.9,9.1-6.9C460.2,224.2,463.4,224.3,465.8,226.1 M411.7,221.9
	c0.4-1.7,0.9-3.4,1.1-5.2c-0.9-1.7-2.5-3.2-4.5-3.4c-2.1-0.2-4.2,0.9-5.6,2.5c-2,2.2-3.3,4.8-4.4,7.5c1,0.9,1.9,1.7,2.9,2.6
	c0.9-1.9,2-3.8,3.7-5.1c1.1-0.9,2.6-1.4,4-1C410,220,410.9,221,411.7,221.9"/>
<path class="st6" d="M302.4,418c4.9,3.3,8.9,7.9,11.9,13c2.8,0.2,5.6-0.7,7.9-2.2c3.8-2.5,6.6-6.2,9-10.1c2.9-4.8,5.5-9.9,6.7-15.5
	c1-4.6,1.1-9.6-1.2-13.8c-2.3-4.1-7.2-6.3-11.8-5.8c-4.1,0.5-7.8,2.6-10.8,5.3c-4.3,3.8-7.4,8.8-9.6,14c-1.9,4.5-3.1,9.4-2.8,14.3
	C301.7,417.6,302.1,417.8,302.4,418 M315.3,420.6c3-2.8,5.6-6.1,7.6-9.7c2.7-4.7,4.7-9.9,5.6-15.2c0.2-0.8,0.2-1.6,0.6-2.3
	c0.5-0.4,1.1,0,1.4,0.5c0.9,1.5,0.9,3.3,0.9,5c-0.2,5.8-2.5,11.3-5.8,15.9c-2.3,3.1-5,6.1-8.6,7.7c-0.9,0.3-2.1,0.8-2.9,0.2
	C313.8,421.8,314.8,421.2,315.3,420.6 M418.8,427.3c-3.4,0.8-6.3,2.8-8.6,5.3c-3.4,3.6-5.7,8.2-7.2,12.9c-1.7,5.8-2.5,12-1.4,17.9
	c0.8,4,2.6,8.1,6.1,10.4c4.1,2.8,9.9,3.2,14.3,0.8c3.7-2,6.5-5.4,8.5-9c0.3-0.5,0.2-1.1,0.3-1.6c0.4-6.9,2.1-13.7,5-19.9
	c-0.1-4.2-1.1-8.4-3.6-11.8C429.1,428.4,423.7,426.2,418.8,427.3 M425.9,458.8c-1.7,3.7-4.3,7.2-7.9,9.1c-0.8,0.4-1.8,0.7-2.8,0.5
	c-0.1-0.4-0.1-0.9,0.2-1.3c1-1.5,2.2-2.9,3.2-4.4c3.2-4.8,5.1-10.4,5.7-16.1c0.3-3,0.1-6-0.6-8.9c0-0.4-0.4-1,0.1-1.4
	c0.7-0.5,1.5,0.2,1.9,0.7c1.4,1.7,2,3.9,2.4,6.1C428.9,448.5,428,454,425.9,458.8"/>
<path class="st7" d="M336,422.5c2.7-4.2,5.1-8.6,6.7-13.4c1.7-5.1,2.5-10.6,1.7-15.9c-0.6-4.3-2.5-8.5-5.7-11.5
	c-1.2-1.2-2.7-2.2-4.2-3c6.3-7,14-12.6,22.6-16.5c0.9,0.6,1.9,1.1,2.7,1.8c3.6,6.6,8.2,12.7,13.7,17.8c-6.9,6.4-13.4,13.4-18.9,21
	c-3.2,4.5-6.2,9.2-8.8,14.1c-2.5,4.7-4.7,9.5-7.1,14.3c-1,1.9-1.9,3.9-3.1,5.7c-3.3-1.3-6.7-2.4-10.2-3.4
	C329.8,430.5,333.2,426.7,336,422.5 M446,430.8c0.7-0.8,2-1.2,2-2.4c2.3-15.6,8.1-30.8,17.5-43.5c2.6-3.6,5.5-6.8,8.5-10
	c-4,1-7.9,2.1-11.8,3.4c-18.9,6.4-36.7,16.9-50.5,31.5c-7,7.4-12.9,16-16.9,25.4c-4.6,11-6.7,23-6,34.9c0.6,0.7,1.3,1.2,1.9,1.9
	c5,4.7,9.4,9.9,13.2,15.5c1.7,0.8,3.6,1.3,5.4,1.7c8,1.7,16.4,0.3,23.6-3.4c-1-3.6-1.8-7.2-2.2-10.9c-1.5,1.5-3.1,2.9-5,4.1
	c-3.6,2.3-7.9,3.5-12.1,3.3c-5.1-0.2-10.2-2.3-13.7-6c-3.1-3.2-4.9-7.5-5.8-11.8c-1.2-6.1-0.7-12.4,0.7-18.4
	c1.9-7.8,5.7-15.4,11.9-20.7c3.2-2.8,7.2-4.7,11.5-5.2c5.9-0.7,12.1,1.5,16.3,5.8c2.9,2.9,4.8,6.6,5.9,10.5
	C442.2,434.4,444,432.5,446,430.8 M393.5,419.5c-9.7-5.6-19.9-10.7-30.5-14.2c-5.1,6.8-9.4,14.1-13,21.7c-2.2,4.4-4.1,8.8-6.6,13
	c12.8,6,24.8,13.6,36.1,22.3C379.9,447.1,384.8,432,393.5,419.5 M482.3,531.1c-5.8,1-11.7-1.1-16.3-4.6c-6.1-4.5-10-11.5-11.5-18.8
	c-3.4-0.3-6.8-1.6-9.6-3.6c-3.2-2.3-5.7-5.4-7.6-8.8c-3.6,2.1-7.6,3.7-11.7,4.4c-5.2,1-10.6,0.6-15.8-0.6c0.5,2.1,1.1,4.3,0.6,6.5
	c-0.1,0.6-0.8,1.2-1.3,0.7c-1.3-1.1-2.1-2.5-3.2-3.7c-9.5-12.4-21.2-23-33.6-32.6c-7.6-6-15.7-11.4-24.2-16
	c-9.2-4.9-18.8-9.1-29-11.2c0.3,1.5,0.6,3,0.4,4.5c0,0.4-0.3,0.7-0.5,1c-0.7-0.4-1.3-1.1-1.8-1.8c-2.4-3.3-4.7-6.6-7.4-9.7
	c-3.7-4.2-8-8-12.8-10.8c-3.9-2.2-8.3-3.9-12.8-3.5c10.6,20.5,17.1,43,20.2,65.9c1.7,12.5,2.6,25.2,1.7,37.9
	c-0.7,9.6-2.6,19.2-6.7,28c-3.1,6.9-7.7,13-12.9,18.4c6,1.1,12.1,0,17.9-1.7c4.2-1.3,8.2-3,12.1-5.1c6.7,3.1,13.5,6,20.5,8.6
	c12.9,4.9,26,9.2,39.4,12.8s27.1,6.6,40.9,8.3c12.6,1.5,25.4,2.1,37.9,0.2c6-1,11.9-2.6,17.4-5.3c8.6-4.1,16.7-9.8,22.5-17.5
	c5.8-7.6,9-17.1,8.9-26.6c-3-0.4-6-1.1-8.8-2.4C489.2,541.5,484.5,536.9,482.3,531.1 M457.4,658.1c5.2-10.4,7.4-22.3,6.6-33.9
	c-0.4-6-1.7-11.9-4.1-17.4c-10.1,2.3-20.5,3.1-30.8,2.5c-5.7-0.3-11.4-1.2-17-2.2c-6.2-1.1-12.5-2.4-18.6-3.8
	c-24.5-5.8-48.3-14-71.4-23.8c1.4,7.8,3.2,15.4,5.5,23c3.6,11.4,8.5,22.5,15.8,32.1c5.5,7.2,12.3,13.4,20,18.2
	c4.8,3,9.9,5.7,15.2,7.7c11.1,4.2,23.4,5.3,35.1,3.3c3.7-0.6,7.4-1.6,11.1-2.4c0.5,0,1.3-0.4,1.6,0.2c0.1,1.1-0.7,2.1-1.3,3
	c-2.8,3.4-6.8,5.6-10.8,7.2c1,3.3,3.1,6.3,6.4,7.7c2.7,1.2,5.7,1.2,8.5,0.8c3.6-0.5,7-1.7,10.2-3.2
	C447.4,673.1,453.4,666,457.4,658.1"/>
<path class="st8" d="M297.4,517.1c-0.1,9.9-1.3,19.9-4.8,29.3c-2.4,6.5-6,12.5-10.9,17.4c-5.2,5.2-11.8,8.9-18.9,10.6
	c-4.3,1-8.7,1.2-13,0.4c1.3-1.4,2.7-2.8,3.8-4.3c5.5-7.3,8.2-16.3,9.8-25.2c2.2-13,2-26.2,1.2-39.3c-0.9-13-2.5-26-5.5-38.7
	c-2.5-10.4-5.8-20.6-10.7-30c-4.6-9-10.7-17.4-18.6-23.7c-7.3-5.8-16.4-9.7-25.9-9.9c-4.8-0.1-9.5,0.8-14.1,2
	c4.4-7.8,11.8-13.8,20.3-16.4c6-1.9,12.5-2.3,18.8-1.5c9.1,1.1,17.6,5.4,24.6,11.2c7.8,6.5,14,14.7,19.1,23.4
	c5.1,8.7,9.2,18,12.5,27.6c3.7,10.6,6.5,21.5,8.7,32.5C295.9,493.8,297.5,505.4,297.4,517.1 M490.5,593.4c-6.6,4.8-14,8.3-21.7,10.9
	c4.3,12.2,4.7,25.6,2.6,38.3c-1.7,10.9-6,21.4-12.7,30.1c-5.5,7.1-12.6,13.1-20.9,16.5c-0.7,0.3-1.6,0.4-2.2,1c0.3,3.4,1,6.7,1.8,10
	c2.5,9.7,6.7,18.9,12.8,26.9c5.2,6.9,12.1,12.8,20.2,15.9c5.3,2,11.1,2.7,16.6,1.4c8.8-2,16.6-7.7,21.3-15.3c3-4.9,5-10.5,6.3-16.1
	c1.5-6.7,2-13.7,2.1-20.6c0.1-13.2-1.5-26.3-3.5-39.3c-1-6.6-2.1-13.1-3.6-19.6c-2.2-9.6-4.9-19.2-9.4-28
	C497.7,601.1,494.7,596.6,490.5,593.4"/>
<path class="st9" d="M256.6,531c0.6-12.4-0.5-24.9-2.2-37.2c-1.7-11.8-3.9-23.6-7.4-35c-3.2-10.2-7.4-20.3-14.1-28.7
	c-5.2-6.7-12.2-12.1-20.4-14.5c-5-1.4-10.3-2.2-15.5-1.5c-4.4,0.6-8.8,2.6-11.7,6.1c-3.2,3.6-4.9,8.2-6,12.9
	c-1.5,6.5-1.7,13.2-1.7,19.8c0.1,7.5,0.7,15,1.7,22.4c1.5,10.3,3.9,20.5,7.7,30.1c1.8,4.3,3.7,8.6,6.3,12.5c0.4,0.6,0.1,1.3,0,2
	c-0.8,4.4-1,8.9-0.5,13.4c0.9,8.6,4.2,16.9,8.6,24.3c3.9,6.4,9.8,11.8,17.1,14.2c8.5,2.9,18.5,1.1,25.2-4.9
	c4.8-4.3,7.8-10.4,9.6-16.6C255.4,544.1,256.3,537.6,256.6,531 M190.7,431.2c-2.3,0.8-4.3,2.3-6,3.9c-0.7,0.6-1.3,1.3-2.1,1.7
	c-0.1-1.8,0.7-3.6,1.4-5.2c1.9-3.9,5.4-7.1,9.7-8.1c6-1.4,12.3,0.3,17.6,3.4c7.8,4.5,13.5,11.8,17.9,19.5c5.2,9.2,9,19.3,10.7,29.8
	c1.2,7.3,1.6,14.7,0.9,22.1c-0.4,4.4-1.1,8.9-2.8,13.1c-0.6,1.3-1.2,2.7-2.4,3.4c-0.4,0.2-1.2,0.4-1.2-0.3c-0.1-2.6,0.4-5.1,0.5-7.6
	c0.9-12.9-1-25.9-4.7-38.3c-2.8-9.4-6.4-18.7-12.6-26.4c-3.6-4.5-8.2-8.3-13.6-10.3C199.7,430.3,195,429.8,190.7,431.2 M240.5,552.2
	c-1.6,4-3.8,7.9-7,10.8c-2.8,2.7-6.4,4.5-10.3,4.9c-2.1,0.2-4.2,0.2-6.1-0.7c-0.4-0.2-1.2-0.7-0.7-1.2c1.2-0.9,2.7-1.2,4-1.9
	c3.3-1.5,6.2-3.7,8.5-6.5c3-3.7,4.9-8,6-12.6c1.5-6.4,0.8-13.1-0.4-19.4c-0.1-0.3,0-0.8-0.4-1c-6.1,0.2-12.1-0.5-18.1-1.1
	c-6-0.7-12-1.5-17.8-3c-1-0.3-2-0.5-2.8-1.3c-0.6-1.6-0.3-3.4,0.7-4.8c0.9-1.3,2.3-2.2,3.8-2.7c2-0.6,4.2-0.3,6.2-0.2
	c6.8,0.6,13.6,1.7,20.2,3.2c2.2,0.6,4.5,0.9,6.3,2.4c1.4,1.1,2.8,2.6,3.3,4.4c0.2,1.1,1.2,1.7,1.7,2.6c2.9,4.5,4.4,9.9,4.8,15.2
	C242.8,543.6,242.1,548.1,240.5,552.2 M522.3,659.3c-1.6-12-3.3-23.9-6-35.7c-2.3-10-5.3-20.1-10.7-29c4.5-0.6,8.8,1.8,11.8,4.9
	c3.1,3.1,5.3,6.9,7,10.8c2.2,5.1,3.6,10.6,4.1,16.2c0.3,3.9,0.1,8.1-1.5,11.7c-1-0.4-2.1-1-3.2-1c-0.5,0-1.3,0.5-0.9,1.1
	c1.1,1.7,2.3,3.3,3.3,5.1c5.6,9.2,8.8,19.7,10.7,30.2c1.2,7,2,14,1.9,21.1c-0.1,5.8-0.8,11.5-2.5,17.1c-1.5,4.8-3.8,9.4-7.3,13.1
	c-3,3.2-7.1,5.5-11.5,6.1c4.9-10.5,6.8-22.2,7.2-33.7C525.3,684.6,524.1,671.9,522.3,659.3"/>
<path d="M241.9,539.1c0.4,4.3-0.3,8.8-1.9,12.9c-1.6,4-3.8,7.9-7,10.8c-2.8,2.7-6.4,4.5-10.3,4.9c-2.1,0.2-4.2,0.2-6.1-0.7
	c-0.4-0.2-1.2-0.7-0.7-1.2c1.2-0.9,2.7-1.2,4-1.9c3.3-1.5,6.2-3.7,8.5-6.5c3-3.7,4.9-8,6-12.6c1.5-6.4,0.8-13.1-0.4-19.4
	c-0.1-0.3,0-0.8-0.4-1c-6.1,0.2-12.1-0.5-18.1-1.1c-6-0.7-12-1.5-17.8-3c-1-0.3-2-0.5-2.8-1.3c-0.6-1.6-0.3-3.4,0.7-4.8
	c0.9-1.3,2.3-2.2,3.8-2.7c2-0.6,4.2-0.3,6.2-0.2c6.8,0.6,13.6,1.7,20.2,3.2c2.2,0.6,4.5,0.9,6.3,2.4c1.4,1.1,2.8,2.6,3.3,4.4
	c0.2,1.1,1.2,1.7,1.7,2.6C240,528.4,241.5,533.8,241.9,539.1z M568.7,308.6c-2.2-1.2-4.6-1.9-7.1-2.2c-5.2-0.8-10.6,0-15.5,1.8
	c-5.1,1.9-9.8,4.8-13.9,8.3c-3.6,3-6.7,6.8-8.4,11.2c-1.9,5-1.8,10.7,0.8,15.4c0.6,1,1.3,2.1,2.5,2.4c0.2-0.4,0.3-1,0.3-1.5
	c-0.1-1.8-0.1-3.6,0.2-5.4c0.6-4.2,2.7-8.2,5.2-11.6c5.3-0.7,11-0.1,15.7,2.5c1.1,0.6,2.1,1.4,3.3,1.7c0.6-1.3-0.4-2.5-1.1-3.4
	c-3.1-3.6-7.6-5.9-12.2-7.1c3.5-3.5,7.8-6.3,12.5-7.9c5-1.8,10.4-2,15.7-1.4c1.4,0.1,2.8,0.4,4.2,0.2
	C571.2,310.2,569.8,309.3,568.7,308.6z M475,217c2.1,5.4,2.4,11.4,1.8,17.2c-0.6,5.5-2.1,10.9-4.3,16c-1.8,4-4.1,7.8-7,11.1
	c-2.9,3.2-6.5,5.9-10.6,7.5c-5.1,2-10.8,2.2-16,0.8c-4.1-1.1-7.8-3.8-10.2-7.4c-2.5-3.8-3.6-8.4-3.7-12.9c-0.1-5.3,1-10.5,2.6-15.5
	c1.4-4.3,3.2-8.5,5.4-12.4c2.5-4.3,5.5-8.4,9.4-11.5c3.1-2.6,6.8-4.5,10.8-5.1c4.8-0.8,9.9,0.2,14.1,2.7
	C470.9,209.7,473.5,213.2,475,217z M459.4,245.5c-0.6-1-1.8-1.8-2.9-1.4c-2.2,0.6-3.2,3.1-3.1,5.2c0,1.5,0.7,3.1,2.1,3.7
	c1.1,0.5,2.5,0,3.2-0.9C460.3,250.3,460.6,247.5,459.4,245.5z M470.3,235.4c-0.3-3.6-2-7.3-5-9.5c-2.4-1.8-5.6-1.9-8.4-1.1
	c-3.8,1-6.8,3.8-9.1,6.9c-3.5,5-5.5,10.8-6.8,16.6c-1,5-1.6,10.4-0.1,15.4c2.3,0.6,4.7,0.7,7.1,0.4c-0.8-1.7-1.2-3.5-1.4-5.3
	c-0.4-4.1,0.2-8.2,1.5-12.1c1.5-4,3.8-7.8,7.3-10.3c1.8-1.3,4.1-2,6.2-1.3c1.9,0.7,3.4,2.3,4.3,4.1c1.2,2.4,1.4,5,1.3,7.6
	C468.7,243.2,469.8,239.3,470.3,235.4z M470.5,226.6c-0.1-1.6-0.3-3.2-0.7-4.7c-0.7-3.6-2.6-7.2-5.9-9.2c-3.8-2.3-8.7-2.7-12.9-1
	c-4.4,1.8-7.9,5.4-10.6,9.3c-3.2,4.7-5.5,10-7.2,15.4c-1.6,5.3-2.6,11-1.7,16.5c0.6,3.6,2.5,7.1,5.6,9.1c-0.9-5.4-0.2-11,1.1-16.3
	c1.3-5.1,3.1-10.2,6-14.7c2.3-3.6,5.3-6.8,9.2-8.6c3.5-1.6,7.8-2.1,11.4-0.6C467.2,222.8,469,224.6,470.5,226.6z M316.5,422.3
	c3.6-1.6,6.3-4.6,8.6-7.7c3.3-4.6,5.6-10.1,5.8-15.9c0-1.7,0-3.5-0.9-5c-0.3-0.5-0.9-0.9-1.4-0.5c-0.4,0.7-0.4,1.5-0.6,2.3
	c-0.9,5.3-2.9,10.5-5.6,15.2c-2,3.6-4.6,6.9-7.6,9.7c-0.5,0.6-1.5,1.2-1.2,2.1C314.4,423.1,315.6,422.6,316.5,422.3z M203.5,431.7
	c5.4,2,10,5.8,13.6,10.3c6.2,7.7,9.8,17,12.6,26.4c3.7,12.4,5.6,25.4,4.7,38.3c-0.1,2.5-0.6,5-0.5,7.6c0,0.7,0.8,0.5,1.2,0.3
	c1.2-0.7,1.8-2.1,2.4-3.4c1.7-4.2,2.4-8.7,2.8-13.1c0.7-7.4,0.3-14.8-0.9-22.1c-1.7-10.5-5.5-20.6-10.7-29.8
	c-4.4-7.7-10.1-15-17.9-19.5c-5.3-3.1-11.6-4.8-17.6-3.4c-4.3,1-7.8,4.2-9.7,8.1c-0.7,1.6-1.5,3.4-1.4,5.2c0.8-0.4,1.4-1.1,2.1-1.7
	c1.7-1.6,3.7-3.1,6-3.9C194.5,429.6,199.2,430.1,203.5,431.7z M425.2,436.8c-0.4-0.5-1.2-1.2-1.9-0.7c-0.5,0.4-0.1,1-0.1,1.4
	c0.7,2.9,0.9,5.9,0.6,8.9c-0.6,5.7-2.5,11.3-5.7,16.1c-1,1.5-2.2,2.9-3.2,4.4c-0.3,0.4-0.3,0.9-0.2,1.3c1,0.2,2-0.1,2.8-0.5
	c3.6-1.9,6.2-5.4,7.9-9.1c2.1-4.8,3-10.3,2.2-15.7C427.2,440.7,426.6,438.5,425.2,436.8z M516.5,442.2c-0.9-1.4-2.6-2-4-2.6
	c-3.5-1.4-7.3-2.7-11.1-1.9c-2.2,0.4-4.4,1.1-6,2.6c-1.1,1-1.7,2.7-1.1,4.1c0.6,1.2,1.9,1.8,3.1,2.2c2.2,0.6,4.5,0.5,6.8,0.2
	c3-0.4,6-1.2,8.9-2.3C514.3,444,515.7,443.4,516.5,442.2z M548,464.1c-0.4,0-0.8,0.1-1.2,0.2c-1.9,0.5-3.6,1.4-5.2,2.4
	c-2.2,1.4-4.3,3.1-5.5,5.5c-1.1,2.6-1.3,5.7,0.1,8.2c1.1,2.1,3.6,3.4,6,3.1c4.1-0.7,7.8-4.4,8-8.6c0.2-3-0.3-6-1.2-8.9
	C548.7,465.3,548.5,464.6,548,464.1z M528.1,453.3c-2.5-0.6-5.2-0.7-7.7-0.4c-1.9,0.2-3.8,0.5-5.5,1.3c-1.9,0.8-3.5,2.2-4.2,4.2
	c-0.8,2.1-0.3,4.7,1.3,6.3c3.3,2.9,8.8,2.9,12.1,0c2.2-2.1,4.1-4.6,5.4-7.3c0.4-1,1-2,0.6-3.1C529.6,453.7,528.8,453.5,528.1,453.3z
	 M622.1,436.1c-3.9,9.8-11.7,17.6-20.6,23.1c2.4,5.9,3.8,12.3,3.4,18.6c-0.3,4.2-1.4,8.5-3.8,12.1c-2.4,3.7-5.7,6.9-9.8,8.8
	c-2.6,1.2-5.5,1.8-8.3,1.7c-0.2,5.2-1,10.3-2.8,15.1c-1.6,4.3-4.2,8.2-7.4,11.4c-4.4,4.4-10,7.6-16,9.4c-0.6,4.8-3.6,9.1-7.4,12
	c-3.6,2.9-8.1,4.4-12.7,4.6c-7.7,0.5-15.8-2.6-20.6-8.9c-0.8,0.4-1.7,0.8-2.5,1.1c0.6,5.6,0.4,11.4-1,16.9
	c-1.9,7.9-6,15.1-11.3,21.2c3.2-0.6,6.6-0.4,9.8,0.1c2,0.3,3.9,1,5.6,2.1c3.6,2.2,6.4,5.3,9,8.6c3.4,4.4,6.1,9.3,8.2,14.5
	c1.9,4.8,3.3,10,3.4,15.2c0.2,5.6,0,11.3-1.7,16.6c-0.4,1.3-1,2.6-1.7,3.8c3.1,3.8,5.5,8.1,7.3,12.7c4.1,10.8,6.9,22.1,7.8,33.6
	c0.6,7.1,0.4,14.2-0.9,21.2c-0.8,4.7-2.2,9.4-4.6,13.6c-4.1,7.5-11,13.3-19,16.4c-5.3,2.1-11.1,3.1-16.8,3.1
	c-0.8-0.1-1.2,0.7-1.7,1.1c-8.4,7.2-19.7,11-30.7,9.8c-9.6-1.1-18.6-5.8-25.6-12.4c-7.5-7.1-12.9-16.1-17-25.5
	c-3.5-8.4-6.1-17.2-7.1-26.2c-5,0-10.2-1.5-14.1-4.7c-3.9-3.1-6.4-7.8-6.8-12.7c-5.6,0.9-11.4,1.3-17.1,0.5
	c-10.7-1.5-20.8-5.7-29.9-11.4c-12.9-8.1-23.8-19.6-30.5-33.4c-2.8-5.7-4.6-11.8-6.5-17.8c-3.3-11-6.4-22.1-8.2-33.5
	c-4.1,2.3-8.4,4.2-13,5.2c-8.6,1.9-17.6,0.9-25.8-1.9c-8.1,3.8-17.3,5.4-26.2,4c-3.7-0.6-7.3-1.9-10.5-3.9
	c-4.7,1.5-9.6,2.2-14.5,1.9c-7.5-0.5-14.6-3.8-20.3-8.6c-6.9-5.7-12-13.3-15.5-21.4c-2.4-5.6-4.1-11.6-4.7-17.7
	c-0.5-5.5-0.3-11.1,1.7-16.3c-2.4-4.1-4.4-8.5-6.3-12.9c-4.7-11.3-7.9-23.3-9.5-35.4c-0.9-6.5-1.2-13.1-1.2-19.6
	c0-6.7,0.3-13.4,1.4-20c0.7-4,1.8-8,3.6-11.6c1.6-3.2,3.6-6.1,6.3-8.4c0.2-0.2,0.5-0.4,0.6-0.7c2.7-13.6,12.6-25.7,25.6-30.9
	c6.1-2.5,12.8-3.5,19.4-3.5c10,0,19.8,3.1,28.2,8.4c10.9,6.8,19.4,16.8,26.3,27.5c4.3-1.9,9.3-1.3,13.6,0.2c0.6-6,2.8-11.7,5.4-17.1
	c4-8.4,11.1-15.4,19.8-18.9c1.9-0.8,3.8-1.2,5.8-1.6c1.5-1.6,3.1-3.3,4.7-4.8c-10.7-17.9-20.4-36.6-27.3-56.3
	c-2-5.6-3.7-11.3-5.3-17.1c-1.4-5.2-2.7-10.4-3.5-15.7c-2.1-12.7-2.7-25.6-2.8-38.5c0-8.4,0.3-16.9,1-25.3
	c-6.3-1.6-12.1-5.2-16.3-10.2c-2.9-3.5-4.9-7.6-6-12c-1.3-5.2-1.2-10.7,0-15.9c1.5-6.8,5.5-12.9,10.7-17.3
	c-2.7-4.5-4.8-9.3-6.4-14.3c-4.2-12.5-5.8-25.7-5.2-38.9c0.5-11,2.9-22.1,8.2-31.9c4.6-8.6,11.4-16,19.3-21.6
	c8.2-5.8,17.3-10.3,27-12.9c11.6-3.2,23.8-3.9,35.7-2.7c2.7,0.3,5.5,0.7,8.2,1.3c0.4,0.2,0.7-0.2,1-0.4c4.1-2.8,9.1-4.2,14-4.6
	c4.5-0.3,9,0.1,13.3,1.2c9.9,2.8,18.4,9.9,23.2,19c2.7,5.1,4.3,10.7,4.9,16.4c0.9,9.1-0.4,18.7-5.4,26.5c1.2,2.8,2,5.8,2.1,8.9
	c0,0.4-0.1,0.8,0.1,1.1c2.6,1.1,5.3,2.2,7.8,3.4c3.8-8.1,9.4-15.4,16.4-20.9c4-3.1,8.4-5.7,13.2-7.5c11.7-4.4,24.7-4.7,36.9-2.1
	c10.6,2.3,20.7,7,29.5,13.3c8.1,5.7,15.2,12.7,21.4,20.3c12.4,15.3,21.2,33.2,27.4,51.8c4,12,7,24.4,9,36.9
	c1.3,8.3,2.2,16.8,2.2,25.2c8.8,3.5,16.6,9.2,22.9,16.3c5.4,6.1,9.8,13.4,11.4,21.5c1.5,7.8,0.7,16.2-2.9,23.3
	c-3,6.1-8,11-13.8,14.5c-0.1,0.7,0.2,1.3,0.3,2c1.7,8.5,0.5,17.5-2.8,25.6c-2.8,7-7.3,13.4-12.7,18.6c-6.6,6.4-14.8,10.9-23.1,14.7
	c13.6,3.2,27.1,8.1,38.8,15.9c5.4,3.6,10.3,7.8,14.4,12.8c4,4.8,7.3,10.5,9,16.7C625.4,419.6,625.2,428.3,622.1,436.1z M585.5,299.4
	c-2.4-4.4-6.5-7.8-11.2-10c-5.5-2.6-11.6-3.6-17.7-3.7c-5.1-0.1-10.3,0.4-15.2,1.6c-0.8,0.1-1.3,0.6-1.9,1.1
	c-5.9,4.4-12.4,8-19.4,10.4c-5.2,1.8-10.7,3-16.2,2.9c-4.7-0.1-9.6-1.2-13.4-4.1c-3.1-2.3-5.2-5.9-5.4-9.8c-0.2-3.1,0.8-6.1,2.5-8.7
	c-2.3-2.7-3.7-6.3-3.3-9.9c0.5-3.9,3-7.4,6.1-9.7c4.3-3.2,9.8-3.7,15-4.2c2.6-0.3,5.4-0.3,7.9-1.4c3.9-1.8,6.7-5.1,9.2-8.4
	c-2.1-4.9-4.4-9.8-6.7-14.6c-6,3-13.2,3.2-19.6,1.2c-4.4-1.3-8.1-4.1-11.4-7.2c-3.5-3.3-6.2-7.4-8.6-11.5c-2.7-4.6-5.2-9.3-8-13.9
	c-2.3-3.7-4.7-7.3-7.2-10.9c-4.1,1.4-7.8,3.8-11.3,6.3c-0.9,0.6-1.8,1.4-3,1.5c-0.1-0.9,0-1.9,0.2-2.8c1.1-4.4,3-8.5,5.4-12.3
	c-10.6-3.9-22.2-5.9-33.4-4.3c1.1,4.9,1.6,10,1,15c-0.2,1.1-0.2,2.4-1.2,3.1c-1.3-1.4-2-3.1-3-4.7c-2-3.3-4.6-6.6-8.2-8.3
	c-2.1-1-4.6-1.5-6.9-0.7c-2,0.7-3.5,2.3-4.8,3.9c-0.7,0.9-1.5,1.5-2.1,2.5c-4.9,7.8-8.9,16.2-12,24.9c1.4,0.7,2.7,1.4,4.1,2.1
	c1.9-5.2,4.3-10.3,8-14.5c2.5-2.9,5.8-5.2,9.6-5.8c3.2-0.5,6.6,0.2,9.3,2c3.1,2.1,4.9,5.7,5.7,9.4c1,4.9,0.5,10-0.5,14.9
	c-1.3,5.9-3.6,11.6-6.8,16.7c2,2.6,3.8,5.4,5.5,8.2c-2.9,1.6-5.8,3.1-8.7,4.7c-5.1-8.5-11.9-16-19.8-22.1
	c-8.3-6.6-18.6-10.9-29.3-11.3c-5.6-0.2-11.4,0.8-16.4,3.4c-4.1,2.1-7.5,5.3-9.9,9.2c-2.3,3.7-3.7,7.9-4.5,12.1
	c-1.3,7-1.2,14.3,0.6,21.2c2.5,9.5,8.5,18,16.3,23.8c8.4,6.3,18.8,9.8,29.3,10.6c6.2,0.5,12.6,0.2,18.7-1.2c4.7-1.1,9.3-3,13.1-6
	c3.4-2.6,6.2-6.1,7.7-10.2c3.2,0.8,6.3,1.6,9.5,2.4c-0.6,2.1-1.6,4.1-2.6,6c5.9-0.4,11.8-1.4,17.5-3.1c9-2.6,17.4-7.3,24.2-13.7
	c1.5-1.4,2.8-3,4.5-4.2c0.4-0.3,0.9,0.2,1.1,0.5c1.1,1.5,1.9,3.3,2.6,5c1.2,3.2,2.2,6.4,2.7,9.8c0.8,5.1,1,10.7-1.1,15.6
	c-1.3,3.2-4,5.7-7,7.3c-4.7,2.6-10.6,2.8-15.6,0.8c0.3,3.2,0,6.5-1,9.6c-1.2,3.6-3.7,6.7-7,8.5c-0.2,9.2-1,18.5-3.7,27.4
	c-1.5,4.8-3.5,9.5-6.6,13.5c-2.7,3.5-6.3,6.3-10.4,7.9c-4.5,1.7-9.4,2.1-14.1,1.3c-4.4-0.8-8.5-3-11.9-6c-3.6-3.3-6.4-7.4-8.6-11.7
	c-2.7-5.4-4.7-11.1-6.2-17c-0.5-1.5-0.6-3.2-1.2-4.7c-2.1-1.2-4.3-2.5-5.6-4.6c-0.5-0.8-0.9-1.8-0.5-2.7c0.2-0.5,0.8-0.6,1.2-0.3
	c1.5,0.8,2.9,1.7,4.5,2.4c5.4,2.3,11.2,3,17,3.2c11.3,0.4,22.8-1.8,33-6.8c-1-0.3-2.1-0.4-3.2-0.7c-5.3-1.3-10.4-3.5-15.3-6.1
	c-0.7,2.2-1.8,4.2-3.4,5.9c-2.5,2.8-6.2,4.3-9.9,4.6c-5.5,0.5-11-1.2-15.9-3.7c-4.5-2.4-8.6-5.5-12.3-9c-3.2,2.9-7.4,5-11.8,5
	c-4.3,0-8.4-2.1-11.3-5.2c-3.3-3.5-5.4-8-6.4-12.6c-2,1.4-4.5,2.3-7,2.3c-0.1,2.3,0,4.5,0.2,6.8c1.1,9.1,5.5,17.6,11.1,24.7
	c6.2,7.9,13.9,14.4,22.1,20.2c0.8,1.3,1.5,2.7,2.4,4c5.2,8,12.3,14.8,20.8,19.2c5.1,2.6,10.5,4.3,16.1,5.4
	c6.1,1.2,12.3,1.7,18.5,1.4c5.5-3.9,11.3-7.4,17.3-10.5c20.1-10.2,42.5-15.2,64.9-16.3c12.6-0.6,25.2-0.2,37.7,1.3
	c6.2-1.5,12.1-4,17.7-7c5.7-3.2,11.2-7,15.9-11.6c5.8-5.7,10.4-12.7,12.5-20.7C591.2,315.6,590.3,306.5,585.5,299.4z M439.9,436.3
	c1.8-2.1,3.6-4,5.6-5.7c0.7-0.8,2-1.2,2-2.4c2.3-15.6,8.1-30.8,17.5-43.5c2.6-3.6,5.5-6.8,8.5-10c-4,1-7.9,2.1-11.8,3.4
	c-18.9,6.4-36.7,16.9-50.5,31.5c-7,7.4-12.9,16-16.9,25.4c-4.6,11-6.7,23-6,34.9c0.6,0.7,1.3,1.2,1.9,1.9c5,4.7,9.4,9.9,13.2,15.5
	c1.7,0.8,3.6,1.3,5.4,1.7c8,1.7,16.4,0.3,23.6-3.4c-1-3.6-1.8-7.2-2.2-10.9c-1.5,1.5-3.1,2.9-5,4.1c-3.6,2.3-7.9,3.5-12.1,3.3
	c-5.1-0.2-10.2-2.3-13.7-6c-3.1-3.2-4.9-7.5-5.8-11.8c-1.2-6.1-0.7-12.4,0.7-18.4c1.9-7.8,5.7-15.4,11.9-20.7
	c3.2-2.8,7.2-4.7,11.5-5.2c5.9-0.7,12.1,1.5,16.3,5.8C436.9,428.7,438.8,432.4,439.9,436.3z M431.7,432.1c-3.1-3.9-8.5-6.1-13.4-5
	c-3.4,0.8-6.3,2.8-8.6,5.3c-3.4,3.6-5.7,8.2-7.2,12.9c-1.7,5.8-2.5,12-1.4,17.9c0.8,4,2.6,8.1,6.1,10.4c4.1,2.8,9.9,3.2,14.3,0.8
	c3.7-2,6.5-5.4,8.5-9c0.3-0.5,0.2-1.1,0.3-1.6c0.4-6.9,2.1-13.7,5-19.9C435.2,439.7,434.2,435.5,431.7,432.1z M342.2,408.9
	c-1.6,4.8-4,9.2-6.7,13.4c-2.8,4.2-6.2,8-10.6,11c3.5,1,6.9,2.1,10.2,3.4c1.2-1.8,2.1-3.8,3.1-5.7c2.4-4.8,4.6-9.6,7.1-14.3
	c2.6-4.9,5.6-9.6,8.8-14.1c5.5-7.6,12-14.6,18.9-21c-5.5-5.1-10.1-11.2-13.7-17.8c-0.8-0.7-1.8-1.2-2.7-1.8
	c-8.6,3.9-16.3,9.5-22.6,16.5c1.5,0.8,3,1.8,4.2,3c3.2,3,5.1,7.2,5.7,11.5C344.7,398.3,343.9,403.8,342.2,408.9z M367.8,398.5
	c10.6,3.5,20.6,8.4,30.2,14.1c4.3-5.5,9.2-10.5,14.3-15.3c-6.2-0.8-12.3-2.1-18.3-4c-4.8-1.5-9.5-3.4-13.7-6.2
	c-0.3-0.1-0.5-0.5-0.9-0.4C375.3,390.4,371.4,394.3,367.8,398.5z M342.9,439.8c12.8,6,24.8,13.6,36.1,22.3
	c0.4-15.2,5.3-30.3,14-42.8c-9.7-5.6-19.9-10.7-30.5-14.2c-5.1,6.8-9.4,14.1-13,21.7C347.3,431.2,345.4,435.6,342.9,439.8z
	 M433.4,341.8c0.8-3.7,1.1-7.5,1.3-11.3c-8.9,5.4-19.2,8-29.5,8.8c-6.2,0.4-12.4,0.3-18.4-1.3c0.4,1.7,0.9,3.3,1.4,4.9
	c0.3,1.3,1.5,2,2.6,2.5c2.8,1.2,5.8,1.6,8.8,1.9C411.1,348,422.6,345.8,433.4,341.8z M402.1,352.3c-2.8,1.2-5.4,3.2-6.9,6
	c2.1,2.9,4.6,5.5,7.8,7.3c4.4,2.5,9.8,2.7,14.5,1.1c3.7-1.3,6.8-4,9.1-7.2c2.6-3.8,4.4-8.1,5.6-12.6
	C422.8,351.1,412.3,352.3,402.1,352.3z M408.4,219.6c1.1,0.2,2,1.2,2.8,2.1c0.4-1.7,0.9-3.4,1.1-5.2c-0.9-1.7-2.5-3.2-4.5-3.4
	c-2.1-0.2-4.2,0.9-5.6,2.5c-2,2.2-3.3,4.8-4.4,7.5c1,0.9,1.9,1.7,2.9,2.6c0.9-1.9,2-3.8,3.7-5.1C405.5,219.7,407,219.2,408.4,219.6z
	 M407.8,226.5c-0.3-0.7-1.1-1.4-2-1.1c-1.3,0.5-1.9,1.9-2.3,3.2c1.1,1.2,2.2,2.3,3.3,3.5C408,230.5,408.4,228.4,407.8,226.5z
	 M412.8,212c-0.1-2.4-0.3-4.8-1.1-6.9c-0.5-1.4-1.4-2.8-2.7-3.6c-1.9-1.2-4.4-1.3-6.4-0.3c-2.4,1.1-4.2,3.1-5.7,5.2
	c-2.5,3.6-4.3,7.6-5.6,11.8c1.3,0.9,2.5,1.8,3.8,2.8c1.4-2.9,3-5.8,5.3-8.1c2.2-2.1,5.3-3.4,8.3-2.8
	C410.2,210.3,411.6,211.1,412.8,212z M502.5,157.4c-4.5,1.7-9.1,3.5-13.7,5.2c-1.8-9.2-3.5-18.5-5.2-27.8c-4.3,1.6-8.5,3.4-12.7,5.1
	c-0.4-0.2-0.6-0.7-0.8-1.1c-1.6-2.5-3.2-5.1-4.7-7.6c-1.8,1.8-3.5,3.6-5.2,5.4c9.9,9.2,18.9,19.4,27.1,30.1c1.1,1.4,2.1,3,3.3,4.3
	c6.2-0.7,12.4-3.6,16.3-8.6c3.3-4.3,4.6-9.9,4.1-15.2c-0.8-9.4-5.4-18.3-12.2-24.7c-6.5-6.3-15.3-9.9-24.3-10.3
	c-5.4-0.3-11,0.7-15.7,3.4c-4.5,2.5-8.3,6.5-10.1,11.3c1.8,1.4,3.5,2.8,5.3,4.2c4.5-3.7,8.7-7.8,13-11.7c2.1,4.1,4,8.2,6,12.3
	c5.1-2.9,10.2-5.8,15.3-8.7C493,134.5,497.8,145.9,502.5,157.4z M478.5,188.5c-2.9-1.6-6.2-1.8-9.4-1.6c3.1,4.9,6,9.8,8.9,14.8
	c2.7,4.6,5.3,9.2,8.5,13.4c2.7,3.5,6,6.7,10.2,8.4c4.9,2.1,10.5,2,15.4,0c-1.2-2.4-2.5-4.8-3.8-7.2c-4.8-8.8-9.9-17.4-15.5-25.7
	c-0.1,3.5-0.7,6.9-2.1,10.1c-0.6,1.2-1.1,2.6-2.3,3.4c-0.8-1-1-2.3-1.4-3.5c-0.6-1.8-1.2-3.6-2.1-5.3
	C483.5,192.5,481.3,189.9,478.5,188.5z M495.1,277.8c-1.6,2-2.7,4.4-2.9,6.9c-0.2,2.1,0.5,4.3,1.8,5.9c1.2,1.4,3.1,2.2,4.9,2.8
	c3.6,0.9,7.4,0.8,11,0.3c9.4-1.4,18.4-5.5,26-11.2c-2.7-10.3-6.3-20.3-10.4-30.2c-1.7,1.9-3.6,3.7-5.7,5.2
	c-3.5,2.4-7.6,3.9-11.9,4.3c-2.9,0.4-5.9,0.1-8.7,1c-3.4,1.2-6.3,4.3-6.9,7.9C491.8,273.4,493.2,276,495.1,277.8z M432.8,116.3
	c4.1,2.3,7.9,4.9,11.7,7.6c2.5-5.3,6.7-9.8,11.9-12.6s11.1-4.1,17-4.2c9.9,0.1,19.7,3.8,27.2,10.3c7.3,6.3,12.4,15.1,14.8,24.4
	c1.4,5.3,1.9,10.8,0.5,16.1c-1.1,4.5-3.6,8.6-7.1,11.7c-4.1,3.5-9.3,5.7-14.7,6.4c15.7,22.4,28.7,46.6,39.1,71.9
	c4,9.8,7.6,19.9,10.5,30.1c5.2-0.8,10.5-1.3,15.8-1.2c6.5,0.1,13.1,1.2,19.1,3.8c7.5,3.1,13.6,9,17.4,16.1c4-3.2,7.2-7.3,9.3-12
	c2.2-5.1,2.9-10.8,1.9-16.2c-0.8-4.7-2.8-9.2-5.5-13.2c-5-7.4-12.2-13.4-20.3-17.4c-0.5,4.9-1.3,9.8-3.2,14.3
	c-0.6,1.1-1.1,2.4-2.2,3c-0.4,0.4-1,0-1.1-0.5c-0.3-1.6-0.1-3.2-0.1-4.8c0.5-13.4-1.2-26.8-3.8-39.9c-2.1-10.5-4.8-20.9-7.9-31.2
	c-3.4-11.1-7.4-22-12.6-32.3c-4.3-8.6-9.4-16.9-15.5-24.4c-6.3-7.7-13.8-14.6-22.3-19.9c-8.4-5.3-17.8-9.1-27.6-11.1
	c-6.2-1.3-12.6-1.6-18.8-0.5c-5.7,1-11.2,3.2-16,6.4C442.9,101.8,437,108.7,432.8,116.3z M399.6,114.2c-5.8-0.7-11.9-0.6-17.3,1.7
	c-3.8,1.6-6.9,4.5-9.1,7.9c-3.3,5.1-4.8,11.2-5.6,17.1c-1,8.2-0.3,16.5,1.4,24.5c2.3,10.6,6.2,20.7,11.4,30.2
	c1.4-2.6,2.7-5.2,4.2-7.7c2.2-4,4.7-7.9,8.3-10.8c0.5-2,1.1-4.1,2.1-6c1.6-3.1,4.1-6,7.5-7c3.1-0.9,6.7-0.6,9.4,1.2
	c1.5,1,2.7,2.3,3.7,3.8c10.6-1.9,21.6-0.9,32,1.9c-4.3-5.3-8.8-10.5-13.5-15.5c-6.3-6.8-13-13.2-19.9-19.3c-0.8-0.7-1.7-1.4-2.1-2.4
	c1.4-0.2,2.7,0.5,4,1.1c4,2,7.7,4.6,11.3,7.3c11.8,9.1,22.2,20,31.7,31.4c4.9-3.8,11.3-6.3,17.6-5.4c-1.2-1.6-2.5-3.1-3.8-4.6
	c-12.5-14.7-26.7-28.2-43.3-38.1C420.3,120.1,410.3,115.6,399.6,114.2z M295.7,185.4c3.9-1.5,8-2.4,12.1-3.1
	c9.1-1.5,18.4-1.5,27.5-0.5c11.2,1.2,22.3,3.8,32.5,8.4c-0.4-1.1-0.9-2.3-1.4-3.4c-4.3-10.4-7.4-21.4-8.5-32.6
	c-0.8-8.4-0.4-17.1,2.1-25.2c1.9-6,4.9-11.7,9.4-16.1c4.2-4.2,9.7-6.9,15.5-8c7.8-1.6,15.9-0.7,23.5,1.1c-0.5-3.6-2.2-6.9-4.3-9.7
	c-3-3.9-6.9-7-11-9.6c-5.4-3.3-11.3-5.7-17.5-6.8c-3.5-0.6-7.3-0.8-10.7,0.5c-2.8,1.1-4.8,3.6-5.5,6.5c-0.9,3.8-0.2,7.7,0.9,11.4
	c1.3,4.3,3.1,8.3,5.3,12.1c-2.1,0.8-4.1,1.6-6.1,2.6c-6.3,3.3-11.9,8.2-15.9,14.1c-1.3,1.8-2.3,3.8-3.7,5.5c-1-0.6-0.9-1.9-0.9-3
	c0.2-2.6,1.2-5,2.3-7.3c1.7-3.4,3.9-6.4,6.5-9.1c-0.5-0.3-0.9-0.6-1.4-0.9c-6.3,4.5-15.4,4.7-21.8,0.2c-4.2,4.6-10.6,7.2-16.9,6.8
	c-3.7-0.3-7.4-1.7-10-4.5c-3-3.4-5.2-7.5-6.1-11.9c-0.7-3.5-0.6-7.2,0.6-10.6c0.4-1,0.8-2.1,1.8-2.6c0.6,1.3,0.5,2.9,0.8,4.3
	c0.5,3.8,1.7,7.8,4.1,10.9c1.7,2.1,3.8,4,6.5,4.7c4,1,8.3-0.4,11.3-3.2c3.4-3.1,5.1-7.8,5-12.3c-0.1-2.9-0.5-5.8-1.1-8.6
	c-0.9-4.3-2.6-8.4-4.6-12.4c-0.2-0.5-0.8-1.5-0.1-1.8c1.3-0.1,2.3,0.9,3.3,1.6c5,4.3,8.2,10.3,9.7,16.6c1.1,5.2,1.4,10.9-0.3,16.1
	c2.3,1.1,4.9,1.9,7.5,1.7c2.6-0.2,5-1.3,6.9-3c2.8-2.6,4.8-6.1,5.9-9.7c1.7-5.6,1.4-11.5,0.3-17.2c-0.8-4.1-1.8-8.2-3.5-12
	c-0.7-1.6-1.5-3.1-2-4.7c0.5-0.1,1-0.2,1.4,0c1.7,0.7,3,2.1,4.2,3.4c3.2,3.7,5.2,8.4,6.4,13.1c1.8-1.9,4.1-3.4,6.6-4.2
	c5.1-1.8,10.7-1.5,16-0.6c-0.4-3.7-1.7-7.2-3.4-10.5c-0.4-0.9-1-1.7-0.9-2.7c0.7,0,1.3,0.1,1.9,0.4c2.2,1,4,2.8,5.5,4.7
	c2.1,2.9,3.5,6.3,4.2,9.8c0.5,0.3,1.2,0.5,1.8,0.7c9.3,3.2,17.9,8.8,23.8,16.7c1.9-3.7,2.4-8,2.4-12.2c0-10.7-4.5-21.5-12.7-28.4
	c-5.4-4.6-12.6-6.9-19.7-6.6c-4.5,0.2-9.1,1.6-12.5,4.6c-11.6-1.8-23.3-2.1-34.9-0.7c-5.1,0.7-10.2,1.6-15.1,3.4
	c-5,1.7-9.7,4.1-14.2,6.9c-8.1,5.2-15.3,12-20.6,20.1c-6,9.2-9.3,20.2-9.4,31.2c0,11.4,1.1,22.9,4.4,33.8c1.4,4.7,3.3,9.2,5.8,13.4
	c3.2-1.5,6.6-2.6,10.2-2.7c0.7,0,1.4,0.1,2.1,0.4c-0.9,1.1-2,1.8-3.1,2.6c-4.6,3.3-9.1,7-12.5,11.5c-2.3,3-4.2,6.5-5.1,10.2
	c-0.8,2.9-0.9,5.9-0.7,8.9c0.3,4.3,1.5,8.7,4,12.2c2.5,3.7,6.3,6.4,10.4,8c0.5-4.6,1.2-9.2,2.1-13.7c-2.3,0.8-4.5,1.7-6.7,2.7
	c-0.8,0.3-1.7,0.8-2.6,0.6c-0.3-2.2,1.1-4.1,2.4-5.7C288,188.9,291.8,186.9,295.7,185.4z M354.1,102.4c-0.7,1.4-1.3,2.6-2,3.8
	c0.9,0.5,1.9,0.9,3,1.1c0.3-0.1,0.6-0.2,0.8-0.4C355.2,105.4,354.7,103.9,354.1,102.4z M333.8,364.2c4.6-3.2,9.3-6.2,14.2-8.8
	c-9-7.7-17-17.1-21.5-28.3c-2.6-6.4-3.7-13.4-3.2-20.2c0.1-2,0.5-3.9,0.8-5.9c-2-4.7-1.5-10-0.4-14.8c-1.9,0.1-4.1-0.5-5.2-2.2
	c-1.4-1.9-1.5-4.5-1.2-6.8c0.4-2.9,1.6-5.6,3-8.1c-0.1-0.9-0.6-1.8-0.8-2.7c-1.9-6.7-2.5-13.8-2-20.7c0.5-5.6,1.6-11.1,3.8-16.3
	c1.9-4.4,4.7-8.6,8.1-12c3.3-3.2,7.2-5.7,11.4-7.5c10.4-4.3,22.3-3.9,32.9-0.6c0.6-1.3,1.2-2.7,1.8-4c-1.2-2-2.2-4.1-3.5-6
	c-9.3-3.4-18.9-6-28.7-7.7c-13.8-2.3-28.1-2.8-41.9,0c-2.5,15.9-4.2,32-4.3,48.1c-0.3,22.9,3.1,45.9,10.6,67.5
	c3.7,10.8,8,21.3,12.7,31.6C324.5,347.5,328.7,356.1,333.8,364.2z M301.2,417c0,0.4,0.4,0.6,0.7,0.8c4.9,3.3,8.9,7.9,11.9,13
	c2.8,0.2,5.6-0.7,7.9-2.2c3.8-2.5,6.6-6.2,9-10.1c2.9-4.8,5.5-9.9,6.7-15.5c1-4.6,1.1-9.6-1.2-13.8c-2.3-4.1-7.2-6.3-11.8-5.8
	c-4.1,0.5-7.8,2.6-10.8,5.3c-4.3,3.8-7.4,8.8-9.6,14C302.1,407.2,300.9,412.1,301.2,417z M252.8,550.1c2.1-6.2,3-12.7,3.3-19.3
	c0.6-12.4-0.5-24.9-2.2-37.2c-1.7-11.8-3.9-23.6-7.4-35c-3.2-10.2-7.4-20.3-14.1-28.7c-5.2-6.7-12.2-12.1-20.4-14.5
	c-5-1.4-10.3-2.2-15.5-1.5c-4.4,0.6-8.8,2.6-11.7,6.1c-3.2,3.6-4.9,8.2-6,12.9c-1.5,6.5-1.7,13.2-1.7,19.8c0.1,7.5,0.7,15,1.7,22.4
	c1.5,10.3,3.9,20.5,7.7,30.1c1.8,4.3,3.7,8.6,6.3,12.5c0.4,0.6,0.1,1.3,0,2c-0.8,4.4-1,8.9-0.5,13.4c0.9,8.6,4.2,16.9,8.6,24.3
	c3.9,6.4,9.8,11.8,17.1,14.2c8.5,2.9,18.5,1.1,25.2-4.9C248,562.4,251,556.3,252.8,550.1z M281.2,563.6c4.9-4.9,8.5-10.9,10.9-17.4
	c3.5-9.4,4.7-19.4,4.8-29.3c0.1-11.7-1.5-23.3-3.6-34.6c-2.2-11-5-21.9-8.7-32.5c-3.3-9.6-7.4-18.9-12.5-27.6s-11.3-16.9-19.1-23.4
	c-7-5.8-15.5-10.1-24.6-11.2c-6.3-0.8-12.8-0.4-18.8,1.5c-8.5,2.6-15.9,8.6-20.3,16.4c4.6-1.2,9.3-2.1,14.1-2
	c9.5,0.2,18.6,4.1,25.9,9.9c7.9,6.3,14,14.7,18.6,23.7c4.9,9.4,8.2,19.6,10.7,30c3,12.7,4.6,25.7,5.5,38.7c0.8,13.1,1,26.3-1.2,39.3
	c-1.6,8.9-4.3,17.9-9.8,25.2c-1.1,1.5-2.5,2.9-3.8,4.3c4.3,0.8,8.7,0.6,13-0.4C269.4,572.5,276,568.8,281.2,563.6z M438.9,676.9
	c8-4,14-11.1,18-19c5.2-10.4,7.4-22.3,6.6-33.9c-0.4-6-1.7-11.9-4.1-17.4c-10.1,2.3-20.5,3.1-30.8,2.5c-5.7-0.3-11.4-1.2-17-2.2
	c-6.2-1.1-12.5-2.4-18.6-3.8c-24.5-5.8-48.3-14-71.4-23.8c1.4,7.8,3.2,15.4,5.5,23c3.6,11.4,8.5,22.5,15.8,32.1
	c5.5,7.2,12.3,13.4,20,18.2c4.8,3,9.9,5.7,15.2,7.7c11.1,4.2,23.4,5.3,35.1,3.3c3.7-0.6,7.4-1.6,11.1-2.4c0.5,0,1.3-0.4,1.6,0.2
	c0.1,1.1-0.7,2.1-1.3,3c-2.8,3.4-6.8,5.6-10.8,7.2c1,3.3,3.1,6.3,6.4,7.7c2.7,1.2,5.7,1.2,8.5,0.8
	C432.3,679.6,435.7,678.4,438.9,676.9z M505.1,594.4c5.4,8.9,8.4,19,10.7,29c2.7,11.8,4.4,23.7,6,35.7c1.8,12.6,3,25.3,2.4,38
	c-0.4,11.5-2.3,23.2-7.2,33.7c4.4-0.6,8.5-2.9,11.5-6.1c3.5-3.7,5.8-8.3,7.3-13.1c1.7-5.6,2.4-11.3,2.5-17.1
	c0.1-7.1-0.7-14.1-1.9-21.1c-1.9-10.5-5.1-21-10.7-30.2c-1-1.8-2.2-3.4-3.3-5.1c-0.4-0.6,0.4-1.1,0.9-1.1c1.1,0,2.2,0.6,3.2,1
	c1.6-3.6,1.8-7.8,1.5-11.7c-0.5-5.6-1.9-11.1-4.1-16.2c-1.7-3.9-3.9-7.7-7-10.8C513.9,596.2,509.6,593.8,505.1,594.4z M499.7,605.3
	c-2.5-4.4-5.5-8.9-9.7-12.1c-6.6,4.8-14,8.3-21.7,10.9c4.3,12.2,4.7,25.6,2.6,38.3c-1.7,10.9-6,21.4-12.7,30.1
	c-5.5,7.1-12.6,13.1-20.9,16.5c-0.7,0.3-1.6,0.4-2.2,1c0.3,3.4,1,6.7,1.8,10c2.5,9.7,6.7,18.9,12.8,26.9
	c5.2,6.9,12.1,12.8,20.2,15.9c5.3,2,11.1,2.7,16.6,1.4c8.8-2,16.6-7.7,21.3-15.3c3-4.9,5-10.5,6.3-16.1c1.5-6.7,2-13.7,2.1-20.6
	c0.1-13.2-1.5-26.3-3.5-39.3c-1-6.6-2.1-13.1-3.6-19.6C506.9,623.7,504.2,614.1,499.7,605.3z M503.5,546.2c-3-0.4-6-1.1-8.8-2.4
	c-6-2.5-10.7-7.1-12.9-12.9c-5.8,1-11.7-1.1-16.3-4.6c-6.1-4.5-10-11.5-11.5-18.8c-3.4-0.3-6.8-1.6-9.6-3.6
	c-3.2-2.3-5.7-5.4-7.6-8.8c-3.6,2.1-7.6,3.7-11.7,4.4c-5.2,1-10.6,0.6-15.8-0.6c0.5,2.1,1.1,4.3,0.6,6.5c-0.1,0.6-0.8,1.2-1.3,0.7
	c-1.3-1.1-2.1-2.5-3.2-3.7c-9.5-12.4-21.2-23-33.6-32.6c-7.6-6-15.7-11.4-24.2-16c-9.2-4.9-18.8-9.1-29-11.2c0.3,1.5,0.6,3,0.4,4.5
	c0,0.4-0.3,0.7-0.5,1c-0.7-0.4-1.3-1.1-1.8-1.8c-2.4-3.3-4.7-6.6-7.4-9.7c-3.7-4.2-8-8-12.8-10.8c-3.9-2.2-8.3-3.9-12.8-3.5
	c10.6,20.5,17.1,43,20.2,65.9c1.7,12.5,2.6,25.2,1.7,37.9c-0.7,9.6-2.6,19.2-6.7,28c-3.1,6.9-7.7,13-12.9,18.4
	c6,1.1,12.1,0,17.9-1.7c4.2-1.3,8.2-3,12.1-5.1c6.7,3.1,13.5,6,20.5,8.6c12.9,4.9,26,9.2,39.4,12.8s27.1,6.6,40.9,8.3
	c12.6,1.5,25.4,2.1,37.9,0.2c6-1,11.9-2.6,17.4-5.3c8.6-4.1,16.7-9.8,22.5-17.5C500.4,565.2,503.6,555.7,503.5,546.2z M594.8,469.1
	c-0.8-3.2-2-6.3-3.5-9.3c-5.3-10.5-13.6-19.1-23.3-26.1c-5.9-4.6-12.4-8.4-19.3-11.2c-7.9-3.1-16.3-5-24.8-5
	c-4.4,0.1-8.8,0.6-12.8,2.3c-2.1,0.9-4.2,2.3-5.3,4.3c5.7,2.1,11.3,4.7,16.5,7.9c3.5,2.2,6.8,4.7,9.5,7.8c0.8,1.1,1.8,2.2,1.9,3.6
	c-0.1,1.1-1.2,0.5-1.8,0.2c-3.3-1.7-6.5-3.5-9.9-5.1c-8.7-4.2-17.9-7.3-27.3-9.4c-3.9-0.9-7.9-1.6-12-1.7
	c-11.2-0.4-22.6,3.2-31,10.8c-6.8,6-11.4,14.6-12.4,23.6c-0.6,5.5-0.6,11.1,0.3,16.6c0.8,4.3,2.1,8.7,4.6,12.4
	c1.9,3,4.9,5.5,8.4,6.2c0.2-3.2,0.6-6.3,1.4-9.4c1.9-7.2,5.9-13.9,12-18.3c1.4-0.9,2.8-1.9,4.5-2.1c-0.1,0.8-0.5,1.4-0.9,2.1
	c-1,1.7-2,3.4-2.9,5.2c-3.3,6.4-5.2,13.5-5.4,20.7c-0.1,4.4,0.3,8.9,1.8,13.1c1.3,3.5,3.4,6.6,6.3,9c3,2.4,6.6,4,10.3,4.8
	c-0.5-9.5,2.1-19.4,8.5-26.6c1.1-1.1,2.2-2.6,3.9-2.9c0.1,1.4-0.5,2.8-0.9,4.1c-2.4,6.9-3.8,14.4-2.9,21.7c0.5,3.8,1.3,7.6,3.3,10.9
	c1.8,3.1,4.6,5.5,8,6.7c4,1.4,8.3,1.5,12.5,0.7c-1.4-5.6-1.4-11.5,0-17.1c0.8-2.7,1.7-5.4,3.5-7.5c0.4-0.4,1-1,1.5-0.5
	c0.4,0.6,0.3,1.4,0.3,2.1c-0.1,2.5-0.4,5-0.4,7.6c0.1,3.1,0.4,6.3,1.3,9.3c1.4,4.6,4.8,8.6,9.2,10.6c5.3,2.5,11.7,2.1,16.9-0.5
	c3.5-1.7,6.1-5,7.1-8.7c0.8-2.3,0.7-4.7,1.3-7c1.6,0.3,2.1,2.1,2.8,3.3c5.5-2.3,9.9-6.7,12.8-11.8c2.6-4.5,4-9.6,4.7-14.8
	c0.9-6.6,0.5-13.4-1.1-19.8c-0.5-2.5-1.4-4.9-2.1-7.3c-0.1-0.4-0.3-1,0.3-1.2c1-0.2,1.9,0.4,2.7,1c2.7,2.2,4.6,5.2,6.2,8.3
	c1.4,2.8,2.4,5.9,3,9c3.2,0.1,6.3-1.3,8.5-3.5c1.9-1.9,3.6-4.2,4.3-6.9C596.1,477.3,595.7,473.1,594.8,469.1z M613.5,415.4
	c-1.6-6.6-5.5-12.4-10.2-17.2c-4.7-4.8-10.2-8.7-16-12c-7.5-4.2-15.5-7.4-23.7-9.9c-10.6-3.1-21.6-5-32.7-5.9
	c-12.8-1-25.7-0.8-38.4,0.8c-0.7,0-1.2,0.5-1.7,0.9c-8.1,5.8-15.1,13.1-20.5,21.5c-5.8,8.9-9.7,19-11.6,29.4
	c12.1-4.6,25.5-4.9,38.1-1.9c1.2-3.4,3.8-6,6.8-7.8c4.6-2.7,10-3.8,15.3-4.3c2.4-6.6,8.3-11.4,14.7-13.8c1.7-0.6,3.4-1.2,5.2-1
	c0.2,0.9-0.5,1.5-1,2.1c-3.3,3.8-6,8.1-8.2,12.7c15.6,1.5,30.6,7.7,43.2,16.8c9.3,6.6,17.8,14.6,24,24.3c5.9-3.3,11-8.2,14.1-14.3
	C614.1,429.6,614.9,422.2,613.5,415.4z"/>
</svg>
