<?xml version="1.0" encoding="utf-8"?>
<!-- Generator: Adobe Illustrator 21.1.0, SVG Export Plug-In . SVG Version: 6.00 Build 0)  -->
<svg version="1.0" id="Warstwa_1" xmlns="http://www.w3.org/2000/svg" xmlns:xlink="http://www.w3.org/1999/xlink" x="0px" y="0px"
	 viewBox="0 0 792 792" enable-background="new 0 0 792 792" xml:space="preserve">
<g>
	<path d="M569.7,377.4c6.7,14.5,10.1,30.6,9.6,46.5c-0.2,7.4-1.3,14.8-3.7,21.8c-1.8,5.4-4.4,10.7-7.8,15.3
		c-3.7,4.9-8.3,9.1-13.7,12c-4,2.2-8.4,3.6-12.9,4.2c3.6,4.4,6.7,9.1,8.8,14.3c2.8,6.6,4,13.8,3.8,21c-0.1,5.3-0.9,10.5-2.1,15.6
		c-0.2,0.7-0.4,1.4-0.3,2.2c0.9,6.1,0.3,12.3-1.5,18.2c-1.6,5.4-4.2,10.4-7.4,15c-2.4,3.3-5.3,6.3-8.2,9.1
		c-7.8,7.2-16.8,13.2-26.7,17.2c-0.6,0.3-0.9,0.8-1.3,1.2c-7.1,7.4-15.4,13.8-24.8,18c-5.2,2.3-10.6,4-16.2,5
		c-6.5,1.1-13.1,1-19.6-0.1c-5-0.9-10-2.3-14.7-4.4c-4.5-2.1-8.9-4.9-11.9-9c-0.5-0.6-0.8-1.4-1.5-1.7c-5.6-2.9-10.3-7.3-13.8-12.4
		c-5.2-7.8-7.8-17.2-7.5-26.5c-3.6-1.1-6.9-3.2-9.1-6.2c-2-2.6-3.1-5.9-3.3-9.2c-0.2-2.8,0.1-5.6,0.7-8.3c-4.1,2.3-8.4,4.4-12.9,6.1
		c-0.7,0.3-1.6,0.4-2.2,0.9c1,8.1,3,16,5,23.9c1.8,6.8,3.6,13.7,5.4,20.5c3,1,5.8,2.6,8.2,4.6c4,3.4,6.6,8.2,7.6,13.3
		c0.3,1.8,1.4,3.2,2,4.8c4.7,10.1,8.4,20.7,11.4,31.4c2.6,9.4,4.6,18.9,5.5,28.6c1.4,6.1,2.4,12.2,3.3,18.4
		c0.7,5.7,1.6,11.4,1.1,17.2c-0.8,11.2-4.9,22.2-11.9,30.9c-3.3,4.1-7.3,7.7-11.8,10.6c-4.4,2.8-9.3,4.7-14.3,6.1
		c-11.5,3.2-23.9,4-35.4,0.4c-9.3-2.9-17.5-8.7-23.8-16.1c-2.4-2.8-4.6-5.7-6.5-8.8c-0.4-0.7-1.2-1.1-1.9-1.7
		c-4-3.1-7.3-6.9-9.9-11.3c-5-8.7-7.1-18.8-8.1-28.7c-0.8-7.6-0.9-15.3-0.6-22.9c0.2-0.7-0.5-1.1-0.9-1.6c-3.6-3.8-5.6-9-6.1-14.1
		c-0.6-5.9,0.4-11.8,2.7-17.3c-2.9-4.9-5.4-10-7.9-15.1c-5.9-12.5-11.2-25.2-16.2-38.1c-3.1-8.1-6-16.2-8.6-24.5
		c-3.5-10.7-6-21.6-8.8-32.5c-2.8-11.7-5.4-23.5-7.2-35.4c-2.1-13.4-3.2-26.9-3.2-40.4c0-24.1,3.8-48.3,11.1-71.3
		c2.8-8.9,6.1-17.7,9.8-26.3c0.1-0.5,0.5-0.9,0.3-1.4c-3.3-9.7-5.9-19.6-8.4-29.5c-8.4-34.2-13.8-69.1-16.4-104.2
		c-0.1-0.8,0.2-1.8-0.7-2.3c-3.2-2.4-6-5.4-7.8-9c-2.7-5.1-3.5-11.1-2.5-16.8c0.6-3.7,1.9-7.2,3.6-10.5c0.2-0.3-0.1-0.6-0.2-0.8
		c-6.4-8.4-10.5-18.3-12.8-28.6c-2.6-11.9-2.7-24.2-1.1-36.2c3-21.3,14.1-41.5,31-55.1c12.4-10.1,27.9-16.4,43.9-17.2
		c12-0.6,24.3,0.7,35.4,5.6c9.2,4,17.3,10.5,22.9,18.8c5.1,7.4,8.3,16.1,8.8,25c0.3,4.8-0.2,9.7-1.7,14.4c2.9,1.8,5.3,4.3,7,7.2
		c9.7-5.7,20-10.6,30.7-14.3c11.5-3.9,23.6-6.4,35.8-7c12.6-0.6,25.4,0.7,37.4,4.9c5,1.7,9.7,3.9,14.2,6.6
		c8.1,4.9,15.1,11.5,21.5,18.4c13.4,14.7,23.8,31.9,31.9,50c4.4,10,8.2,20.3,10.9,30.8c1.5,6.1,2.8,12.2,3.4,18.4
		c0.6,6.9,0.6,13.9-0.2,20.9c-0.6,5.6-1.8,11.1-3.7,16.3c-2.3,6.4-5.9,12.4-11.2,16.7c3.5,3.5,5.2,8.3,5.8,13.1
		c1.3,10.6-1.4,21.5-6.7,30.8c-5.2,9.1-13,16.7-22.3,21.5c-4.2,2.1-8.7,3.9-13.4,4.3c-4.1,0.5-8.4,0-11.9-2.1
		c-2.7,3.3-5.6,6.4-9.1,9c-8.2,6.3-18.1,10-28.2,11.8c-1.8,0.4-3.6,0.5-5.4,0.9c8.9,5.6,16,13.5,22.5,21.7c1.8-3.7,4.3-7,7.8-9.3
		c2.8-1.9,6.1-2.9,9.5-3.3c0.6-4.7,2.6-9.3,5.5-13c3.2-4.1,7.6-7.2,12.3-9.3c5.4-2.5,11.2-3.8,17.1-4.5c5.1-0.7,10.4-0.6,15.4,0.6
		c9.1,2,17.3,7.1,23.8,13.7C560.7,361.2,565.8,369,569.7,377.4"/>
	<path fill="#40D4FF" d="M386.8,209.6c2-1.5,4.3-2.6,6.8-2.9c2.1-0.2,4.4,0.2,6.1,1.5c1.5,1.1,2.6,2.8,3.2,4.6
		c0.1,1.4-0.2,2.9-0.3,4.3c-1.2-1.6-3.1-2.8-5.1-3c-2.1-0.3-4.2,0.5-6,1.6c-3.2,2.2-5.4,5.6-6.5,9.2c-0.8,2.7-1.1,5.5-1.3,8.4
		c-2.4,0.9-4.6,2.2-6.8,3.5c-0.3-5.3,0.5-10.7,2.1-15.7C380.5,216.7,383.1,212.6,386.8,209.6 M439.8,223.1c-0.6,0.8-1,1.8-1.4,2.7
		c1.2-0.3,2.4-0.4,3.6-0.2c2.3,0.5,4.3,2.1,5.6,4.1c1.7,2.5,2.2,5.6,2,8.6c-0.3,4.2-1.7,8.3-4.1,11.8c1.5,2.1,2.9,4.3,4,6.6
		c2.7-3.4,4.4-7.5,5.7-11.7c1.6-5.3,1.9-11,0.3-16.3c-0.9-2.6-2.2-5.1-4.4-6.7c-1.3-0.9-2.8-1.5-4.4-1.7
		C444,220,441.4,221.3,439.8,223.1"/>
	<path fill="#7B2901" d="M327,206.6c1-1,2-2.1,2.9-3.1c0.7,5.7,2.4,11.3,4.3,16.8c0.6,1.8,1.4,3.6,1.3,5.5c0,1.6-0.6,3.4-2.1,4.3
		c-1.7,0.9-3.7,0.4-5.3-0.2c0.9,3.2,1.2,6.6,0.4,9.8c-0.5,1.7-1.3,3.5-2.8,4.5c-1.1,0.8-2.6,1-3.9,0.7c-0.2-11.3-0.2-22.7,0.4-34
		C323.8,209.4,325.5,208.2,327,206.6 M504.2,258.3c-2.6,3.5-6.1,6.4-9.8,8.8c-2.2,1.5-4.6,2.8-6.1,5.1c-0.8,1.4-1.3,3.1-0.6,4.6
		c0.7,1.4,2.3,2,3.6,2.7c-1.1,2.3-2.6,4.3-3.7,6.6c-1,1.9-1.9,4-1.7,6.2c0.1,1.4,0.8,2.8,2,3.6c1.3,0.8,2.9,0.7,4.2,0.1
		c1.7-0.9,3-2.3,4-3.9c1.6-2.4,2.8-4.9,3.9-7.5c1.9-4.5,3.5-9.2,4.6-13.9c1.2-5.2,2.2-10.6,1.8-15.9
		C505.8,255.9,505.1,257.1,504.2,258.3"/>
	<path fill="#FFD5AB" d="M409.4,171.3c11.9,0.8,23.7,3.6,34.7,8.1c3.8,1.6,7.5,3.5,11.1,5.7c-7.7,4.5-14.3,11-18.3,19.1
		c-0.3,0.7-0.7,1.4-0.8,2.1c0.8,0,1.5-0.6,2.2-1c3.8-2.6,7.7-4.9,12-6.6c3.4-1.3,7-2.3,10.6-2.9c2.4-0.4,4.9-0.3,7.3,0.3
		c4,1,7.5,3.5,10,6.8c3.3,4.3,5.1,9.5,6.1,14.7c0.4,2,0.5,4.1,0.8,6.1c0.1,0.7,0.8,0.3,1.1-0.1c1.4-1.5,2.2-3.4,3.1-5.2
		c2.9,2.9,6.5,5.2,10.5,6.1c1.9,0.5,3.9,0.6,5.8,0.6c0.4,3.6,0.8,7.2,1,10.8c0.2,1.8-0.3,3.5-0.6,5.2c-1,5-3,9.8-6.4,13.7
		c-3.2,3.6-7.2,6.2-11,9.1c-1.9,1.5-3.7,3.1-4.9,5.3c-1,1.7-1.5,3.7-1.3,5.6c0.2,2.4,1.5,4.6,3.1,6.4c-1.7,2.3-2.7,5-3.5,7.8
		c-0.5,2-0.9,4-0.5,6.1c0.5,2.4,1.7,4.8,3.7,6.3c0.9,0.7,2.1,1,3.2,1.2c-0.5,6.1-1.9,12.1-4.4,17.6c-3.6,7.9-9.5,14.7-16.7,19.5
		c-9.1,6.2-19.9,9.6-30.6,11.6c-3.2,0.6-6.5,1-9.8,1.4c-0.6,0-1.1,0.3-1.6,0.6c-4.1,2.3-8.3,4.4-12.7,5.8c-3.9,1.3-7.9,2.2-11.9,2.9
		c-4.6,0.9-9.3,0.9-14,0.2c-6.2-0.9-12.2-2.9-17.5-6.2c-3.6-2.2-6.9-4.9-9.8-8c-3.7-4-6.4-8.8-8.6-13.8c-0.2-0.5-0.4-1.1-0.9-1.4
		c-8.7-5.8-16.5-13.2-21.6-22.4c-0.9-1.9-2.1-3.7-2.3-5.8c-2.7-17.9-3.6-36.1-4.2-54.2c2,0.4,4.1,0.2,5.9-0.8c2-1.1,3.4-3.1,4.3-5.2
		c1.2-2.8,1.7-6,1.7-9c1.9,0.1,3.8-0.6,5-2c1.9-2.1,2.6-5,2.4-7.8c-0.2-2.9-1.4-5.7-2.2-8.4c-2-6.6-3.6-13.4-3.1-20.3
		c0.4-5.5,2.4-10.8,5.4-15.4l0.2-0.1c3.3,1.9,7.2,2.9,11,2.8c3.8,0,7.4-0.9,11-2.1c-0.3,2.4-0.7,4.8-0.4,7.2c0,0.4,0.3,0.8,0.6,1.1
		c0.6-0.7,1-1.6,1.4-2.4c2.2-3.9,5.4-7.2,9.1-9.7c4.1-2.8,8.9-4.6,13.9-4.5c5.3,0.1,10.3,2.5,14,6.2c4.8,4.7,8.2,10.7,10.9,16.8
		c0.5,0.9,0.6,2.1,1.5,2.6c0.8-1.6,0.5-3.5,0.5-5.2C414.4,186.4,412.5,178.6,409.4,171.3 M379.3,192.5c-4.7,2.8-8.5,7-11.2,11.7
		c-2.6,4.5-4.3,9.5-5.6,14.5c-1.5,6-2.4,12.2-1.9,18.3c0.4,4.3,1.7,8.6,4.6,11.8c-0.9,2.2-1.8,4.5-2,6.9c-2.9-2.1-5.2-5-7-8.1
		c-2.7-4.6-4.3-9.8-5.2-15c-1.8-0.1-3.5,0.6-5,1.4c-4.4,2.3-8.2,5.8-10.8,10.1c-3,4.9-3.4,11.3-0.8,16.4c1.9,3.6,5.5,5.9,9.3,7.3
		c-1.2,4.6-2.2,9.6-0.8,14.3c0.8,2.8,2.6,5.3,4.9,7c3.7,3,8.4,5,13.2,4.6c0.6,2.9,1.8,5.6,3.4,8c-0.5,9.6-0.5,19.4,1.6,28.8
		c1.2,5.2,3.1,10.4,6.8,14.4c3.1,3.2,7.1,5.6,11.4,6.9c5.3,1.7,11.3,1.6,16.4-0.9c4.1-2.1,7.6-5.2,10.7-8.6c3.3-3.7,6.1-7.7,8.6-12
		c2.4-4,4.3-8.2,6.1-12.5c2-1.1,3.8-2.5,5.5-4c6,4,14.5,3.6,20.2-0.8c4-3,7.1-7.2,8.3-12.1c4.1,1,8.7,1.8,12.6-0.4
		c3.7-2.1,6.2-6.1,7.1-10.2c1-5.1,0.1-10.4-1.9-15.2c-1-2.3-2.3-4.7-4.4-6.2c-2.5,2.4-5.1,4.9-8,6.9c-4.3,3-9.3,5.2-14.6,5.7
		c1.1-2.6,1.7-5.4,1.9-8.3c2.1-0.4,4.1-1.3,5.9-2.4c3.9-2.7,6.7-6.7,9-10.9c2.8-5.3,4.8-11,6.1-16.8c1.3-6,1.9-12.1,1-18.2
		c-0.7-4.6-3-8.8-6.2-12.2c-3.2-3.3-7.7-5.3-12.3-5.3c-4.9,0-10,1.6-13.7,4.9c-3.1,2.7-5.5,6.1-7.4,9.7c-2.4,4.7-3.9,9.7-5.3,14.7
		c-7.5-4-16-6.3-24.5-6.8c1.7-6.5,3.3-13.2,2.9-20c-0.2-4.9-1.8-9.9-5-13.7c-3-3.7-7.5-6.2-12.2-6.8
		C386.9,189.1,382.8,190.5,379.3,192.5 M396,236.7c-2.8,0.3-5.7,0.8-8.4,1.7c-3.7,1.2-7.1,3.2-10.1,5.7c-3.5,3.1-6.4,7.1-7.7,11.6
		c-0.8,2.7-0.7,5.6-0.4,8.4c0.5,5,2.4,9.9,5.4,13.9c2.9,4.1,6.8,7.3,10.9,10c4.3,2.8,8.9,5.1,13.8,6.6c6.4,2,13.2,2.9,20,2.4
		c5.4-0.5,10.9-2,15.3-5.2c3.8-2.6,6.7-6.3,8.6-10.5c2.3-5.2,2.9-11.1,2-16.8c-0.8-4.6-2.7-9-5.8-12.5c-3.1-3.6-7-6.4-11.1-8.8
		C418.6,237.8,407.1,235.5,396,236.7 M508.3,274.6c-0.8,3.6-1.7,7.2-2.9,10.7c3.1-1.1,6.5-1.8,9.7-0.9c1.5,0.5,2.9,1.3,3.9,2.6
		c0.5,1-1.1,1.1-1.8,1.1c-5.2-0.7-10.5,1.1-14.8,4.2c-2,3.4-4.4,6.7-7.9,8.7c-0.2,10-2.3,20-7.1,28.8c3.2,0.7,6.5,0.4,9.6-0.4
		c9.4-2.6,17.7-8.7,23.5-16.5c5.6-7.4,9.1-16.6,8.7-26c-0.2-3.5-0.7-7.1-2.8-10c-2.1-2.9-5.6-4.2-9-4.6
		C514.3,272,511.1,272.9,508.3,274.6"/>
	<path fill="#BB4D5B" d="M380.5,325c5.7-0.6,11.6,0.8,16.7,3.5c4.4,2.3,7.8,6.1,9.7,10.7c-0.2,0.4-0.6,0.6-0.9,0.9
		c-2,1.7-4.1,3.5-6.4,4.8c-8.9,4.4-20.8,0.8-25.9-7.6c-1.4-2.3-2.2-4.8-2.8-7.4c0-0.3-0.3-0.7-0.1-1
		C373.5,326.6,377,325.3,380.5,325"/>
	<path fill="#FFFFFF" d="M274.3,48.5c5.8-2,11.8-3.5,18-3.8c11.1-0.7,22.2,2.3,31.7,7.9c7.4,4.2,13.9,10.2,18.4,17.5
		c3,4.9,5.1,10.5,5.5,16.3c0.3,3.6,0,7.3-1.1,10.7c-3.8-0.9-7.7-0.9-11.5-0.2c-1-4.9-2.3-9.8-4.8-14.2c-4.5-8.3-11.5-15.4-20.2-19.3
		c-5-2.2-10.6-3.6-16.1-3.2c-0.7,0.1-1.8,0.1-1.9,1c0.7,1,2,1.3,3.1,1.8c5.2,1.7,9.8,4.7,14,8.2c6.7,5.8,12.3,13,15.6,21.3
		c0.9,2.3,1.6,4.6,2.1,7c-4.7,2.1-9,5-12.7,8.6c-1.5-4.8-3.7-9.4-6.8-13.4c-5.5-7.3-13.7-12.4-22.5-14.6c-2.7-0.7-5.5-1.3-8.3-1.5
		c-1.6-0.1-3.3-0.2-4.7,0.6c0.3,0.9,1.3,1.4,2.1,1.8c2.2,1.1,4.5,1.8,6.7,3c8.4,3.9,16,9.9,20.9,17.8c2.7,4.3,4.5,9.2,5.3,14.3
		c0,0.4,0.2,0.8,0,1.2c-2.2,3.8-3.7,8-4.1,12.3c-0.2,2.8-0.1,5.6,0.8,8.3c0.1,0.3,0.4,0.7,0,0.9c-2.8,2.6-6.9,2.9-10.3,1.9
		c0.3-3.1,0.4-6.2-0.1-9.2c-0.7-4.8-2.6-9.4-5.4-13.4c-6.6-9.8-17.7-16.1-29.3-17.8c-1.6-0.1-3.3-0.4-4.7,0.5c0.3,0.7,1,1.1,1.7,1.4
		c2.8,1.4,5.5,3.2,8.2,4.7c4.6,2.6,9.1,5.7,12.9,9.5c3.4,3.4,6.2,7.5,8,12c1.5,3.7,2.4,7.9,1.9,11.9c-0.4,3.4-2.1,6.6-4.6,8.9
		c-3.5,3.3-8.4,4.8-13.2,4.3c-3.5-0.4-6.7-2.2-9.4-4.4c-4.7-3.9-8.3-9.1-10.9-14.6c-0.4-0.8-0.8-1.7-1.5-2.3
		c-0.7,0.3-0.5,1.2-0.6,1.7c0,3,0.5,5.9,1.3,8.8c1.2,4,3.5,7.6,6.4,10.6c3.6,3.8,8.5,6.5,13.7,7.1c4.6,0.5,9.3-0.2,13.4-2.2
		c4.2-2,7.5-5.6,9.6-9.7c6,1.1,12.7,0,17.6-3.8c4.2,3.3,9.8,4.3,15,4.1c3.2-0.1,6.3-1.1,9-2.8c2.2-1.4,4.2-3.3,5.9-5.3
		c0.6-0.9,1.4-1.9,1.1-3c-0.5-0.5-1.2-0.2-1.7,0c-1.4,0.6-2.7,1.4-4.1,2c-3.8,1.8-8.2,2.4-12.4,1.8c-3.7-0.4-7.4-2.2-9.6-5.3
		c-1.6-2.3-2.2-5.2-1.7-7.9c0.6-3.6,2.5-6.9,4.7-9.8c3-4,6.6-7.6,10.8-10.3c4.4-2.8,9.6-4.5,14.9-4.4c4,0.1,8,1.5,11,4.2
		c3,3,4.3,7.3,4.5,11.4c0.3,7.2-2.2,14.1-5.4,20.5c-5.1,10-13.2,18.1-22.1,24.8c-6,4.5-12.5,8.5-19,12.3c-1.7,1-3.5,1.9-4.9,3.3
		c-0.3,0.4-0.9,0.9-0.5,1.4c0.9,0.5,1.9,0.3,2.9,0.3c5.9-0.7,11.5-2.9,16.8-5.7c1.9,1.4,3.5,3.5,4.1,5.8c1.1,3.6,0.4,7.4-1,10.8
		c-1.9,4.4-5.1,8.1-8.9,11c-4.8,3.6-10.2,6.1-15.9,8c-15,5-31.8,5-46.8-0.2c-4.5-1.6-9-3.6-12.8-6.6c-3.9-3-7.2-6.9-8.8-11.6
		c-1.4-3.9-0.9-8.4,1.2-12c4,3.5,8.8,5.9,14,7.3c1.5,0.4,3.2,0.7,4.8,0.5c0.5-0.1,1.1-0.3,1-0.9c-0.2-0.5-0.7-0.9-1.1-1.2
		c-8.1-5.1-15.2-11.9-20.7-19.8c-5.8-8.5-9.5-18.3-11-28.5c-1-6.5-1.2-13.2-0.7-19.8c0.8-11.5,3.8-22.9,9.2-33.1
		c4.5-8.5,10.6-16.1,17.9-22.3C256.1,56.9,264.9,51.9,274.3,48.5 M429.3,106c-5,1.3-9.6,3.8-13.4,7.2c-3.3,3-6.3,6.6-8,10.8
		c-2,4.7-2.4,9.9-1.4,14.9c3.7-0.4,7.4-0.4,11.1-0.4c-1.2-2.2-2.4-4.4-3.7-6.5c7.8-8.2,16.3-15.7,24.5-23.5c2.9,5.3,5.5,10.8,8.5,16
		c4.6-3.6,9-7.5,13.5-11.3c0.6,1.5,1.1,3,1.7,4.6c3.5,10,7,20.1,10.1,30.2c-2.6,1.3-5.2,2.6-7.7,4c3.9,2.3,7.7,4.9,11.3,7.6
		c3.6-3.3,5.9-8,6.5-12.9c1.3-9.9-1.6-20.5-8.4-28c-3-3.5-6.8-6.2-10.8-8.3c-4.7-2.4-9.7-4-14.9-5C442,104.3,435.5,104.3,429.3,106
		 M423.6,138.9c12.4,1.1,24.5,4.7,35.6,10.3c-0.7-7.5-1.6-15.1-3.6-22.4c-4.1,2.5-7.5,5.9-11.4,8.8c-2.6-4.5-5.1-9-7.6-13.5
		C432,127.5,427.9,133.2,423.6,138.9 M383,195.9c-2.5,1.1-4.5,2.9-6.2,5c-3.3,3.8-5.6,8.3-7.5,12.9c-2,5.2-3.3,10.8-3.6,16.4
		c-0.3,4.9,0.1,10,2.4,14.4c1.9-2.4,4.1-4.4,6.6-6.2c-0.5-5.6,0.2-11.2,1.7-16.5c1.5-5.1,4.3-9.9,8.3-13.3c3.2-2.7,7.4-4.6,11.6-4
		c2.5,0.3,4.8,1.6,6.5,3.5c-0.1-1.1-0.3-2.2-0.5-3.3c-0.9-3.9-3.6-7.5-7.4-9.1C391.1,193.8,386.7,194.2,383,195.9 M443,218.4
		c4.1-1.1,8.7,0.5,11.4,3.7c2.5,2.9,3.7,6.6,4.1,10.3c0.7,5.9-0.4,11.9-2.7,17.4c-1.2,3.1-2.8,6.2-5,8.7c-0.2,0.2-0.5,0.6-0.3,0.9
		c1,2.9,1.7,5.8,2.1,8.9c3.4-1.6,6-4.4,8.2-7.5c2.9-4.2,5-8.9,6.7-13.8c1.8-5.6,3.1-11.5,3-17.5c-0.1-4.6-1.5-9.2-4.5-12.7
		c-2.9-3.5-7.7-5.5-12.2-4.8C449.4,212.7,445.7,215.2,443,218.4 M394.9,221.8c-2.5,1.1-3.7,4.5-2.4,6.9c0.6,1.2,2.3,1.7,3.5,1.1
		c2.3-1.1,3.4-4.3,2.3-6.6C397.7,221.9,396.2,221.2,394.9,221.8 M438.7,233.5c-1.9,0.8-2.8,3.1-2.6,5c0.1,1.3,0.8,2.7,2.1,3.2
		c1.2,0.4,2.6-0.3,3.3-1.3c1.3-1.7,1.5-4.3,0.2-6.1C441.1,233.4,439.8,233,438.7,233.5 M370.2,307c-0.2,1.9-0.3,3.7-0.4,5.6
		c11.3,1.7,22.4,4.6,32.9,9c4.4,1.9,8.7,4.2,12.9,6.6c1.5-2.5,2.8-5.1,3.8-7.9c-2.9,0.6-6,0.6-8.9-0.2c-1.9-0.5-3.7-1.3-5.4-2.3
		c-4.3-2.3-7.8-6.1-9.5-10.6c-5.5,2.3-11.6,3.3-17.6,2.5C375.3,309.4,372.6,308.4,370.2,307 M515.6,348.5c-4.9,0.5-9.9,1.6-14.4,3.8
		c-4.2,2-7.9,5-10.5,8.8c-1.4,1.9-1.9,4.4-2.1,6.7c4.5,1.1,8.3,4,11.4,7.3c2.6-2.5,5.4-4.7,8.6-6.4c4-2.2,8.5-3.4,13.1-3.5
		c3.7-0.1,7.4,0.3,10.8,2c1.3,0.7,2.7,1.5,3.3,2.8c-1.3,0.6-2.8,0.3-4.1,0.3c-4.9-0.3-9.9,0.6-14.5,2.3c-4.7,1.8-9.2,4.6-12.7,8.3
		c2.8,4.4,4.8,9.3,6,14.3c4.6-3.5,10-6.1,15.8-6.9c6-1,12.6-0.4,17.8,3.1c0.4,0.3,1.2,0.9,0.7,1.4c-0.8,0.7-2,0.5-3,0.5
		c-7.6-0.4-15.3,1-22.1,4.5c-3,1.6-5.8,3.5-8,6.1c0,5.5-0.8,11.4-4.2,16c0.6,2.3,1.5,4.6,3.3,6.3c1.2,1.2,2.8,1.8,4.4,2.3
		c1.1-2.8,2.7-5.4,4.6-7.6c3.1-3.3,7.2-5.5,11.4-6.9c3.7-1.2,7.6-1.9,11.5-1.3c2.4,0.5,4.8,1.3,6.6,2.9c0.4,0.3,0.5,0.8,0.6,1.2
		c-1.2,0.8-2.8,0.5-4.2,0.5c-3.1-0.1-6.2,0.6-9,1.6c-3.7,1.2-7.3,3.2-10,6.1c-2.8,3.1-4.6,7.2-4.3,11.4c0.2,3.4,1.9,6.8,4.8,8.6
		c2.7,1.7,6,1.8,9.1,1.7c5.2-0.3,10.5-1.7,14.9-4.6c1.1-0.7,2.1-1.8,3.5-1.7c0.1,0.7,0.1,1.3-0.2,2c-0.8,1.8-2,3.4-3.5,4.7
		c-2.4,2.3-5.3,4-8.5,5c-4.5,1.5-9.3,1.4-13.9,0.4c-4.4-1-8.5-3.3-11.3-6.8c-2.4-3.1-3.6-7-3.5-10.8c-4.9-0.6-9.1-4-11.3-8.3
		c-0.4-0.7-0.5-1.6-0.9-2.2c-3.3,1.2-6.8,1.7-10.3,0.9c-4.5-1-8.8-3.5-12-6.8c-3.7-4.1-5.8-9.5-6.1-14.9c0-1.1-0.1-2.3,0.4-3.3
		c1,0.4,1.2,1.6,1.6,2.4c0.6,1.8,1.4,3.5,2.4,5.1c2.2,3.8,5.5,6.9,9.5,8.6c2.4,1,4.9,1.8,7.5,1.6c2.9-0.2,5.9-1.5,7.6-4.1
		c1.2-1.8,1.5-4,1.6-6.1c0.3-5.4-0.7-10.7-2.4-15.8c-1.6-4.7-4-9.2-7.6-12.7c-1.6-1.6-3.5-3-5.7-3.8c-6.8-2.3-15.2,0.7-18.4,7.3
		c-2.3,5.1-3.5,10.8-3.5,16.4c0,5.2,1.1,10.3,3,15.1c0.2,0.6,0.9,0.8,1.3,1.2c6,3.8,11.3,8.8,15.2,14.8c4.4,6.8,6.8,14.9,7.5,22.9
		c8,0.3,16,1.8,23.4,5c6.5,2.7,12.4,6.6,17.5,11.3c5-0.5,9.9-1.9,14.4-4.1c5.8-2.8,10.9-7.2,14.5-12.5c3.4-5,5.6-10.9,6.8-16.8
		c1.4-7,1.5-14.1,1.1-21.2c-0.6-9.7-2.5-19.3-5.8-28.5c-2.9-8.1-6.9-15.8-12.5-22.4c-4.8-5.7-10.7-10.4-17.6-13.2
		C529.1,348.6,522.2,347.7,515.6,348.5"/>
	<path fill="#FF0122" d="M394.3,102c11.6-3.7,23.7-6.2,35.9-6.6c11.6-0.5,23.4,1,34.3,5.2c5.8,2.2,11.3,5.2,16.2,9
		c7.3,5.6,13.6,12.5,19.3,19.7c6.1,7.8,11.5,16.1,16.4,24.6c5.3,9.5,10,19.3,13.7,29.5c4,10.9,7,22.4,7.5,34.1
		c0.5,11.7-0.7,23.6-5,34.6c-1.9,4.7-4.4,9.4-8.4,12.8c-4.7-1.1-9.7-0.1-14,1.8c2.4-12.4,3.1-25.1,1.9-37.7
		c-1.1-11.6-3.7-23.1-8.2-33.8c-3.7-8.8-8.7-17-15.3-23.9c-2.8-3-5.7-5.8-8.8-8.4c3.6-3.5,5.9-8.2,7.1-13.1
		c2.5-10.7,0.1-22.4-6.5-31.1c-5.5-7.4-13.8-12.4-22.5-15.3c-6.3-2.1-13-3.2-19.7-3.1c-5.9,0.1-11.9,1.3-17.3,3.7
		c-4.4,2-8.4,4.9-11.7,8.4c-2.9,3-5.1,6.6-6.5,10.6c-1.8,5.3-2,11.1-0.8,16.5c-11.1,1.6-22.1,4.6-32.2,9.5
		c-10.3,5-19.6,12.1-27.4,20.5c-2.5,2.6-4.7,5.4-7,8.2c-1.2-2.1-2.7-4.1-4.6-5.7c10.1-6.8,18.6-15.8,24.7-26.4
		c2.9-5.1,5.4-10.5,7-16.2c1.3-4.6,1.8-9.3,1.3-14.1C373.4,109.9,383.7,105.5,394.3,102 M399.1,146.8c-5.3,0.7-10.6,2-15.7,3.6
		c-4.5,1.5-8.9,3.2-13.2,5.4c-9.5,4.8-18,11.8-24.8,20c1.5,0.5,3,0.9,4.6,1c5.3,0.5,10.4-1.3,15.2-3.2c0.3-0.1,0.4-0.4,0.5-0.7
		c1.8-4.8,4.3-9.5,8-13.1c3.2-3.2,7.5-5.4,12-6.1c3.2-0.5,6.6,0,9.6,1.5c4.1,2,7.2,5.4,9.9,8.9c10.6,0.1,21.2,1.5,31.3,4.6
		c9.5,2.9,18.6,7.1,26.8,12.8c3.1-1,6.4-1.7,9.7-1.7c4.3,0,8.7,1,12.1,3.7c3.5,2.8,5.6,7.1,7,11.3c1.6,5.6,0.9,11.5-0.5,17
		c3.3,3.5,7.8,6.5,12.8,6.5c-2.4-13.1-7.3-26-15.4-36.7c-5.9-7.7-13.3-14.1-21.3-19.4c-9.7-6.3-20.6-10.8-31.9-13.4
		C423.8,146,411.3,145.2,399.1,146.8 M244.9,217c0.3,9.4,1.2,18.7,2.5,27.9c3.4,24.1,8.6,48,15.2,71.4c2.8,9.9,5.9,19.8,9.4,29.6
		c0.1,0.3,0.2,0.7,0,1c-1.1,2.9-2.3,5.7-3.5,8.5c-4.1,9.6-8.1,19.2-10.9,29.3c1.7-1.7,3.4-3.4,5.2-4.9c7.6-6.5,16.7-11,26.2-14
		c1.1-1.3,1.9-2.8,3-4.2c3.5-4.8,7-9.4,10.4-14.3c5.7-8.1,11.1-16.5,15.6-25.4c0.9-1.9,1.9-3.7,2.5-5.7c-3.4-19.1-5.4-38.4-6.8-57.8
		c-1-13.8-1.7-27.6-1.6-41.5c-12.8,5.9-27.2,8.1-41.2,7C261.9,223.2,253,220.9,244.9,217 M351.3,348.2c-1,7.5-1.3,15-1.3,22.5
		c7.4,0.7,14.7,2.5,21.7,4.8c10,3.4,19.6,7.8,28.5,13.6c2-6.7,4-13.4,5.5-20.2c-3,0.7-6,1.4-9.1,1.8c-2.3,0.3-4.7,0.3-7,0.2
		c-10.3-0.5-20.4-4.4-28.3-11C357.3,356.7,354,352.6,351.3,348.2 M442.8,370.3c1.8,7.2,3.5,14.4,5,21.7c1.2,6,2.2,12,2.7,18.1
		c3.8,0.1,7.7,0.7,11.4,1.7c-2.1-7.2-3.3-14.8-2-22.2c-2.2-3.2-4.7-6.1-7.3-9.1C449.4,376.9,446.2,373.5,442.8,370.3"/>
	<path fill="#0052AD" d="M327,322.7c4.5,6.5,10.9,11.4,17.3,15.8c0.6,0.5,1.4,0.8,1.9,1.4c-2,12.6-2.2,25.4-3,38.1
		c-0.4,6.3-1.5,12.5-3.8,18.4c-1.8,4.6-4.5,9-8.3,12.4c-8,7.1-20.1,9-30,4.9c-6.5-2.6-11.9-8.2-13.7-15c-1.3-5.5-0.6-11.4,1.2-16.7
		c0,5.3,1.4,10.7,4.7,15c2.6,3.6,6.6,5.8,10.8,7c5.6,1.5,11.7,1.2,17.1-0.9c3.5-1.4,6.5-3.8,9-6.5c3.1-3.3,5.5-7.3,6.9-11.6
		c1.6-4.8,1.8-10,0.3-14.8c-1.3-4.1-3.6-8.1-7.1-10.7c-6.3-4.9-15-6.3-22.7-4.3C315.7,345.2,321.7,334.1,327,322.7 M428.5,359.8
		c-4.4,2.4-8.9,4.5-13.6,6.2c-2,7.4-4.4,14.6-7,21.8c-2,5.9-4.3,11.6-6,17.6c-1.3,4.7-2.3,9.5-2.2,14.4c0.1,3,0.8,5.9,2,8.6
		c2.1-1.7,4.2-3.3,6.4-4.8c-2.7-4.5-3.2-10.1-1.9-15.1c1.2-4.6,3.9-9,7.7-11.9c3.7-2.9,8.3-4.6,13-4.6c5.3-0.1,10.6,1.9,14.6,5.4
		c-1.1-7-2.5-13.9-4.1-20.7c-1.2-5-2.5-10-4.7-14.6C431.4,361.2,430,360.3,428.5,359.8 M264.9,388.9c-4.1,3.4-7.8,7.4-10.8,11.9
		c-0.4,0.5-0.4,1.1-0.5,1.7c-2.4,14-3.5,28.3-3.8,42.5c0.2,6.5,0.9,12.9,1.3,19.3c0.4,7.5,1.3,15.1,2.4,22.5
		c3.1,20.7,8.1,41.1,14.3,61c8.8,28.3,20.1,55.8,32.6,82.7c-2.9,5-4,11.1-2.5,16.8c1.3,4.6,4,9.1,8.3,11.6c4.6,2.9,9.9,4.6,15.3,5.4
		c6.4,0.9,12.9,0.5,19.2-0.9c9.9-2.2,19.3-6.6,27.2-13c7.6-6.1,13.9-14.1,17.1-23.4c1.8-5.5,2.8-11.4,2-17.1
		c-0.6-3.7-2-7.4-4.5-10.3c-2.1-2.4-5.1-3.9-8.2-4.2c-4.1-10.9-7.3-22.1-10.2-33.4c-2.2-8.7-4.3-17.4-5.8-26.2
		c9.5-3.1,18.9-6.7,27.5-11.9c-2.3-10.6-2.6-21.5-2.6-32.2c3.2,0,6.4,0,9.6,0c-0.1,10.5,0.5,21.1,2.5,31.5c0.1,0.8,0.4,1.5,0.3,2.3
		c-1.7,4-3.3,8.1-3.4,12.5c-0.1,2.8,0.5,5.6,2.3,7.8c0.9,1.2,2.1,2.2,3.4,2.9c2.6-13.3,7.4-26.2,13.8-38.1
		c8.1-14.9,18.9-28.5,32-39.3c5.5-4.5,11.5-8.5,18-11.6c7.3-3.5,15.3-5.6,23.4-6.3c-0.8-6.1-2.1-12.1-4.8-17.6
		c-1.7-3.4-4-6.6-6.9-9.1c-4.1-3.6-9.1-6-14.4-7.1c-5.8-1.3-11.8-1.2-17.7-0.4c-10.8,1.7-21,6.4-29.8,12.8
		c-7.7,5.5-14.3,12.4-20,19.9c-2-2.4-4.5-4.4-6.4-6.9c3.4-4.1,7-8,10.8-11.7c-3.6-6.3-4.5-13.8-3.4-20.9c1-5.9,3.5-11.5,5.6-17.1
		c-14.9-8.4-31.1-14.8-48-17.4c-0.2,7.7-1.1,15.6-3.8,22.9c-1.9,5.1-4.7,10-8.6,13.8c-3.6,3.6-8.2,6.1-13.1,7.5
		c-4.8,1.4-9.8,1.7-14.8,1.4c-8.2-0.6-16.1-4.4-21.9-10.4c-2.9-3-5.1-6.6-6.5-10.6c-1.3-3.6-2.2-7.5-2.3-11.3
		c-0.1-4.6,1.2-9.2,3.1-13.4C276,381.1,270.1,384.6,264.9,388.9"/>
	<path fill="#FEF500" d="M312.2,359.1c5.2-0.7,10.7,0.7,14.8,4c3.2,2.5,5.2,6.2,5.8,10.1c0.8,4.9-0.4,10-2.9,14.3
		c-2.6,4.5-6.9,8-11.6,10c-4.9,2.1-10.6,2.4-15.5,0.3c-3.4-1.4-6.1-4.2-7.9-7.4c-2.3-3.9-2.8-8.7-1.8-13.1
		c1.1-5.3,4.1-10.1,8.3-13.6C304.5,361.3,308.3,359.6,312.2,359.1 M326.1,371.6c-0.5,1.9-0.6,3.9-1.1,5.8c-1.1,4.7-3.9,8.8-7.5,11.8
		c-1.7,1.6-3.8,2.6-5.5,4.2c-0.3,0.4-1,0.8-0.6,1.3c1.2,0.1,2.4-0.5,3.5-1c3-1.3,5.9-3.2,8.2-5.5c3.4-3.4,5.5-8.2,5.1-13
		c-0.2-1.7-0.4-3.4-1.3-4.9C326.5,370.7,326.2,371.1,326.1,371.6 M417.7,399.7c-2.2,1.7-3.9,4.1-5.1,6.6c-2,4.6-1.8,9.9-0.4,14.7
		c1.2-0.8,2.6-1.3,3.7-2.2c-0.3-2.1-0.5-4.2-0.1-6.3c0.4-2.6,1.6-5.1,3.4-6.9c0.6-0.6,1.3-1.4,2.2-1.6c0.1,1.1-0.6,2.1-1,3.1
		c-1.4,3.2-2.1,6.8-1.5,10.3c7.5-3.6,15.5-6.1,23.7-7c-1.2-5.2-4.7-10-9.6-12.1C428.1,396.1,422.1,396.5,417.7,399.7"/>
	<path fill="#895127" d="M468.8,467.3c8.6-2.9,17.8-4,26.9-3.4c9.3,0.6,18.5,3.3,26.4,8.2c4.9,3,9.4,6.7,13.2,11
		c4.2,4.9,7.4,10.7,9.1,16.9c1.6,5.9,1.7,12.1,0.7,18.1c-1.9-5.3-5.6-9.7-10-13.2c-5-4-11-6.8-17.2-8.5c-8-2.3-16.6-2.6-24.8-1.3
		c-6.8,1.1-13.3,3.4-19.5,6.3c-11.5,5.5-21.5,13.8-29.3,23.8c-7.2,9.2-12.5,19.7-16.5,30.7c-1.8,2-3.7,3.8-5.3,5.9
		c-4.3,5.4-7.6,11.7-8.3,18.6c-0.2,2.1-0.2,4.3,0,6.4c-2.7-1.9-4.6-4.7-5.9-7.6c-1.6-3.5-2.4-7.2-2.9-11c-1.1-8.3-0.3-16.7,1.5-24.8
		c3.3-14.5,9.8-28.3,18.3-40.5c8.2-11.6,18.4-22,30.6-29.4C459.9,471,464.2,468.8,468.8,467.3 M390,638c-4.7,9-11.6,16.8-19.7,22.8
		c-9.3,6.8-20.3,11.2-31.8,12.6c-11.6,1.4-23.4-0.3-34.3-4.4c-0.2,4.2-0.2,8.3,0,12.5c0.5,10.4,2.3,21,7,30.5
		c2.3,4.6,5.4,8.7,9.3,12c3.3,2.8,7.2,4.9,11.4,6.2c6.6,2.1,13.5,2.9,20.5,2.9c10.6-0.1,21.5-2.4,30.7-8c4.6-2.8,8.5-6.6,11.8-10.9
		c6.5-8.3,10.9-18.4,11.8-28.9c0.3-3.2,0.1-6.3-0.1-9.5c-0.4-6.6-1.3-13.2-2.5-19.7c-2.1-10.8-5-21.4-8.8-31.7
		C393.9,629.1,392.3,633.7,390,638"/>
	<path fill="#C1845A" d="M481,506.5c6-2.4,12.3-4.1,18.7-4.5c8.6-0.6,17.3,0.9,25.1,4.4c5.9,2.7,11.5,6.6,15,12.2
		c2.1,3.3,2.9,7.2,3,11c-2.4-3.9-5.7-7.1-9.5-9.7c-6.1-4.2-13.3-6.7-20.5-7.9c-13.5-2.2-27.6,0.6-39.3,7.6
		c-10.5,6.3-19.1,15.8-24.9,26.6c-1.1,2.2-2.2,4.4-2.9,6.7c-0.4,1.3-0.5,2.7-0.2,4c0.1,0.4,0.3,0.6,0.6,0.9c0.9-0.5,1.4-1.5,1.9-2.4
		c2.9-5,6.5-9.5,10.4-13.8c4-4.2,8.1-8.4,12.6-12.1c5.3-4.3,11.3-7.8,17.8-9.9c7.7-2.6,16.1-2.9,24.1-1.5c6.2,1,12.3,3.1,17.5,6.6
		c3.9,2.6,7.4,6.1,9.2,10.4c1.4,3.2,1.7,6.8,1.1,10.3c-0.9,4.5-2.8,8.8-5.3,12.7c-2.3,3.6-4.9,7.1-7.9,10.2
		c-3.3,3.5-7.2,6.5-11.2,9.2c-4.5,3-9.4,5.6-14.1,8.3c-4.2,3.2-8.2,6.4-12.5,9.4c-3.8,2.6-7.7,5.1-11.9,7c-6,2.5-12.3,4.4-18.8,4.7
		c-5.9,0.3-11.9-0.4-17.3-2.8c-3.9-1.8-7.3-4.9-8.8-9c-1.7-4.5-1-9.5,0.8-13.7c2.2-5.2,5.6-9.8,9.8-13.5
		c12.1,2.1,23.8,5.7,35.2,10.1c4.9,1.8,9.7,4,14.7,5.7c1.5,0.5,3,1.2,4.6,0.9c-0.2-0.8-0.8-1.4-1.3-1.9c-3.5-3.2-7.3-6-11.4-8.2
		c-11-6.1-23.3-9.6-35.8-11.3c-2.4-0.3-4.9-0.6-7.3,0.1c-1.8,0.5-3.3,1.8-4.6,3.1c-4.4,4.1-8,9.2-10.1,14.8c-1.5,4.3-2.1,9-1,13.4
		c0.3,1.7,1,3.3,1.7,4.8c-3-1.6-5.5-4-7.1-7.1c-2.2-4.5-3-9.9-1.2-14.8c1.9-5.5,5.8-10,9.6-14.4c1.1-1.3,2.4-2.6,3.3-4
		c4.3-11.4,10.2-22.4,18.3-31.6C459.4,518.5,469.6,511,481,506.5 M395.2,725.6c-7.6,7.3-17.3,12-27.6,13.9c-12.2,2.3-25,1-36.7-3.1
		c3.4,3.5,7.3,6.5,11.6,8.6c4.8,2.4,10.1,3.5,15.5,3.4c6.3,0.1,12.7-0.4,18.8-1.9c5.1-1.2,10.1-3.2,14.5-6.1
		c8-5.2,14.2-13.2,17.3-22.2c2.2-6.3,3-13,2.9-19.6C408.5,708.9,402.8,718.2,395.2,725.6"/>
</g>
</svg>
