<?xml version="1.0" encoding="utf-8"?>
<!-- Generator: Adobe Illustrator 21.1.0, SVG Export Plug-In . SVG Version: 6.00 Build 0)  -->
<svg version="1.0" id="Warstwa_1" xmlns="http://www.w3.org/2000/svg" xmlns:xlink="http://www.w3.org/1999/xlink" x="0px" y="0px"
	 viewBox="0 0 792 792" enable-background="new 0 0 792 792" xml:space="preserve">
<g>
	<path d="M626.1,526.7c6.7,15.4,7.5,33.2,2.3,49.2c0.9,5.9,0.5,12.1-1.4,17.8c-1.2,3.8-3.1,7.4-5.3,10.7
		c-5.4,8.1-12.8,14.8-20.9,20.1c-13.3,8.7-28.2,14.4-43.3,19.1c-1.6,0.5-3.3,0.9-4.8,1.5c-8.6,6-17.8,11.2-27.5,15.2
		c-9.7,4-19.9,6.9-30.4,7.6c-6.5,0.4-13.1-0.2-19.3-2.2c-4.8-1.5-9.4-4-13.1-7.5c-3.7-3.4-6.2-8.1-7.5-12.9
		c-4.2-2.2-7.3-5.9-9.7-9.9c-4.9-8.2-6.7-17.9-6.8-27.4c-1.2-1.7-2.5-3.3-3.6-5c-3.3-5.2-5.5-11.2-6.3-17.4
		c-1.1-8.8,0.8-17.9,4.9-25.7c-13.3,5.7-27.6,8.6-41.9,10.1c-7.7,0.8-15.5,1.2-23.3,1.2c-6.5,10.2-13.1,20.4-20.1,30.3
		c-12.5,17.7-25.9,34.7-40.1,51.1c0.1,6.1-0.9,12.3-3.7,17.7c-1.3,2.6-3,4.9-5.1,7c2.5,11.6,3.1,23.8,0.3,35.4
		c-2.2,9.4-6.7,18.3-13.2,25.5c-7,7.7-16.3,13.2-26.4,15.8c-9.7,2.5-20.1,2.4-29.7-0.3c-0.7-0.2-1.5-0.6-2.3-0.4
		c-4.3,0.3-8.7,0.5-13,0.7c-5.7,0.3-11.5,0-17-1.6c-8.9-2.6-16.6-8.4-22.1-15.8c-6.3-8.6-10.2-18.7-12.5-29
		c-2.8-12.9-3-26.3-1.5-39.5c0.9-7.6,2.4-15.1,4.4-22.5c-2.6-1.7-3.8-4.7-4.6-7.6c-1.3-4.8-1.6-9.8-1.8-14.8
		c-0.3-8,0.5-16.2,3.7-23.6c1.6-3.8,4.2-7,7.4-9.6c3.6-2.9,7.3-5.5,11.2-8c0.6-0.4,1.4-0.8,1.7-1.5c3.9-6.9,10.6-12.1,18-14.9
		c2.9-1.1,5.9-1.9,9-2.5c0.4,0,0.6-0.4,0.9-0.6c2.8-3.1,6.7-5.1,10.8-5.6c2.4-0.3,4.9-0.2,7.2,0.4c11.7-14.5,22.3-29.9,31.6-46
		c2.3-4,4.5-8.1,6.5-12.2c-1.2-6.1-1.9-12.2-1.7-18.4c0.3-11.2,3.4-22.1,8-32.2c2.2-5,4.8-9.8,7.1-14.8c4.7-10.3,8.9-20.8,11.6-31.8
		c0.8-3.7,1.7-7.4,1.3-11.2c-7.4-20.3-14.6-40.8-21.2-61.4c-8.7-26.9-16.5-54-24-81.2c-3.1-1-6.3-2.2-9.1-3.8
		c-6.6-3.7-11.7-9.8-14.7-16.7c-3.7-8.5-4.5-18.3-2.4-27.3c-7.5-7.2-13.5-15.8-18.3-25c-4.9-9.4-8.5-19.4-10.9-29.7
		c-2.5-11-3.7-22.4-2.4-33.6c1.6-14.4,6.3-28.5,14.4-40.6c4.1-6.2,9.5-11.6,15.3-16.2c18.3-14.7,42.8-21.5,66-18
		c8.9,1.4,17.8,4.3,25.1,9.8c3.3,2.5,6,5.6,8.3,9c3.2,4.9,5.3,10.6,5.8,16.5c5.4-1.8,11.4-1.9,16.8,0.2c4.1,1.6,7.6,4.6,10.1,8.2
		c3.4,5.2,5.1,11.3,5.6,17.4c9.8-7.8,20.1-14.9,31-21.2C399,71.5,408.8,66.7,419,63c11.3-3.9,23.3-6.1,35.3-6c12,0,24,2.3,34.9,7.4
		c9.1,4.2,17.4,10.5,23.4,18.6c6.4,8.5,10.4,18.7,12.6,29.1c0.9,4.3,1.5,8.8,1.9,13.2c10.6,1.1,21.4,3.2,30.9,8.3
		c4.3,2.3,8.3,5.3,11.4,9c3.1,3.7,5.2,8.2,6,13c0.9,5.3,0.3,10.7-1.3,15.8c-1.6,5.2-4.2,10-7.4,14.5c-5.8,8.1-12.9,15.2-20.6,21.4
		c-9.8,7.9-20.6,14.4-32.1,19.6c0.1,3.4,0.1,6.9-0.3,10.3c7.9,3.1,15,8.8,19.1,16.4c1.7,3.2,2.8,6.7,3.2,10.3
		c0.7,8.6-0.7,17.4-4.7,25.1c-0.6,1.2-1.4,2.2-1.9,3.4c0.6,5.2,0.5,10.9-2.3,15.6c-2,3.3-5.8,5.5-9.7,5.2c-1.3,3.7-3.5,7.1-6.8,9.3
		c-1.2,0.8-2.5,1.4-3.8,1.9c-4.1,7.9-9.6,15.2-16.8,20.5c-4.5,3.4-9.6,6.2-14.9,8c-6.8,2.4-14,3.2-21.2,2.9
		c6.9,6.2,12.8,13.5,18.2,21.1c0.8-5.5,2.7-10.9,6.4-15.1c4-4.6,10.1-7.4,16.2-6.9c2.7-8.1,9.1-14.6,16.6-18.5
		c4.9-2.6,10.4-4.3,15.9-4.6c6-0.3,12,0.9,17.4,3.6c7.5,3.7,13.4,10,17.4,17.3c1.5,2.8,2.7,5.8,3.6,8.8c2.7,3.1,5.2,6.2,7.4,9.7
		c4.5,7.1,7.5,15.2,9,23.6c1.2,6.7,1.8,13.6,1.3,20.4c-0.7,8.4-3.4,16.6-7.9,23.7c-5.9,9.3-14.7,16.9-25,20.8c4.7,9.6,6.6,20.4,7,31
		c7.2-1.1,14.6-1.2,21.8,0c10.8,1.7,21,6.3,29.5,13.1C616.2,509.7,622.2,517.8,626.1,526.7"/>
	<path fill="#FFD5AB" d="M464.7,249.2c-0.6-2.3-1.4-4.5-2-6.8c2.1-1,4.2-2,6.4-2.9c0-7.1,0.7-14.2,3.2-20.9
		c1.6-4.4,4.3-8.7,8.3-11.2c3.5-2.3,8.2-3.4,12.2-1.6c3.8,1.5,6,5.3,7.3,9c2,6.3,2.2,12.9,2,19.4c1.1,0.1,2.3,0.3,3.4,0.5
		c0.6-13.4,0.8-27-1.9-40.2c-2.4-1.5-5.4-2-8.2-1.9c-2.9,0.2-5.7,1.1-8.3,2.2c-4.6,2.1-8.7,5.1-12.4,8.5c0.7-3.2,1.7-6.4,3-9.4
		c2-4.6,4.5-9,7.9-12.6c-10.7-4.7-22.2-7.3-33.7-8.6c1.6,3.2,2.8,6.7,3.7,10.2c1.3,5.6,2,11.5,1.3,17.2c-3.3-7.2-8.2-13.6-14.4-18.4
		c-4.2-3.3-9.2-5.9-14.5-6.7c-4.4-0.7-9.1,0.1-12.9,2.5c-4.4,2.7-7.5,7-10.3,11.2c-0.2-1.6-0.4-3.1-0.5-4.7
		c-2.8,1.2-5.8,2.3-8.8,2.9c-5.2,1.2-10.8,1.2-15.8-0.7c-4.2-1.5-7.8-4.5-9.9-8.5c-4.4,3.4-8.8,6.9-12.9,10.6
		c0.5,5.5,1.7,11,4.5,15.8c2.6,4.4,6.5,7.9,10.6,10.8c1.2,0.9,2.4,1.8,3.4,3.1c3.4,4.4,4,10.7,1.6,15.6c-1.6,3.4-5,5.9-8.7,6.6
		c1.4,4.6,1.6,9.6-0.1,14.1c-1.4,3.8-4.3,7.1-8.2,8.4c-4.3,1.6-9.2,0.5-13-1.8c3.7,18,7.5,35.9,10.7,54c2,0.6,3.8,1.5,5.6,2.6
		c4.1,2.4,7.7,5.5,11.2,8.6c3.8,3.6,7.5,7.4,10.9,11.3c6.5,7.5,12.4,15.4,17.3,24c8,1.8,16.4,1.4,24.4-0.6c9.5-2.4,18.3-7.2,26.2-13
		c7.5-0.1,15-1.5,21.8-4.5c8.9-3.8,16.6-10.2,21.8-18.4c-3.3-1.5-5.7-4.3-7.8-7.2c-4.5,4.2-10.7,7-16.9,6.4
		c-3.3-0.4-6.5-1.8-9.1-3.9c-3.1-2.4-5.5-5.8-7-9.4c-5.7,3.2-12.1,5.5-18.7,5.3c1.5,0.7,3,1.4,4.6,2c4.7,1.9,9.7,2.7,14.7,2.4
		c0.7,0,1.3-0.2,2,0c0.2,0.5-0.4,0.9-0.7,1.2c-2.2,1.8-5.2,2.4-7.9,2.8c-1.6,2-3,4.3-4.6,6.3c-3.2,4.3-6.7,8.6-10.8,12.1
		c-3.2,2.7-6.8,5-10.7,6.4c-7.2,2.4-15.3,0.3-21-4.5c-4.1-3.5-6.8-8.5-8.2-13.7c-1.6-6.4-1.6-13.1-1-19.6c0.6-6,1.8-12,3.2-17.9
		c-2-1.4-3.6-3.4-4.6-5.6c-2.2-4.8-2.2-10.5-0.7-15.5c-2.4-1.5-4.5-3.4-6.2-5.6c-3.1-4.2-4.3-9.6-3.6-14.7c0.6-4.7,2.9-9,6.1-12.4
		c2.8-2.9,6.2-5.3,10.2-6.3c3.6,9.1,9.5,17.1,16.6,23.8c7.1,6.7,15.4,12.1,24.2,16.5c-0.3-1.7-0.4-3.4-0.5-5.2
		c2.5-0.3,5-0.5,7.4-0.9c0.1,3.2,1.1,6.3,2.4,9.1c4.1,8.6,11.1,15.6,19.6,19.9c4.3,2.2,9,3.4,13.7,4.3c6,1.1,12.1,1.4,18.1,0.4
		c5.6-1,11-3.3,15.5-6.9c6.7-5.4,10.9-13.6,12-22.1c0.6-5,0.2-10.3-1.8-15c-2-4.6-5.7-8.4-10-10.9c-5-2.9-10.8-4.4-16.5-5
		C487,240.5,475,243.4,464.7,249.2 M449.9,221.8c-0.6,6.2-1.6,12.5-4,18.3c-1.8,4.5-4.6,8.8-8.8,11.4c-3.9,2.4-8.6,2.9-13.1,2.2
		c-5-0.9-9.4-3.8-12.5-7.7c-2.5-3-3.8-6.8-4.8-10.5c-1.5-6.6-1.7-13.4-0.9-20.1c0.6-4.8,1.9-9.6,3.9-13.9c1.9-4.1,4.7-7.9,8.4-10.6
		c3-2.2,6.6-3.6,10.3-4.1c5.4-0.7,11,1.2,14.9,4.9c3.1,3.1,4.9,7.2,5.9,11.5C450.6,209.3,450.5,215.6,449.9,221.8 M416.8,295.9
		c0.7,3.9,2.1,7.7,4.2,11c-4.8-3.2-9.4-6.5-13.8-10.1C410.4,297.1,413.7,296.7,416.8,295.9"/>
	<path fill="#7B2901" d="M344.8,250.2c-1.9-8.7-3.8-17.5-5.8-26.2c5.9-7.4,9.1-16.9,8.8-26.3c1.1-1.2,2.3-2.5,3.5-3.7
		c1.3,5.7,3.1,11.4,6.5,16.3c2.4,3.5,5.7,6.2,9.1,8.8c2.9,2.1,4.9,5.7,4.7,9.3c-0.1,2.1-1.3,4.1-3,5.3c-2,1.3-4.4,1.7-6.7,1.8
		c1.9,4.8,2.5,10.1,1.3,15.1c-0.6,2.3-2.2,4.3-4.4,5.3c-2.1,1-4.6,0.9-6.8,0.2c-2.6-0.9-4.8-2.8-6.7-4.8
		C345,250.9,344.8,250.6,344.8,250.2"/>
	<path fill="#54F4FF" d="M428.6,242.6c-1.8,2.6-4.8,4.8-8.1,4.5c-3.3-1.4-5.9-4.2-7.5-7.3c1.4,1.1,3.2,1.9,5,1.8
		c2.5,0.1,4.8-1.4,6.3-3.3c2.5-3.2,3.5-7.2,4-11.1c0.4-3.5,0.3-7-0.3-10.4c-0.5-2.6-1.4-5.3-3.4-7.2c-1.7-1.8-4.3-2.5-6.7-2.1
		c-2.5,0.4-4.5,2.1-6,4c0.5-2,1.1-4.1,1.9-6.1c1.3-1.9,3.2-3.5,5.5-4.2c3-1,6.5-0.4,9,1.5c2.9,2.2,4.4,5.8,5.2,9.2
		c1.1,5.4,1,11.1,0.3,16.6C433.1,233.4,431.6,238.4,428.6,242.6 M489.7,234.2c0.1-4.2,0-8.6-1.7-12.5c-0.9-1.9-2.3-3.8-4.4-4.5
		c-1.7-0.6-3.9-0.5-5.3,0.8c-1.7,1.6-2.4,3.9-2.9,6.1c0.6-0.8,1.3-1.5,2.2-2c1.3-0.7,3-0.5,4.3,0.2c1.4,0.8,2.2,2.2,2.7,3.7
		c0.9,2.8,0.9,5.8,0.8,8.7C486.8,234.5,488.2,234.3,489.7,234.2"/>
	<path fill="#BB4D5B" d="M399.4,315.3c4.1,3.4,8.5,6.5,13.1,9.3c4.8,2.9,9.9,5.7,15.3,7.4c1,2.6,1.2,5.6,0.4,8.3
		c-0.6,1.8-2.2,3.2-3.9,4c-5,1.6-10.9,1.3-15.4-1.8c-2.1-1.4-3.8-3.5-5.1-5.6C399.7,330.6,398.9,322.7,399.4,315.3"/>
	<path fill="#FFFFFF" d="M302,238c-13,4.5-27.2,5.9-40.8,3.5c-7.2-1.3-14.4-3.9-20.1-8.7c-3.3-2.8-6.1-6.3-7.9-10.2
		c-2.2-5-3-10.6-2.2-16c6.4,4.5,13.7,7.8,21.4,8.9c2.9,0.4,5.9,0.7,8.9,0.4c0.7-0.1,1.4-0.2,1.9-0.7c0.3-0.4-0.2-0.7-0.5-0.9
		c-1-0.5-2-0.7-3-1.1c-9.1-2.9-17.7-7.4-24.9-13.8c-3.5-3.1-6.7-6.7-9.8-10.3c-6.7-8-12.2-17.1-16.1-26.8c-6.9-17.1-8.7-36-6.7-54.3
		c0.6-5.6,1.5-11.2,3.2-16.5c2.3-7.1,5.9-13.7,10.7-19.5c7.3-9,17.2-15.7,27.8-20.1c9.8-4,20.3-6.2,30.8-6.4
		c5.8,0,11.7,0.5,17.3,2.1c5,1.4,10,3.6,14.1,6.8c3.6,2.8,6.4,6.4,8.2,10.6c1.7,3.9,2.3,8.1,2.4,12.3c-3.4-3.7-7.8-6.5-12.4-8.4
		c-9.6-4-20.3-4.6-30.6-3.6c-6.8,0.8-13.5,2.2-19.9,4.9c-4,1.8-7.9,4-11.6,6.5c-1.1,0.9-2.4,1.7-3.1,2.9c-0.3,0.8,0.9,0.9,1.4,0.8
		c4.4-0.5,8.3-2.6,12.5-3.9c5.5-1.7,11.1-2.8,16.8-3.4c7.3-0.8,14.8-0.8,22.1,0.6c5,0.9,9.8,2.7,13.9,5.7c3.6,2.6,6.4,6.1,8.1,10.1
		c2.5,5.8,2.8,12.4,1.5,18.6c-3.7-3.7-8.2-6.6-13.1-8.5c-10-3.9-21.1-4.2-31.6-2.5c-8.1,1.3-15.9,3.8-23.3,7.2
		c-2,0.9-3.9,1.9-5.6,3.2c-0.5,0.4-1.1,0.9-1.2,1.6c0.1,0.5,0.7,0.6,1.1,0.7c2.2,0.1,4.4-0.6,6.5-1.1c6.3-1.8,12.7-3.2,19.2-4.1
		c6.4-0.8,12.9-1.2,19.3-0.6c5.3,0.5,10.5,1.7,15.3,4.1c4,2.1,7.7,5.1,10,9c3.3,5.7,3.3,12.9,0.8,18.9c-2.8-4-6.6-7.3-11-9.5
		c-4.3-2.2-9.1-3.4-13.9-3.8c-6.4-0.5-12.9,0.3-19.1,1.8c-4.3,1.1-8.6,2.5-12.6,4.6c-2.3,1.3-4.6,2.6-6.6,4.3
		c-0.6,0.5-1.2,1-1.4,1.8c0.3,0.7,1.3,0.5,1.9,0.5c3.3-0.5,6.4-1.7,9.5-2.6c5.1-1.5,10.3-2.6,15.7-3.2c6.7-0.6,13.5-0.3,19.9,1.8
		c3,1.1,6,2.3,8.2,4.6c3.4,3.4,5.4,8,6.1,12.7c0.8,5.8-0.3,11.9-3.6,16.8c-2,3.1-4.9,5.5-8.3,7c-3,1.3-6.3,2.1-9.6,1.4
		c-1.7-0.4-3.2-1.5-4.1-3c3.1-2.1,6.2-4.4,8-7.8c0.2-0.5,0.6-1.3,0.2-1.8c-0.7-0.5-1.7-0.1-2.4,0.1c-2.3,0.8-4.5,2-6.7,2.9
		c-7,2.7-14.3,4.4-21.6,6.2c0.7,2.8,1.5,5.5,2.2,8.2c4.6-1.1,9.2-2.3,13.6-4.2c2.3,3,5.5,5.3,9.2,6.2c5.2,1.3,11,0.6,15.7-2.2
		c6-3.5,10.4-9.4,13-15.8c2.1-5.3,2.8-11.2,1.9-16.8c2.2-3.3,3.8-7,4.9-10.9c4.3,2.5,9.5,3.5,14.3,2.3c1.3,8.5-0.1,17.2-2.5,25.4
		c-4.1,13.5-11.2,26-19.8,37.2c-0.3,0.5-0.8,1-0.6,1.5c0.7,0.4,1.5,0,2.2-0.2c3.1-1.2,5.8-3,8.3-5.1c2.4-2,4.2-4.5,5.9-7.1
		c1.5-2.1,2.8-4.4,4-6.6c2.5,2.7,3.9,6.3,4.6,9.9c1.2,6.4,0,13.2-2.8,19c-1.9,4-4.6,7.7-7.9,10.7C320.6,229.8,311.5,234.7,302,238
		 M321.5,117.3c1.4,3.4,1.9,7,1.9,10.7c4.2,2.5,9.7,3.3,14.2,1.2c3.2-1.4,5.3-4.4,7-7.3c2.5-4.4,4-9.4,4.9-14.4
		c0.9-5.4,1.1-11-0.1-16.4c-0.5-2.5-1.7-4.8-3.3-6.6c-4.7-5.5-13.1-7.5-19.7-4.4c-0.4,0.1-0.4,0.6-0.5,0.9c-0.4,2.9-1.3,5.7-2.2,8.5
		c1.2,4.2,1.8,8.6,1.6,13C325,107.5,323.8,112.7,321.5,117.3 M503.1,124.6c1.1-10.6-3.6-21.7-12.1-28.2c-7.4-5.7-17.2-7.9-26.4-6.9
		c-9.9,1.1-19.3,6.4-25.3,14.4c-3.4,4.6-5.5,10-6.5,15.6c-0.9,5.5-0.9,11.2,0.9,16.5c3.6-1.1,7.2-2.1,10.8-3c-2.1-2.5-4.3-5-6.3-7.7
		c10.7-10.5,20.6-21.7,31-32.4c3.2,5.5,5.9,11.2,8.7,16.8c3.7-3.5,7.1-7.2,10.7-10.8c3.7,8.5,6.8,17.3,10.2,26
		C500.3,124.8,501.7,124.7,503.1,124.6 M475.5,124.1c-2.1-5-4.1-10.1-6.5-14.9c-5.7,7.4-11.4,14.7-17.1,22
		c12.5-2.7,25.1-4.5,37.8-5.7c-1.2-4.1-2.6-8.1-4.2-12C482.2,117.1,478.9,120.7,475.5,124.1 M434.7,192.2c-3.2-1.2-6.8-0.7-9.8,0.6
		c-3.5,1.5-6.4,4.2-8.4,7.5c3.6-2.3,8.5-2.2,12.1,0c2.5,1.5,4.4,4,5.5,6.7c1.8,4.1,2.3,8.6,2.3,13c0,6.5-0.9,13.1-3.5,19.1
		c-1.6,3.7-4.1,7.3-7.8,9.2c3.6,0.3,7.3-0.3,10.3-2.4c3.6-2.5,5.7-6.4,7.2-10.4c2-5.6,2.8-11.6,3.2-17.5c0.3-5.8,0-11.7-2.3-17.1
		C441.8,197,438.8,193.5,434.7,192.2 M497.1,233.8c0.2-4.2,0.3-8.5-0.4-12.6c-0.5-2.6-1.3-5.2-2.9-7.4c-1.7-2.3-4.8-3.6-7.6-3
		c-2.7,0.5-5.1,2.2-6.8,4.3c3.5-1.1,7.5,0.6,9.4,3.7c2.8,4.5,3,10,2.9,15.1C493.5,233.9,495.3,233.8,497.1,233.8 M419.4,223
		c0.8-0.4,1.4-1.2,1.8-2.1c0.8-1.9,0.8-4.2-0.4-5.9c-0.6-0.9-1.8-1.3-2.8-0.8c-1,0.5-1.6,1.5-2,2.4c-0.7,1.8-0.6,3.9,0.5,5.5
		C417.2,223,418.4,223.4,419.4,223 M477.2,227.1c-0.9,0.3-1.5,1.2-1.8,2.1c-0.6,1.6-0.7,3.6,0.2,5.1c0.4,0.7,1.2,1.3,2.1,1
		c0.9-0.3,1.5-1.2,1.8-2.1c0.6-1.6,0.6-3.6-0.2-5.1C478.9,227.3,478.1,226.8,477.2,227.1 M438.4,329c2.2-1.2,3.8-3.1,5.5-4.9
		c-6.2-1.7-12.1-4.5-17.8-7.5c-5.1-2.7-10.1-5.8-14.8-9.1c-3.4-2.4-6.8-4.9-9.7-8c-0.6,2.9-1.1,5.7-1.5,8.6c5.7,5.6,12.3,10,19.1,14
		c4.4,2.5,8.9,4.9,13.7,6.5C434.6,329.3,436.6,330,438.4,329 M481.7,393c3.6,1.2,6.7,3.6,9.2,6.3c3.2,3.5,5.7,7.6,7.3,12.1
		c1.8,4.9,2.8,10.1,2.5,15.3c-0.1,2.2-0.5,4.5-1.6,6.5c11-0.9,22.2,1.3,32,6.4c5.8,3,11.1,7.2,14.9,12.6c6-2.1,11.6-5.3,16.2-9.8
		c5.6-5.4,9.3-12.5,11.2-20c2.1-8.1,2.1-16.6,0.8-24.8c-0.7-4.5-1.7-8.9-3.2-13.3c-2.4-7.4-6.3-14.4-11.9-19.9
		c-1.8-6.2-5.2-12.1-10-16.4c-3.9-3.6-8.7-6.1-13.7-7.4c-4-1.1-8.2-1.5-12.3-0.8c-5.2,0.9-10.1,3.1-14.1,6.5
		c-3.1,2.7-5.6,6.3-6.5,10.4c4.2,1.8,8,4.4,11.4,7.4c3.1-3.6,7.3-6.2,11.9-7.4c5.6-1.5,11.7-0.7,17,1.7c1.3,0.6,2.5,1.3,3.5,2.4
		c0.2,0.3,0.5,0.8,0.1,1c-0.6,0.3-1.3,0.1-2,0.1c-4.6-0.6-9.2-0.7-13.8,0.2c-4.7,0.9-9.3,2.8-13,5.9c2.8,3.3,5.1,7.1,6.7,11.2
		c4.4-3,9.9-4.5,15.2-4.5c3.8,0,7.7,0.6,11.2,2.2c1,0.5,2.1,1.1,2.8,2.1c0.3,0.9-0.9,0.9-1.5,0.9c-4.7-0.2-9.5-0.1-14.1,0.9
		c-4.1,0.8-8.2,2.4-11.6,4.8c0.5,2.7,0.8,5.5,0.7,8.3c-0.1,2.5-0.9,5-2.2,7.2c-1.8,3.1-4.5,5.8-7.7,7.4c0.6,1.5,1.3,2.9,2.5,4
		c1.3,1.3,3,1.9,4.8,2.2c0.3-1.5,0.9-3,1.5-4.4c3-6.3,8.6-11.5,15.4-13.3c5.3-1.5,11-1,16.1,0.9c1.2,0.5,2.4,1,3.4,1.9
		c0.3,0.2,0.6,0.9,0,1c-1.7,0.5-3.5,0-5.2,0c-7.5-0.2-15.3,2.3-20.7,7.7c-2.9,2.9-5.2,7-4.8,11.2c0.3,4,3.2,7.7,7,8.9
		c2.8,0.9,5.8,1.1,8.7,0.7c4.1-0.7,8.1-2.2,12-3.7c1-0.3,2-0.7,3-0.5c0.5,0.2,0.3,0.8,0.1,1.2c-0.7,1.3-1.8,2.3-2.9,3.3
		c-3.1,2.6-6.6,4.7-10.6,5.7c-4.3,1.1-8.9,0.6-13.2-0.8c-5.2-2.1-9-7.1-10.2-12.6c-2.9-0.4-5.8-1.4-8.1-3.3
		c-2.8-2.1-4.6-5.4-5.4-8.7c-5.4,0-10.7-2.7-13.9-7.1c-3.1-4.1-4.9-9.2-5.1-14.3c0.1-1-0.1-2.4,0.9-3c0.4,0.4,0.8,0.8,1,1.3
		c0.7,1.5,1.2,3.2,1.9,4.7c1.9,4,4.6,7.9,8.4,10.2c2.6,1.5,5.7,2.5,8.6,1.8c2.7-0.6,4.9-2.8,6.1-5.2c2-3.7,2-8.1,1.2-12.2
		c-1.7-9.2-7.7-17.3-15.7-21.9c-3.8-2.3-8.4-3.8-12.8-2.9c-4.5,0.9-8.2,4.4-10.1,8.5c-2.2,4.7-2.8,10-3.3,15.2
		c-0.2,0.6,0.3,1.1,0.6,1.7C479.6,388.8,480.6,390.9,481.7,393"/>
	<path fill="#FF0122" d="M343.9,134.8c2.2-1.5,4.1-3.4,5.8-5.5c3.6-4.6,6-10,7.6-15.5c8.1-7.5,16.7-14.3,25.8-20.6
		c9.1-6.3,18.7-12,28.9-16.1c11-4.4,22.6-7.6,34.4-8.8c11.5-1.1,23.4-0.3,34.4,3.7c5.8,2.1,11.3,5,16.2,8.8
		c7.3,5.5,12.6,13.4,16,21.8c2.8,7,4.5,14.5,5.1,22c-3.5-0.1-7-0.1-10.5-0.1c1-6.1-0.1-12.5-2.6-18.1c-3.3-7.4-8.7-13.9-15.6-18
		c-9.5-5.4-21.2-6.6-31.7-3.8c-5.1,1.4-9.9,3.7-14.2,6.8c-3.5,2.6-6.8,5.6-9.5,9.1c-6.6,8.5-9.3,19.7-7.5,30.3
		c0.4,2.3,1.1,4.6,2.1,6.8c-19.7,6.5-38.5,15.8-55.5,27.6c-9.6,6.6-18.7,14.1-27.3,22.1c-1.6-4.6-4.2-9-8-12.1
		c3.1-7.8,5.1-15.9,6-24.2C344.4,145.6,344.6,140.2,343.9,134.8 M478.5,135.5c-11,1.3-22,3.2-32.8,5.8c-10.1,2.4-20,5.7-29.7,9.6
		c-14.2,6-27.5,13.8-40.2,22.6c1.1,1.6,2.6,3,4.3,4c2.9,1.7,6.4,2.3,9.8,2.1c5.2-0.3,10.2-2,14.9-4.3c0.9-6.8,4.3-13.3,9.8-17.5
		c4.2-3.2,9.7-4.8,15-4.1c4.9,0.7,9.4,3.3,13.1,6.6c9.3-3.2,18.8-5.7,28.4-7.8c11.6-2.5,23.4-4.4,35.2-5.4c3.1-0.3,6.3-0.5,9.5-0.4
		c0.9,0.1,1.9,0,2.6,0.6c-0.8,1-2.1,1.1-3.3,1.3c-10.5,2.3-21,4.4-31.5,6.9c-11.5,2.7-22.9,5.7-34,9.8c9.4,0.3,18.8,2.1,27.8,5
		c5,1.6,9.8,3.6,14.4,6.1c3-1.7,6.5-2.6,10-2.4c3.8,0.1,7.7,2,9.9,5.2c2.9,4.1,3.2,9.4,2.4,14.2c-0.4,3-1.5,5.8-2.5,8.6
		c0.7,5.1,1.3,10.2,1.8,15.3c4.7-2.1,9.2-4.6,13.6-7.3c8.7-5.4,16.9-11.7,23.9-19.1c3.6-3.8,6.8-7.9,9.6-12.3
		c2.8-4.4,5.2-9.2,6.2-14.4c0.9-4.3,0.5-8.9-1.6-12.8c-2.2-4.2-6.1-7.2-10.2-9.4c-5.3-2.8-11.1-4.5-16.9-5.7
		c-6.1-1.2-12.3-1.9-18.6-2.3C505.8,133.2,492.1,133.9,478.5,135.5 M304.7,391c-0.2,6-1.7,11.8-3.4,17.5c4,6.3,6.8,13.3,10.3,19.9
		c5.8-5.8,11.8-11.4,18.2-16.5c7.9-6.5,16.5-12.1,25.5-17c0.9-14.4,3-28.8,1.7-43.3c-0.1-2.3-0.7-4.4-1.1-6.6
		c-7.7-38-15.3-76-23.9-113.8c-9.5,7.9-21.1,13.1-33,16.3c-12.4,3.3-25.5,4.5-38.2,2.9c13.1,46.7,27.7,93,43.6,138.9
		C304.5,389.8,304.8,390.4,304.7,391 M449.4,387.5c-3.3-7-7.3-13.7-12-19.9c-9.6,3.1-19.8,3.7-29.8,2.4c1.8,3.5,3.6,7,5.1,10.6
		c0.2,0.2,0.2,0.8,0.6,0.7c6.5,0.2,13,1.1,19.4,2.1C438.3,384.5,443.9,385.7,449.4,387.5"/>
	<path fill="#0052AD" d="M361.9,407.9c0.2,5.5,0.8,11,2.6,16.1c1.3,3.9,3.4,7.6,6.4,10.5c3.3,3.2,7.6,5.3,12,6.4
		c5.8,1.3,12.1,0.5,17.4-2.2c4.4-2.2,8.2-5.9,10.4-10.4c2.1-4.4,2.9-9.2,3-14c0.1-10.8-3.4-21.3-7.8-31.1
		c-4.2-9.3-9.5-18.1-15.2-26.6c-2.9-4.3-5.9-8.6-9.2-12.8c-3.6-4.5-7.5-8.8-11.7-12.8c-3.1-2.8-6.3-5.6-10-7.6
		c2.1,7.2,3.1,14.7,3.8,22.2c1,13.5,0.5,27.1-0.8,40.5C362.2,393.4,361.7,400.6,361.9,407.9 M370.6,387.7c3.4-4.4,8.6-7.2,14.1-7.7
		c4.6-0.5,9.5,0.5,13.3,3.2c4.2,2.8,7.3,7,9.2,11.6c2.6,6.2,3.3,13.1,2,19.6c-1,4.9-3.6,9.5-7.3,12.8c-3.3,3-7.7,4.5-12.1,4.7
		c-4.3,0.3-8.8-0.7-12.5-2.9c-4-2.4-7.3-6-9.3-10.2c-2.2-4.4-3.1-9.5-3-14.4C365.2,398.6,366.8,392.5,370.6,387.7 M449.4,360.8
		c7.1,6.2,12.9,13.7,18.2,21.4c2.4,3.5,4.6,7,6.7,10.7c-1.9,0.7-3.5,2-4.5,3.8c-1.6,2.7-2.1,6-2.2,9.1c-0.3,9.1,2.4,18.4,7.6,25.9
		c1.4,2,3.1,3.9,4.9,5.6c-1.8,0.6-3.5,1.2-5.2,1.9c-3-3.5-5.1-7.8-6.8-12c-4-9.9-5.5-20.6-8.4-30.8c-2.5-9.2-6.3-18.1-11.8-25.9
		c-1.3-1.9-2.7-3.8-4.2-5.6C445.8,363.7,447.7,362.4,449.4,360.8 M488.9,525.4c-8.9,7.8-17.2,16.5-24.7,25.7
		c-6.9,8.6-13.2,17.6-18.2,27.4c-2.3,4.6-4.3,9.4-5.6,14.4c-1.5-3.4-2.4-7-2.7-10.7c-0.4-7,1.8-13.9,5.5-19.8
		c1.3-2.1,2.8-4.1,4.3-5.9c-0.5-8.3-1.1-16.6-1.5-24.9c-0.4-8.3-0.6-16.5-0.5-24.8c-2.7,0.3-5.4,0.6-8.1,0.9
		c-0.1,13.2-0.1,26.3,0.9,39.5c-12,5.3-24.6,8.9-37.4,11.5c-13.2,2.5-26.6,3.8-40,3.5c-6.8,10.6-13.5,21.2-20.6,31.6
		c-12.7,18.8-26.8,36.6-41.4,54.1c0.4,5.9,0,12-2.8,17.3c-2.1,4-5.8,7.1-10.1,8.7c-5.7,2.1-12,2.1-18,1.3
		c-6.4-0.9-12.6-2.9-18.2-6.1c-9.4-5.3-16.8-13.6-22.2-22.9c-7.1-12.2-11.1-25.9-13.4-39.7c-1-5.9-1.7-11.8-1.7-17.8
		c0.1-4.8,0.5-9.7,2.3-14.2c1.3-3.1,3.5-6,6.8-7.2c3.8-1.4,8.1-0.6,11.7,1c4.7-5,9-10.3,13.1-15.7c5.6-7.4,11-14.9,16-22.7
		c5.9-9.2,11.8-18.5,16.3-28.5c-2.3-12.3-2.7-25.1,0.4-37.2c1.3-5.5,3.3-10.9,5.8-16.1c4.6-9.8,9.2-19.7,13-29.9
		c4.1,7.6,7.1,15.8,10.3,23.9c6.4-7,13.3-13.5,20.6-19.5c8.1-6.6,16.8-12.6,26.1-17.3c0.1,6.9,0.5,13.9,2.3,20.6
		c1.1,4.2,2.9,8.3,5.6,11.8c2.3,2.9,5.2,5.5,8.3,7.5c8.9,5.6,20.7,6.2,30.2,1.8c4.6-2.1,8.7-5.4,11.8-9.4c3.6-4.7,5.8-10.3,6.8-16.1
		c1.9-10.8-0.2-22-3.8-32.3c12.2,0.5,24.3,2.3,35.9,6.2c0.3,0.1,0.6,0.1,0.8,0.4c1.7,4.4,2.7,9,3.6,13.6c1.3,6.4,2.4,12.9,4.6,19.1
		c1.5,4.2,3.5,8.2,6.2,11.8c0.4,0.5,0.8,1,1.2,1.6c-2.1,0.9-4.1,2-6.2,3.1c1.2,2.6,2.5,5.1,3.7,7.7c7.5-4.1,15.5-7.5,23.8-9.4
		c8.3-2,17.1-2.4,25.5-0.4c7.4,1.8,14.3,5.5,19.8,10.8c4.9,4.7,8.8,10.5,10.9,17c2,6.9,3,14.1,3.1,21.3
		c-11.4,2.8-22.1,7.5-32.3,13.3C506.7,511,497.5,517.9,488.9,525.4"/>
	<path fill="#FEF500" d="M379.2,423.6c4.4,2.9,10.2,3.6,15.2,1.9c4.4-1.6,7.9-5.3,9.7-9.6c1.9-4.6,1.9-9.8,1-14.6
		c-0.8-4-2.6-7.9-5.6-10.8c-3.8-3.7-9.3-5.5-14.6-4.9c-2.7,0.3-5.2,1.4-7.3,3.1c-3.7,2.9-6,7.3-6.8,12c-0.7,4.3-0.5,8.8,0.9,12.9
		C373,417.5,375.6,421.2,379.2,423.6 M376.1,400.2c0.2-0.8,0.4-1.7,0.9-2.4l0.2-0.2c0.7,0.1,0.6,1.1,0.8,1.7
		c0.9,6.9,3.6,13.5,8.1,18.9c0.7,0.9,1.6,1.7,2.2,2.8c0,0.5-0.5,0.7-0.9,0.6c-2.2-0.3-4-1.7-5.6-3.1
		C377,413.7,374.9,406.6,376.1,400.2 M472.6,410.9c0.7,5.8,2.6,11.4,5.3,16.5c1.9,3.3,4.2,6.6,7.7,8.3c2-0.5,4-0.9,6.1-1.3
		c0.7-0.4,1.1-1.1,1.6-1.8c1.5-2.6,1.7-5.7,1.5-8.7c-0.4-5.4-1.8-10.8-4.3-15.6c-1.7-3.3-4-6.5-7.2-8.6c-2.1-1.3-4.8-1.9-7.1-0.9
		c-1.5,0.6-2.5,2-3,3.4C472.2,405.1,472.3,408,472.6,410.9 M477.7,410.2c0.8,1.2,1,2.6,1.4,3.9c1.7,5.5,4.1,10.9,7.3,15.6
		c0.5,0.7,1.2,1.5,1.3,2.4c-1.2,0-2.3-0.8-3.2-1.5c-3.3-2.9-5-7.1-6.1-11.3c-0.6-2.5-1-5.1-1.1-7.6
		C477.2,411.2,477.2,410.6,477.7,410.2"/>
	<path fill="#895127" d="M613.3,521.3c6,8.2,9.2,18.2,9.7,28.3c0.2,3.8,0,7.7-0.5,11.5c-0.1,0.4-0.1,0.8-0.3,1.2
		c-1.2-1.9-3-3.5-4.7-5c-7.5-6.3-16.9-10.1-26.5-12c-11.9-2.3-24.3-1.3-35.9,1.7c-10.8,2.9-20.9,7.7-30.3,13.7
		c-13.3,8.5-25,19.3-35.3,31.2c-0.6,0.8-1.7,1.1-2.5,1.6c-8.7,4.6-17,10.2-23.5,17.8c-4.8,5.6-8.4,12.5-9.5,20
		c-2.9-3.9-5.1-8.4-6.2-13.1c-1.4-5.8-1.4-11.9-0.2-17.8c1-5,2.7-9.8,4.9-14.3c5-10.1,11.3-19.6,18.4-28.4
		c6.9-8.5,14.5-16.4,22.6-23.7c8.5-7.6,17.7-14.5,27.6-20.3c10.1-6,21.2-10.6,32.9-12.7c12-2.2,24.8-1.7,36.3,2.8
		C599.4,507.3,607.5,513.4,613.3,521.3 M278.6,685.6c-10.6-0.2-21.3-2.3-30.6-7.6c-4.8-2.7-9.1-6.1-13-9.9
		c-7.1-7.1-12.6-15.7-17.3-24.5c-2.8-5.3-4.9-10.9-6.7-16.6c-2.6-8.4-4.4-17.1-5.4-25.8c-1-8.9-1.3-17.9,0.6-26.7
		c-9.7,2.5-17.5,10.9-20,20.5c-1,4.1-1.2,8.3-1.2,12.5c0.1,9,1.3,17.9,2.7,26.7c-1.1,10.8-1.5,21.8-0.8,32.7
		c0.8,11.9,2.7,23.7,6.5,35c3.1,9.1,7.5,17.9,13.8,25.1c3.4,3.9,7.4,7.2,11.7,9.9c9.1,5.8,20.2,8.5,30.9,7.2
		c10.4-1.2,20.6-5.7,28-13.2c7.3-7.2,11.6-17,12.9-27.1c0.9-6.8,0.6-13.6-0.4-20.4C286.7,684.9,282.7,685.7,278.6,685.6"/>
	<path fill="#C1845A" d="M607.6,562.1c3.3,2.6,6.3,5.7,8.4,9.4c2.4,4.6,3.8,9.9,3.1,15.1c-0.5,5-2.8,9.6-5.6,13.7
		c-2.5,3.6-5.4,6.9-8.7,9.9c-7.4,6.6-16,11.8-24.8,16.2c-9.6,4.8-19.6,8.6-29.8,11.7c-7.1-6.6-15.6-11.5-24.5-15.3
		c-5.8-2.5-11.9-4.4-18.1-5.8c-1.4-0.3-2.8-0.7-4.2-0.5c0.1,0.8,1,1.1,1.5,1.6c4.3,2.6,8.9,4.6,13.3,7c9.3,4.9,18.4,10.1,26.8,16.5
		c-8.2,5.7-17.4,9.6-26.8,12.9c-6.1,2.1-12.3,3.8-18.7,4.9c-3.2,0.6-6.6,0.6-9.8,0.5c-4.3-0.2-8.8-1-12.6-3.3
		c-2-1.3-3.8-3.1-4.7-5.3c-1.2-2.7-1.2-5.8-0.7-8.6c1-4.8,3.3-9.4,6.3-13.3c5.1-6.7,11.9-11.8,19-16.2c0.8-0.5,1.6-0.9,2.3-1.6
		c6.5-7,13.4-13.6,21-19.5c7.9-6.2,16.5-11.5,25.7-15.5c10.6-4.6,22.3-7.1,33.9-6.1c9.8,0.9,19.8,3.8,27.7,9.8
		c1,0.7,1.9,1.6,2.8,2.3c0.6,0.3,0.7-0.4,0.6-0.8c-0.4-1.8-1.5-3.4-2.7-4.8c-3.5-4-8.2-6.7-13.1-8.6c-10.6-3.9-22.2-4.5-33.2-2.4
		c-10.7,2.1-20.8,6.4-30.1,11.9c-8.2,4.9-15.8,10.7-22.9,17.1c-4,3.7-7.9,7.5-11.5,11.6c-0.7,1-2,1.3-3,1.9
		c-8.2,4.5-15.9,10.2-21.8,17.4c-3.5,4.3-6.4,9.3-7.6,14.8c-0.7,3.1-0.7,6.4,0,9.6c-3.6-4.3-5.2-10.2-4.7-15.8
		c0.4-5.2,2.5-10.2,5.2-14.6c6-9.5,15.3-16.3,25.1-21.5c0.7-0.5,1.6-0.7,2.2-1.3c6.4-7.8,14-14.6,22.1-20.7
		c7.9-5.8,16.3-10.9,25.3-14.9c10.7-4.8,22.3-8.2,34.1-8.7c6.2-0.3,12.6,0.3,18.6,2C598.5,556.2,603.3,558.8,607.6,562.1
		 M190.1,716.4c-4.9-10.9-7.8-22.8-9-34.7c-1.6-15.3-0.6-30.8,1.2-46.1c-1-5.8-2-11.6-2.6-17.5c-0.9-8.3-1.4-16.8,0-25.1
		c-2.3,1.1-4.5,2.5-6.2,4.4c-2.7,3-4.1,6.8-5.1,10.7c-1.6,7.5-1.2,15.2,0.1,22.7c0.3,2,0.6,4,1.4,5.8c0.8,1.7,2.5,2.7,4.2,3.3
		c-1.3,6.6-2.4,13.2-3.1,19.8c-1.5,13.1-1.9,26.4,0.2,39.4c1.6,10.3,4.9,20.5,10.8,29c5,7.1,12,13,20.3,15.7
		c3.2,1.1,6.6,0.9,9.9,0.9C202.3,737.7,194.9,727.5,190.1,716.4"/>
</g>
</svg>
