<?xml version="1.0" encoding="utf-8"?>
<!-- Generator: Adobe Illustrator 21.1.0, SVG Export Plug-In . SVG Version: 6.00 Build 0)  -->
<svg version="1.0" id="Warstwa_1" xmlns="http://www.w3.org/2000/svg" xmlns:xlink="http://www.w3.org/1999/xlink" x="0px" y="0px"
	 viewBox="0 0 792 792" enable-background="new 0 0 792 792" xml:space="preserve">
<g>
	<path d="M695,447.7c1.5,8.1,0.6,16.4-1.1,24.4c-4,17.9-12.4,34.6-23.2,49.3c-3.6,5.1-7.5,10-11.6,14.8c-2.7,3-5.4,6-8.5,8.6
		c3.7,5.2,5.4,11.6,6.1,17.9c0.7,7.1,0.3,14.3-0.8,21.3c-1.9,12.1-7,23.5-14.3,33.2c-7.1,9.5-16.1,17.4-25.7,24.4
		c-10,7.3-20.8,13.5-31.8,19.2c-10.4,5.5-21.1,10.5-32.1,14.6c-6.5,2.4-13,4.6-19.8,5.8c-1.4,5.9-4.9,11-8.6,15.6
		c-8.2,10-18.6,17.9-29.4,24.9c22.1,1.7,44.1,3.5,66.1,6.5c7.6,1.2,15.2,2.2,22.6,4.5c1.7,0.6,3.6,1.2,5,2.5
		c0.9,0.8,0.5,2.2-0.4,2.9c-1.8,1.6-4.2,2.3-6.5,3c-6.2,1.8-12.6,2.7-18.9,3.5c-16.3,2-32.7,2.9-49.1,3.8c-27.9,1.3-55.7,1.8-83.6,2
		c-0.9,0-1.8,0.3-2.7,0.5c-15.7,3.7-31.9,5.6-48,4.8c-12.7-0.7-25.6-2.9-37-8.6c-3.4-1.7-6.7-3.7-9.5-6.2
		c-5.9,2.5-12.3,3.5-18.6,4.1c-8.2,0.6-16.4,0.5-24.6-0.1c-7.7-0.5-15.4-1.5-23-3.4c-6.7-1.6-13.2-3.8-19.3-7.1
		c-4.7-2.5-9.2-5.7-12.7-9.8c-3.5-4-5.9-9-6.5-14.3c-0.6-5,0.2-10,1.8-14.7c3.4-10,10.1-19,19-24.8c2.6-1.7,5.5-3.2,8.6-3.9
		c-2.9-7.2-4.9-14.8-7.1-22.2c-5.5-19.5-9.7-39.3-12.4-59.4c-3.9-29.4-4.2-59.4,0.7-88.7c3.4-21.3,9.6-42.1,17-62.4
		c-1.1-2.9-1.7-5.9-1.9-8.9c-0.5-7-0.1-14.3,2.7-20.9c2-4.9,5.6-9.2,10.4-11.5c-1.3-5.3,0.1-10.9,2.7-15.6c3-5.3,7.3-9.8,12.2-13.4
		c-3.4-5.4-3.4-12.6-0.3-18.1c3.2-5.7,9-9.5,15.1-11.8c-7.9-10.7-14-23-15.9-36.2c-4.5,1-9.4,0.7-13.6-1.3c-3,1.5-6,3-9.1,4.6
		c1.4,2.6,2.3,5.5,2.8,8.4c0.3,1.6,0.5,3.3,0.3,4.9c-2.9,0.1-5.9-0.3-8.8-0.5c-6.1-0.6-12.1-1.2-18.2-1.9c-2,1.4-4.3,2.4-6.6,3.4
		c-7.2,3.1-14.7,5.5-22.1,7.8c-14.9,4.8-29.9,8.8-45,12.8c-0.7,0.2-1.5,0.3-2.1,0.7c-6.1,3.5-13.3,4.6-20.2,5
		c-5.9,0.3-11.7,2.1-17.4,3.5c-1.6,0.3-3.2,0.8-4.8,0.7c-1.4-0.2-1.9-1.9-1.7-3.1c0.3-3.1,2-5.9,4-8.2c2.8-3.1,6.2-5.7,9.9-7.7
		c-3.4-4.3-7.3-8.2-12-10.9c-2.7-1.5-5.6-2.7-8.6-3.8c-3-1.1-6.1-2.3-8.6-4.2c-1.1-0.9-2.3-2.1-2.1-3.6c0.4-1.7,2.2-2.4,3.7-2.8
		c4.1-1,8.4-0.8,12.5-0.1c1.2,0.3,2.4-0.4,3.6-0.5c1.3-0.3,2.7,0,3.8-0.8c2.8-1.6,6.1-1.9,9.3-1.5c-0.8-1.3-1.8-2.6-3-3.6
		c-2.1-1.8-3.7-4.3-4.3-7c-0.2-1.1-0.2-2.4,0.8-3.1c1-0.5,2.2-0.3,3.2-0.1c2.6,0.8,5,2.3,7.2,3.8c4.5,3.1,8.5,6.8,12.4,10.6
		c4.4,4.3,8.7,8.8,12.8,13.4c4.1-3.2,8.5-6.1,12.9-8.9c11.1-6.9,22.8-12.7,35.2-16.9c3.5-1.2,7-2.2,10.7-2.9
		c2.8-0.5,5.7-0.9,8.6-0.5c1.6-5.2,3.7-10.4,6.3-15.1c0.9-1.6,1.9-3.2,3.1-4.7c0.3-0.3,0.8-0.8,1.2-0.3c2.7,2.4,4.3,5.6,5.7,8.9
		c1-1.1,2-2.1,3-3.2c0.6-0.5,0.3-1.3,0.4-2c-2.9-1.5-4.6-4.5-5.1-7.6c-1-5.5,0.4-11.2,3-16.1c2.2-4,5.2-7.5,8.7-10.3
		c-1.2-5.1-1.6-10.4-0.6-15.6c0.7-3.9,2.2-7.5,4.4-10.8c-4.4-0.9-8.9-2.7-12.2-5.9c-4.5-4.6-6.1-11.8-4.5-18
		c3.6,1.6,7.3,3.2,11.2,3.7c2.6,0.4,5.2,0.4,7.8-0.2c-4.6-8-7.8-16.8-8.8-26c-0.7-7.6,0.4-15.5,3.4-22.5c-4.6-0.3-9.3-2.1-12.4-5.7
		c-2.4-2.9-4-6.6-3.9-10.4c0.6,0,1.2,0,1.8,0.1c4.5,0.8,9,1.2,13.6,0.9c-4.5-2.4-7.8-6.7-8.9-11.6c-1.8-8.2-0.3-16.9,3.4-24.4
		c1-1.9,2-4,3.9-5.2c1.4,2.2,2.6,4.5,4.2,6.5c2.7,3.5,6.3,6.5,10.6,7.9c1.4-5,3.5-9.9,6.8-14c3.4-4.3,8.1-7.6,13.2-9.6
		c6-2.3,12.5-2.8,18.8-2c-0.2-3.5,0.2-7.1,2-10.2c1.2-2.1,3.1-3.7,5.4-4.4c0.2-6.4,0.4-12.9,0.7-19.3c-0.1-0.6,0.7-0.8,1-0.3
		c5,4.8,9.7,10.1,14.1,15.4c6-5.3,12.3-10.3,19.1-14.6c0.4-0.3,0.8-0.6,1.3-0.7c0.6-0.2,0.9,0.4,1.2,0.7c3.4,4.3,6.7,8.6,10,13
		c2.9-1.6,5.7-3.3,8.7-4.6c0.7-0.3,1.7-0.8,2.3,0c3.1,3.2,5.6,7,8.3,10.6c4.9-1.9,9.7-3.9,14.7-5.6c0.6-0.1,1.3-0.6,1.9-0.1
		c0.1,0.5-0.1,1-0.2,1.5c-1.7,5.8-3.4,11.6-5.1,17.4c-0.5,1.3,0,2.7-0.2,4.1c1.4,1.7,1.9,4,1.7,6.1c-0.2,2.8-1.1,5.5-2.5,8
		c7.3,4.7,14.4,9.7,22.2,13.5c7.1,3.4,15.2,4.3,23,3.3c4.5-0.5,8.8-1.8,13.2-3.1c0.5-0.1,1.2-0.5,1.6,0c0.8,1.7,1,3.7,1.3,5.6
		c0.7,6.5,0,13.3-2.9,19.2c-1.7,3.5-4.3,6.6-7.5,8.9c2.5,0,5-0.2,7.4-0.8c1.5-0.4,2.9-1.1,4.4-1.4c0.5,2.3-0.1,4.7-0.8,6.8
		c-1.4,4.4-4.6,8.2-8.5,10.6c-3.4,2.2-7.3,3.6-11.3,4.2c2.8,1,5.1,3,7.1,5.2c5.6,6.5,8.8,14.9,9.1,23.4c0.2,3.8-0.4,7.6-0.8,11.4
		c-0.3,3.8-0.8,7.6-0.9,11.4c-0.1,3.6-0.1,7.3,0.9,10.8c1.2,4.2,4.5,7.9,8.8,9.1c3.8,1,7.7-0.2,11.1-1.9c1.6-0.7,3.1-1.8,4.7-2.3
		c0.9,0.8,1,2.2,1.3,3.3c1,6.1,0.4,12.5-2.2,18.2c-1.8,3.8-4.7,7.2-8.3,9.4c4.9,1.4,9.8,3.5,13.9,6.5c4.9,3.5,8.9,8,12.3,12.9
		c3.5,5,6.5,10.4,9.3,15.8c2.4,4.6,4.4,9.3,6.8,13.9c2.7,5,5.9,9.7,9.9,13.8c4.6,4.7,10.3,8.5,16.5,10.7c2.9,1.2,6.1,1.7,9.1,2.7
		c0,2.3-1.2,4.4-2.6,6.2c-2.8,3.6-7,5.6-11.4,6.3c8.2,1.1,16.4-0.8,23.9-4c1.3,2.2,1.8,4.8,2.2,7.3c0.8,6-0.4,12.2-3.5,17.5
		c-1.4,2.4-3.2,4.5-5.4,6.1c5.5,0.6,10.9,2.2,16,4.4c10.1,4.3,19.6,10,28.5,16.4c7.8,5.8,15.4,12.1,20.9,20.2c0.3,0.5,0.6,1,1.2,1.2
		c5.1,2,10.1,4.2,15,6.8c8.8-3.5,18.3-6,27.8-5.4c5,0.4,10.3,1.8,13.7,5.7c2.8,3.1,3.5,7.6,2.9,11.7c6.6-0.7,13.3,1.2,18.6,5.1
		C691.5,437,693.9,442.4,695,447.7"/>
	<path fill="#E92C2A" d="M343.9,62.3c1.1,1,1.4,2.5,1.5,3.9c0.1,2.4-0.6,5-2.3,6.8c-0.8,0.8-2,1.4-3.2,1.1c-1.1-0.3-1.8-1.3-2.2-2.3
		c-0.8-2.2-0.5-4.7,0.4-6.8c0.6-1.4,1.6-2.7,3.1-3.3C342.1,61.4,343.2,61.7,343.9,62.3"/>
	<path fill="#F7BA3F" d="M339.8,82.4c-1.4,0.8-2.6,1.8-3.8,2.8c-6.4-5.1-13.5-9.3-21.2-12c0.3-9.5,0.5-19,0.8-28.4
		c3.7,4.1,7.3,8.1,11,12.2c6.4-5.2,12.8-10.4,19.6-15c6.7,7.3,13,15,19.3,22.7c8-2.7,15.9-5.7,23.7-8.8c-1.1,3.6-2.3,7.2-3.4,10.9
		c-1.7-0.5-3.5-0.5-5.1,0.2c-3,1.3-5.1,4.1-6.5,7.1c-6.9-2.6-14.1-4.7-21.3-6.3c0.2-3.8-0.6-7.8-3-10.7c-1.6-2.1-4.2-3.4-6.9-3.3
		c-2.5,0.1-4.9,1.4-6.7,3.1c-2.2,2.1-3.6,4.9-4.4,7.7c-3.6-0.2-7.2-0.3-10.8,0.2c-1.3,0.2-2.7,0.5-3.8,1.3c1.6,0.4,3.3,0.2,5,0.3
		c3,0.1,6.1,0.2,9.1,0.5c-0.5,3.9,0,8.2,2.3,11.5C335.1,80.5,337.3,82,339.8,82.4 M374.4,57.5c-2-2.8-3.8-5.8-6-8.5
		c-0.9,0.1-1.6,0.6-2.4,1c-1.7,0.9-3.5,1.8-5.3,2.7c1.9,2.5,3.8,5,5.6,7.4C369.1,59.4,371.7,58.4,374.4,57.5 M345.6,57.5
		c2,1.1,3.3,3.2,3.9,5.4c1.2,4.2,0.2,8.9-2.3,12.5c-1.5,2-3.6,3.8-6.2,4.1c-2.2,0.2-4.4-1-5.6-2.8c-2.1-2.9-2.6-6.6-2-10.1
		c0.7-4,3.1-8,7.1-9.5C342.3,56.5,344.1,56.6,345.6,57.5 M344.9,74.5c2.1-2.4,3.1-5.7,2.8-8.9c-0.2-2-1-4.1-2.7-5.4
		c-1.3-1.1-3.2-1.3-4.7-0.7c-2.4,0.9-4,3.2-4.8,5.6c-0.9,2.7-1,5.8,0.4,8.4c0.8,1.6,2.2,2.9,4,3.1C341.8,76.9,343.7,75.9,344.9,74.5
		 M386.6,71.7c-0.2-1-0.8-1.8-1.8-2.1c-1.8-0.8-3.8,0-5.2,1.3c-2.7,2.5-4,6.2-4.3,9.8c1,0.4,2,0.8,3,1.3c0.4-3.2,1.2-6.7,3.7-8.9
		C383.3,71.9,385,71.4,386.6,71.7 M372.6,79.8c0.1-1.3,0.4-2.6,0.8-3.8c-6.8-2.5-13.8-4.3-20.9-5.8c-0.7,3.2-2.1,6.3-4.3,8.7
		C356.2,76.9,364.7,77.4,372.6,79.8"/>
	<path fill="#F97381" d="M324.2,201.4c3.1,0.4,6.3-0.2,9.2-1.2c-0.9,1.6-1.9,3.1-3.3,4.3c-1,0.8-2.5,1.2-3.6,0.5
		C325.3,204.2,324.7,202.8,324.2,201.4"/>
	<path fill="#73AAE0" d="M310.7,71.9c-1.1-0.3-2.2-0.5-3.3-0.8c-0.2-2.7-0.2-5.6,1.2-8c0.5-1,1.4-1.7,2.4-2.2
		C311,64.5,310.8,68.2,310.7,71.9 M388,79.1c0-1.5-0.3-3.3-1.7-4c-1.2-0.7-2.6,0.2-3.4,1.1c-1.5,1.9-2.1,4.4-2.1,6.8
		c1.6,1,3.3,1.8,4.9,2.7C387.2,83.9,387.9,81.5,388,79.1 M309.7,150.2c-1.8,0.8-2.9,2.5-3.7,4.3c0.7-0.9,1.8-1.8,3-1.3
		c1.8,0.8,2.1,3,2.1,4.7c1.5,0.5,1.8,2.1,1.9,3.5c0.1,1.7-0.1,3.5-1.1,4.9c-0.4,0.6-1.3,1-1.9,0.4c-1.2-1.2-1.2-3.1-1.1-4.7
		c-0.7,0.1-1.5,0.2-2.1-0.3c-1.4-1.1-1.7-3-1.6-4.6c-0.8,3.7-0.6,7.7,1.1,11.2c0.8,1.5,1.9,3,3.4,3.8c1.1,0.6,2.5,0.2,3.3-0.8
		c1.5-1.9,2-4.3,2.4-6.7c0.3-1.5,0-3-0.1-4.5c-0.4-3.1-0.9-6.3-2.1-9.2C312.3,150,310.8,149.6,309.7,150.2 M359.1,169.3
		c0.7,2.2,2.1,4.5,4.4,5.3c1.4,0.4,2.7-0.5,3.7-1.4c2-2.1,3.2-4.9,3.8-7.7c0.2-2.6,0.8-5.3-0.1-7.8c-0.6-1.7-1.4-3.4-2.8-4.5
		c-1.6-1.2-4-0.8-5.4,0.5c-1,0.9-2,1.9-2.4,3.2c0.5-0.7,1-1.6,1.9-1.9c0.9-0.4,2,0.1,2.6,0.9c0.9,1.2,1,2.8,0.9,4.2
		c0.6,0.2,1.3,0.6,1.5,1.3c0.8,1.8,0.7,4,0.1,5.9c-0.3,0.9-0.8,2-1.8,2.4c-0.7,0.3-1.4-0.4-1.7-1c-0.8-1.4-0.8-3.2-0.5-4.8
		c-1,0.1-2-0.3-2.5-1.2c-1.2-1.7-1-4-0.4-5.9C358.6,160.8,358,165.2,359.1,169.3 M275.2,191.3c-3.7,1.4-6.6,4.7-7.4,8.6
		c-0.8,3.4,0,7.1,2.1,9.8c1.6,2.2,4.1,3.8,6.8,4.5c3.1,0.8,6.5,0.3,9.3-1.5c3.1-1.9,5.3-5.4,5.6-9.1c-2.2-3.4-3.9-7.1-5.1-11
		C283.2,190.4,278.9,189.9,275.2,191.3 M382.5,203.9c-1.6,0.9-2.7,2.5-3.9,3.9c-2.1,3.1-2.5,7.3-1.3,10.8c1.5,4.7,6,8.2,10.9,8.5
		c5.5,0.6,11.2-3,13-8.3c1.5-4,0.7-8.6-1.8-12c-2.9-3.9-8.3-5.8-13-4.6C384.9,202.6,383.7,203.1,382.5,203.9 M314.5,297
		c2,1.4,4.7,1.8,7,1c2.8-0.9,5-3,6.5-5.4c2.6-4.3,3.5-9.7,2.3-14.7c-0.7-2.8-2.2-5.6-4.7-7.3c-1.9-1.3-4.3-1.8-6.5-1.2
		c-2.7,0.7-4.9,2.6-6.5,4.8c-3.1,4.4-4.1,10.2-2.8,15.4C310.5,292.5,312,295.3,314.5,297"/>
	<path fill="#F9D5B5" d="M318.1,223.3c2.5,1.4,5,2.9,7.7,3.8c3-0.4,5.9-1.2,8.7-2.1c10.5-3.4,20.3-8.9,28.4-16.3
		c-2.4-0.4-4.9-0.7-6.9-2c2-2,4.3-3.7,6.2-5.7c4.4-4.6,8-9.9,10.9-15.5c6.4-12.1,8.5-26,8-39.6c-0.9-0.7-1.8-1.4-2.7-2.2
		c-0.3,1.2-0.8,2.5-1.6,3.4c-1,1.2-2.6,1.9-4.2,2c0.7,1.6,1.1,3.3,1.4,5c2,0.4,3.9-0.2,5.7-0.9c-0.3,1.4-1.3,2.7-2.7,3.2
		c-0.9,0.4-1.9,0.3-2.8,0.2c0,1.4-0.1,2.8-0.2,4.2c1.3,0.7,2.8,1.1,4.2,1.2c-1.2,1.3-3.1,1.7-4.7,1.1c-0.4,1.4-0.7,2.9-1.5,4.1
		c-0.7,1.1-1,2.4-1.5,3.6c-1.1,2.3-2.9,4.6-5.5,5.3c-2.5,2.2-6.1,2.6-9.3,2.2c-1.2-0.2-2.6-0.3-3.5-1.3c1.7-0.1,3.4,0.1,5,0
		c2-0.1,4.1-0.4,6.1-0.9c-1.3-0.5-2.6-1.2-3.5-2.3c-2.3-2.6-3.1-6.3-2.9-9.7c0.2-3.7,1.1-7.6,3.5-10.6c1.6-1.9,4.2-3.2,6.7-2.6
		c1.4,0.4,2.5,1.4,3.5,2.5c-1-3.1-2.9-5.9-5.7-7.5c-2.5-1.5-5.7-1.7-8.5-0.8c-3.8,1.2-7,3.8-9.2,6.9c-2.2,3.1-3.5,6.8-4.5,10.5
		c-0.7,2.7-1,5.5-1.7,8.1c-0.4-1-0.4-2.1-0.4-3.1c0.1-6,1.2-12,3.9-17.4c1.8-3.7,5-6.6,8.6-8.4c3.2-1.6,7-2.4,10.6-1.4
		c3.3,0.9,5.9,3.2,7.7,6.1c2.5-0.4,4.7-1.8,6.1-3.9c-2.6-2.4-4.8-5.2-6.7-8.2c-3.5-5.7-6.7-11.6-9.2-17.8c-2.5,2.9-5.3,5.4-8.3,7.8
		c-5.3,4.1-11.1,7.7-17.4,10.1c-2.7,1-5.4,2-8.3,2.5c-2.1-0.5-4-1.7-5.9-2.7c-3.3-1.9-6.5-4.1-9.3-6.6c-3.9-3.5-7.1-7.7-9.6-12.3
		c-2.7,4.2-6,7.8-9.6,11.2c-3.6,3.4-7.8,6.2-12.5,7.9c1.9,7,3.4,14,4.4,21.1c1.3,9.3,1.7,18.7,3.2,27.9c1,6.4,3,12.6,6.6,18.1
		C300.7,210.8,309,217.9,318.1,223.3 M358.3,124.6c1.2-0.4,2.6-0.6,3.7,0.2c1.2,0.9,2,2.4,2.2,3.9c-1-0.8-1.9-1.9-3.2-2.3
		c-1.7-0.5-3.4,0-5,0.4C356.2,125.7,357.3,125,358.3,124.6 M331.8,214.3c-2.1,2.1-5.9,2.6-8.1,0.4c-1.5-1.8-1.5-4.6-0.3-6.5
		c0.1,1.7,0,3.6,1.2,5c1,1.2,2.7,1.2,4.1,0.9c1.7-0.4,3-1.9,3.8-3.4c0.7-1.1,0.8-2.5,1.2-3.7C334.4,209.6,333.7,212.5,331.8,214.3
		 M333.3,197.9c1.4,0.3,2.5,1.5,2.6,3c0,1,0,2.2-0.9,2.8c-0.4-0.3-0.7-0.7-1.1-1.1c-1,2.1-2.5,4.2-4.5,5.4c-1.5,0.9-3.4,0.1-4.5-1.1
		c-1.5-1.8-2.3-4-2.7-6.2c-1.1-0.7-2-1.9-2-3.3c3.9,2.1,8.4,1.9,12.6,1.2C332.9,198.4,333.2,198,333.3,197.9 M330.5,195.8
		c-1.2-1.1-2.3-2.3-3.8-3c-1.5-0.7-3.4-0.9-4.8,0.2c-0.9,0.7-1.2,1.9-1.7,2.9c-0.8-2.5,1.2-5.4,3.9-5.4
		C327.2,190.4,329.5,193.1,330.5,195.8 M322.6,170.9c1.2-2.9,0.4-6.1,0.8-9.1c1,1,1,2.4,1.3,3.7c0.3,2.8,0.3,5.7-1.1,8.2
		c-0.9,1.6-2.6,3-4.5,3C320.2,174.7,321.9,173.1,322.6,170.9 M318.8,180c0.1-0.1,0.3-0.2,0.4-0.3c1.6,0.9,2.9,2.5,3.6,4.3
		c0.3,0.9,0,2.1-1.1,2.3c-1.2,0.3-1.8-0.9-2.1-1.8C319.1,183,318.5,181.4,318.8,180 M301.8,173.8c-1.7-0.4-3.7-1.7-3.7-3.6
		c1.3,0.6,2.5,1.6,3.9,2c1.5,0.6,3.2,0.8,4.7,1.4C305.3,174.5,303.4,174.1,301.8,173.8 M302.1,120.9c1.7,0.4,3.3,1.6,3.9,3.3
		c-1.6-0.4-3.1-1.4-4.8-1.3c-1.4-0.1-2.5,1-3.6,1.6C297.9,122.5,299.9,120.4,302.1,120.9 M293.4,158.5c0.2,1.5,0.5,3.1,0.4,4.6
		c-1.4-1.6-1.9-3.7-2.4-5.6c-0.9,0.1-2,0.2-2.8-0.4c-0.9-0.5-1.4-1.5-1.6-2.5c1.3,0.4,2.6,0.7,4,0.7c-0.1-1.2-0.2-2.4-0.2-3.6
		c-1.3-0.2-2.6-0.4-3.6-1.1c-1.4-1.1-1.9-3-1.8-4.7c1.5,1.6,3.4,2.8,5.5,3.3c0.2-1.5,0.5-2.9,1-4.3c-1.4-0.3-2.9-1.1-3.5-2.5
		c-0.9-2.2-0.6-4.8,0.7-6.8c0.3,1.4,0.3,2.9,1,4.2c0.6,1.2,1.6,2.1,2.7,2.9c1.3-2.4,3.3-4.6,6-5.5c2.7-1,5.8-0.6,8.3,0.8
		c3.6,2,6.1,5.4,7.6,9.2c2.4,5.9,2.5,12.4,1.9,18.6c-0.1,1-0.7,1.9-0.9,2.9c-0.5,1.7-1.2,3.6-2.9,4.6c-1.4,0.9-3.2,0.6-4.5-0.2
		c-1.9-1.3-3.3-3.3-4.1-5.5c-1.4-3.9-1.4-8.3-0.2-12.3c0.7-2.1,1.6-4.1,3.3-5.5c1.3-1.1,3-1.6,4.7-1.2c-1.7-3-4-5.8-7.3-7
		c-2.1-0.8-4.6-0.6-6.5,0.6c-2.3,1.5-3.8,3.9-4.5,6.5C292.9,151.9,293,155.3,293.4,158.5 M399.8,189.7c-1.3,3.5-3.7,6.3-6.4,8.9
		c-1.5-0.3-3-0.6-4.6-0.5c3.5-4.6,6.1-9.8,7.8-15.3c1.2-0.1,2.5,0.2,3.1,1.3C400.8,185.8,400.4,187.9,399.8,189.7 M329.6,232.4
		c-0.1-0.7-0.1-1.4-0.2-2.1c8.8-2.1,17.2-5.7,24.9-10.4c0.3,3.4,0.5,6.8,0.9,10.2c-2.8,1.3-5.2,3.3-7,5.7c-2.9-2-6.1-3.6-9.5-4.3
		C335.7,230.9,332.5,231.2,329.6,232.4 M259.3,284.5c-0.6,3.5,0.8,7,3.3,9.4c-2.5,1.3-5,2.5-7.5,3.8c-3.1-3.4-7.5-5.4-12-5.9
		c1-4.8,1.1-9.9,0.1-14.7c1-1.1,2-2.2,3-3.2C248.8,279,253.6,283.1,259.3,284.5 M415.9,303.3c1.9-0.9,3.7-2.1,5.2-3.6
		c1,2.3,2,4.6,3,6.8c-4.9,3.1-9.3,7.8-10.5,13.7c-3.3-1.1-6.8-1.6-10.3-1.6c-2.3-3.8-4.5-7.6-6.6-11.5c1.4-0.6,2.7-1.4,3.8-2.4
		C405.6,306.5,411.2,305.5,415.9,303.3"/>
	<path fill="#FFFFFF" d="M308.8,160.8c-0.9,0.8-2,0-2.3-1c-0.7-1.9-0.5-4.4,1.1-5.7c0.7-0.5,1.6,0,1.9,0.7
		C310.5,156.6,310.4,159.3,308.8,160.8 M362,162.8c0.8,0.5,1.6-0.2,2-0.9c0.9-1.6,1-3.7,0-5.3c-0.3-0.6-1.2-1-1.8-0.6
		c-1.1,0.7-1.4,2.2-1.5,3.5C360.7,160.7,360.9,162.1,362,162.8 M245.5,296.6c-2.3-0.7-4.8-0.8-7.2-1.2c1.1-6.1,1.7-12.4,0.4-18.5
		c-0.6-2.3-1.2-4.8-2.8-6.7c-1.8,1.9-2.7,4.4-3.9,6.8c-1.7,3.6-3.1,7.2-4.3,11c-2.7,0.2-5.3,0.2-8,0.7c-9.3,1.4-18.2,4.8-26.7,8.7
		c-11.1,5.1-21.8,11.1-32.2,17.5c-2.3,1.3-4.6,2.9-7.1,4c-0.3-1.3,0.8-2.3,1.5-3.3c-4.3-5.8-9.1-11.3-14.2-16.4
		c-3.6-3.5-7.3-6.8-11.4-9.6c-1.3-0.8-2.7-1.8-4.2-1.6c-0.2,2,1.2,3.6,2.4,5c1.9,2,3.9,4,4.7,6.7c0.9,0.4,1.8,0.8,2.5,1.5
		c-0.1,0.1-0.2,0.2-0.2,0.3c-3.3-0.2-6.8-1.2-10.1-0.1c1.6,0.5,3.4,1,4.6,2.3c-3.1,0.1-6.3-0.6-9.4,0c2.6,1.3,5.7,2.4,7.2,5
		c-1.7-0.2-3.3-0.9-4.9-1.4c-5.9-2-12.1-3.4-18.3-3.1c-1.1,0.1-2.4,0.2-3.3,0.9c-0.6,0.6,0,1.4,0.5,1.8c1.6,1.2,3.6,1.6,5.4,2.3
		c5.4,1.7,11.1,3.3,15.6,7c4.5,3.7,8.5,8,12,12.7c-3.2,1.5-6.4,3-9.4,4.9c-2.4,1.5-4.7,3.2-6.4,5.6c-0.5,0.8-1.1,1.9-0.7,2.9
		c0.4,0.7,1.4,0.5,2.1,0.4c1.8-0.4,3.6-1.1,5.4-1.6c3.5-1.1,7.1-2.1,10.8-2.5c4.5-0.6,9.1-0.7,13.5-1.9c2-0.6,3.9-1.4,5.7-2.4
		c1.3-0.8,2.9-1.1,4.3-1.7c12.6-4.2,25.3-8,38-11.7c7-2.1,14.1-4.1,21-6.4c4.9-1.7,9.8-3.5,14.2-6.2c5.1,0.6,10.1,1.2,15.2,1.8
		c2.8,0.3,5.5,0.7,8.3,0.6c0.1-2.6-0.8-5.2-2.1-7.5C252.2,299.6,248.9,297.5,245.5,296.6 M520.6,368.7c5.5-1.1,11.1-1.4,16.7-1.2
		c-0.2-1.1-0.6-2.3-1.5-3.1c-1.3-1.3-3.3-1.6-5.1-1.8c-3.5-6.4-7.4-12.7-12.3-18.2c-3.2-3.7-6.2-7.5-9.6-11.1
		c-2.3-2.2-4.8-4.4-8-5.1c-3.1-0.7-6.3-0.7-9.4-0.8c-8.8,0-17.6,0.6-26.4,1.3c-8,0.6-16,1.6-23.9,2.7c-2.2,0.2-4.3,0.8-6.5,0.5
		c0.5-1.2,1.6-1.9,2.7-2.5c-1.3-2.4-2.6-4.8-3.9-7.2c2.1-4.7,4.6-9.2,6.1-14.1c-2.9-0.7-6-0.3-8.9,0.6c-5,1.6-8.9,5.7-11.4,10.2
		c-1.3,2.1-1.9,4.5-2.8,6.9c-2.6-0.9-5.2-2.1-8-2.5c-3.8-0.7-7.9-0.5-11.5,1.2c-2.2,1.1-4.4,2.8-5.4,5.1c6.1,1.5,12.3,2.7,18.5,4.1
		c3.9,5,8.1,9.8,12.6,14.3c5.4,0.4,11,1.5,15.5,4.6c5.1-2,10.6-2.4,16-1.7c1.3,0.2,2.5-0.4,3.7-0.6c12.8-3,25.6-6.3,38.7-8.3
		c-0.1,4.3,0.6,8.6,1.6,12.8c1.3,4.9,3,9.8,5.9,14.1c2.1,3.2,5,5.9,7.4,8.8c3,3.7,5.2,8.1,7.5,12.3c0.5,0.8,1,1.9,2.1,1.9
		c0.7-0.2,0.8-1.1,1-1.7c0.5-2.8,0.2-5.6-0.3-8.4c-0.7-3.7-2.4-7.1-2.9-10.8c-0.2-1.8-0.2-3.8,1-5.2
		C519.9,366.8,520.3,367.7,520.6,368.7"/>
	<path fill="#FBFE71" d="M262.2,203.6c-4,0.3-7.9-1-11.5-2.5c-5.2-2.1-8.6-7.6-8.5-13.1c4.4,1.4,8.9,2.5,13.6,2.2
		c2.6-0.2,5.2-0.7,7.6-1.8c-5-8.6-8.2-18.1-9.1-28c-0.6-9,0.1-18.2,2.9-26.8c0.1-0.5,0.6-1.4-0.1-1.6c-1.2,0.6-1.8,1.8-2.6,2.8
		c-3.8-0.1-7.7-1.3-10.5-3.9c-1.5-1.4-2.8-3.2-3.3-5.3c5,0.6,10.3,1.1,15.2-0.6c1.9-0.7,4-1.9,4.5-4c-1.1,0.2-2,0.8-3,1.1
		c-4.5-1.7-8.1-5.5-9.8-10c-1.9-4.8-1.4-10.1-0.3-15c0.7-2.8,1.5-5.6,2.8-8.1c1.4,2.8,3.4,5.4,6.1,7.1c2.5,1.7,5.2,2.8,8.1,3.6
		c-0.3,2.9-0.8,6.2,0.6,8.9c0.4-1.2,0.6-2.4,0.9-3.7c1.2-5.2,3.1-10.4,6.1-14.9c3-4.6,7.1-8.6,12.1-11c6.5-3.2,14-4.1,21.2-3
		c10.3,1.5,19.8,6.2,28.2,12.2c-0.5,0.9-1.2,1.8-1,2.9c2.1-1.4,4-2.9,6.2-4c8.2-4.2,17.8-4.8,26.9-3.4c7.1,1.1,13.8,3.8,19.9,7.4
		c5.8,3.4,11.1,7.5,16.8,11c2.7,1.7,5.5,3.3,8.5,4.3c6.4,2.3,13.3,3.1,20.1,2.9c5-0.2,10-0.8,14.6-3c0.8,6.9-0.6,14.2-4.4,20.1
		c-2,3.1-4.7,5.7-7.8,7.8c-1.6-0.2-3.2-0.7-4.9-0.8c0.2,0.9,0.9,1.5,1.6,2c2.4,1.7,5.4,2.5,8.3,2.7c2.7,0.3,5.3,0,8-0.1
		c-0.7,2.6-2.4,4.7-4.3,6.6c-3.8,3.6-8.9,5.6-13.9,6.8c-2.8,0.7-5.6,0.8-8.4,1c2,1,4.2,1.7,6.2,2.8c5.6,3,10.4,7.8,13,13.6
		c4,8.5,4.1,18.1,3,27.2c-0.5,4.7-1.5,9.3-1.4,14.1c0,5.2,1,10.7,4.2,14.9c3.5,4.6,9.7,6.5,15.2,5.7c2.8-0.3,5.5-1.4,8.1-2.6
		c0.6,5.2-0.4,10.7-3.2,15.2c-1.4,2.3-3.5,4.1-5.6,5.7c-2.2,1.7-4.6,3.1-7.2,4.2c-1.1,0.5-2.3,0.8-3.3,1.4c2.3,1.2,5,0.4,7.4,0.1
		c10.1,2.8,18.8,9.3,25.6,17.1c7.5,8.6,12.9,18.9,17.3,29.4c4.5,10.1,11.5,19.4,21.1,25c4.2,2.5,8.9,4.1,13.7,5.1
		c-0.9,1.7-2.3,3.2-3.9,4.2c-3.1,2-6.8,2.9-10.5,3.4c-3.5-4.5-7.1-9-11.9-12c-1.6-1-3.4-1.9-5.3-2.4c-3.1-0.8-6.4-0.7-9.6-0.8
		c-9.8,0.1-19.6,0.7-29.4,1.3c-7.4,0.5-14.9,0.6-22,2.8c-0.9-1.8-1.8-3.7-2.7-5.5c1.6-3.7,3.1-7.5,4.4-11.3c0.6-1.9,1.4-3.8,1.6-5.9
		c0.2-0.9-1-1.1-1.6-1.3c-4.7-1-9.7-0.7-14.3,0.7c-1.2-2.8-2.1-5.7-3.1-8.6c2.9,0.4,5.8-0.3,8.2-1.9c3.9-2.6,6.5-6.7,8.1-11
		c2.9-7.8,2.9-16.6-0.2-24.3c-3.7-9.3-10.7-17.2-19.2-22.4c-6.3-3.8-13.6-6-20.9-5.9c-11.2,0.1-22.4,5-29.5,13.8
		c-0.6-0.2-1.2-0.4-1.8-0.6c1.8-2,3.7-4,6-5.5c1.2-0.8,2.5-1.4,3.7-2.3c-0.7-2-2.4-3.4-4.1-4.5c-4.8-2.8-10.7-3.5-16.2-2.4
		c-0.4-3.9-0.8-7.8-0.9-11.7c2.6-1.9,5.2-4,7.6-6.2c-0.5,3.3-1.6,6.4-2.2,9.7c3.3-0.1,6.4-1.6,9.1-3.5c0.7,4.7,3.6,8.9,7.6,11.4
		c4.9,3.1,11.5,3.3,16.6,0.4c5.3-2.9,8.7-8.8,8.5-14.8c-0.1-6-3.8-11.7-9.2-14.3c2.6-2.4,4.6-5.4,6-8.7c0.8-2,1.3-4.2,1.1-6.4
		c-0.2-1.4-0.8-2.8-1.9-3.7c-1.2-1-2.7-1.3-4.2-1.5c0.4-1.8,0.8-3.6,0.7-5.5c-1.2,2-2,4.1-3,6.2c-3.1,6.5-6.5,12.8-10.6,18.6
		c-5,1.5-9.1,5.5-10.8,10.4c-0.4,1.1-0.5,2.2-0.8,3.3c-1.6,1.7-3.3,3.4-5.4,4.4c1-3.5,2.1-7.1,2.6-10.7c-2.8-0.1-5.6-0.3-8.4-0.9
		c8.5-6.8,14.5-16.4,17.9-26.6c3.4-9.9,4.6-20.3,4.6-30.7c1.6,0.9,3.3,1.9,5.2,2.2c-1.1-1.8-2.8-3-4.2-4.5c-4.3-4.4-8.4-9-11.9-14
		c-3.8-5.7-6.9-11.9-9.1-18.4c0.6-1,1.2-2.1,1.3-3.3c-4.5,4-9.1,7.9-14,11.4c-5.8,4.2-12.1,7.7-18.8,10.2c-1.6,0.6-3.3,1.2-5,1.5
		c-3.8-1.8-7.4-4.1-10.8-6.6c-2.6-2-5.1-4.1-7.3-6.5c-3.3-3.5-6-7.4-8.4-11.5c-0.5-0.9-1-1.8-1.7-2.5c-0.4,2.3,0.9,4.5,1.6,6.7
		c-5.9,8.7-14.1,15.5-23.2,20.7c-1.3,0.8-2.6,1.4-3.8,2.3c0.9,0.2,1.9,0.2,2.9,0.1c1.4,5.3,2.7,10.6,3.6,16.1c1.4,8,1.9,16,2.8,24
		c-4.5-6.2-6.8-13.6-9.1-20.8c-0.3-0.9-0.6-1.9-1.2-2.7c-0.5,2.1,0,4.3,0.2,6.4c1.3,7.8,3.4,15.7,8,22.2c1,1.5,2.1,2.9,3.2,4.3
		c0.3,0.8,0.4,1.7,0.6,2.6c-3.2-1.2-6.9-1.4-10.2-0.3c-4.7,1.4-8.7,5.2-10.3,9.9c-1.4,4.1-1.1,8.8,0.9,12.6c1.6,3.1,4.3,5.7,7.6,7.1
		c4.2,1.9,9.3,1.8,13.4-0.2c3.7-1.8,6.5-5.1,8-8.9c3.3,4.3,7.2,8.1,11.4,11.5c4.7,3.8,9.7,7.1,15,9.7c1.4,0.7,2.7,1.3,4.2,1.7
		c0.2,1.6,0.3,3.1,0.5,4.7c-0.7,1-1.3,2-1.8,3.1c-2.8-3.7-6.7-7.1-11.4-7.7c-2.5-0.3-5.1,0.3-7.4,1.4c-3.4-3.5-8-5.6-12.6-7
		c-11.9-3.5-25.3-1.9-35.9,4.6c-1.6-7.8-0.4-16.3,3.6-23.2C260.8,205.7,261.5,204.7,262.2,203.6 M311.9,308.3
		c-4.5-2.3-7.6-6.6-9.3-11.3c-2.3-6.5-2.1-13.9,0.2-20.4c1.7-4.9,4.7-9.5,8.7-12.8c2.6-2.2,5.8-3.8,9.1-4.3
		c4.8-0.9,9.9,0.6,13.5,3.8c4.2,3.7,6.6,9.1,7.4,14.6c1,7.3-0.6,15-4.6,21.3c-2.7,4.3-6.6,8-11.4,9.8
		C321.2,310.7,316,310.6,311.9,308.3 M308.8,273.8c-3.3,6.3-3.9,14.2-1.1,20.8c1.7,4,5,7.6,9.5,8.3c4.4,0.7,8.7-1.7,11.5-5.1
		c4.4-5.3,6.1-12.5,5.2-19.3c-0.6-4.4-2.6-8.9-6.2-11.6c-2.4-1.8-5.6-2.6-8.5-1.9C314.5,266,311,269.7,308.8,273.8 M393.1,336.6
		c4.1,0.8,8.4,1.7,11.9,4.2c2.6,1.8,4.5,4.7,5,7.8c1.9-0.3,3.7-0.5,5.6-0.6c-2.8-3.4-5.4-6.8-7.8-10.4c-5.8-1.3-11.6-2.6-17.3-4.1
		c-2-0.5-4-0.9-5.9-1.7c-0.2-1.1,0.4-2.2,0.9-3.1c2.8-4.6,7.5-7.9,12.6-9.4c-2.3-3.7-4.5-7.5-6.7-11.3c-3.8,0.1-7.6-1.1-10.9-2.9
		c-3.7,10.8-7.9,21.5-12.3,32.1C376.4,335.3,384.9,335.1,393.1,336.6 M533.7,359.4c3,0.3,6.2,1.4,7.6,4.2c3.3-3.6,5.1-8.3,5.6-13.1
		c0.3-2.6,0.4-5.4-0.4-7.9c-1.2,0.4-2.4,1-3.7,1.4c-6.3,1.8-12.9,1.4-19.3,0.5C527.1,349.3,530.6,354.3,533.7,359.4 M485.5,369.8
		c0.8,0.2,1.6,0.9,2.5,0.6c3.6-0.8,7.2-1.4,10.9-1.8c-1.9-2.9-3.1-6-4.1-9.3c-1.2-4-2.1-8-2.8-12.1c-10,1.2-19.7,3.6-29.3,6.6
		c1.5,1.2,2.8,2.7,3.5,4.5c0.9,2.2,0.9,4.6,0.6,6.9C473.2,366,479.5,367.5,485.5,369.8"/>
	<path fill="#FB99CE" d="M307.9,342.7c9.9,3,19.3,9,24.8,18.1c0.8-1.6,1.8-3,3-4.4c3.2-3.7,6.9-6.8,10.9-9.6
		c4.9-3.4,10.2-6.2,15.9-8.1c5.1-12,10-24,14.1-36.4c-1.7-1.3-3.2-2.6-4.6-4.1c-3.1-3.2-5.3-7.2-6.6-11.4
		c-2.3-7.1-2.9-14.8-1.8-22.2c0.8-5.8,2.7-11.5,5.7-16.5c-0.7-0.2-1.4-0.5-2-0.7c-0.7,0.9-1.3,1.9-2.2,2.6c-1.7,0.6-3.5,0.9-5.3,1.3
		c-4.1,0.7-8.3,1.2-12.5,1.4c-7.5,0.5-15.1,0.1-22.6-0.3c-3.5-0.3-7-0.5-10.5-1.1c-0.9-0.2-2-0.4-2.5-1.2c-1.4-2.1-2.7-4.3-4.5-6
		c-2.2-2.4-5.1-4.2-7.4-6.5c0.5-1,1.3-1.9,2-2.7c-3.7-3.4-8.6-5.1-13.5-6.1c-12.2-2.4-25.3,1.3-34.5,9.6c-4.6,4.1-8,9.7-8.8,15.9
		c-0.4,2.9-0.3,6.2,1.4,8.7c0.9-2,1.7-4.5,3.8-5.5c-0.3,2.3-1,4.6-1.1,6.9c-0.2,3.6,0.6,7.3,2.8,10.2c2.1,2.9,5.2,5,8.5,6.5
		c2.4,1.2,5.1,1.8,7.6,2.9c-1.5,0.8-3.2,0.9-4.8,1c-0.3,1.4,0,2.9,0.9,4.1c1.5,2,3.7,3.4,6,4.2c3.1,1,6.5,0.9,9.6,0.2
		c-0.4-6.3,0.9-12.6,3.1-18.4c1.9-5,4.3-10,8-13.9c1.6-1.6,3.4-3.4,5.8-3.6c-0.6,1.2-1.5,2.2-2.2,3.4c-5.6,8.5-8.4,18.6-9,28.8
		c-0.5,7,1,13.9,3.3,20.4c4.1,11.5,10.7,21.9,18.1,31.6C307.1,342.1,307.3,342.6,307.9,342.7 M298.1,294.6c-2.1-11,1.1-23,8.6-31.4
		c3.5-3.9,8.1-6.9,13.3-7.9c5-1,10.4,0.1,14.6,3.1c5.4,3.8,8.6,10,9.9,16.3c2.1,10.5-0.6,21.9-7.4,30.3c-3.8,4.7-9.1,8.5-15.2,9.4
		c-5.1,0.9-10.5-0.5-14.6-3.7C302.4,306.8,299.3,300.8,298.1,294.6 M368.3,280c-1.4-7.6-0.9-15.5,1.7-22.8c1.8-5.1,4.8-9.9,8.9-13.5
		c4.4-4,9.9-6.5,15.7-7.8c6.3-1.4,13-0.9,19.1,1.4c5.5,2,10.4,5.4,14.5,9.5c4,4,7.3,8.8,9.3,14.1c2.3,6.1,2.4,12.9,0.5,19.1
		c-1,3.2-2.6,6.3-5,8.7c-1.8,1.9-4.5,3.1-7.1,2.6c0.4-2,0.9-4.2,0.4-6.3c-1,1.7-1.6,3.6-2.7,5.3c-2.6,4.3-7.1,7.5-12,8.6
		c-4.9,1.2-10.3,1.3-15-0.6c-1.5-0.6-2.8-1.5-4.3-2c0.3,2.5,2.2,4.3,4,5.9c-3.1,1.6-6.9,1.3-10.1,0.1c-4.8-1.7-8.8-5.1-12-8.9
		C370.8,289.5,369.2,284.7,368.3,280 M267.5,681c0.5,1.6,1.4,3.1,1.6,4.8c-2.1-0.3-3.1-2.4-4.3-3.9c-1,5.7,0.6,11.7,4.1,16.3
		c3.4,4.6,8.2,8,13.2,10.4c6.5,3.1,13.8,4.4,21,4.7c8.2,0.4,16.4-0.3,24.5-1.8c-3.8-5-6.9-10.5-9.8-16.1
		c-9.6-19.4-15.8-40.3-19.8-61.5c-3.8-19.6-5.3-39.5-6.4-59.3c-0.8-16-1-32-0.2-47.9c0.4-6.6,0.9-13.2,2.2-19.7
		c0.4-1.5,0.6-3.2,1.8-4.3c0.4,2.1,0,4.2,0,6.2c-1.6,36.5-0.9,73.3,4.7,109.4c2.4,15,5.7,29.8,10.1,44.3
		c3.9,12.3,8.6,24.4,15.3,35.4c2.9,4.7,6.1,9.3,10.3,13.1c1.9,1.8,4.4,2.8,6.8,3.9c9.8,4.1,20.5,5.7,31.1,5.8
		c14.1,0.1,28-2.5,41.4-6.6c24.4-7.4,47.7-18.5,68.2-33.7c8.8-6.6,17.3-14,24-22.8c-19.9-41.9-41.7-82.8-65.4-122.6
		c-9.2-15.5-18.9-30.8-28.6-46.1c-1.3-2.3-2.9-4.4-3.9-6.8c0.5,0.1,1,0.3,1.3,0.7c1.5,1.3,2.8,2.8,4.1,4.3
		c4.6,5.6,8.9,11.6,13.1,17.5c10.3,14.8,19.9,30,29.1,45.5c20.1,33.7,38.4,68.6,54.1,104.6c14.9-5,29.3-11.4,43-19.2
		c10.2-5.8,19.9-12.4,28.8-20.1c8.3-7.1,15.8-15.2,21.8-24.4c6.7-10.1,12.5-21.1,15.3-33c1.8-7.9,2.2-16.3-0.2-24.1
		c-0.2-0.6-0.3-1.4-0.8-1.9c-19.3-17.8-40.3-33.9-63-47c-14.1-8.2-29-15.1-44.3-20.7c-1.4-0.6-3.1-0.9-4.2-2
		c1.9-0.2,3.8,0.5,5.7,0.9c7.4,1.9,14.5,4.6,21.6,7.4c8.4,3.5,16.6,7.3,24.6,11.6c22.6,12.2,43.7,27.5,61.4,46.1
		c11.5-8.1,20.8-19.1,27.3-31.5c6.1-11.3,9.8-24.1,9.4-37c-0.2-4.5-0.8-9.2-2.6-13.4c-1.2-2.7-3.7-4.3-5.8-6.2
		c-5.5-4.6-11.4-8.7-17.6-12.3c-15.3-9-31.8-15.9-48.9-20.8c-9.4-2.8-19-4.8-28.6-6.9c-1.8-0.4-3.6-0.7-5.2-1.7
		c0.4-0.3,0.8-0.6,1.3-0.6c2.8-0.3,5.6-0.1,8.4,0.1c14.2,1.2,28.2,4.2,41.7,8.5c-5.1-6.1-11.5-11-18-15.5
		c-8-5.4-16.5-10.3-25.4-14.1c-10.9-4.7-23.1-5.8-34.7-4.5c0.7,2,1.4,4,2,6c1.1,3.9,1.6,8,1.3,12c-0.2,1.7-0.5,3.5-1.3,5.1
		c-0.7,1.3-2.3,1.8-3.7,1.4c-0.7,3.9-1.6,7.8-2.8,11.6c-1.3,4.2-2.8,8.4-5.1,12.1c-2.7,4.4-6.1,8.5-9.8,12.1
		c-1.2,1.1-2.3,2.3-3.8,2.8c0.1-1.4,1.1-2.5,1.8-3.6c6.2-9.3,11.3-19.2,15.1-29.7c0.9-2.3,1.4-4.7,2.6-6.8c-2.7-2.9-4.5-6.6-6.5-10
		c-2.7-4.5-6.3-8.5-9.6-12.6c-9.1,0.7-18.2,2.5-26.8,5.5c-1.7,0.5-3.4,1.4-5.2,1.3c0.2-1.2,1.1-2.1,1.9-2.8c2-1.6,4.3-2.8,6.6-3.8
		c-4.2-1.7-8.7-2.7-13.2-2.9c-2.9,8.6-8.5,16.1-14.8,22.4c-8,8.2-18.4,13.6-29.2,16.9c-13.8,4.2-28.5,5.5-42.9,4.5
		c-7.7-0.6-15.4-1.9-22.7-4.5c-5.6-2.1-11-4.7-15.9-8.1c-2.1,6-5.4,11.5-8.9,16.7c-6.4,9.1-14.4,17.4-24.1,23
		c-4.1,2.3-8.4,4.3-12.9,5.9c-6.2,2.1-12.8,3.4-19.3,2.3c-6-1-12.1-3.6-16-8.5c-5.1,14.4-9.3,29.1-12.3,44
		c-3.1,15.1-4.9,30.5-5.6,45.9c-1.1,25.9,1.2,51.9,6.1,77.3c3.5,18.1,8.1,35.9,13.8,53.4C262.8,668.1,265,674.6,267.5,681
		 M437.6,412.9c1.5,0.5,2.6,1.5,3.9,2.3c5.6,3.9,12.4,5.9,19.2,5.7c5.6,0.1,11.1-1.6,16-4.2c9.7-5.1,17.7-12.8,25.2-20.6
		c1.4-1.4,2.6-3,4.4-4c-0.4,1.9-1.6,3.4-2.6,4.9c-3.6,5.2-7.9,9.9-12.4,14.3c-4.5,4.3-9.3,8.3-14.6,11.3c-3.9,2.2-8.3,3.9-12.8,3.8
		c-6.3,0-12.6-1.6-18-4.8c-2.5-1.5-4.9-3.3-6.8-5.5c-0.7-0.8-1.4-1.7-1.6-2.7C437.3,413.2,437.5,413,437.6,412.9"/>
	<path fill="#DA3E71" d="M320.7,239.2c1.2,1,2.2,2.3,3.5,3.1c1.2-1.7,2.2-3.7,3.9-5c3-2.4,7.2-2.7,10.9-1.8c3.6,0.8,6.7,2.8,9.6,5.1
		c3-3.6,6.8-6.7,11.4-7.7c3.3-0.8,6.9-0.8,10.2,0c1.6,0.4,3.2,1,4.4,2.1c-1.6,1.7-3.7,3-5.4,4.7c-2.4,2.1-4.5,4.5-6.6,6.9
		c-2.1,0.9-4.4,1.1-6.6,1.4c-8.3,1.1-16.8,1.2-25.2,1c-4.6-0.1-9.2-0.2-13.8-0.9c-1.1-0.2-2.5-0.2-3.2-1.3c-2.7-3.4-5.5-6.8-9-9.5
		c1.9-1.8,4.7-2.5,7.4-2.2C315.5,235.4,318.4,237.1,320.7,239.2 M268.4,441.5c-4.2-2.1-7.5-5.8-9-10.2c-1.1-3-1.2-6.1-1.3-9.3
		c-0.1-5.8,0.8-11.7,3.6-16.8c1.6-2.9,4-5.5,7-7c0.7,0.9,1.5,1.8,2.6,2.3c0-1.2-0.3-2.4-0.5-3.6c-0.8-4.4-0.5-9,1-13.2
		c2.5-6.5,6.6-12.5,12.2-16.9c1.4,0.7,3.2,1.5,4.7,0.5c-0.7-1.2-1.8-2-2.5-3.1c-2.1-2.8-2.6-6.5-2.3-9.9c0.5-4.5,2.9-8.6,6.3-11.4
		c2.6-2.2,5.6-3.7,8.8-5c1.1,1.2,2.1,2.6,3.3,3.7c-1.4-0.2-2.9-0.2-4.4,0.1c-0.4,0.1-0.7,0.3-1,0.6c2.9,1.3,5.9,2.2,8.8,3.5
		c9.7,4.1,18.7,10.4,25.2,18.7c-0.7,1.7-1.5,3.5-1.7,5.4c-0.1,0.5,0.1,1,0.3,1.5c1.3-1.9,2.4-4,3.8-5.9c3.5-5,7.9-9.3,12.8-13
		c4.4-3.3,9.1-6,14.2-8c6.9-2.7,14.3-4,21.7-4.3c4.7-0.1,9.4,0.1,14.1,1.1c2.5,0.6,5.1,1.3,7.1,2.9c1.7,1.3,2.8,3.3,3.2,5.4
		c-1.1,0.5-2.4,1-2.7,2.3c8-0.8,16.1-0.7,24,0.8c3.4,0.8,6.9,1.6,9.7,3.9c5.8-1.9,12.2-2.3,18.2-1c2.3,0.5,4.6,1.8,5.7,4
		c1.3,2.4,1,5.3,0.3,7.9c-1.8,6.6-5.7,12.4-10.1,17.5c-3.4,3.8-6.9,7.5-11,10.5c-5.4,3.9-11.5,6.8-17.9,8.9
		c-13.4,4.4-27.6,5.8-41.7,5.1c-7.7-0.5-15.4-1.5-22.7-4c-8-2.7-15.9-6.3-22.5-11.7c-0.9-0.7-1.7-1.5-2.8-1.9
		c0.1,2.6,2.1,4.7,3.8,6.5c-2.2,5.7-5.4,10.9-8.8,15.9c-6.4,9.1-14.3,17.5-24,23c-5.6,3-11.6,5.3-17.8,6.3
		C279.8,444.6,273.6,444.2,268.4,441.5 M428.4,367.5c-10.7,6.6-22.7,10.8-34.8,14.1c-14,3.6-28.5,5-42.9,4.6c-2,0-4.1-0.2-6.1,0.2
		c0.3,0.4,0.7,0.8,1.3,1c2.5,0.8,5.1,1.1,7.7,1.4c7.6,0.7,15.3,0.6,23-0.1c13-1.2,26-4.3,38-9.4c6.1-2.8,12.1-6,16.9-10.7
		c1.2-1.3,2.6-2.7,2.6-4.6C432.1,365,430.3,366.4,428.4,367.5 M346.1,371.9c-1.4,1.2-3.1,2.2-3.9,3.9c1.7-0.3,3.1-1.3,4.7-2
		c8.6-4.4,17.3-8.3,26.3-11.7c6-2.4,12.2-4.4,18.2-6.6c1-0.4,2.1-0.7,3-1.5c-0.7-0.7-1.7-0.6-2.6-0.6c-3.9,0.1-7.7,1.1-11.4,2.1
		C368.2,359.1,356.3,364.2,346.1,371.9 M292.7,372.2c-1,1.1-0.7,2.6,0,3.8c1.3,2.2,3.6,3.5,5.8,4.4c5.1,1.9,10.8,2.5,16,1.1
		c1.2-0.4,2.6-0.7,3.3-1.8c-1.7-0.5-3.5-0.2-5.3-0.3c-5,0-9.8-1.3-14.3-3.5C296.3,374.9,294.6,373.5,292.7,372.2 M275.5,405.2
		c-0.4,1.4,0.4,2.7,1.1,3.7c1.8,2.4,4.6,3.8,7.5,4.3c3.3,0.6,6.7,0.2,10-0.5c6.3-1.6,12.3-4.5,17.4-8.6c3.3-2.8,6.4-5.9,8.6-9.7
		c0.3-0.5,0.7-1.1,0.6-1.7c-1,0.1-1.8,0.9-2.5,1.6c-3.9,3.5-7.9,7.1-12.5,9.7c-5,3-10.6,4.9-16.3,5.7c-3.6,0.4-7.5,0.3-10.6-1.7
		C277.5,407.3,276.6,406.1,275.5,405.2 M682.1,439.1c-3.2-3-7.5-4.5-11.8-4.8c-4.5-0.4-9,0.1-13.4,0.6c-0.8,0.1-1.7,0.2-2.5-0.2
		c2.2-2.4,5.3-3.6,8.3-4.7c-0.1-1.3-0.2-2.7-0.7-3.9c-1-3-3.3-5.5-6.2-6.8c-3.9-1.8-8.3-2.1-12.5-1.8c-4.5,0.3-8.9,1.4-13.2,2.8
		c4.6,2.7,9.1,5.6,13.3,8.8c5.9,4.5,11.6,9.4,16.2,15.3c1.2,1.5,2.2,3.3,2.5,5.2c1.7,7.7,1.6,15.6,0.6,23.4
		c-1.8,13.4-7.1,26.3-15.2,37.1c-6.6,8.8-14.5,16.5-23.6,22.7c2.6,4.5,3.3,9.7,3.3,14.8c0,7.6-1.8,15-4.4,22.1
		c-2.3,6.2-5.2,12.1-8.5,17.8c-2.8,4.9-5.8,9.6-9.3,14.1c-7,9.1-15.4,17-24.6,24c-9.4,7.2-19.6,13.4-30.2,18.8
		c-11.6,5.9-23.7,10.9-36.2,14.9c-0.9,0.3-1.9,0.5-2.8,0.9c-2.6,4.2-5.7,8-9.1,11.7c-7.3,7.9-15.7,14.7-24.6,20.7
		c-20.3,13.6-43.2,23-66.7,29.6c-14.8,4.1-30.2,6.5-45.6,5.2c-12.2-1.1-24.4-4.7-34.4-11.9c-8,2.2-16.3,3.3-24.6,3.5
		c-7.6,0.1-15.3-0.8-22.6-3.1c-5.8-1.9-11.4-4.6-16.1-8.6c-4.2-3.6-7.4-8.5-8.2-14c-0.8-5.2,0.2-10.6,2.4-15.4
		c-0.9-1.7-1.9-3.3-2.7-5c-3.4,0.9-6.6,2.6-9.5,4.8c-5.2,4-9.1,9.6-11.7,15.6c-1.7,3.9-3.2,8.1-3.4,12.4c-0.3,4.3,0.8,8.7,3.1,12.3
		c2.7,4.4,6.7,7.8,11.1,10.5c4.6,2.8,9.6,4.8,14.7,6.4c7.3,2.3,14.9,3.7,22.5,4.4c14.1,1.4,28.5,0.9,42.3-2.4
		c-0.5-1.1-1-2.2-1.2-3.4c-0.5-3.1,0.5-6.7,3.3-8.4c0.7,0.6,0.6,1.6,0.8,2.4c0.4,2,1.2,3.8,2.4,5.4c2.1,2.7,4.9,4.7,7.9,6.4
		c5,2.9,10.5,4.9,16.1,6.6c6.8,2.1,13.9,3.4,21,4c14.6,1.1,29.3-0.8,43.5-4.2c13.5-3.2,26.6-7.8,39.3-13.4
		c11.3-5,22.5-10.7,32.9-17.4c9-6,17.6-12.8,24.1-21.6c3.6-4.9,6.4-10.6,7.1-16.7c5.3-1.4,10.7-2.6,15.9-4.3
		c6.4-1.9,12.7-4.3,18.9-6.9c22.9-9.6,44.1-23.1,63.1-39.1c3.6-3,7.1-6.2,10-9.8c8.3-10.1,13.6-22.5,15.8-35.4
		c1.1-6.9,1.5-14.1,0.4-21c-1-6.5-3.7-12.6-6.9-18.2c-0.5-1-1.2-1.9-1.3-3.1c0.5-0.3,1.1-0.1,1.6,0c1.5,0.5,2.7,1.4,3.9,2.4
		c6-6.2,11.5-12.9,16.6-19.9c7.1-10,13.3-20.6,18.2-31.9c2.8-6.6,5.4-13.3,6.5-20.4c1.1-6.9,1.1-14.2-1-21
		C686.2,444.4,684.6,441.3,682.1,439.1"/>
</g>
</svg>
