<?xml version="1.0" encoding="utf-8"?>
<!-- Generator: Adobe Illustrator 21.0.0, SVG Export Plug-In . SVG Version: 6.00 Build 0)  -->
<svg version="1.1" id="Warstwa_1" xmlns="http://www.w3.org/2000/svg" xmlns:xlink="http://www.w3.org/1999/xlink" x="0px" y="0px"
	 viewBox="0 0 792 792" style="enable-background:new 0 0 792 792;" xml:space="preserve">
<style type="text/css">
	.st0{fill:#FBC69A;}
	.st1{fill:#BAE3EE;}
	.st2{fill:#FDDBC5;}
	.st3{fill:#F5A0A7;}
	.st4{fill:#EC1C24;}
	.st5{fill:#A6A8AB;}
	.st6{fill:#00ADEE;}
	.st7{fill:#FFF100;}
	.st8{fill:#FFFFFF;}
</style>
<path class="st0" d="M291.8,251c1.4-2.1,3-3.5,4-4.2c2.6,3.8,8.9,10,17.7,16.3c-2.8,4.5-5.2,9.2-7,13c-8-0.1-17.5-0.7-17.5-0.7
	C288.5,261.9,289.2,255,291.8,251 M372.5,346.7c-9.1-2.2-17.5-4.4-22.6-5.7c-3,1.3-6.3,2.4-9.5,3.3c5.7,7.4,21.2,23.2,50.9,29.8
	c24,5.3,41,0.6,50.4-3.5c-14.2-7.8-26.9-13.1-35.1-15.7C399.8,352.6,387.6,350.4,372.5,346.7 M195.2,255.3c5.7-47.1,31.2-71.1,62-91
	c30.9-20,35.9-30.6,37.1-30.3c0.6,0.1-0.3,3.4-2.2,6.9c9.5,46.3,25.7,63.6,25.1,64.1c-0.3,0.3-3.5-0.3-8.2-5.9
	c-0.9,4.2-3.2,14.1-8.1,23.3c-7.2,13.5-15.9,21.1-15.5,21.4c0.8,0.5,11.7-4.3,24-16.7c11.2-11.3,13.3-16,13.5-15.7
	c0.4,0.6-0.1,2.5-1.4,5.2c6.4-1.3,9.9,7.7,3.8,17.2c-5.4,8.7-15.5,11.1-18.2,11.6c4.6,1.7,9.9,4,14.8,6.9
	c10.4-7.3,19.4-11.3,20.4-10.1c0.6,0.7-4.3,11.3-8.6,17.4c13,9.8,21.8,18.9,20.6,20.5c-1.2,1.6-15.5-3.1-29-10.1
	c-2.4,2.2-5,4.3-7.6,6.3c4.5,0.4,8.7,1.6,12.6,4.5c1.6,1.2,3,2.5,4.4,3.7c4.3-2.2,9.7-3.7,15.8-1.7c4.1,1.3,8.4,4.3,14.4,8.4
	c12.5,8.4,22.8,13.9,23.2,15c0.1,0.4-0.7,2.7-2.8,6.1c9.4,5.6,25.9,14.3,27.8,14.8c2.2,0.6,16.4,3.1,36.9,3.5
	c8.9,0.2,15.6,0.2,20.6,0.2c0.7-3.3,1.4-10.4-1.4-21.5c-4.1-16.2-13.7-17.8-13.7-17.8c3.7,17.5-12.2,32.7-25.3,29.2
	c-12.4-3.2-12.7-13.5-20.8-18.1c-4.6,3-9.4,2.6-9.3,2.1c0.2-0.7,6.2-2.9,10.1-9.7c2.4-4.2,4.1-10.5,2.8-19.2
	c-0.9-5.6-3.3-9.4-5.7-11.9c-3.7-3.9-7.8-4.8-7.8-4.8s0.8,7.1-2.3,14.4c-3.2,7.4-10.1,8.9-10.1,8.5s0.8-1.9,0-8.2
	c-0.8-6.3-5.2-8.3-5.2-8.3c-0.4,3.7-4.5,13-12.2,14.9s-14.4-5.1-16-16.4c-1.6-10.8,0.8-23.8-5.4-33.1c-8.3,0.3-12.2-4.4-11.9-4.6
	c0.5-0.3,9.3,2.4,21.6-3.8c12.4-6.3,14-21.9,13.3-22.3c-0.5-0.3-9.8,2.4-16.8-2.4c-7.1-4.8-8-11.6-7.2-12.1c0.4-0.3,1.5,1.4,3.4,3.3
	c14.7-3.5,17.6-13.1,17.6-13.1c-36-10.5-32.2-50-69.4-74.5c-37.5-24.7-77.5-17.7-99.6-6.9c-22.2,10.9-58.2,42.4-47.4,94.7
	C162.1,238.9,195.2,255.3,195.2,255.3"/>
<path class="st1" d="M113.9,271.6c-1.6,3.4-4.1,11-2.9,22.3c1.7,15.7,5.3,23.1,4.8,23.3c-0.6,0.1-6.3,1.4-10-3.7
	c-5.2-7.4-0.8-13.3-2.6-17.9c-4.3-10.8-14.6-3.5-18.7-9.6c-4.2-6.3,3.6-12.7,0.9-19.6c-3.5-8.8-16.9-6.2-19.4-15.5
	c-2.8-10.9,3.1-16.2,7.6-20.3c4.4-4.1,10.1-8.9,13.8-16.6c3.7-7.8-1.4-14.4,3.5-22c5.6-8.9,16.4-5.1,17.1-4.6s0.4,7.8,4.9,21.7
	c-2.7-0.8-8.6-0.9-15.1,4.4c-10.5,8.5-10,23.9-8.9,35.9c0.9,9.2,4.2,15.2,6.3,17c-0.5,0.9-0.3,2.3,4.6,3.7
	C102.4,270.7,107.5,271.2,113.9,271.6 M204.7,314.1c3.8-0.7,13.8-0.8,21.7,1.5l2.1-2.1c-16-7.7-25.7-23.6-22.2-38.3
	c-8.8,1-13.5-0.2-13.8-1.1c-0.3-1.1,5.2-7.2,16-12.3c-1-3.1-1.7-6.1-2.2-8.2c-1.6-1.8-3.1-3.8-4.6-5.9c-1.6,8.9-1.8,15.3-2,15.5
	c-0.1,0.1-8.2-2.3-18.4-10.4C175.1,272.8,181.2,299.6,204.7,314.1 M381.1,307.9c-0.6-0.9-5.5-3.3-16.8-11.1
	c-9.4-6.5-15.1-13.4-26-8.7c1.5,1.6,2.6,3.1,3.4,4.1c2.5-1.8,4-2.9,4.2-2.7c0.4,0.3-1.2,8.6-19.6,19c-17.7,10.1-48.9,15.7-69.5,14.1
	c0.2,1.2,0.4,2.4,0.5,3.7c9.1,3.8,16.9,9.3,21,12.9c37.6,6.1,58.2,2.6,76.5-7.4C373.9,321.5,381.6,308.8,381.1,307.9 M513.6,419.7
	c-20.7,5-30.4,13.2-34.4,18.2c0.8,0.5,1.7,1,2.6,1.5c1.9,1.1,3.8,2.1,5.6,3.1c6.5-3.7,21.1-10.2,42.3-7.3
	c26.8,3.7,63.3,23.4,84.9,79.6c20,52,7.8,101.1-36.2,133.6s-108,33.4-155.8,21.1c-31.4-8.2-64.6-29.1-83.8-46.5
	c-6.3-5.6-11-10.4-14.1-14c-0.7,6.5-3.3,24.3-13.2,39.6c-7.4,11.3-18.9,21.7-34.4,22.1c-10.5,0.3-23.7-4-34.1-17.1
	c-21.9-27.8-10.6-68.8-3.1-77.5c-1.3-2.2-2.6-4.7-4.1-7.6c-6.2,2.6-18.3,11.2-23,39.4c-7,41.8,21.3,80.5,53.6,87.6
	c32.3,7.2,45.3-11.8,52.8-34c7.6-22.2,8.6-40.7,9.5-41.5c0.8-0.8,19.9,37.4,73.6,63.6c51.3,25.1,158.8,35.4,211.7-18.3
	c52.1-52.8,60.7-116.3,26.4-181.9c-27.3-52.3-72.3-66.6-105.1-66.5c1.3,9.8-6.1,14.6-6.5,14.7C528.2,432,521.3,426.1,513.6,419.7
	 M518.6,375.3c-2.2-0.5-4.4-1.1-6.8-1.9c1.5,4.7,1.4,8.9-0.5,12.5c-3.5,6.7-0.6,10.2,6.9,13.3c2.9,1.2,5.7,2.4,8.4,4
	c1.6-1.9,2.2-3.7,2.2-5.2c0-2.9-1.3-5.7-3.7-7.8l-0.4-0.3C520.5,386.3,516.4,382.5,518.6,375.3 M502.1,340.4
	c-0.3,0.6-0.5,1.2-0.7,1.8c5.3-3,9.9-5.3,14.3-7.3c-0.3-1.3-1.2-3.4-3.8-4.7c-0.3,0.6-0.7,1.2-1.1,1.7
	C508.5,334.6,504.1,335.9,502.1,340.4 M512.5,402.3c-8.3-2.9-10.2-9.6-6.7-16.8c3.6-7.6,0.9-14.4-4.8-22.5c-1.6-2.2-2.8-4.5-3.6-6.8
	c-0.8-1.3-1.1-2.8-1.1-4.2c-0.2-1-0.3-2-0.4-3.1c-0.3-4.2,1.1-8.5,2.6-11.3c1.1-2,3.5-4.4,6-6.1c2.2-1.5,3.6-3.9,4-7.2
	c0.9-7.4-4.6-9.3-4.6-9.3c-10.5,12.2-20.9,21.2-21.6,21.8h-0.1c-0.3,0.5-0.7,1.1-1.1,1.9c0.8,0.4-3.4,4.6-1.6,24.7
	c1.2,13.6,5.2,23.5,7.9,28.6c22.8,16.9,40.5,31.6,40.5,31.6c1.7-1.5,3.1-4.6,1.5-10C527.8,408.4,520.9,405.3,512.5,402.3"/>
<path class="st2" d="M232.6,310c7.7-6,15.2-9.1,16.4-8.5c1.2,0.5,4.5,7.8,6.7,16.2c34.8,1.1,61.1-9.5,71.8-15.9
	c3.8-2.4,7.3-4.6,10-6.6c-2.4-3.5-9.2-12.1-18.4-13.5c-2.6-0.4-5.1-0.6-7.7-0.8c-4,2.6-7.1,4.1-7.7,3.8c-0.4-0.2,0-1.7,0.8-4
	c-6.3,0-12.7,0.2-20.5-0.4c0,0-0.5-8.2-0.1-18.5c0.3-6.7,2.4-12,4.9-15c-10.6,4.8-19,5.5-19.5,5c-0.7-0.7,13.5-8.6,25.1-28.6
	c7.7-13.2,10.4-22.7,11.4-27.8c-2.8-4.2-5.9-10.2-9.3-18.5c-0.4-1-0.7-1.9-1.1-2.9c-0.2,2.1-1.4,6.5-5.7,6.9
	c0.9,1.6,1.4,3.5,1.7,5.3c6.2,1.5,7.5-2.8,7.7-1.9c0.3,1-0.1,6.8-7.5,5.5c-0.1,1.3-0.2,2.6-0.6,3.8c-0.3,1.1-0.6,2-0.9,2.9
	c3.3,2.6,6.5,1.4,6.8,1.8s-3.2,3.6-5.6,2.5c-1.3-0.6-1.8-1.5-2-2.1c-1.1,2.1-2.2,3.4-3.2,4.1c-2.3,3.4-5.1,5.4-8,5.4
	c-0.1,0-0.2,0-0.3,0c-1.7,0.7-3.7,1.4-5.7,1.8l0,0c0.3,0.5-3.1,1.9-7.3,1.9c-4-0.1-7.7-2-7.4-2.6l0,0c-3.2-1.7-5.9-5.7-6.1-10.5
	c-0.1,0.2-0.2,0.3-0.2,0.3c-0.6,0-1.1-5.6,3.3-13.3c4.4-7.7,13-13.1,24.1-12.2c4.1,0.4,7.3,2.1,9.5,4.5c4.5-1.3,6.6-4.3,7.3-5.1
	c-4.9-13.4-6.1-23.1-6.4-27.7c-3.7,4.3-9.5,8.9-17,14.3c1.7-0.5,3.9-1,6.9-1.3c8.5-1.1,11.6,0.2,11.5,0.6c-0.1,0.5-3.9-0.4-11.5,1.4
	c-7,1.6-10.4,2.5-11,2.2c-6.7,4.7-14.4,10.2-23.2,16.8c-22.3,16.7-30.9,31.6-37.6,49.1c-1.6,4-2.8,8.1-3.7,11.9
	c13.3,21.1,32.9,31,33.8,31.1c1,0.1,11.9-1.7,22.8-6s19.7-10.5,20.1-10.2c0.4,0.4-2.2,8.5-19.5,15.6c-2.5,1-4.8,1.9-7.1,2.6
	c0.8,18.5-4.3,22.5-4.8,22.3s0.6-7.3,0-20.8c-6.2,1.7-10.1,2-10.9,2c-0.4,0-3.7-1.3-8.4-4c2.8,11.8,2.8,21.7,1.5,22.1
	c-1.4,0.4-11.4-11.6-16.8-20.9c-0.9,0.2-1.8,0.4-2.6,0.5C208.5,285.8,213.7,302.5,232.6,310 M230.1,200.9c1-3,0.1-8.1,0.7-8.3
	c0.6-0.2,2.3,4.5,1,9.7c-1.2,4.5-5.6,5.8-5.7,5.1C225.9,206.7,228.9,204.5,230.1,200.9 M225.2,211.8c0.6-0.5,2.3,2.6,3.8,4.1
	c1.5,1.4,2.6,1.8,2.4,2.8c-0.2,1-3,1.5-5.1-0.4C224.2,216.3,224.3,212.4,225.2,211.8 M246.5,243.6c0,0-0.6,1.3-1.7,2.7
	c0.6,0.9,1.3,2.6,0.9,5.5c0.1-0.2,0.1-0.3,0.2-0.2c0.6,0.4,0.1,5.8-4.1,8.2c-3.3,1.8-7.8,1.3-9.3-1.9c-1.5-3.2-0.8-5.5-0.3-5.8
	c0.2-1,0.7-1.9,1.6-2.7c-1.9-1.7-2.6-4.8-3.5-6.7c-2.5-0.8-2.7-2.9-2.1-3.6c0.1-0.1,0.3,0,0.5,0.2c-0.4-0.7-0.8-1.5-1-2.4
	c0,0.3-0.1,0.5-0.2,0.4c-0.5-0.3-2.3-6.6,3.3-7.9c5.5-1.4,9.4,4,9.8,5.3c1.7,2,2,3.9,1.8,5c1.1-0.3,1.6-0.6,1.6-0.6
	s-0.4-1.2,1.2-0.6c1.6,0.7,2.3,2.8,2.3,4.1C247.6,243.7,246.5,243.6,246.5,243.6 M322.4,230.5c-4.1,8-14.4,12-22.8,12.7
	c-1.2-0.2-2.3-0.4-3.1-0.4c4.6-2.8,9.4-6.5,13.9-11.1c4-4.2,7.2-8.4,9.4-11.9C323.6,220.1,326.4,222.6,322.4,230.5 M79.6,217.1
	c-1.7,2-3.5,3.8-5.2,5.5c-8.4-3.4-13.1-3.1-17.7-2.5c-4.7,0.6-6.5,2.2-7.4,1.2s0-5.1,5.9-8.1c6-2.9,10.5-4,14.1-8.9
	c0,0-2.2-6.5-7.2-17.4c-5-11-7.2-19.3-7.1-25.4c0.1-6.2,2.9-5.6,3.5-3.4c1.9,6.9,5.2,14.6,8.2,19.2c2.9,4.5,5.4,4.8,6,4.5
	c0.5-0.3-0.3-3.3-1-13.5c-0.8-10.2,1.3-18.6,3-17.9c1.7,0.6,1.6,8,3.2,17.9c1.6,10,4.7,11.8,5.1,11.8s0.4-4.1-1.6-12.7
	c-1-4.2-1.2-9.3-1.8-13.4c1.1,0,2.2,1.5,4.3,9.4c2.7,9.9,6.8,16.8,7.7,16.4c0.6-0.2,0.1-2-1.2-6.4c0.4-7.5,2.1-11.7,4-10.8
	c1.4,0.6,1,5.6,1.5,10.6c0.4,3.5,0.8,6.3,1.5,8.4c-3.1,0.7-6.4,2.1-8.9,5C78.1,198.5,88.1,206.9,79.6,217.1 M557.8,363.6
	c8,3.3,6.3,6.5,4.4,6.1c-1.7-0.3-10.9-0.9-20.9,0.6c-9.7,1.5-16.6,3.2-31.6-1.4c-1.2-2.4-2.7-5-4.5-7.9c-3.4-5.3-4.9-9.7-4.9-13.7
	c8.7-4.7,16.6-8.3,23.9-10.4c13.1-3.9,17.5-2.4,18.6-1.8c0.4,0.2,0.6,0.5,0.7,0.8c-1.3,0.7-2,1.5-1.9,1.8c0.3,0.6,5.7-1.1,10.2,2.2
	c-2.4,1.1-3.9,2.8-3.6,3.2c0.6,0.7,9.9-1.8,11.5,2c-3.9,1.3-5.7,2.9-5.1,3.3c0.9,0.5,15.8-3.3,18.6,1.3l-23.4,8.8
	c-3.8,0.3-5.6,1.7-5.6,2.3C544,361.8,549.9,360.3,557.8,363.6 M496.3,352c0.3,1.4,0.6,2.8,1.1,4.2
	C496.6,354.9,496.3,353.4,496.3,352"/>
<path class="st3" d="M235.6,240.8c-4.6,0.3-6.2-1-6.9-1.6c-0.4-0.7-0.8-1.5-1-2.4c0.2-1.1,0.4-4.2,3.6-5.3c4-1.5,9,3.6,9.4,3.4
	c0.1,0,0-0.1,0-0.3c1.7,2,2,3.9,1.8,5C241.2,240.1,239,240.6,235.6,240.8 M239,250.4c-2.4,0.5-4,0-5.2-1.1c-0.9,0.8-1.4,1.7-1.6,2.7
	c0.1,0,0.1,0,0.2,0c0.4,0.3-0.1,5.7,5.2,6.2c5.1,0.4,7.5-5.1,8.1-6.3c0.3-3-0.4-4.7-0.9-5.5C243.5,247.9,241.6,249.8,239,250.4"/>
<path class="st4" d="M314.3,84.6c0.5,1.9,0.2,5-1.7,8c-2.4,3.6-6.3,5.4-8.7,4.1c-0.2-0.1-0.3-0.2-0.5-0.3c-1.9-1.6-1.1-6.3,1-9.3
	s4.7-4.8,7-4.8c0.6,0,1.1,0.2,1.6,0.4C313.8,83.1,314.1,84,314.3,84.6"/>
<path class="st5" d="M214,361.2c0.6,0.8,5.4,0.4,15.3-1.8c6.9,8.2,16.2,15,17.2,14.8s5.6-10.4,6.7-21.2c11.8-4.1,20.3-9.2,20.6-10.1
	s-7.8-8.4-20.9-14.1c-0.8-11-5.4-21.9-6.7-22.2c-1.2-0.3-10.8,4.9-18.9,13.5c-8.5-2.3-19.3-2.2-19.9-1.1c-0.4,1.1,1.5,11.1,7.1,19.8
	C213.3,349.7,213.4,360.4,214,361.2 M220.1,333.6c4.1-11.2,13.7-14.2,19.8-12.2c5.9,2,12.5,11.9,8.3,23.9c-4.1,12-11.4,15.3-18.6,13
	S216,344.7,220.1,333.6 M322.5,101.5c-0.3,0.3-8.5,0-12.3-0.1c-0.9-0.7-1.7-1.4-2.6-2.1c2.6-0.6,5.3-2.4,7.3-5.4s2.6-7.2,1.8-10.1
	c-0.5-1.6-1.3-2.7-2.5-3.3c-3.5-1.7-8.8,0.4-12.1,5.2c-1.5,2.2-2.5,5.4-2.2,8.3c-1.2-0.8-2.5-1.6-3.9-2.3l0.3,0.1
	c0,0-3.7-9.2-3.4-9.8c0.3-0.6,11.1-0.8,11.1-0.8s15.4-8.9,16-8.5s-1.8,15.6-1.8,15.6S322.9,101.1,322.5,101.5 M349.1,97.6
	c-4-0.9-6.4-1.4-6.6-1.6c-0.1-0.2-0.3-1.9-0.6-4.3c4.4-0.2,7.1-0.2,7.6,0.2C349.9,92.2,349.5,95.5,349.1,97.6 M323.4,104.2
	c5.5,4.5,9.7,9.8,11.5,12.2c-0.6,2.2-0.6,9-0.5,14c-0.2,0.3-0.4,0.6-0.6,0.9c-5.1-9-11.3-18.7-20.7-27.2
	C316.8,104.2,321.2,104.3,323.4,104.2 M350.3,119.6c0,0,13-2.6,13.9-1.4c-3.7,2.9-7.2,5.5-7.2,5.5v0.2c-1-1.6-2.9-2.4-5.2-2.4
	c-2.7,0-6.6,1.4-9.1,3.6c-4.5,4-5.4,10.3-3.3,12.9l-1.3,1.2c-1-1.9-2-3.8-3.1-5.7l1.5-2.6c0,0,0.4-12.2,0.9-12.8
	C338.2,117.2,350.3,119.6,350.3,119.6 M293.3,90.5c-4.3-2.2-9.2-4.2-14.4-6.1c-0.8-0.3-1.7-0.5-2.5-0.8c3.2-7.8,13.6-33,14-32.9
	s1.6,4.2,2.5,9.4c0.9,5.1,1.6,8.5,1.9,8.9s6.4-2.9,16.7-7.1c10.1-4,18.9-6.8,19.3-6.7s1.7,8.1,3.6,23c1.8,14.2,2.8,21.9,2.9,22.6
	c0.2,0.7,6.6,1.9,17.7,4.7c11,2.7,17.5,4.4,17.5,5.2c0,0.3-2.5,2.4-5.4,4.8c-1.6-0.4-9.7-0.4-17.5,1.7c-5.7-1.4-10.5-2.1-12.9-2.1
	c-1.7-2.4-6-7.8-11.8-12.7c-0.3-2.3-1.9-7.9-4.6-14.2c1.8-7.6,2.3-18.1,1.5-18.6c-1.1-0.6-11.7,4.2-18.4,9.1
	c-5.4-0.3-11.5,0.8-13.1,1.5c-6.3-2.9-10.5-1.1-10.4-0.4s3.2-0.1,10.2,2.4C290.7,84.3,291.9,87.5,293.3,90.5"/>
<path class="st6" d="M174.3,257.4c-1.7,9.2-1.2,18.7,1.3,27.5c-21.4-14.3-33.6-21.9-34-21.2c-0.4,0.5-0.2,1.7,0.9,3.3
	c-18.3-0.4-42.4-1.9-46.1-1.6c-1.3-3.4-5.3-13.4-4.3-30.5c1.3-22.8,17.7-24.4,21.8-24.8c11.8,14.3,24.8,29.7,27.1,31.1
	C143,242.3,166.6,253.7,174.3,257.4 M251.3,590.8c1.4-1.1-16.6-33.5-30.7-82.3c-12.8-44.6-16-92.9-9-127.9c0.2,0.1,0.4,0.3,0.6,0.4
	c8.5,5.9,10.3,5,10.4,3.8c0.2-1.2-7.8-6.1-19.4-23.1c-11-16-13.3-32.6-7.9-48c2.4,1.8,5,3.4,7.8,4.9c0.5,5.3,2.2,14.4,6.7,20.9
	c-1.3,12.7,0,24.5,1.4,25.6s7.6,1.1,16.8-1.6c6.4,9.5,18.6,16.4,20.1,16.1s7.6-9.9,10.1-23.8c10.3-3.5,18.1-8.5,21.4-11.4
	c9.5,2.3,19.7,3.6,30,3.6c-9.4,12.2-19.5,28.1-21.3,36.4c-6.8,7.3-11.7,9.1-25.3,9c-15-0.1-28.7-13.8-30.9-13.8
	c-1,0-2.2,1.2-3.6,2.3c-1.8,1.3-3.7,2.5-3.6,2.9c0.2,0.7,3.2,0.6,7-2.3c0,0,10.3,10.4,23.8,13.7c15.5,3.7,27.4,0,33.3-7.5
	c0.2-0.1,0.4-0.1,0.7-0.3c3-1.7,4.7-4.2,10.3-13.3c41.5,2.8,76.3,14.7,105.3,28.5c34,16.3,71.9,41,85.5,48.4c17.4,9.4,34,8,33.2,6.4
	c-0.7-1.4-12.2-3.7-32.1-13.9c10.7-5.2,40.6-14.9,77.9,15c44.4,35.7,65,115.5,26.3,163.5c-37.7,46.6-110,53.9-170.2,39.5
	c-58.6-14-103.4-62.7-105.2-61.6c-0.6,0.4-0.5,1.3,0.3,2.8c-1.3,8.9-5.6,32.5-22.6,49.6c-18.3,18.5-43.6,9.1-54.7-10.4
	c-10.7-18.7-9-50.1-0.7-62C247.6,588.8,250.4,591.6,251.3,590.8 M309.4,383.5c-4.8,0.1-5.6,1.9-4.9,2.9c0.5,0.7,3.8,0.1,7.7,0.1
	s6.4,0.3,6.6-0.4C318.7,385.4,314.2,383.4,309.4,383.5 M284,403.7c-0.6,0.1-1.5,2.3,2.3,7.1c3.9,4.7,10.3,10.7,10.4,9.6
	s-2.1-4.5-4.9-8.5C288.9,408,284.9,403.5,284,403.7 M273.4,407.1c-1.5-0.1-0.7,7.1,8.7,21.1c9.5,14,18.7,22.3,19.3,21.5
	c0.7-0.8-3-5.4-13.4-20.7C277.5,413.7,274.8,407.2,273.4,407.1 M227.6,431c0.7-0.4-0.1-5.4-1.1-16.7c-1-11.4-0.8-17.4-1.5-17.8
	c-0.8-0.5-3,2.2-2.3,13.8C223.3,421.8,227,431.4,227.6,431 M451.9,336.7c-21.2-0.7-37.3-2.9-40-3.8c-2.6-0.9-14.7-6.1-29.8-15.4
	c-4.6,5.9-12.2,13.3-23.6,19.6c22.1,6,38.3,8.9,50.3,12.7c20.7,6.6,52.1,23.5,74.8,39.8c-2.7-5.3-6.2-13.9-7.4-25.2
	c-2.1-19.6,3.9-25.8,4.8-25.5l0,0c0.4-0.8,0.8-1.4,1.1-1.9C480.9,337.4,472.5,337.4,451.9,336.7 M274.5,73.3
	c-1.2-0.2-2.3,0.2-3.5,1.1c-1.7,1.4-2.8,4-2.9,6.9c1,0.2,1.9,0.5,2.9,0.7C271.6,80.4,272.9,77.2,274.5,73.3 M351.3,124.2
	c-2.2,0-4.6,1.1-6.8,2.9c-3.7,3.2-4.2,7.4-2.9,8.9c0.5,0.6,1.5,0.9,2.7,0.9c2.2,0,4.9-1.1,7.1-2.9c3.2-2.7,4.2-7,3.2-8.4
	C354,124.7,352.8,124.2,351.3,124.2 M281,182c1.1-0.1,2.3,0,3.3,1.1c0.3,0.5,0.6,1,0.8,1.6c2.9,6.9,0.7,13.2-0.5,16.4
	c-2,3.1-4.2,4.8-6.5,4.8c-0.8,0-1.7-0.4-2.4-1.2c-1.7-1.9-2.6-5.4-2.3-9.8C274,186.6,278.7,182.3,281,182 M283.1,194.1
	c0.4-3.1-0.5-4.9-1.8-5c-0.3,0-0.5,0.1-0.8,0.2c0,0.3-0.1,0.7-0.2,1.1c-0.4,1.3-1.1,2.2-1.8,2.6c0.7-0.5,1.3-1.3,1.7-2.6
	c0.7-2.3-0.2-3.9-1.3-4.4c-1.3-0.6-2.9,0.3-3.7,2.1c-0.9,2.2-0.5,4.5,1,5.1c0.6,0.3,1.3,0.2,2-0.1c-0.1,0.3-0.2,0.7-0.2,1.1
	c-0.5,2.7,0.3,5.1,1.7,5.2C281.2,199.6,282.7,197.2,283.1,194.1"/>
<path class="st7" d="M528.9,258.4c2.3-1.2,3.1-4,3.3-9c-12.5-1.2-17.6-6.5-17.3-7.9c0.3-1.3,8.9,3.2,28.9,1.1
	c20.1-2.1,31.8-8.9,31.8-8.9s12.7,12.9,19,11.9c6.3-0.9,12.7-24.4,7.4-50.8c0,0,14.5-11.4,20.3-20.8c5.6-9.5,9.1-20.8,5.6-24.2
	c-3.3-3.3-21-2.6-34.3,5.6c3.9,9.6,3.3,16.5,2.7,16.6c-0.9,0.2-1.7-4.3-12.3-21.8c-10.6-17.4-24.4-24.8-31.1-35.4
	c-6.5-10.3-0.7-18.5,4.9-19.3c6.7-0.9,8.7,4.5,11,2.6c0.7-0.6,1.4-13.4-14.4-13.2c-15.3,0.2-41.7,18.4-62.6,54.1
	c-20.8,35.7-16.4,66.4-1.5,90.3C505.2,253.2,526,259.9,528.9,258.4 M547.2,159.1c4.1-0.6,7.8,3.4,9.8,17.8
	c1.7,12.4,0.4,18.6-3.4,19.2c-4,0.6-9.3-4.6-10.9-17.7C541,164.4,543.7,159.6,547.2,159.1 M505.4,163.3c4,0,5.6,7,6.2,18.9
	c0.5,11.9,0.3,17.7-3.7,18.2c-5.4,0.5-9-5.3-9.5-18.3C497.8,169.2,502.2,163.3,505.4,163.3 M472.7,200.7
	c-13.9-5.9-22.4-15.9-25.5-23.2c-1.6-3.8-1.6-6.5-1.1-7.6c2.3-4.9,13.1-4,27.3-1.9C471,178.8,470.8,189.6,472.7,200.7 M198.3,272.3
	c-0.4-0.9,6.5-5.2,14.5-8.6c-0.6-1.8-1.1-3.5-1.5-4.9c4.3,4.2,8.8,7.8,12.7,10.4c2.2,6.7,4.6,17.5,3.9,17.6
	c-0.8,0.2-5.9-6.8-11.5-17.8C209.4,270.8,198.4,273.1,198.3,272.3 M298.1,245.6c0.3-0.9,11.7,3.8,24.8,11.3c6.1-5,13-9.9,13.6-9.4
	c0.6,0.6-1.9,5-8.2,13.2c10.6,6.6,19.8,14.9,19.3,15.3c-0.4,0.3-9.4-2.9-23.5-10.4c-5.9,5.6-12.5,11.1-13,10.5s1.5-5.3,8.1-14.4
	C305.7,253.4,297.8,246.6,298.1,245.6 M230.6,354.3c-5.8-1.7-9.6-9.4-6.8-18.8c2.4-7.7,8.5-11.3,14-9.9c5.2,1.4,9.1,8.5,6.3,18.6
	C241.8,352.4,236.3,356.1,230.6,354.3 M740.8,291.7c-0.4-0.6-11.7-1.7-22.8-1.3c-4.7-10.2-11.6-18.3-12.4-18.3s-4.4,8.7-7.7,20.1
	c-12.1-0.2-22.8,1.7-23,2.1s8,9.2,18.7,16.8c-2.2,11.6-2.6,23.7-1.8,24.1c0.7,0.5,8.5-4.3,18.5-12.3c8.4,4.6,20.1,10.4,20.7,9.9
	c0.5-0.5-0.6-10.2-5.4-23.4C733.3,302.8,741.1,292.3,740.8,291.7 M723.8,323.6c-0.7,0.6-7.7-2.8-13.5-6.6c-5,3.9-11.9,9-13,8.4
	s0.6-9.3,2.7-16.3c-7.1-5.2-13.2-10.1-13-10.9c0.3-0.9,9.1-1.3,14.7-1.5c2.1-6.8,4.3-12.8,5.1-12.9s4.1,4.6,7.8,11.6
	c7.2,0,15.3,0.5,15.5,1.1c0.4,0.8-5.3,8.1-9.8,11.9C722.6,315.5,724.5,323,723.8,323.6 M173.4,374.1c1.8,0.4,2.9,0.8,3,1.1
	c0,0.1-0.1,0.2-0.2,0.3c-0.4,0.3-1.6,0.6-3.2,0.9c-0.4,0.1-0.9,0.2-1.4,0.3c-0.3,0-0.5,0.1-0.8,0.1c-0.5,0.1-1.1,0.2-1.7,0.3
	c-0.3,0-0.6,0.1-0.9,0.2c-1.2,0.2-2.4,0.4-3.5,0.6c-0.3,0.1-0.6,0.1-0.9,0.2c-1.8,0.4-3.4,0.7-4.8,1.2c-0.2,0.1-0.5,0.1-0.7,0.2
	c-1.1,0.4-1.9,0.8-2.4,1.2c-1,0.9-1.7,3.7-2.3,7.1c-0.1,0.6-0.2,1.2-0.3,1.9c-0.5,3.2-0.9,6.5-1.2,9c0,0.2-0.1,0.5-0.1,0.7
	c-0.1,0.5-0.1,0.9-0.2,1.2c-0.2,1.1-0.4,1.7-0.7,1.7c-1.3-0.3-3.3-17-7-21.2c-3.6-4.2-20.7-3.3-20.5-5.3c0.1-1.4,16.1-2.5,19.6-5.8
	c1.2-1.3,2.3-4.9,3.2-8.9c0.2-1,0.5-2,0.7-3.1c0.1-0.7,0.3-1.4,0.4-2c0.2-1,0.4-2,0.6-2.9c0.7-3.7,1.2-6.5,1.5-6.5
	c0.8,0,4.3,21.4,6.3,23.6c0.7,0.8,3.3,1.5,6.4,2.1c0.6,0.1,1.2,0.2,1.8,0.4c0.9,0.2,1.8,0.3,2.7,0.5c0.3,0.1,0.6,0.1,0.9,0.2
	c0.9,0.2,1.8,0.3,2.6,0.5c0.6,0.1,1.1,0.2,1.6,0.3C172.5,373.9,173,374,173.4,374.1"/>
<path class="st8" d="M505.4,182.8c-2,0.1-3.7-2.4-3.8-5.4s1.5-5.5,3.6-5.6c2,0,3,2.7,3.1,5.7C508.4,180.5,507.5,182.8,505.4,182.8
	 M550.1,178.7c2-0.3,2.9-2.7,2.5-5.7s-2.3-5.5-4.3-5.2c-2,0.2-3,3-2.6,6.1C546,176.8,548,179,550.1,178.7 M257.6,209.5
	c0.3-0.3,3.8,0.9,8.3,0.7c4.4-0.2,6.1-0.2,6.3,0c2-0.5,3.9-1.1,5.7-1.8c-1.4-0.1-2.7-0.7-3.7-1.9c-2.1-2.3-3.2-6.4-2.8-11.4
	c0.6-9.5,5.9-14.6,9.5-15h0.2c-4.8-2.9-12-1.8-17.8,1.8c-8.1,5.1-10.8,15.4-11.7,17.1C251.8,203.9,254.4,207.9,257.6,209.5
	 M232.6,243c0,0,1.1,4.6,4.5,4.6c5.1-0.1,7.7-5.2,7.7-5.2c0.2-1,0-1.7,0-1.7C236.8,244,232.6,243,232.6,243 M412.5,695.8
	c24.9,10.2,60.5,17.3,97,16.3c-5.2,7.1-14.2,8.9-20.1,8.6c-7.4-0.3-16.1-3.4-16.8-3.1c-0.8,0.2-1.6,14.1-16.4,19.3
	c-16.2,5.6-32.7-4.8-33.6-4.9c-0.9-0.1-7.6,14.2-27,15.7c-23.1,1.8-35-14.8-43.6-28.3c-6-9.6-14.2-31.3-15.5-31.1
	s1.2,14.4,11.2,35.9c2,4.3,4.2,8.2,6.8,11.6c-14.8,6.1-27.8,3.2-38.3-6.4c-11.3-10.3-11.1-18.3-12.8-18.3c-0.9,0-2.1,2.8-1.4,7.5
	c-12.1-1.7-15.4-9.2-16.2-13.8c10.2-1.3,19-5.5,24.5-12c22.1-25.8,20-58,21.7-58.5C333.5,633.8,352.2,671.2,412.5,695.8
	 M417.7,728.8c0.8-1.2-2.1-1.1-12.5-10.5c-10.8-9.7-15.8-16.2-16.5-16c-0.7,0.3,3.5,9.5,12,17.4C412.1,730.4,417,730.1,417.7,728.8
	 M557.8,359.7c0.6,0.2,1.2,0.4,1.8,0.6c1.2,0.4,2.2,0.9,3.2,1.4L689,315.1c0.1-0.7,0.2-1.3,0.3-2c-0.6-0.5-1.2-1-1.8-1.5
	L557.8,359.7z M278.5,193c0.7-0.5,1.3-1.3,1.7-2.6c0.7-2.3-0.2-3.9-1.3-4.4c-1.3-0.6-2.9,0.3-3.7,2.1c-0.9,2.2-0.5,4.5,1,5.1
	c0.6,0.3,1.3,0.2,2-0.1l0,0C278.3,193.1,278.4,193,278.5,193"/>
<path d="M265.9,210.2c-4.5,0.2-8-1-8.3-0.7l0,0c-0.3,0.6,3.3,2.5,7.4,2.6c4.1,0,7.6-1.4,7.3-1.9l0,0C272,210,270.3,210,265.9,210.2
	 M229.6,358.2c7.2,2.3,14.4-1,18.6-13s-2.3-21.9-8.3-23.9c-6.1-2-15.6,1-19.8,12.2C216,344.6,222.4,355.9,229.6,358.2 M223.8,335.4
	c2.4-7.7,8.5-11.3,14-9.9c5.2,1.4,9.1,8.5,6.3,18.6c-2.3,8.3-7.8,11.9-13.5,10.1C224.8,352.4,221,344.8,223.8,335.4 M231.8,202.2
	c1.3-5.1-0.4-9.9-1-9.7s0.3,5.2-0.7,8.3c-1.2,3.6-4.2,5.8-4,6.6C226.2,208,230.6,206.7,231.8,202.2 M747.2,289.5
	c-0.5-1.4-11.9-2.9-26.4-3.5c-7-10.8-13.9-20.6-15.5-20.3s-6.4,10.1-11.1,22.1c-11.4,0.4-24.8,2.5-25.4,4.4c-0.4,1.3,6.8,9,14.9,16
	l-105.8,39.5c-1-2.3-4-4.8-10.7-4.3c-0.8,0.1-1.4,0.2-2.1,0.3c-0.3-1.6-1.5-3.6-5.4-4.6c-0.9-0.2-1.8-0.3-2.6-0.3
	c-0.5-1.4-1.8-2.9-4.3-4c-1.5-0.7-3.1-0.8-4.6-0.6c-0.4-1.3-1.2-2.5-2.3-3.2c-5-3.1-14.6-1.3-22,0.9c-1,0.3-1.9,0.6-2.8,0.9
	c-0.6-1.9-2.4-5.7-7.3-7.8c0.2-1.8,0.2-3.7-0.1-5.7c-1.5-10.2-9.5-12.9-10-12.2c-0.6,0.7-10.7,12.9-23.1,23.6h-3.8
	c0.8-3.8,2.2-13.9-2.7-26.4c-8.4-21.6-25.2-22-25.3-21.3s6.3,13.3-1.1,24.2c-7.4,10.9-17.8,9.8-23,3.4c-3.8-4.7-6.7-9.3-10.7-11.7
	c0.8-0.9,1.5-2,2.1-3.2c2.3-4.6,4.4-12,2.6-21.6c-1.3-7.1-6.3-13.1-10.9-16.4c-4.9-3.5-10.2-4.7-12.3-3.3c-0.8,0.5,2.8,9.3-3.2,18.2
	c0,0-0.2-5-4.4-9.8c-3.3-3.8-7.3-4.3-7.8-3.9s0.5,7-5.2,12.7c-3.1,3.1-7.1,4.4-10,2.9c-2.7-1.4-5-5.9-5.5-12.4
	c-0.8-11.4,0.2-24.5-5.4-31.9c2.3-0.6,4.9-1.6,7.8-3.1c17-9.2,17.2-32.1,16.4-34.5c-0.3-0.8-4.7,3.7-15.1,2.4
	c-3-0.4-5.4-1.4-7.5-2.6c2.5-0.4,8.3-1.8,13-6.1c6.3-5.5,8.3-12.5,8.1-13.8c-0.2-1.2-17.5-1.6-30.5-20.3c-1.8-2.6-3.4-5.4-5.1-8.5
	l3.2-2.8c0,0,5.5,0.9,10.9-4.1c4.2-3.9,4.5-8.3,4.5-8.3s23.2-17.6,23.5-19.1c0.3-1.4-6.9-4.7-20.4-8.6c-2.9-0.9-5.4-1.5-7.8-2.1
	c0.2-3.6,0.6-11,0-11.6c-0.7-0.6-9.4-0.8-13.4-0.9c-0.4-4.1-0.9-8.9-1.3-12.5c-0.9-8.2-3.1-24.6-3.8-25.3c-0.7-0.6-13.9,3.6-22,6.6
	c-8,2.9-14.8,6.4-15.1,5.8c-0.2-0.6-0.9-5.1-2.7-11.8c-1.8-6.5-3.9-12.6-5.1-13.1c-0.8-0.3-9.2,19.4-15,33.5
	c-2.7-0.4-5.4,0.2-7.8,1.9c-2.7,2-4.4,5.2-4.7,9.1c-43.4-8.7-82.7,9-104.4,38.7c-24.2,33.2-16.8,77.7-2.6,103.9
	c6.3,11.5,13.3,19.9,20,25.9c-0.2,0.7-0.5,1.4-0.7,2.1c-15.1-6.2-30.5-13.2-31.7-14.6c-1.3-1.5-25.3-28.2-25.3-28.2
	c-3.9-10.3-4.6-23.6-5.5-24.5c-0.3-0.3-5.7-2.6-11.9-2.5c-3.4-9.5-2.1-20.8-4.5-22.9c-2.8-2.4-8.2,1.4-8.9,7.8
	c-1.5-5.1-2.6-10.2-4.5-13.7c-1.6-3-3.4-4.7-5.3-4.2c-0.6-1.2-1.3-2.1-2.4-2.4c-4.6-1.2-7.1,4.1-7.9,11.6s-0.1,13.9-0.2,14.2
	c-0.1,0.2-2.8-6.1-4.9-12.3c-2.1-6.3-4.5-9.8-7.8-7.4c-3.2,2.4-4.4,8.3-2.8,17.4c1.6,9.8,7.1,21.4,12.2,33.7c-5.7,5-9.4,4.8-14.7,9
	c-6.4,4.9-5.4,11.2-3.8,12.8c1.9,1.8,6.2,0,12.4-0.4c5.3-0.3,9,0.4,11.9,2.4c-6.9,6.6-12.1,12.2-9.8,23.8
	c3.1,15.5,17.3,9.6,20.5,17.5c2.2,5.4-4.3,9.4-1.3,18c4.3,12,16.1,4,19.1,10.9c2.2,5.2-2.3,11.5,1.5,17.9c6.7,11.3,24,8.5,24.2,7.6
	s-7.2-13.1-7.2-31.2c0-11.1,1.7-16.7,3.1-19.5c9,0.4,19.6,0.8,28.4,1.2c0.9,0.6,1.9,1.4,3,2.1c6.3,4.2,20.2,14.1,28.1,20
	c2.6,5.1,6.1,9.9,10.2,14c-1.8,4.1-4.8,13.1-3.8,26.1c1,14.6,11.4,31.1,19.9,40.2c-2.8,10.3-6.8,34.1-4.1,72.1
	c3,44.1,19.1,90.3,30.4,113.5c-17,5.4-41.6,48.8-19.6,97.6c11.4,24.9,36,41.7,55.8,45.4c2.6,0.5,5.2,0.8,7.9,0.9
	c0.6,3.9,2.5,10.2,9,14.4c9.3,6.1,16,6.5,19,6.3c1.2,2.4,2.8,5.1,5.1,8.1c6.1,7.7,16.7,12.2,27.6,13c8.5,0.6,17-1.1,22.8-4.9
	c9.3,9.5,20.7,14.1,32.1,14c23.4-0.3,32.8-16.7,32.8-16.7s15.9,11.4,37.1,4.4c12.8-4.2,15.4-19.2,15.4-19.2s15.9,5.7,30.6,0.2
	c8.5-3.2,12.1-9.5,13.5-13.3c36.5-2.8,72.6-14.2,98.5-39.4c52.5-51.2,63.8-125.4,27.5-191.6c-19.3-35.1-42.9-53.7-66.6-62.8
	c-15.6-6.1-31.8-8.8-47.9-8.1c-0.7-1.2-1.4-2.2-2.3-3.1c2-2.4,3-5.4,3-8.6c-0.1-4.1-1.4-8-5.3-11.2l-0.4-0.3
	c-4.5-3.8-6.6-5.9-4.8-10.4c4.7,0.6,10.2,0.4,17.5-0.8c18.5-3,25.1-0.4,27.1-2c1.3-1.1,2.1-4.9-1-8.5l121.5-45
	c-1.4,11.2-1.6,20.2,0.3,21.2c2.2,1.2,12.1-5.3,22.3-13.2c10.6,5.8,22.3,11.3,23.7,10.1s0.4-12.9-4.1-27.4
	C739.4,302.4,747.6,290.9,747.2,289.5 M56.7,220c-4.7,0.6-6.5,2.2-7.4,1.2s0-5.1,5.9-8.1c6-2.9,10.5-4,14.1-8.9
	c0,0-2.2-6.5-7.2-17.4c-5-11-7.2-19.3-7.1-25.4c0.1-6.2,2.9-5.6,3.5-3.4c1.9,6.9,5.2,14.6,8.2,19.2c2.9,4.5,5.4,4.8,5.9,4.5
	s-0.3-3.3-1-13.5c-0.8-10.2,1.3-18.6,3-17.9c1.7,0.6,1.6,8,3.2,17.9c1.6,10,4.7,11.8,5.1,11.8s0.4-4.1-1.6-12.7
	c-1-4.2-1.2-9.3-1.8-13.4c1.1,0,2.2,1.5,4.3,9.4c2.7,9.9,6.8,16.8,7.7,16.4c0.6-0.2,0.1-2-1.2-6.4c0.4-7.5,2.1-11.7,4-10.8
	c1.4,0.6,1,5.6,1.5,10.6c0.4,3.5,0.8,6.3,1.5,8.4c-3.1,0.7-6.4,2.1-8.9,5c-10.6,11.8-0.6,20.3-9.1,30.5c-1.7,2-3.5,3.8-5.2,5.5
	C66,219.1,61.3,219.4,56.7,220 M115.8,317c-0.6,0.1-6.3,1.4-10-3.7c-5.2-7.4-0.8-13.3-2.6-18c-4.3-10.8-14.6-3.5-18.7-9.6
	c-4.2-6.3,3.6-12.7,0.9-19.6c-3.5-8.8-16.9-6.2-19.4-15.5c-2.8-10.9,3.1-16.2,7.6-20.3c4.4-4.1,10.1-8.9,13.8-16.6
	c3.7-7.8-1.4-14.4,3.5-22c5.6-8.9,16.4-5.1,17.1-4.6s0.4,7.8,4.9,21.7c-2.7-0.8-8.6-0.9-15.1,4.4c-10.5,8.5-10,23.9-8.9,35.9
	c0.9,9.2,4.2,15.2,6.3,17c-0.5,0.9-0.3,2.3,4.6,3.7c2.4,0.6,7.5,1.1,13.9,1.5c-1.6,3.4-4.1,11-2.9,22.3
	C112.7,309.5,116.3,316.8,115.8,317 M141.7,263.7c-0.4,0.5-0.2,1.7,0.9,3.3c-18.3-0.4-42.4-1.9-46.1-1.6c-1.3-3.4-5.3-13.4-4.3-30.5
	c1.3-22.8,17.7-24.4,21.8-24.8c11.8,14.3,24.8,29.7,27.1,31.1c1.9,1,25.5,12.4,33.3,16.1c-1.7,9.2-1.2,18.7,1.3,27.5
	C154.3,270.6,142.1,263,141.7,263.7 M510.7,331.9c0.4-0.5,0.8-1.1,1.1-1.7c2.6,1.3,3.5,3.4,3.8,4.7c-4.4,1.9-9,4.2-14.3,7.3
	c0.2-0.6,0.4-1.2,0.7-1.8C504.1,335.8,508.5,334.5,510.7,331.9 M351.4,133.9c-2.1,1.8-4.8,2.9-7.1,2.9c-1.2,0-2.2-0.3-2.7-0.9
	c-1.3-1.5-0.8-5.6,2.9-8.9c2.1-1.8,4.5-2.9,6.8-2.9c1.5,0,2.7,0.5,3.3,1.4C355.6,127,354.6,131.2,351.4,133.9 M357.1,123.6v0.2
	c-1-1.6-2.9-2.4-5.2-2.4c-2.7,0-6.6,1.4-9.1,3.6c-4.5,4-5.4,10.3-3.3,12.9l-1.3,1.2c-1-1.9-2-3.8-3.1-5.7l1.5-2.6
	c0,0,0.4-12.2,0.9-12.8c0.8-0.9,12.9,1.5,12.9,1.5s13-2.6,13.9-1.4C360.5,121,357.1,123.6,357.1,123.6 M349.5,91.8
	c0.4,0.3,0,3.6-0.4,5.7c-4-0.9-6.4-1.4-6.6-1.6c-0.1-0.2-0.3-1.9-0.6-4.3C346.4,91.4,349,91.4,349.5,91.8 M290.4,50.6
	c0.4,0.1,1.6,4.2,2.5,9.4c0.9,5.1,1.6,8.5,1.9,8.9s6.4-2.9,16.7-7.1c10.1-4,18.9-6.8,19.3-6.7s1.7,8.1,3.6,23
	c1.8,14.2,2.8,21.9,2.9,22.6c0.2,0.7,6.6,1.9,17.7,4.7c11,2.7,17.5,4.4,17.5,5.2c0,0.3-2.5,2.4-5.4,4.8c-1.6-0.4-9.7-0.4-17.5,1.7
	c-5.7-1.4-10.5-2.1-12.9-2.1c-1.7-2.4-5.9-7.8-11.8-12.7c-0.3-2.3-1.9-7.9-4.6-14.2c1.8-7.6,2.3-18,1.5-18.6
	c-1.1-0.6-11.7,4.2-18.4,9.1c-5.4-0.3-11.5,0.8-13.1,1.5c-6.3-2.9-10.5-1.1-10.4-0.4s3.2-0.1,10.2,2.4c0.5,1.9,1.7,5.1,3.1,8.1
	c-4.3-2.2-9.2-4.2-14.4-6.1c-0.8-0.3-1.7-0.5-2.5-0.8C279.6,75.7,290,50.5,290.4,50.6 M334.4,130.3c-0.2,0.3-0.4,0.6-0.6,0.9
	c-5.1-9-11.3-18.7-20.7-27.2c3.7,0.1,8.1,0.2,10.3,0.1c5.5,4.5,9.7,9.8,11.5,12.2C334.3,118.5,334.3,125.2,334.4,130.3 M314.8,93.8
	c2-3,2.6-7.2,1.8-10.1c-0.5-1.6-1.3-2.7-2.5-3.3c-3.5-1.7-8.8,0.4-12.1,5.2c-1.5,2.2-2.5,5.4-2.2,8.3c-1.2-0.8-2.5-1.6-3.9-2.3
	l0.3,0.1c0,0-3.7-9.2-3.4-9.8c0.3-0.6,11.1-0.8,11.1-0.8s15.4-8.9,16-8.5s-1.8,15.6-1.8,15.6s4.8,12.8,4.4,13.2
	c-0.3,0.3-8.5,0-12.3-0.1c-0.9-0.7-1.7-1.4-2.6-2.1C310.2,98.6,312.9,96.8,314.8,93.8 M303.9,96.6c-0.2-0.1-0.3-0.2-0.5-0.3
	c-1.9-1.6-1.1-6.3,1-9.3s4.7-4.8,7-4.8c0.6,0,1.1,0.2,1.6,0.4c0.8,0.4,1.1,1.3,1.3,1.9c0.5,1.9,0.2,5-1.7,8
	C310.2,96.1,306.3,97.9,303.9,96.6 M270.9,74.3c1.2-0.9,2.3-1.3,3.5-1.1c-1.6,3.9-2.8,7.1-3.5,8.7c-1-0.2-1.9-0.5-2.9-0.7
	C268.1,78.4,269.2,75.7,270.9,74.3 M152,189.3c-10.8-52.3,25.2-83.8,47.4-94.7c22.1-10.9,62.1-17.8,99.6,6.9
	c37.2,24.5,33.4,64,69.4,74.5c0,0-2.9,9.6-17.6,13.1c-1.9-1.9-3-3.6-3.4-3.3c-0.8,0.5,0.1,7.3,7.2,12.1s16.3,2.1,16.8,2.4
	c0.7,0.4-0.9,16-13.3,22.3c-12.3,6.3-21.1,3.5-21.6,3.8c-0.3,0.2,3.6,4.9,11.9,4.6c6.3,9.3,3.8,22.3,5.4,33.1
	c1.6,11.3,8.4,18.4,16,16.4c7.7-1.9,11.8-11.2,12.2-14.9c0,0,4.4,2,5.2,8.3s0,7.8,0,8.2s6.9-1.1,10.1-8.5c3.1-7.4,2.3-14.4,2.3-14.4
	s4,0.9,7.8,4.8c2.4,2.5,4.8,6.3,5.7,11.9c1.3,8.7-0.4,14.9-2.8,19.2c-3.9,6.8-9.9,9-10.1,9.7c-0.1,0.5,4.6,0.9,9.3-2.1
	c8.1,4.5,8.4,14.8,20.8,18.1c13.1,3.4,29-11.7,25.3-29.2c0,0,9.6,1.6,13.7,17.8c2.8,11.1,2.1,18.2,1.4,21.5c-4.9,0-11.7,0-20.6-0.2
	c-20.5-0.4-34.7-2.9-36.9-3.5c-1.9-0.5-18.5-9.2-27.8-14.8c2.1-3.3,2.9-5.6,2.8-6.1c-0.4-1.1-10.7-6.7-23.2-15
	c-6.1-4-10.3-7.1-14.4-8.4c-6.2-2-11.5-0.5-15.8,1.7c-1.4-1.2-2.8-2.5-4.4-3.7c-3.9-2.9-8.1-4.1-12.6-4.5c2.5-1.9,5.1-4,7.6-6.3
	c13.5,7,27.8,11.7,29,10.1s-7.6-10.7-20.6-20.5c4.2-6.2,9.2-16.7,8.6-17.4c-1-1.2-10,2.8-20.4,10.1c-4.9-2.8-10.2-5.1-14.8-6.9
	c2.6-0.5,12.7-2.9,18.2-11.6c6.1-9.6,2.5-18.6-3.8-17.2c1.3-2.7,1.8-4.6,1.4-5.2c-0.2-0.3-2.3,4.4-13.5,15.7
	c-12.3,12.4-23.2,17.2-24,16.7c-0.4-0.3,8.4-7.9,15.5-21.4c4.8-9.2,7.2-19.1,8.1-23.3c4.6,5.6,7.9,6.3,8.2,6
	c0.6-0.5-15.6-17.8-25.1-64.1c1.9-3.4,2.8-6.8,2.2-6.9c-1.2-0.3-6.3,10.3-37.1,30.3c-30.9,19.9-56.3,43.9-62,91
	C195.2,255.2,162.1,238.8,152,189.3 M391.3,374c-29.7-6.7-45.2-22.5-50.9-29.8c3.2-0.9,6.5-2,9.5-3.3c5,1.3,13.5,3.5,22.6,5.7
	c15.1,3.7,27.3,5.9,34.2,8.2c8.2,2.6,20.9,8,35.1,15.7C432.4,374.6,415.3,379.4,391.3,374 M448.4,374.1
	c21.8,12.3,36.5,23.2,37.5,23.7c1,0.6,12,9.3,21,16.4c-19.5,5.7-29.7,15.1-33.9,19.9c-23-14-46.6-30.7-82.6-44.9
	c-37.3-14.8-64.7-18.4-86.5-20.6c4.5-7.2,9.2-13.5,15.8-20.8c4.7-0.4,9.5-1.1,14.1-2.1c4.8,6.9,21.2,26.5,56.2,34.3
	c7.7,1.7,14.8,2.4,21.4,2.4C428.5,382.5,441.4,377.6,448.4,374.1 M278.3,339.1c-4-3.6-11.9-9.1-21-12.9c-0.1-1.3-0.3-2.5-0.5-3.7
	c20.6,1.6,51.7-4,69.5-14.1c18.4-10.4,20-18.7,19.6-19c-0.2-0.2-1.7,0.9-4.2,2.7c-0.8-1-1.9-2.5-3.4-4.1c10.9-4.7,16.6,2.2,26,8.7
	c11.3,7.8,16.2,10.2,16.8,11.1c0.5,0.9-7.2,13.6-26.2,24C336.5,341.7,315.9,345.2,278.3,339.1 M207.5,319c0.6-1.1,11.4-1.2,19.9,1.1
	c8.1-8.6,17.6-13.8,18.9-13.5c1.2,0.3,5.8,11.2,6.7,22.2c13.1,5.7,21.2,13.2,20.9,14.1s-8.8,6-20.6,10.1c-1,10.8-5.6,21-6.7,21.2
	c-1,0.2-10.4-6.7-17.2-14.8c-9.9,2.2-14.7,2.6-15.3,1.8c-0.6-0.8-0.7-11.5,0.6-22.4C209,330.1,207.1,320.1,207.5,319 M211.3,258.7
	c4.3,4.2,8.8,7.8,12.7,10.4c2.2,6.7,4.6,17.5,3.9,17.6c-0.8,0.2-5.9-6.8-11.5-17.8c-7.1,1.8-18,4.1-18.2,3.3
	c-0.4-0.9,6.5-5.2,14.5-8.6C212.2,261.8,211.7,260.1,211.3,258.7 M211.4,274.7c0.8-0.1,1.7-0.3,2.6-0.5c5.4,9.3,15.4,21.3,16.8,20.9
	c1.3-0.4,1.3-10.3-1.5-22.1c4.6,2.7,8,4,8.4,4c0.8,0,4.7-0.3,10.9-2c0.6,13.5-0.5,20.6,0,20.8c0.5,0.2,5.6-3.8,4.8-22.3
	c2.2-0.7,4.5-1.6,7.1-2.6c17.2-7.2,19.9-15.2,19.5-15.6c-0.4-0.3-9.2,5.8-20.1,10.2c-10.9,4.3-21.8,6.2-22.8,6.1
	c-0.9-0.1-20.5-10-33.8-31.1c0.9-3.8,2.1-7.9,3.7-11.9c6.8-17.5,15.3-32.4,37.6-49.1c8.8-6.7,16.5-12.1,23.2-16.8
	c0.6,0.3,4-0.6,11-2.2c7.6-1.8,11.4-0.9,11.5-1.4c0.1-0.4-3-1.7-11.5-0.6c-2.9,0.3-5.1,0.8-6.9,1.3c7.6-5.4,13.3-10,17-14.3
	c0.3,4.6,1.4,14.3,6.4,27.7c-0.7,0.8-2.7,3.8-7.3,5.1c-2.2-2.4-5.3-4.1-9.5-4.5c-11.1-0.9-19.7,4.5-24.1,12.2s-3.9,13.3-3.3,13.3
	c0.1,0,0.1-0.1,0.2-0.3c0.9-1.7,3.6-12,11.7-17.1c5.8-3.6,13-4.7,17.8-1.8h-0.2c-3.5,0.4-8.9,5.5-9.5,15c-0.4,5,0.7,9.1,2.8,11.4
	c1,1.2,2.3,1.8,3.7,1.9c0.1,0,0.2,0,0.3,0c2.8,0,5.6-2,8-5.4c1-0.7,2.1-2,3.2-4.1c0.2,0.6,0.7,1.5,2,2.1c2.4,1.1,5.9-2.1,5.6-2.5
	s-3.4,0.8-6.8-1.8c0.3-0.9,0.6-1.8,0.9-2.9c0.4-1.2,0.5-2.5,0.6-3.8c7.4,1.2,7.8-4.5,7.5-5.5c-0.2-0.9-1.5,3.4-7.7,1.9
	c-0.3-1.8-0.8-3.7-1.7-5.3c4.3-0.4,5.5-4.7,5.7-6.9c0.4,1,0.7,1.9,1.1,2.9c3.3,8.3,6.5,14.2,9.3,18.5c-1,5.1-3.7,14.6-11.4,27.8
	c-11.6,20.1-25.8,27.9-25.1,28.6c0.5,0.5,8.9-0.2,19.5-5c-2.5,3-4.6,8.4-4.9,15c-0.4,10.3,0.1,18.5,0.1,18.5
	c7.8,0.6,14.2,0.4,20.5,0.4c-0.8,2.3-1.2,3.8-0.8,4c0.6,0.3,3.6-1.2,7.7-3.8c2.5,0.2,5,0.4,7.7,0.8c9.2,1.4,15.9,10,18.4,13.5
	c-2.7,1.9-6.2,4.1-10,6.6c-10.7,6.5-37,17-71.8,15.9c-2.1-8.5-5.4-15.7-6.7-16.2c-1.2-0.6-8.8,2.5-16.4,8.5
	C213.7,302.4,208.5,285.7,211.4,274.7 M284.6,201.1c-2,3.1-4.2,4.8-6.5,4.8c-0.8,0-1.7-0.4-2.4-1.2c-1.7-1.9-2.6-5.4-2.3-9.8
	c0.5-8.5,5.2-12.7,7.6-13c1.1-0.1,2.3,0,3.3,1.1c0.3,0.5,0.6,1,0.8,1.6C288.1,191.5,285.9,197.9,284.6,201.1 M296.4,242.7
	c4.6-2.8,9.4-6.5,13.9-11.1c4-4.2,7.2-8.4,9.4-11.9c3.8,0.3,6.7,2.7,2.6,10.7s-14.4,12-22.8,12.7
	C298.4,242.9,297.3,242.7,296.4,242.7 M322.9,256.8c6.1-5,13-9.9,13.6-9.4c0.6,0.6-1.9,5-8.2,13.2c10.6,6.6,19.8,14.9,19.3,15.3
	c-0.4,0.3-9.4-2.9-23.5-10.4c-5.9,5.6-12.5,11.1-13,10.5s1.5-5.3,8.1-14.4c-13.4-8.4-21.4-15.2-21.1-16.1
	C298.4,244.6,309.8,249.4,322.9,256.8 M313.6,263c-2.8,4.5-5.2,9.2-7,13c-8-0.1-17.5-0.7-17.5-0.7c-0.6-13.5,0.1-20.4,2.7-24.4
	c1.4-2.1,3-3.5,4-4.2C298.5,250.5,304.7,256.6,313.6,263 M181.3,252.7c10.2,8.1,18.3,10.5,18.4,10.4c0.2-0.2,0.4-6.7,2-15.5
	c1.5,2.1,3,4.1,4.6,5.9c0.5,2.1,1.2,5,2.2,8.2c-10.8,5.1-16.3,11.2-16,12.3c0.3,0.9,5,2.1,13.8,1.1c-3.5,14.7,6.2,30.7,22.2,38.3
	l-2.1,2.1c-7.9-2.3-17.8-2.2-21.7-1.5C181.2,299.5,175.1,272.7,181.3,252.7 M220.6,508.4c-12.8-44.6-16-92.9-9-127.9
	c0.2,0.1,0.4,0.3,0.6,0.4c8.5,5.9,10.3,5,10.4,3.8c0.2-1.2-7.8-6.1-19.4-23.1c-11-16-13.3-32.6-7.9-48c2.4,1.8,5,3.4,7.8,4.9
	c0.5,5.3,2.2,14.4,6.7,20.9c-1.3,12.7,0,24.5,1.4,25.6s7.6,1.1,16.8-1.6c6.4,9.5,18.6,16.4,20.1,16.1s7.6-9.9,10.1-23.8
	c10.3-3.5,18-8.5,21.4-11.4c9.5,2.3,19.7,3.6,30.1,3.6c-9.4,12.2-19.5,28.1-21.3,36.4c-6.8,7.3-11.7,9.1-25.3,9
	c-15-0.1-28.7-13.8-30.9-13.8c-1,0-2.2,1.2-3.6,2.3c-1.8,1.3-3.7,2.5-3.6,2.9c0.2,0.7,3.2,0.6,7-2.3c0,0,10.3,10.4,23.8,13.7
	c15.5,3.7,27.4,0,33.3-7.5c0.2-0.1,0.4-0.1,0.7-0.3c3-1.7,4.7-4.2,10.3-13.3c41.5,2.8,76.3,14.7,105.3,28.5
	c34,16.3,71.9,41,85.5,48.4c17.4,9.4,34,8,33.2,6.4c-0.7-1.4-12.2-3.7-32.1-13.9c10.7-5.2,40.6-14.9,77.9,15
	c44.4,35.7,65,115.5,26.3,163.5c-37.7,46.6-110,53.9-170.2,39.5c-58.6-14-103.4-62.7-105.2-61.6c-0.6,0.4-0.5,1.3,0.3,2.8
	c-1.3,8.9-5.6,32.5-22.6,49.6c-18.3,18.5-43.6,9.1-54.7-10.4c-10.7-18.7-9-50.1-0.7-62c4.5,7.7,7.3,10.5,8.2,9.7
	C252.7,589.6,234.6,557.2,220.6,508.4 M489.5,720.6c-7.4-0.3-16.1-3.4-16.8-3.1c-0.8,0.2-1.6,14.1-16.4,19.3
	c-16.2,5.6-32.7-4.8-33.6-4.9c-0.9-0.1-7.6,14.2-27,15.7c-23.1,1.8-35-14.8-43.6-28.3c-6-9.6-14.2-31.3-15.5-31.1
	s1.2,14.4,11.2,35.9c2,4.3,4.2,8.2,6.8,11.6c-14.8,6.1-27.8,3.2-38.3-6.4C305,719,305.2,711,303.5,711c-0.9,0-2.1,2.8-1.4,7.5
	c-12.1-1.7-15.4-9.2-16.2-13.8c10.2-1.3,19-5.5,24.5-12c22.1-25.8,20-58,21.7-58.5c1.6-0.5,20.4,36.9,80.7,61.5
	c24.9,10.2,60.5,17.3,97,16.3C504.3,719.1,495.3,720.9,489.5,720.6 M535.3,416.9c32.8-0.1,77.7,14.1,105.1,66.5
	c34.3,65.6,25.7,129.1-26.4,181.9c-52.8,53.6-160.3,43.4-211.7,18.3c-53.7-26.2-72.8-64.4-73.6-63.6c-0.9,0.8-1.9,19.4-9.5,41.5
	c-7.6,22.2-20.6,41.1-52.8,34c-32.4-7.2-60.6-45.8-53.6-87.6c4.7-28.2,16.8-36.8,23-39.4c1.5,2.8,2.8,5.3,4.1,7.6
	c-7.5,8.8-18.8,49.7,3.1,77.5c10.4,13.1,23.6,17.4,34.1,17.1c15.5-0.4,27-10.8,34.4-22.1c9.9-15.3,12.5-33.2,13.2-39.6
	c3.1,3.6,7.9,8.4,14.1,14c19.2,17.3,52.4,38.3,83.8,46.5c47.8,12.3,111.8,11.4,155.8-21.1s56.2-81.6,36.2-133.6
	c-21.6-56.2-58.1-75.8-84.9-79.6c-21.2-2.9-35.8,3.5-42.3,7.3c-1.8-1-3.7-2-5.6-3.1c-0.9-0.5-1.8-1-2.6-1.5
	c4-4.9,13.7-13.1,34.4-18.2c7.8,6.4,14.6,12.3,15.3,12C529.3,431.5,536.6,426.7,535.3,416.9 M527.9,423.6c0,0-17.7-14.6-40.5-31.6
	c-2.6-5.1-6.7-15-7.9-28.6c-1.8-20.1,2.5-24.2,1.6-24.7l0,0c-0.9-0.3-7,6-4.8,25.5c1.2,11.3,4.6,19.9,7.4,25.2
	c-22.7-16.3-54.2-33.3-74.8-39.8c-12-3.8-28.2-6.7-50.3-12.7c11.4-6.3,19-13.6,23.6-19.6c15.1,9.4,27.2,14.5,29.8,15.4
	c2.7,0.9,18.9,3.1,40,3.8c20.5,0.7,28.9,0.7,30.2,0.2h0.1c0.7-0.6,11.1-9.6,21.6-21.8c0,0,5.5,1.9,4.6,9.3c-0.4,3.2-1.8,5.6-4,7.2
	c-2.4,1.6-4.8,4-6,6.1c-1.5,2.8-2.9,7.1-2.6,11.3c0.1,1,0.2,2.1,0.4,3.1c0.3,1.4,0.6,2.8,1.1,4.2c0.9,2.3,2.1,4.5,3.6,6.8
	c5.7,8.1,8.5,14.9,4.8,22.5c-3.5,7.3-1.6,13.9,6.7,16.8c8.4,3,15.2,6.1,16.8,11.5C531,419,529.6,422.1,527.9,423.6 M524.6,389.9
	l0.4,0.3c2.4,2,3.7,4.8,3.7,7.8c0,1.5-0.6,3.3-2.2,5.2c-2.6-1.6-5.4-2.8-8.4-4c-7.5-3.1-10.4-6.7-6.9-13.3c1.9-3.6,2-7.8,0.5-12.5
	c2.3,0.8,4.5,1.4,6.8,1.9C516.4,382.4,520.5,386.2,524.6,389.9 M562.3,369.6c-1.7-0.3-10.9-0.9-20.9,0.6c-9.7,1.5-16.6,3.2-31.6-1.4
	c-1.2-2.4-2.7-5-4.5-7.9c-3.4-5.3-4.9-9.7-4.9-13.7c8.7-4.7,16.6-8.3,23.9-10.4c13.1-3.9,17.5-2.4,18.6-1.8c0.4,0.2,0.6,0.5,0.7,0.8
	c-1.3,0.7-2,1.5-1.9,1.8c0.3,0.6,5.7-1.1,10.2,2.2c-2.4,1.1-3.9,2.8-3.6,3.2c0.6,0.7,9.9-1.8,11.5,2c-3.9,1.3-5.7,2.9-5.1,3.3
	c0.9,0.5,15.8-3.3,18.6,1.3l-23.4,8.8c-3.8,0.3-5.6,1.7-5.6,2.3c0,0.9,5.8-0.6,13.8,2.7C565.8,366.9,564.1,370,562.3,369.6 M689,315
	l-126.2,46.6c-1-0.5-2-1-3.2-1.4c-0.6-0.2-1.2-0.4-1.8-0.6l129.7-48.1c0.6,0.5,1.2,1,1.8,1.5C689.2,313.7,689.1,314.3,689,315
	 M731,332.8c-0.6,0.5-12.3-5.2-20.7-9.9c-10,8-17.7,12.8-18.5,12.3c-0.8-0.4-0.4-12.5,1.8-24.1c-10.7-7.7-18.9-16.4-18.7-16.8
	s10.9-2.3,23-2.1c3.2-11.4,6.9-20.1,7.7-20.1s7.7,8.1,12.4,18.3c11.1-0.4,22.4,0.7,22.8,1.3c0.3,0.6-7.6,11.1-15.3,17.7
	C730.4,322.6,731.5,332.3,731,332.8 M231.4,218.6c0.2-1-0.9-1.4-2.4-2.8c-1.5-1.5-3.2-4.6-3.8-4.1c-0.8,0.6-0.9,4.5,1.1,6.6
	C228.4,220.1,231.2,219.6,231.4,218.6 M225,396.3c-0.8-0.5-3,2.2-2.3,13.8c0.7,11.6,4.3,21.2,4.9,20.8c0.7-0.4-0.1-5.4-1.1-16.7
	C225.5,402.8,225.7,396.7,225,396.3 M730.2,296.4c-0.2-0.6-8.4-1.1-15.5-1.1c-3.6-7-7-11.7-7.8-11.6s-3,6.2-5.1,12.9
	c-5.6,0.2-14.4,0.6-14.7,1.5c-0.2,0.8,6,5.6,13,10.9c-2.1,7.1-3.8,15.7-2.7,16.3c1.1,0.6,8-4.4,13-8.4c5.8,3.7,12.8,7.2,13.5,6.6
	s-1.2-8.1-3.4-15.2C724.8,304.4,730.6,297.2,730.2,296.4 M719.2,318.6c-0.3,0.2-5.8-2.9-10-5.2c-4.9,3.9-7.8,6.2-8.2,5.9
	c-0.3-0.2,1.2-5.7,2.5-11.2c-5.1-3.8-9.6-7.4-9.5-7.6s4.6-1.1,10.6-1c1.6-5.6,2.7-10,3.1-10c0.4,0,2.9,3.8,5.2,8.9
	c5.5-0.2,11.2,0.4,11.4,0.7c0.2,0.3-4.1,4.8-8,8.1C718.9,313.6,719.7,318.2,719.2,318.6 M231.3,231.4c4-1.5,9,3.6,9.4,3.4
	c0.1,0,0-0.1,0-0.3c-0.4-1.2-4.2-6.6-9.8-5.3s-3.8,7.6-3.3,7.9c0.1,0,0.1-0.2,0.2-0.4C227.9,235.6,228.1,232.6,231.3,231.4
	 M245.3,238.4c-1.6-0.6-1.2,0.6-1.2,0.6s-0.5,0.3-1.6,0.6c-1.3,0.4-3.5,0.9-6.9,1.1c-4.6,0.3-6.2-1-6.9-1.6
	c-0.3-0.2-0.4-0.3-0.5-0.2c-0.6,0.7-0.4,2.8,2.1,3.6c0.9,1.9,1.6,5,3.5,6.7c1.2,1.1,2.8,1.6,5.2,1.1c2.6-0.6,4.6-2.4,5.8-4.1
	c1.1-1.4,1.7-2.7,1.7-2.7s1.1,0.1,1.1-1C247.6,241.2,246.9,239.1,245.3,238.4 M244.8,242.3c0,0-2.5,5.1-7.7,5.2
	c-3.4,0-4.5-4.6-4.5-4.6s4.1,1,12.2-2.3C244.8,240.6,245,241.3,244.8,242.3 M296.8,420.2c0.1-1.1-2.1-4.5-4.9-8.5
	c-2.9-3.8-7-8.4-7.8-8.2c-0.6,0.1-1.5,2.3,2.3,7.1C290.3,415.4,296.7,421.3,296.8,420.2 M281.3,189c-0.3,0-0.5,0.1-0.8,0.2
	c0,0.3-0.1,0.7-0.2,1.1c-0.4,1.3-1.1,2.2-1.8,2.6c-0.1,0.1-0.2,0.1-0.3,0.2l0,0c-0.1,0.3-0.2,0.7-0.2,1.1c-0.5,2.7,0.3,5.1,1.7,5.2
	c1.5,0.1,3-2.2,3.4-5.3C283.5,190.9,282.6,189.1,281.3,189 M312.1,386.4c3.9,0,6.4,0.3,6.6-0.4c0.1-0.7-4.4-2.7-9.3-2.6
	c-4.8,0.1-5.6,1.9-4.9,2.9C304.9,387,308.2,386.4,312.1,386.4 M301.3,449.5c0.7-0.8-3-5.4-13.4-20.7c-10.4-15.2-13.1-21.8-14.5-21.9
	c-1.5-0.1-0.7,7.1,8.7,21.1C291.5,442.1,300.7,450.4,301.3,449.5 M237.7,258.1c-5.3-0.4-4.8-5.8-5.2-6.2c0,0-0.1,0-0.2,0
	c-0.5,0.3-1.2,2.6,0.3,5.8c1.5,3.2,6,3.7,9.3,1.9c4.2-2.3,4.7-7.8,4.1-8.2c0,0-0.1,0.1-0.2,0.2C245.1,253,242.8,258.5,237.7,258.1
	 M553.6,196c3.8-0.6,5.1-6.8,3.4-19.2c-2-14.4-5.6-18.5-9.8-17.8c-3.5,0.5-6.3,5.2-4.5,19.3C544.3,191.4,549.6,196.6,553.6,196
	 M548.2,167.6c2-0.3,3.9,2.2,4.3,5.2c0.4,3-0.5,5.4-2.5,5.7s-4-1.9-4.4-4.9C545.2,170.6,546.2,167.8,548.2,167.6 M474.4,208.6
	c0.7,2.5,1.4,4.9,2.3,7.5c11.5,32.5,42.6,52.1,54.7,48c5.2-1.7,6.7-10.1,7.1-14.5c2.5-0.1,5.2-0.2,8.3-0.6c17.2-2.1,28-7.6,28-7.6
	c8.7,8,18.7,12.5,22.9,10.8c5.2-2.1,9.8-10.1,11.5-23.5s-0.2-31.5-0.2-31.5c26-19.9,29.5-45.5,24.4-51.9c-5-6.3-25.2-5.3-43,3.9
	c-1.4-2.5-3-5.1-5.1-7.8c-12.5-15.8-25-24.4-28.4-31c-3.6-6.9,2.5-11.2,7.5-8.2c4.9,3,9.7,4.9,9.7-5.1c0-10.1-6.8-21.8-28.5-15.9
	c-22.7,6.2-44.5,30.8-59.8,56.7c-4.6,7.9-8.1,15.5-10.5,23.3c-15.9-2.4-30.4-4.2-35,5.5c-1.6,3.3-1.2,8,1,13.1
	C445.1,189,456.5,202.2,474.4,208.6 M491.8,139.1c20.9-35.7,47.3-53.8,62.6-54.1c15.8-0.2,15.1,12.6,14.4,13.2
	c-2.3,1.9-4.3-3.5-11-2.6c-5.6,0.8-11.4,9-4.9,19.3c6.7,10.6,20.5,17.9,31.1,35.4c10.6,17.4,11.4,22,12.3,21.8
	c0.6-0.1,1.2-7.1-2.7-16.6c13.3-8.3,31-9,34.3-5.6c3.4,3.4,0,14.7-5.6,24.2c-5.7,9.4-20.3,20.8-20.3,20.8
	c5.3,26.4-1.1,49.9-7.4,50.8c-6.3,1-19-11.9-19-11.9s-11.7,6.8-31.8,8.9c-20.1,2.1-28.6-2.4-28.9-1.1c-0.3,1.4,4.8,6.7,17.3,7.9
	c-0.2,4.9-1,7.8-3.3,9c-2.9,1.5-23.7-5.1-38.6-28.9C475.3,205.4,471,174.8,491.8,139.1 M446.1,169.8c2.3-4.9,13.1-4,27.3-1.9
	c-2.4,10.8-2.6,21.6-0.7,32.7c-13.9-5.9-22.4-15.9-25.5-23.2C445.6,173.5,445.6,170.9,446.1,169.8 M507.8,200.2
	c4-0.4,4.2-6.3,3.7-18.2s-2.1-18.9-6.2-18.9c-3.2,0-7.6,6-7.1,18.8C498.8,194.8,502.4,200.7,507.8,200.2 M505.2,171.6
	c2,0,3,2.7,3.1,5.7s-0.8,5.3-2.9,5.3c-2,0.1-3.7-2.4-3.8-5.4C501.5,174.3,503.1,171.7,505.2,171.6"/>
</svg>
