<?xml version="1.0" encoding="utf-8"?>
<!-- Generator: Adobe Illustrator 21.1.0, SVG Export Plug-In . SVG Version: 6.00 Build 0)  -->
<svg version="1.0" id="Warstwa_1" xmlns="http://www.w3.org/2000/svg" xmlns:xlink="http://www.w3.org/1999/xlink" x="0px" y="0px"
	 viewBox="0 0 792 792" enable-background="new 0 0 792 792" xml:space="preserve">
<g>
	<path d="M750.3,305.6c4.6,4.7,6.7,11.8,5.2,18.3c-1,4.5-3,8.7-5.3,12.6c-4.1,6.9-9.1,13.3-14.2,19.5
		c-11.3,13.3-23.6,25.7-36.1,37.9c-23.2,22.4-47.3,43.9-71.8,65c-12.3,10.7-24.8,21.1-37.4,31.6c8.6,34,16.6,68.2,23.6,102.6
		c3.3,16.1,6.4,32.2,9.1,48.4c2.9,17.8,5.5,35.6,6.4,53.6c0.3,8.3,0.4,16.6-1.1,24.8c-0.9,4.6-2.3,9.3-5.4,13
		c-3.6,4.2-9,6.7-14.5,6.9c-8.3,0.3-16.4-2.1-24.3-4.7c-14.6-5-28.5-11.6-42.3-18.3c-24.8-12.4-49-26-72.9-39.9
		c-24-14-47.8-28.4-71.4-43.2c-0.4-0.3-1-0.5-1.4-0.1c-28.7,18-57.7,35.5-87.1,52.3c-14,8-28.1,15.8-42.4,23.3
		c-14.3,7.4-28.7,14.6-43.5,20.8c-8.4,3.4-17,6.7-25.9,8.7c-5,1.1-10.2,1.8-15.3,1.1c-5.8-0.9-11.1-4.6-14-9.7
		c-2.4-4.3-3.4-9.3-4-14.2c-1.2-11.7-0.4-23.4,0.7-35.1c2.7-26.6,7.6-52.9,12.8-79c7.5-36.6,15.9-73,25.1-109.2
		c-22-18.4-43.8-37.1-65.1-56.2c-19.9-17.8-39.6-36.1-58.4-55.1c-10-10.3-19.8-20.7-28.7-32c-4.1-5.3-7.9-10.7-11-16.7
		c-1.9-3.9-3.6-8-3.9-12.4c-0.4-6.1,2.2-12.3,6.8-16.3c5.2-4.5,11.7-7.2,18.1-9.6c8.5-3,17.2-5.2,25.9-7.1c17-3.7,34.2-6.3,51.5-8.7
		c35.5-4.7,71.1-8.1,106.8-10.9c10.1-0.8,20.3-1.5,30.4-2.1c11-27.4,22.3-54.7,34.3-81.7c11.9-26.8,24.2-53.5,38.2-79.3
		c6.7-12.1,13.6-24.1,22-35.1c4.4-5.6,9.1-11.2,15.3-14.8c6-3.6,13.9-3.7,19.9-0.2c6.4,3.7,11.2,9.4,15.7,15.2
		c8.5,11.2,15.4,23.4,22.1,35.7c13.6,25.4,25.6,51.6,37.3,78c11.7,26.8,22.9,53.7,33.7,80.9c0.2,0.3,0.2,1,0.8,1
		c34.1,2.4,68.2,5.4,102.2,9.2c28.4,3.3,56.8,6.9,84.9,12.7c12.1,2.6,24.2,5.5,35.6,10.4C742.2,299.6,746.8,302,750.3,305.6"/>
	<path fill="#F7F706" d="M725.3,316.6c-3.8-1.6-7.8-2.7-11.8-3.7c-5.9-1.5-11.8-2.5-17.8-3.6c-28.1-4.7-56.4-7.9-84.7-11.2
		c-35.2-3.9-70.6-6.9-105.9-9.3c-4.2-0.3-8.2-2.9-10-6.7c-0.8-1.7-1.4-3.6-2.1-5.4c-8.2-21-16.6-41.9-25.3-62.7
		c-11.2-26.8-22.6-53.4-34.8-79.7c-6.1-13.1-12.4-26.1-19.6-38.6c-3.1-5.1-6.3-10.3-10.5-14.6c-2.2-2.1-4.9-4.3-8.1-3.9
		c-2.3,0.4-4.1,2.1-5.7,3.7c-4.8,5.2-8.3,11.5-11.8,17.6c-3.5,6.2-6.7,12.5-9.8,18.9c-12.4,25.3-24,50.9-35.5,76.6
		c-12.2,27.7-23.9,55.6-35.1,83.8c-0.7,1.7-1.3,3.4-2.1,5.1c-1.9,3.6-5.7,6.1-9.7,6.3c-28.1,1.7-56.1,4-84,6.6
		c-16.9,1.6-33.7,3.5-50.5,5.4c-17.6,2.1-35.2,4.2-52.7,7c-8.2,1.4-16.5,2.8-24.6,5.1c-2.8,0.9-5.7,1.8-8.3,3.2
		c-1.6,1-3.4,2.2-3.7,4.1c-0.3,2.3,0.6,4.4,1.6,6.4c1.8,3.4,4.2,6.5,6.7,9.5c9.6,11.4,20.4,21.8,31.1,32.1
		c39.2,37.4,79.8,73.4,121.5,107.9c1.9,1.6,4,3.1,5.2,5.2c1.7,2.9,2.2,6.4,1.2,9.6c-13.5,52.3-25.1,105-35.1,158.1
		c-2.3,12.9-4.6,25.9-6.1,39c-0.6,5.7-1.1,11.5-1,17.3c0.1,2.8,0.3,5.7,1.5,8.3c0.9,1.9,3.1,2.8,5,3.1c3.4,0.4,6.7-0.5,10-1.4
		c4.1-1.3,8.1-3,12-4.9c14.5-6.9,28.5-15,42.5-22.9c14.6-8.3,29.2-16.7,43.8-25.1c30.5-17.5,60.5-35.7,90.2-54.5
		c3.6-2.2,8.4-2.2,12.1,0c2.7,1.6,5.3,3.3,8,4.9c40.4,25.1,81.3,49.3,122.7,72.7c13,7.3,26,14.5,39.3,21c6,2.9,12.1,5.7,18.4,7.8
		c3.8,1.1,7.9,2.3,11.8,1.3c2.1-0.4,3.3-2.4,4-4.3c1.2-3.7,1.2-7.6,1.2-11.4c-0.3-9.1-1.7-18.2-3.1-27.2c-4.2-24.6-9.5-49-14.5-73.5
		c-7.4-35.4-15.6-70.6-24.4-105.6c-0.5-2.1-1.2-4.2-1.6-6.3c-0.7-4.1,1-8.6,4.3-11.2c34.5-28.4,68.3-57.7,101.1-88.1
		c13-12,25.9-24.1,38.4-36.7c5.5-5.6,10.9-11.4,15.8-17.5c2.2-2.9,4.4-5.9,5.7-9.3c0.6-1.5,0.9-3.4-0.1-4.9
		C729.1,318.5,727.2,317.5,725.3,316.6 M355.9,432.1c-1.1,7.5-2.5,15.1-6.1,21.8c-1.8,3.2-4.2,6.2-7.6,7.8
		c-3.8,1.7-8.3,1.6-12.1-0.2c-2.7-1.3-4.9-3.5-6.5-6c-3.1-4.8-4.7-10.4-5.9-16c-1.9-9.3-2.5-18.8-2.9-28.3
		c-0.4-11.3-0.4-22.6-0.1-33.9c0.3-9.1,0.9-18.2,2.5-27.1c1.2-6.6,2.9-13.3,6.5-19.1c2.5-4.1,6.4-7.6,11.2-8.5
		c3.4-0.7,7-0.6,10.1,1.1c3.3,1.7,5.6,4.9,7.2,8.3c2.8,6.2,3.8,13,4.6,19.8c0.9,8.5,1.1,17.1,1.2,25.7
		C357.9,395.6,358.2,414,355.9,432.1 M479.5,405.7c-0.3,9.8-0.8,19.6-2.3,29.3c-1.1,6.5-2.5,13.1-5.7,18.9c-1.6,2.7-3.6,5.3-6.3,7
		c-3.3,2-7.4,2.5-11.1,1.6c-3.5-0.9-6.4-3.4-8.4-6.3c-3.1-4.5-4.7-9.9-5.9-15.2c-2-9.1-2.7-18.4-3.1-27.7
		c-0.4-9.6-0.5-19.2-0.4-28.7c0-11,0.1-22,1.2-33c0.8-6.8,1.8-13.7,4.7-19.9c1.9-4.1,5.1-7.8,9.6-9c3.3-0.8,6.9-0.5,10,0.7
		c3.7,1.5,6.6,4.5,8.7,7.8c3.2,5.2,4.8,11.1,6,16.9c1.8,9.1,2.5,18.4,2.9,27.7C479.8,385.8,479.7,395.8,479.5,405.7"/>
	<path fill="#FFFFFF" d="M342.7,333.7c2.3,2.4,3.5,5.6,4.2,8.8c1.4,6.8,1.5,13.9,0.4,20.7c-0.8,3.9-1.6,8-4.2,11.1
		c-1.8,2.1-4.8,3.1-7.5,2.4c-2.4-0.5-4.2-2.3-5.4-4.3c-1.7-3-2.4-6.4-2.9-9.8c-0.7-5.3-0.8-10.7-0.1-16c0.5-3.5,1.2-7,3-10
		c1.2-2.1,2.9-4.1,5.3-4.8C337.9,331,340.8,331.9,342.7,333.7 M464.1,336.9c-1.1-2.1-2.8-4-5.1-4.9c-1.5-0.6-3.2-0.5-4.7,0
		c-1.7,0.6-3.2,1.8-4.2,3.3c-2,2.8-2.8,6.2-3.4,9.5c-1.2,7.5-1,15.3,0.9,22.6c0.7,2.6,1.7,5.1,3.5,7.1c2.1,2.3,5.6,3,8.5,1.8
		c1.8-0.7,3.2-2.2,4.1-3.8c1.7-2.8,2.4-6.1,2.9-9.3c0.9-5.6,0.9-11.3,0.2-16.9C466.4,343.2,465.7,339.8,464.1,336.9"/>
</g>
</svg>
