<?xml version="1.0" encoding="utf-8"?>
<!-- Generator: Adobe Illustrator 21.0.0, SVG Export Plug-In . SVG Version: 6.00 Build 0)  -->
<svg version="1.1" id="Warstwa_1" xmlns="http://www.w3.org/2000/svg" xmlns:xlink="http://www.w3.org/1999/xlink" x="0px" y="0px"
	 viewBox="0 0 792 792" style="enable-background:new 0 0 792 792;" xml:space="preserve">
<style type="text/css">
	.st0{fill:#7C1927;}
	.st1{fill:#FF0000;}
	.st2{fill:#FFD616;}
	.st3{fill:#FFFFFF;}
	.st4{fill:#AD1C2A;}
	.st5{fill:#FFCBA2;}
	.st6{fill:#BD6E4B;}
</style>
<path class="st0" d="M189.8,316.4c4.1,3.2,6.3,8.3,7.3,13.3c0.6,3,0.8,6.1,0.7,9.2c-5.9-2.1-12.6-1.3-18.2,1.5
	c-5.1,2.5-9.5,6.5-12.5,11.4c-3.2-6.4-3.9-13.9-2.7-21c1-5.1,3.2-10.3,7.3-13.7C176.8,313,184.7,312.3,189.8,316.4"/>
<path class="st1" d="M571.4,218.4c10.1,6.4,18.7,15.1,24.7,25.4c7.5,13,10.9,28.4,9.1,43.3c-1.5,12.8-6.7,25.2-15,35.1
	c-7.9,9.5-18.4,16.5-29.9,20.8c-13.9,5.2-29,6.7-43.8,5.8c-15.4-0.9-30.8-4-44.9-10.5c-11.4-5.3-21.9-12.9-29.6-22.9
	c-9.2-11.7-14.3-26.6-13.9-41.5c0.3-14.7,5.7-29.1,14.7-40.6c8.1-10.4,19.2-18.3,31.3-23.1c9.4-3.8,19.5-5.9,29.6-6.6
	c9.8-0.7,19.8-0.2,29.5,1.2C546.7,206.8,559.9,211,571.4,218.4 M676.5,392.9c-19.3,1.4-38.1,9.3-52.6,22.2
	c-15.4,13.5-26.3,32.1-30,52.3c-3.5,18.6-0.9,38.1,6.5,55.4c17.7-2.8,34.8-9.5,49.8-19.5c10.8-7.2,20.5-16,28.9-25.9
	c18.9-22.4,31.1-50.5,33.6-79.8C701.1,393.7,688.8,392,676.5,392.9 M396.8,591c2.5-9.5,5.3-18.8,8.7-28c3.5-9.2,7.5-18.4,13-26.6
	c-1.6-0.8-3.1-1.7-4.6-2.5c-4.4,5.8-8.2,12.1-11.6,18.6c-5.1,9.7-9.4,19.8-13.2,30.1c-3.3,8.9-6.2,17.9-8.7,27
	c3.6,2.1,7.4,3.6,11.3,5C393,606.6,394.8,598.8,396.8,591 M490.7,547.1c1.5,7.3,3.7,14.4,6.1,21.4c4.9,14.3,10.5,28.4,17.4,41.9
	c1.7,3.1,3.3,6.2,5.5,9c3.5-0.9,6.8-2.6,10.1-4.2c6.4-3.3,12.5-7.2,18.4-11.3c4.6-3.3,9.2-6.6,13.2-10.7c-4.9-0.3-9.7-0.6-14.6-1.1
	c-7.2-0.7-14.4-1.3-21.4-3.1c-3.8-0.8-6.8-3.5-9.3-6.3c-5.4-6.2-8.2-14.1-9.9-22c-1.2-5.9-1.9-12-1.7-18.1
	C500,544.5,495.4,546,490.7,547.1"/>
<path class="st2" d="M177.1,84.6c6.2-12.3,16.3-22.5,28.2-29.4c11.4-3.3,23.3-5,35.2-5.8c15.9-1.1,31.9-0.2,47.7,2.4
	c0.8,0.1,1.6,0.2,2.3,0.6c16.8,8.5,31.3,21.8,39.9,38.6c4.6,9,7.4,19,8.1,29.1c0.9,14.6-2.2,29.7-9.6,42.4
	c-6.2,10.7-15.5,19.5-26.3,25.4c-14.7,8.1-31.8,10.7-48.4,9.6c-17.2-1-34.4-5.8-48.8-15.4c-19.6-12.9-33.1-34.9-35.3-58.3
	C168.6,110.4,170.9,96.6,177.1,84.6 M102.7,186.9c4-5.8,7.3-12.2,10.2-18.6c5.9-13,10.6-26.5,14.1-40.3c2-8.2,3.8-16.6,3.9-25.1
	c-3.8,4.2-7.3,8.7-10.6,13.3c-7.7,10.9-14.2,22.7-18.7,35.3c-5,13.9-7.5,28.8-6.4,43.6C98.3,192.9,100.6,189.9,102.7,186.9
	 M439.4,198.2c-0.4-3.4-0.9-6.9-1.5-10.3c-11.7,0.9-23.1,4.8-33,11.1c-10.6,6.7-19.5,16-26.1,26.6c-7.6,12.1-12.7,25.7-14.9,39.8
	c-0.4,3-0.9,6-0.8,9c4.2-10.8,10-20.8,16.9-30.1C395.3,224.1,416.3,208.4,439.4,198.2 M146,420.9c6-13.2,12-26.5,18.5-39.5
	c-1.9-1.2-3.8-2.5-5.7-3.7c-1.8,2-3.5,4.1-5.2,6.2c-7.2,9.4-13.7,19.2-20,29.2c-3.6,5.9-7.3,11.9-10.6,18.1c4.5,3.5,9,7,13.9,10.1
	C140,434.5,142.8,427.7,146,420.9 M143,457.9c4.4-10.8,9-21.6,13.5-32.4c5.6-13.1,11.1-26.1,16.9-39.1c-2-1-4-2.1-6-3.2
	c-4.4,8.7-8.5,17.6-12.6,26.5c-5.5,12-11,24.1-16.2,36.3c-1.5-0.6-3-1.3-4.4-2.2c-4.5-2.9-8.8-6.2-13-9.5c-1.5,3.2-3.4,6.3-3.8,9.9
	c0.8,0.9,1.7,1.6,2.6,2.3c5.2,3.7,10.7,7.1,16.5,9.8C138.7,457.1,140.8,458.3,143,457.9 M304.3,442.5c-5.4,4.7-11.4,8.7-17.7,12.1
	c-12.5,6.6-26.3,11-40.5,11.2c-1.3-5.3-2.3-10.7-3.4-16.1c-2.8-14.3-5.7-28.6-7.8-43.1c-2.5-3.7-4.4-7.8-4.9-12.3
	c-2.7,0.7-5.5,1.1-8.3,1.4c0.1,8.7,1.1,17.4,2.2,26c2.1,15.9,4.9,31.8,8.3,47.5c0.9,3.7,1.6,7.4,3.1,10.9c13.3,0.2,26.5-2.9,39-7.5
	c11.6-4.4,22.8-10.1,32.5-18c4.8-4,9.3-8.5,11.8-14.3c-1.5-2.9-3.3-5.7-5.2-8.3C311.1,436,307.7,439.4,304.3,442.5 M254.3,420.9
	c-5.6-2.2-10.8-5.4-15.1-9.5c2.8,17,6.1,33.9,9.6,50.7c13.9-0.7,27.4-5.6,39.4-12.6c6.3-3.8,12.4-8.1,17.6-13.4
	c2.1-2.2,4.1-4.5,5.2-7.3c-9-11.7-19.1-22.6-29-33.6c1.1,4.6,2,9.3,2.1,14.1c0,2.9-0.2,6.1-2,8.5c-2.1,3-5.5,4.9-9.1,5.6
	C266.7,424.5,260.2,423.2,254.3,420.9 M407.8,635.5c0.3-1,0-2.1,0.1-3.2c-0.1-13.7,1.3-27.3,3.7-40.8c2.2-12.1,5.2-24.1,9.3-35.7
	c1.9-5.2,4-10.4,6.8-15.2c-2-0.9-4-1.7-6-2.7c-2.3,3.3-4.2,6.7-6,10.3c-4.6,9.3-8.2,19.1-11.3,29c-3.3,10.7-6.1,21.6-8.3,32.6
	c-0.5,2.8-1.1,5.6-1,8.4c-1,0.1-2.1,0.3-3.1-0.1c-4.3-1.3-8.5-3-12.4-5.2c-0.7,3.3-1.6,6.6-1.8,10c-0.2,0.7,0.3,1.2,0.7,1.6
	c2.5,2.4,5.7,3.7,8.7,5.1c5.1,2.1,10.3,3.8,15.7,5C404.5,635.2,406.1,635.6,407.8,635.5 M475.9,549.3c0.8,6.2,2,12.2,3.4,18.3
	c3.6,15.3,8.2,30.4,13.5,45.2c2.5,6.8,5.2,13.7,8.3,20.2c1.3,2.7,2.7,5.3,4.5,7.7c0.7,0.8,1.4,1.7,2.4,2.2c2.7,0,5.4-0.7,8.1-1.4
	c6.7-1.9,13.2-4.8,19.4-7.8c11.1-5.6,21.8-12.1,31.7-19.5c5-3.8,9.9-7.9,14-12.8c-2.5-2.5-5.1-4.9-7.3-7.7c-2.8,0-5.6-0.2-8.4-0.2
	c-1,1.4-2.3,2.7-3.6,3.9c-4.5,4.2-9.6,7.9-14.7,11.4c-5.7,3.8-11.6,7.3-17.7,10.4c-3.6,1.7-7.3,3.4-11.3,4.1c-2.5-2.5-4.2-5.6-6-8.6
	c-3.4-6.2-6.3-12.6-9.1-19.1c-3.4-7.9-6.5-16-9.3-24.1c-2.6-7.8-5.2-15.6-6.8-23.6C483.5,548.5,479.7,549.1,475.9,549.3"/>
<path class="st3" d="M399.3,198.6c-10.6,7.5-19.2,17.6-25.7,28.9c-10,17.3-15.1,37.4-14.3,57.4c-6.3,20.6-8.3,42.4-6.1,63.8
	c-19,7.1-39.8,9.1-59.8,5.8c7.5-13.3,11.6-28.4,12.1-43.6c1.6,2.6,2.4,5.7,4.6,7.8c0.6,0.7,1.4,0,1.4-0.8c0.2-3-0.8-6-1.6-8.9
	c-4.2-13.3-12.1-25.2-21-35.8c-11.8-13.7-25.8-25.5-41.6-34.3c-6.7-3.7-13.8-6.6-21-9.1c-16.5-5.6-34.2-8.7-51.6-7.1
	c-11.9,1.1-23.7,4.6-34,10.9c-1.8,1-3.5,2.2-4.9,3.7c-0.5,0.6-1,1.2-1,2c0.6,0.9,1.9,0.4,2.8,0.3c3.6-1.1,7.1-2.6,10.8-3.6
	c-4.7,5.7-8.7,11.9-12.6,18.2c-2.9,4.7-5.6,9.6-8.1,14.5c-9.4-11.2-17.6-23.5-23.3-37c-4.5-10.4-7.5-21.5-8.9-32.7
	c4.6-2.3,7.8-6.6,10.7-10.7c7.2-10.9,12.3-23,16.8-35.1c2.6-7.2,4.9-14.5,6.8-21.8c1.9-7.1,3.5-14.3,4.3-21.6
	c0.4-4,0.7-8.2-0.1-12.2c16.7-16.9,37.2-30.1,59.4-38.4c-9.9,8.1-17.9,18.7-22.5,30.7c-5.2,13.5-6.1,28.5-3.2,42.6
	c4.2,21.2,17.3,40.2,35.2,52.2c14.4,9.8,31.6,15,48.9,16.3c15.6,1.3,31.6-0.5,46-6.7c11.3-4.9,21.5-12.5,29-22.3
	c8.8-11.4,13.8-25.5,15-39.8c1.4-17.1-2.9-34.5-11.8-49.1c-6.9-11.4-16.7-21-27.9-28.2c29.7,7.2,57.9,21,81.1,40.8
	c19.6,16.7,35.6,37.7,45.5,61.5c3.7,8.8,6.5,18,8.5,27.4C423.6,185.6,410.4,190.6,399.3,198.6 M689.7,298.9
	c9.8,17.9,16.6,37.4,20.3,57.5c2.2,12.4,3.7,24.9,2.9,37.5c-18.6-6.2-39.1-6.5-57.8-0.5c-18.7,5.9-35.3,17.9-47,33.5
	c-6.4,8.5-11.4,18-14.7,28.1c-6.5,19.6-5.9,41.2,0.6,60.7c0.8,2.5,1.8,5,2.7,7.5c-19.1,2.4-38.6,0.1-56.9-5.6
	c6.2-7.4,12.1-15.3,15.5-24.4c0.5,2.5,0.8,5.1,1.2,7.6c0.3,1.5,0.6,3.2,1.8,4.4c0.6,0.6,1.6,0.3,2-0.4c1-1.5,1.4-3.4,1.7-5.2
	c1.6-10.6,0.3-21.4-2.5-31.7c-3.1-11.5-7.8-22.6-13.5-33.1c-5.6-10.4-12.3-20.3-19.9-29.4c-7.8-9.2-16.5-17.7-26.8-24.1
	c-11.5-7.1-23.7-13.3-36.5-17.7c-14.4-4.9-29.8-7.9-45-5.6c-6.3,1-12.5,2.9-18.1,6.1c-1.1,0.8-2.7,1.6-2.8,3.2
	c0.5,1,1.8,0.8,2.7,0.7c4.5-0.7,9-1.1,13.6-1.4c-3,5.4-6.4,10.6-10.2,15.5c-5.5,7-11.9,13-18,19.4c-4.4-5.2-7.9-11.2-10.7-17.4
	c-6-13.2-9.4-27.5-10.6-42c-1.3-17.3,0.8-34.8,6.4-51.2c4-11.7,9.6-22.9,16.7-33.1c7.3-10.5,16.2-19.9,26.2-27.8
	c21.4-16.9,47.6-27.1,74.5-31.4c33.2-5.2,67.6-1.8,99.2,9.7c24.3,8.9,46.4,23.4,65.1,41.1C666.8,263.9,679.8,280.6,689.7,298.9
	 M608.9,285.8c1.4-15.2-2.2-30.8-9.8-43.9c-6.3-10.8-15.3-20-25.9-26.6c-11.7-7.4-25.2-11.8-38.8-13.9c-8.4-1.2-16.9-1.8-25.4-1.6
	c-17.5,0.5-35.2,4.7-50.1,14.2c-11.5,7.3-20.9,17.7-26.9,29.8c-7,14-9.3,30.3-6,45.5c2.6,12.5,8.9,24.2,17.7,33.5
	c9.1,9.8,20.8,16.9,33.3,21.5c15,5.6,31.1,8,47.1,8.1c14.2,0,28.6-2.2,41.6-7.9c11.4-4.9,21.7-12.7,29.3-22.7
	C602.9,311.6,607.7,298.8,608.9,285.8 M174.4,261.8c2.3-1.4,3.9-4,4.3-6.7c0.1-1.1,0-2.4-0.9-3.2c-0.9-0.9-2.3-1-3.4-0.5
	c-2.1,0.9-3.4,2.9-4.2,4.9c-0.6,1.6-1,3.5-0.1,5C171,262.6,173.1,262.6,174.4,261.8 M235.4,264.5c-2.5,1.1-4.1,3.6-4.9,6.2
	c-0.4,1.5-0.4,3.4,0.9,4.5c1.2,1,3.1,0.9,4.4,0c2.1-1.4,3.5-3.7,4-6.1c0.2-1.3,0.2-2.8-0.7-3.8C238.2,264.2,236.6,263.9,235.4,264.5
	 M430.3,400.3c1.8,0,3.4-1.1,4.6-2.4c1.5-1.6,2.6-3.7,2.6-5.9c0-1.2-0.5-2.6-1.7-3.2c-0.9-0.5-1.9-0.3-2.8,0.1
	c-2,0.9-3.5,2.7-4.6,4.6c-0.7,1.4-1.4,2.9-1.2,4.5C427.4,399.4,429,400.3,430.3,400.3 M485.6,410.7c-1.9,0.7-3.3,2.2-4.2,3.9
	c-0.9,1.7-1.6,3.7-1,5.6c0.6,2,3.2,3,5,2c2-1,3.3-3,4.1-5.1c0.5-1.6,0.8-3.5-0.1-5C488.7,410.9,487,410.3,485.6,410.7 M262.3,484.9
	c-8,1.8-16.2,3.1-24.4,3.2c-2.9-0.1-5.8-0.2-8.5-1c-1.6-0.6-2.3-2.4-2.6-4c-2.9-13.3-5.3-26.6-7.4-40c-4.8,0.7-9.7,0.5-14.5,0.2
	c-8.7-0.7-17.3-2.3-25.6-4.6c-5.8-1.7-11.8-3.5-17-6.7c-4.2,10.4-8.2,20.8-13.1,31c-0.8,1.5-1.3,3.2-2.5,4.4c-2,1-4.3,0.3-6.3-0.2
	c1.5,10.9,5,21.6,10.9,30.9c6.4,10.3,15.6,18.7,26.3,24.4c13.5,7.3,28.8,10.6,44,11.7c8.6,0.3,17.3-0.1,25.8-1.6
	c12.4-2.2,24.6-6.9,34.5-14.8c9.9-7.7,17.5-18.4,21.6-30.2c2.4-6.9,3.8-14.3,3.2-21.6C293.3,475.1,278,481.1,262.3,484.9
	 M562.6,680.1c4.8-4.5,8.6-10.1,11.2-16.1c3-7.1,4.3-14.8,4.1-22.4c-0.2-6.8-1.4-13.7-4.2-19.9c-6.1,4.7-12.6,8.8-19.3,12.5
	c-11.4,6.3-23.3,11.8-35.7,16.2c-4.2,1.4-8.5,3-13,2.5c-2.3-0.2-4.5-1.4-5.9-3.3c-1.5-2.1-2.9-4.2-4.1-6.4
	c-6.9-11.9-12-24.7-16.4-37.7c-4.6,0.9-9.2,1.2-13.8,1.4c-10,0.3-20.1,0-30.1-0.9c-5.3-0.5-10.5-1.2-15.6-2.6
	c-1.2,12.6-1.4,25.3-1.4,38c0,1.8-0.5,4.5-2.7,4.6c-6,0-11.9-1.5-17.7-2.9c0.5,1.7,1.2,3.3,1.9,4.9c3.3,7,7.8,13.3,12.9,19.1
	c12.9,14.5,30.3,24.6,49,29.2c14.5,3.4,29.4,5.3,44.2,4.8c14.3-0.6,28.7-3.7,41.4-10.2C552.8,687.7,558.1,684.4,562.6,680.1"/>
<path class="st4" d="M181.9,343.2c4.9-2.2,10.7-2.7,15.7-0.7c-0.9,5.8-3,11.8-7.7,15.6c-4.5,3.7-11.4,4-16.2,0.9
	c-1.6-1-3-2.4-4.2-3.8C171.9,349.8,176.6,345.6,181.9,343.2 M440.2,465.6c-5.4,1.2-10.4,3.9-14.2,7.9c-3.6,3.7-6.4,8.6-6.3,13.9
	c-0.1,1.6,1,3,1.8,4.3c2,3,4.7,5.5,7.8,7.4c4.6,2.7,9.9,4.4,15.3,4.1c4.7-0.3,9.2-2.1,12.9-4.9c3.4-2.5,6.3-5.6,8.9-8.9
	c4-4.9,7.5-10.2,10.4-15.9c-1-2.9-2.2-5.9-3.4-8.7C462.6,467.8,451.1,467.9,440.2,465.6"/>
<path class="st5" d="M298.2,298.8c-5.9-8.7-12.7-16.7-20.1-24.1c-18.4-18.1-41.1-31.8-65.9-39.2c-17-5.1-35.3-6.2-52.7-2.5
	c-1.4,1.9-2.6,4-3.9,5.9c-5.8,9-11.7,17.9-16.9,27.3c-3,5.5-6,11.2-7.3,17.4c-2.2,8.4-3.2,17.1-2.6,25.8c0.5,7.2,1.9,14.3,4.1,21.2
	c3.9,11.9,11.1,22.7,20,31.4c9.5,9.4,21.3,16.5,34.1,20.5c13.8,4.3,28.6,4.9,42.7,2.3c0-11.8,1.1-23.5,2.2-35.2
	c0.2-2.7,0.7-5.4,0.5-8.2c-1.5-2.4-3.2-4.5-4.8-6.8c-3-4.4-6-9-7.7-14.1c-0.8-2.6-1.3-5.6,0.3-8c1.6-2.5,4.8-3.5,7.7-3.3
	c3.3,0.1,6.4,1.4,9.6,1.9c2.8-5.6,6.5-10.9,10.8-15.4c2.6-2.6,5.5-5.1,9.1-6.3c2.1-0.7,4.5-0.7,6.5,0.4c1.9-1.2,4.3-2.4,6.6-1.5
	c1.7,0.8,2.3,2.8,2.4,4.5c2.2-0.9,5.4-0.4,6.3,2.1c1.1,3.1,0.5,6.4-0.1,9.6c2.6-0.5,5.4,0.5,7,2.6c0.9,1.2,1.1,2.8,0.7,4.2
	c-0.5,2.3-1.8,4.3-3.2,6.1c-2.4,3.1-5.2,5.8-8,8.5c-0.6,0.7-1.4,1.3-1.7,2.2c-2,6.1-4.4,12.1-7.6,17.6c0.3,2.3,1.3,4.4,2,6.6
	c1.5,4.2,3,8.3,4.5,12.5c3-2.2,5.5-5,7.9-7.9C293.5,340.8,299.7,319.5,298.2,298.8 M159.9,269.6c1.5-6,4.4-11.7,8.3-16.6
	c2-2.4,4.4-4.7,7.5-5.6c2-0.6,4.3,0,5.6,1.6c1.3,1.7,1.5,4,1.4,6c-0.3,3.7-1.5,7.2-3.1,10.6c-2,4.1-4.6,8.1-8,11.1
	c-1.9,1.7-4.2,3.1-6.8,3.2c-1.8,0.1-3.9-0.6-4.7-2.4C158.8,275.1,159.3,272.2,159.9,269.6 M200.5,351.3c-1.9,5.2-5.1,10.3-9.9,13.2
	c-5.5,3.3-12.6,2.9-18.2,0c-5-2.7-8.5-7.7-10.4-13c-2.8-7.7-3.1-16.2-1-24.1c1.3-5.1,3.7-10,7.6-13.6c2.8-2.6,6.4-4.4,10.2-4.9
	c5.4-0.8,11.2,0.6,15.3,4.3c4.5,4,7,9.7,8.1,15.5C203.6,336.1,203.1,344.1,200.5,351.3 M243.1,271.3c-0.7,4.8-2.6,9.3-5.1,13.5
	c-1.8,2.9-3.8,5.6-6.4,7.8c-1.8,1.4-3.8,2.7-6.1,2.7c-2.1,0.1-4.3-1.1-5.1-3.1c-1.3-2.8-0.9-6-0.3-8.9c1.5-6.2,4.5-11.9,8.6-16.8
	c2-2.3,4.4-4.5,7.5-5.3c2.1-0.6,4.6,0.2,5.8,2.1C243.5,265.6,243.5,268.6,243.1,271.3 M152.8,373.1c-4.2,4.6-7.9,9.5-11.7,14.3
	c-10.4-8.5-20.1-17.9-29.6-27.4c-6.3-6.4-12.6-12.9-18.7-19.6c-0.4-0.4-1-0.6-1.5-0.9c-5-2.2-9.5-6-12-11
	c-2.9-5.6-3.3-12.1-2.3-18.2c-1.7-3.6-3-7.3-3.9-11.2c-0.5-2.4-1-4.9-0.6-7.4c0.1-1.1,0.9-2.3,2.1-2.1c1.4,0.3,2.7,1.1,3.6,2.2
	c0.1,2.6,0.3,5.2,1.2,7.7c0.1,0.5,0.4,0.9,0.7,1.2c0.6-1.6,0.7-3.2,1-4.9c0.8-4.1,2-8.2,4.1-11.8c1-1.4,2.3-3.2,4.3-2.9
	c-1.3,3.9-2.2,7.9-2.5,12c-0.1,1.8-0.2,3.6,0.1,5.3c0.1,0.6,0.2,1.2,0.6,1.7c1.3-4.7,2.4-9.4,4-13.9c0.8-2.1,1.6-4.3,3.3-5.8
	c0.8-0.8,2.2-0.6,2.7,0.4c0.9,1.7,1.1,3.8,1.1,5.7c-2,3.6-3.5,7.5-3.8,11.6c-0.1,1.4-0.2,2.9,0.6,4.1c0.9-1.9,1.5-4,2.6-5.9
	c1.5-2.8,3.1-5.8,5.8-7.7c0.9-0.6,2.6-1,3.2,0.3c0.6,1.6,0.4,3.3,0.3,5c-0.7,5.9-2.4,11.7-4,17.4c-2.7,0.9-5.4,2.3-7.2,4.6
	c-0.4,0.4-0.6,1-0.7,1.6c2.7-0.3,5.3-1.4,8-1.9c2.6-0.5,5.3-0.8,7.9-0.1c1.4,0.4,2.8,1.4,3.1,3c0,1.6-1,2.9-1.9,4.1
	c-2.3,2.9-5,5.3-7.8,7.8c-0.6,0.6-1.5,1.1-1.9,2c4.7-0.2,9.1-2.2,12.8-4.9c2.5,1,4.9,1.9,7.4,3C129,347.2,139.3,362,152.8,373.1
	 M260.6,354.1c4.4,13.2,9.1,26.3,12.8,39.7c1.2,4.7,2.5,9.4,2.9,14.2c0.1,1.8,0.3,3.9-1,5.4c-1.9,2.8-5.5,3.8-8.7,3.6
	c-5-0.3-9.6-2.3-13.9-4.7c-3.1-1.8-5.9-3.9-8.5-6.3c-2-2-4-4.3-4.7-7.1c-0.9-3.4-1.3-6.8-1.6-10.3c-0.9-9.6-1-19.3-0.8-29
	c0-6.9,0.3-13.9,0.6-20.8c-0.7-1.9-2.1-3.4-3.3-5c-2.9-3.7-5.9-7.2-8.3-11.2c-0.8-1.5-1.7-3.1-1.6-4.9c0-1.2,1-2.4,2.2-2.5
	c2.1-0.2,4.1,0.6,5.9,1.3c2.3,0.9,4.4,2.2,6.6,3.1c1.8-2.6,3.2-5.5,4.9-8.3c2.7-4.6,5.5-9.3,9.3-13.2c1.5-1.5,3.3-2.9,5.5-3.2
	c-2.4,3.6-4,7.8-4.6,12.1c-0.2,1.3-0.5,2.6-0.1,4c0.5-0.6,0.7-1.4,1-2.1c1.4-4,3.1-8,6-11.2c1.3-1.4,3-2.8,5.1-2.8c1.1,0,1.9,1,2,2
	c-2.4,3.3-4.3,7-5.8,10.8c-0.6,1.8-1.5,3.6-1.6,5.5c0.8-0.4,1.2-1.3,1.7-2c2.1-3.2,4-6.5,6.2-9.6c0.8-1.1,1.7-2.3,2.9-3.1
	c0.7-0.4,1.6-0.6,2.3-0.1c0.7,0.6,0.7,1.5,0.6,2.4c-0.1,2.4-0.9,4.7-1.7,7c-0.1,0.6-0.7,0.9-1,1.3c-1.7,1.5-3.2,3.2-4.6,4.9
	c-0.6,0.8-1.3,1.7-1.3,2.7c1.3-0.3,2.5-1.1,3.6-1.7c2.9-1.6,5.7-3.3,8.8-4.4c0.9-0.2,1.9-0.7,2.7-0.1c0.7,1.1-0.2,2.3-0.7,3.2
	c-2.2,3-5.1,5.3-7.7,7.8c-1.8,1.7-4,3.2-4.9,5.7c-2.7,6.4-5.1,13.1-9.5,18.5C258.7,348.5,259.7,351.3,260.6,354.1 M541.5,451.2
	c-9.6-19.9-22.8-38.1-39.3-52.8c-10.5-9.2-22.4-17-35.2-22.5c-13.7-5.9-28.5-9.1-43.4-9.5c-4.4,8.3-9.6,16.2-15.2,23.7
	c-3.8,5-7.8,9.8-12.4,14c-3.9,3.7-7.5,7.8-10.5,12.3c-7.9,11.7-12,25.8-12,39.9c0,0.6-0.1,1.3,0.3,1.8c3.1,5.5,5,11.7,6.2,17.8
	c2.3-1,5-1,7.4-0.3c1.9,0.5,3.7,1.7,4.6,3.5c1,2.1,0.9,4.5,0.5,6.7c-0.8,3.9-2.5,7.6-4.4,11.1c7.4,11.9,18.4,21.2,30.6,27.7
	c9.6,5.1,20.1,8.7,30.7,11.1c12.3,2.7,25.3,3.2,37.7,0.4c8.8-2,17.3-5.6,24.9-10.4c6.9-4.3,13.1-9.7,19-15.4
	c9.8-9.5,16.2-22.1,19.9-35.1C548.4,467.1,545.2,459,541.5,451.2 M416.8,403.9c1.7-5.1,4.8-9.7,8.5-13.6c2.7-2.7,5.8-5.4,9.7-6.1
	c1.9-0.3,4,0,5.4,1.5c1.3,1.4,1.6,3.5,1.5,5.4c-0.2,3.6-1.6,6.9-3.2,10.1c-2.3,4.2-5.3,8.2-9.2,11.2c-2.1,1.6-4.5,2.9-7.1,3
	c-2.4,0.1-4.9-1.2-5.9-3.4C415.5,409.3,416,406.5,416.8,403.9 M483,482.7c-1.1,0.8-2.3-0.4-2.9-1.2c-2.2,3.6-4.5,7.1-6.9,10.6
	c-3.4,4.7-7,9.3-11.8,12.6c-4.1,3-8.8,5.4-14,6c-6.3,0.7-12.6-0.9-18.5-3.3c-6-2.3-11.1-6.6-14.3-12.1c-3.2-5.4-4.5-11.8-4.8-18
	c-0.3-8.8,1.5-17.6,4.2-26c-1.4-2.1-2.6-4.4-2.6-7c-0.1-0.6,0.4-1.5,1.1-1c1.3,0.9,2.5,2.2,3.8,3.1c10,7.5,22.3,11.4,34.6,13
	c6.6,0.8,13.3,0.9,19.9-0.3c-0.3-1-0.7-2-0.6-3c0.2-0.9,1.1-0.5,1.6-0.2c7.3,4.7,12.7,12.8,12.8,21.7
	C484.5,479.3,484.5,481.4,483,482.7 M494.6,416.2c-1,4.8-3.3,9.3-6.3,13.2c-2.1,2.7-4.7,5.2-8,6.5c-2.4,1-5.4,1.1-7.6-0.4
	c-1.6-1.1-2.2-3-2.3-4.9c-0.1-3.1,0.7-6.1,1.8-8.9c1.9-4.6,4.6-8.9,8.2-12.2c1.9-1.7,4.1-3.1,6.7-3.5c2.4-0.4,5.3,0.3,6.6,2.5
	C495.2,410.7,495.1,413.6,494.6,416.2 M179.1,388.9c11.4,4.7,23.6,7.3,35.9,7.2c-0.3,13.2,1.4,26.3,3.1,39.3
	c-3.6,0.5-7.3,0.3-10.9,0.1c-8.7-0.6-17.4-2-25.8-4.2c-5.7-1.6-11.5-3.4-16.5-6.5C169.6,412.9,174.2,400.8,179.1,388.9 M405.8,531.5
	c-7.7,9.7-13.6,20.8-19.1,31.9c-5.2-1.4-10.3-3.1-15.2-5.3c-5.3-2.4-10.4-5.4-14.5-9.5c-3.8-3.8-6.5-8.6-7.8-13.8
	c-2-7.7-1.6-15.7-0.8-23.5c-4-4.2-6.1-9.7-7.6-15.1c-1.2-4.8-1.8-9.8-1.8-14.8c0.1-3.3,0.3-6.7,1.5-9.9c0.6-1.3,1.4-2.9,3-3.2
	c1.3-0.2,2.3,0.9,2.8,1.9c1.3,2.5,1.7,5.3,2.2,8.1c0.2,0.9,0.2,1.9,0.9,2.6c1.6-3.4,1.6-7.2,1-10.8c-0.5-2.9-1.5-6-3.9-8
	c0.6-1.3,1.4-2.8,2.9-3.1c2-0.1,3.2,1.8,4,3.3c2,4.3,2.2,9,2.1,13.7c0.7-0.2,0.8-1.1,1.1-1.7c1.2-2.9,1.2-6.1,1.1-9.2
	c-0.1-2.7-0.6-5.3-1.3-7.9c0.7-0.4,1.4-0.2,1.9,0.4c1.9,2.4,2.6,5.5,3.4,8.5c0.6,2.3,0.7,4.8,1.3,7.1c0.8-0.4,0.8-1.4,1-2.1
	c0.9-4.7,0.8-9.6-0.7-14.1c1.9,0.2,3.2,1.8,4.1,3.4c1.9,3.3,2.9,7,3.9,10.7c1,4.2,1.8,8.5,2.5,12.7c2.8-0.9,5.7-1.4,8.6-1.5
	c1.2,0,2.7,0,3.6,1c0.8,1.8-0.2,3.8-1,5.4c-3.5,6.4-8.5,11.8-13.1,17.3c-0.4,0.5-0.4,1.3-0.5,1.9c-0.1,2.6,0.6,5.1,1.3,7.6
	c1.1,3.1,2.4,6.2,4.6,8.8c1.5,1.9,3.8,2.9,6.1,3.5C390.8,529.7,398.3,530.6,405.8,531.5 M511.2,539.7c2.1-1.1,4.1-2.2,6.1-3.4
	c7.2,2.5,14.1,5.8,21,9.1c10,5,20,10.3,29.6,16c2.7,1.7,5.5,3.3,7.9,5.4c5.7-3.6,12.1-6.2,18.4-8.7c4.4-1.7,8.8-3.2,13.3-4.5
	c4.2-1.2,8.5-2.4,12.9-2.2c1.2,0.1,2.9,0.3,3.2,1.7c0.6,1.7-0.7,3.3-1.9,4.3c-3-0.2-6-0.2-8.9,0.4c-1.1,0.2-2.1,0.6-3,1.2
	c4.8,1.2,9.7,2.4,14.3,4.3c-2,0.3-4,0.7-5.9,1.6c-0.8,0.4-1.8,0.8-2.2,1.7c1.2,0.3,2.5,0.1,3.8,0.1c3.6,0,7.2,0.3,10.6,1.4
	c2,0.7,4,1.7,5.2,3.5c-3.2,0.1-6.3,0.4-9.4,1.2c-1.2,0.4-2.5,0.9-3.4,1.8c0.9,0.4,1.9,0.2,2.9,0.2c4,0.2,8.1,0.6,11.9,2
	c1.4,0.6,3,1.4,3.4,3c0.3,1.5-1,2.5-2.2,3.1c-3.3,1.7-7,2.5-10.5,3.6c-6,1.7-12.3,3.3-17.4,7c1.6,3.6,3,7.4,3.5,11.3
	c0.2,1.7,0.3,3.6-0.8,5.1c-0.9,1.2-2.7,1.1-4,0.7c-2.7-0.8-5.2-2.4-7.5-4c-5.2-3.6-10-7.8-14.5-12.3c-2.1-2.2-4.2-4.3-5.6-7
	c-9.1-0.8-18.2-1.8-27.3-3c-7.9-1-15.9-2.2-23.7-3.8c-2.7-0.6-5.5-1.2-8.1-2.3c-1.5-0.6-2.5-2-3.3-3.3c-2-3.5-3.2-7.3-4.3-11.2
	C513.3,555.9,511.6,547.8,511.2,539.7 M435.7,543.6c10.1,3.4,20.7,5.6,31.4,5.9c1.3,16.1,4.7,32,9.3,47.5c-4.9,0.8-9.9,0.9-14.8,1.2
	c-10.6,0.3-21.2,0.2-31.7-0.8c-3.2-0.3-6.4-0.8-9.5-1.6C422.9,577.7,427.6,559.9,435.7,543.6"/>
<path class="st6" d="M299.5,513.5c9,6.6,14.6,16.8,17.5,27.4c3.4,12.6,3.6,26.2,0.2,38.8c-2.4,8.7-6.8,17.2-14.1,22.8
	c-4.4,3.4-9.9,5.4-15.4,5.7c-5.4,0.3-10.9-0.4-15.9-2.4c-4-1.6-7.6-4.1-10.6-7.1c-4.1-4.2-7-9.5-9.1-15c-2.5-6.9-3.8-14.1-4.3-21.4
	c-0.5-7-0.3-14,0.8-20.9c12.2-2.2,24.2-6.3,34.6-13.3C289.4,524.1,294.9,519.2,299.5,513.5 M152.3,516c-7.3,6.8-12.8,15.3-16.7,24.4
	c-2.9,6.8-5,14.1-5.4,21.5c-0.4,6.5,0.6,13.2,3.7,18.9c3,5.8,8.2,10.3,14,13.3c5,2.6,10.9,3.5,16.5,2.5c6.5-1.1,12.4-4.4,17.5-8.5
	c4.9-4,9.2-8.8,12.8-14c6.7-9.7,11.5-20.9,12.9-32.6c-6.9-1.2-13.8-2.7-20.5-4.9C174.2,532.4,161.9,525.7,152.3,516 M547.6,703.1
	c-0.7,4.4-0.4,9.1,1,13.4c1.8,5.5,5.7,10.3,10.3,13.7c5.2,3.8,11.2,6.3,17.3,8.1c7.2,2,14.6,3.2,22.1,3.7c8.9,0.6,17.8,1.1,26.7,0.3
	c7.2-0.7,14.6-2.4,20.8-6.3c5-3.1,8.9-7.8,11.4-13.1c2.6-5.1,2.6-11.1,1.3-16.6c-1.8-6.8-6-12.8-11.1-17.6
	c-4.9-4.6-10.7-8.3-16.8-11.2c-14.3-6.7-30.4-9.3-46.2-8.2c-2.2,4.9-5.1,9.4-8.5,13.6C568.2,691.6,558.5,698.8,547.6,703.1
	 M442.5,699.4c-11.6-4.7-22.4-11.3-31.7-19.7c-6.1-1.1-12.4-0.4-18.3,1.5c-7.5,2.5-14.3,7-19.3,13.1c-4.5,5.4-7.5,12.2-7.4,19.2
	c0.1,6.5,3,12.8,7.5,17.4c3.7,3.6,8.5,5.9,13.4,7.7c8.1,2.9,16.5,4.5,25,5.5c9.1,1.1,18.3,1.4,27.5,1.2c7.1-0.2,14.3-0.8,21.3-2.2
	c4-0.8,8-1.9,11.4-4.1c4.5-2.7,8-7.3,8.7-12.5c1-6.2-1.4-12.5-4.9-17.5C464.4,706.7,453.1,703.8,442.5,699.4"/>
<path d="M487.1,405.8c-2.6,0.4-4.8,1.8-6.7,3.5c-3.6,3.3-6.3,7.6-8.2,12.2c-1.1,2.8-1.9,5.8-1.8,8.9c0.1,1.9,0.7,3.8,2.3,4.9
	c2.2,1.5,5.2,1.4,7.6,0.4c3.3-1.3,5.9-3.8,8-6.5c3-3.9,5.3-8.4,6.3-13.2c0.5-2.6,0.6-5.5-0.9-7.7
	C492.4,406.1,489.5,405.4,487.1,405.8z M489.5,416.9c-0.8,2.1-2.1,4.1-4.1,5.1c-1.8,1-4.4,0-5-2c-0.6-1.9,0.1-3.9,1-5.6
	s2.3-3.2,4.2-3.9c1.4-0.4,3.1,0.2,3.8,1.4C490.3,413.4,490,415.3,489.5,416.9z M471.8,455.7c-0.5-0.3-1.4-0.7-1.6,0.2
	c-0.1,1,0.3,2,0.6,3c-6.6,1.2-13.3,1.1-19.9,0.3c-12.3-1.6-24.6-5.5-34.6-13c-1.3-0.9-2.5-2.2-3.8-3.1c-0.7-0.5-1.2,0.4-1.1,1
	c0,2.6,1.2,4.9,2.6,7c-2.7,8.4-4.5,17.2-4.2,26c0.3,6.2,1.6,12.6,4.8,18c3.2,5.5,8.3,9.8,14.3,12.1c5.9,2.4,12.2,4,18.5,3.3
	c5.2-0.6,9.9-3,14-6c4.8-3.3,8.4-7.9,11.8-12.6c2.4-3.5,4.7-7,6.9-10.6c0.6,0.8,1.8,2,2.9,1.2c1.5-1.3,1.5-3.4,1.6-5.1
	C484.5,468.5,479.1,460.4,471.8,455.7z M466.4,489.2c-2.6,3.3-5.5,6.4-8.9,8.9c-3.7,2.8-8.2,4.6-12.9,4.9
	c-5.4,0.3-10.7-1.4-15.3-4.1c-3.1-1.9-5.8-4.4-7.8-7.4c-0.8-1.3-1.9-2.7-1.8-4.3c-0.1-5.3,2.7-10.2,6.3-13.9c3.8-4,8.8-6.7,14.2-7.9
	c10.9,2.3,22.4,2.2,33.2-0.8c1.2,2.8,2.4,5.8,3.4,8.7C473.9,479,470.4,484.3,466.4,489.2z M236.2,261c-3.1,0.8-5.5,3-7.5,5.3
	c-4.1,4.9-7.1,10.6-8.6,16.8c-0.6,2.9-1,6.1,0.3,8.9c0.8,2,3,3.2,5.1,3.1c2.3,0,4.3-1.3,6.1-2.7c2.6-2.2,4.6-4.9,6.4-7.8
	c2.5-4.2,4.4-8.7,5.1-13.5c0.4-2.7,0.4-5.7-1.1-8C240.8,261.2,238.3,260.4,236.2,261z M239.8,268.9c-0.5,2.4-1.9,4.7-4,6.1
	c-1.3,0.9-3.2,1-4.4,0c-1.3-1.1-1.3-3-0.9-4.5c0.8-2.6,2.4-5.1,4.9-6.2c1.2-0.6,2.8-0.3,3.7,0.8C240,266.1,240,267.6,239.8,268.9z
	 M194.1,313c-4.1-3.7-9.9-5.1-15.3-4.3c-3.8,0.5-7.4,2.3-10.2,4.9c-3.9,3.6-6.3,8.5-7.6,13.6c-2.1,7.9-1.8,16.4,1,24.1
	c1.9,5.3,5.4,10.3,10.4,13c5.6,2.9,12.7,3.3,18.2,0c4.8-2.9,8-8,9.9-13.2c2.6-7.2,3.1-15.2,1.7-22.6
	C201.1,322.7,198.6,317,194.1,313z M189.9,357.9c-4.5,3.7-11.4,4-16.2,0.9c-1.6-1-3-2.4-4.2-3.8c2.4-5.4,7.1-9.6,12.4-12
	c4.9-2.2,10.7-2.7,15.7-0.7C196.7,348.1,194.6,354.1,189.9,357.9z M197.8,338.7c-5.9-2.1-12.6-1.3-18.2,1.5
	c-5.1,2.5-9.5,6.5-12.5,11.4c-3.2-6.4-3.9-13.9-2.7-21c1-5.1,3.2-10.3,7.3-13.7c5.1-4.1,13-4.8,18.1-0.7c4.1,3.2,6.3,8.3,7.3,13.3
	C197.7,332.5,197.9,335.6,197.8,338.7z M422.4,415.2c2.6-0.1,5-1.4,7.1-3c3.9-3,6.9-7,9.2-11.2c1.6-3.2,3-6.5,3.2-10.1
	c0.1-1.9-0.2-4-1.5-5.4c-1.4-1.5-3.5-1.8-5.4-1.5c-3.9,0.7-7,3.4-9.7,6.1c-3.7,3.9-6.8,8.5-8.5,13.6c-0.8,2.6-1.3,5.4-0.3,8.1
	C417.5,414,420,415.3,422.4,415.2z M428.4,393.3c1.1-1.9,2.6-3.7,4.6-4.6c0.9-0.4,1.9-0.6,2.8-0.1c1.2,0.6,1.7,2,1.7,3.2
	c0,2.2-1.1,4.3-2.6,5.9c-1.2,1.3-2.8,2.4-4.6,2.4c-1.3,0-2.9-0.9-3.1-2.3C427,396.2,427.7,394.7,428.4,393.3z M164.8,279.7
	c2.6-0.1,4.9-1.5,6.8-3.2c3.4-3,6-7,8-11.1c1.6-3.4,2.8-6.9,3.1-10.6c0.1-2-0.1-4.3-1.4-6c-1.3-1.6-3.6-2.2-5.6-1.6
	c-3.1,0.9-5.5,3.2-7.5,5.6c-3.9,4.9-6.8,10.6-8.3,16.6c-0.6,2.6-1.1,5.5,0.2,7.9C160.9,279.1,163,279.8,164.8,279.7z M170.2,256.1
	c0.8-2,2.1-4,4.2-4.9c1.1-0.5,2.5-0.4,3.4,0.5c0.9,0.8,1,2.1,0.9,3.2c-0.4,2.7-2,5.3-4.3,6.7c-1.3,0.8-3.4,0.8-4.3-0.5
	C169.2,259.6,169.6,257.7,170.2,256.1z M724.3,358.5c-2.3-18.3-7.3-36.3-14.7-53.1c-7.7-17.4-18.1-33.6-30.6-48
	c-15.4-17.7-33.8-32.6-53.8-44.8c-24.6-15.2-52.6-25-81.3-28.7c-31-4.1-63-1.1-92.5,9.4c-1.5-9.9-3.6-19.8-6.6-29.4
	c-7.6-24.8-21-47.7-38.8-66.6c-18.8-20-42.4-35.4-67.8-45.6c-24.3-9.8-50.4-15.1-76.5-15.8c-29.8-0.8-60,4.7-87,17.5
	c-23.3,10.9-44.3,27.1-60.2,47.4c-17.3,21.9-28.6,48.7-30.6,76.6c-1.2,16,0.7,32.2,5.6,47.5c6.6,20.6,18.7,39.1,33.8,54.4
	c-3.6,11-4.8,22.8-3.6,34.3c-2.3-2.2-5.6-2.9-8.7-3.1c1.5-7,2.4-14.3,1.7-21.5c-0.3-2.3-0.8-4.7-2.3-6.4s-4.1-2-6.1-1.1
	c-0.4-2.4-1.2-4.9-2.6-6.9c-1-1.4-2.6-2.4-4.4-2.2c-1.4,0.1-2.7,0.9-3.7,1.9c-1.1-1.3-2.7-2.5-4.5-2.4c-2.3,0.2-4.1,1.8-5.5,3.5
	c-2.3,3-3.8,6.6-4.5,10.4c-1.6-1.8-3.7-3.5-6.2-3.3s-4.5,2.3-5.4,4.5c-1.9,4.3-1.7,9.3-0.7,13.8c0.6,2.6,1.6,5,2.6,7.5
	c-0.1,2.8-0.5,5.6-0.5,8.3c-0.1,6.1,1.3,12.4,4.7,17.6c3.5,5.6,8.9,9.7,14.7,12.7c0.7,0.4,1.5,0.6,2.1,1.2
	c6.6,7.5,13.4,14.8,20.2,22c8.1,8.5,16.3,17.1,25,25.1c-2.8,3.9-5.6,7.9-8.2,12c-7,10.8-13.6,22-18.1,34.1c-0.5,1.7-1.6,3.4-1.1,5.2
	c1.1,2.2,2.9,3.9,4.8,5.5c5.6,4.6,11.9,8.3,18.3,11.6c0.2,16.3,5.3,32.8,15.2,45.8c-5.3,4.2-9.8,9.4-13.6,15
	c-7.2,10.8-12.1,23.2-13.4,36.1c-0.8,7.9,0,16.1,3.3,23.5c2.3,5.3,5.9,10,10.4,13.7c9.1,7.2,21,11.1,32.6,9.6
	c5.4-0.7,10.6-2.6,15.4-5.2c8.9-5,16.3-12.4,22.1-20.7c7.9-11.4,13.4-24.5,15.1-38.2c6.4,0.6,12.9,0.3,19.3-0.1
	c-1.3,9.3-0.9,18.9,0.6,28.2c1.2,7.2,3.3,14.3,6.5,20.9c3.8,8,9.7,15.3,17.4,19.8c9,5.4,20,6.7,30.3,5.3c9.5-1.3,18.3-6.4,24.4-13.8
	c7.1-8.5,10.9-19.2,12.5-30c1.9-13.3,0.6-27.1-3.9-39.8c-3.9-11-10.6-21.3-20.2-28.1c4.5-7.4,7.6-15.7,9.2-24.2
	c1.2-7.1,1.5-14.4-0.2-21.4c5.5-4.9,10.4-10.6,13.9-17.1c0.6-1,0.7-2.2,0.3-3.3c-1-3.1-2.9-5.8-4.7-8.4c-5.3-7.3-11.2-14-17.3-20.7
	c-9-9.8-18.5-19.2-28.1-28.4c-0.9-2.3-1.5-4.7-2.3-7c4.1-3,7.6-6.7,10.7-10.7c6.8,1.3,13.7,2.3,20.7,2.6c16,0.9,32.2-1.4,47.4-6.5
	c1.1,5.8,2.6,11.5,4.5,17.1c4,11.8,10,23.2,18.6,32.3c-4.2,5.9-7.8,12.3-10.5,19.1c-2.5,6.3-4,13-4.2,19.8c-1.6-0.3-3.2,0.1-4.6,1
	c-1.5-1.2-3.3-2.2-5.2-2c-1.9,0.1-3.6,1.3-4.7,2.9c-1.9,0.2-3.6,1.3-4.8,2.7c-1.7,2.1-2.7,4.8-3.2,7.4c-2.4,0.5-4.2,2.4-5.5,4.4
	c-1.9,2.9-3,6.2-3.7,9.5c-2.7,13.6,1.2,27.9,8.5,39.4c-1,9.8-1.4,20,2.2,29.4c2.4,6.3,6.7,11.7,11.9,15.8
	c8.3,6.5,18.2,10.4,28.1,13.5c-3.6,8.3-6.8,16.7-9.5,25.4c-2.8,9.1-5,18.5-5.5,28.1c-0.2,1.8,1.4,3.1,2.6,4.2c4.7,4,10.3,6.5,16,8.7
	c2.5,11.2,8.1,21.5,15.2,30.5c-14.4,0.1-28.1,7.6-37.1,18.6c-5.2,6.4-9,14.1-9.8,22.4c-0.7,6.7,0.7,13.7,4.1,19.5
	c2.6,4.6,6.3,8.5,10.7,11.5c6.4,4.3,13.8,7.1,21.2,9.2c15.1,4.1,30.7,5.5,46.3,5.3c9.6-0.2,19.3-0.9,28.7-3.1
	c5.9-1.4,11.8-3.6,16.3-7.6c4.8-4.1,7.9-10,8.9-16.3c1-6.2,0.4-12.7-2.2-18.4c15.9,1.5,32.1,0.7,47.5-3.5
	c-0.6,5.2,0.5,10.5,2.8,15.2c2.8,5.8,7.3,10.7,12.5,14.6c5.1,3.9,10.8,6.8,16.7,9c7.9,3,16.2,4.7,24.5,5.7
	c7.4,0.8,14.9,1.1,22.4,1.1c8.8-0.1,17.6-0.7,26.1-3c6.5-1.7,12.8-4.6,17.9-9c5-4.3,8.5-10.3,10.5-16.5c2-6.1,2.8-12.6,1.6-18.9
	c-1.2-6.6-4.5-12.6-8.8-17.6c-7.4-8.6-17.3-14.6-27.6-19.1c-14.7-6.2-30.7-9.4-46.7-9.4c2.3-9.2,2.4-18.9,0.7-28.2
	c-1.2-6-2.9-12-5.9-17.4c1.8-2.1,3.5-4.3,4.7-6.7c5.5,4.5,11.3,9,18.1,11.6c3.1,1.1,6.8,2,10,0.4c3.2-1.7,5-5,5.8-8.4
	c0.9-4.1,0.6-8.4-0.6-12.4c2-1,4.1-1.5,6.2-2.2c6.4-2.1,13-4,18.6-7.8c2.6-1.8,5.2-4.6,4.9-8c-0.3-3.5-3.4-6.1-6.6-7.1
	c0-3.3-2.5-6-5.4-7.4c-1-0.3-1.4-1.4-2.1-2.1c-2.3-2.6-5.5-4-8.7-4.9c1.6-1.5,3.1-3.2,3.7-5.3c0.4-1.4,0.1-3-0.9-4.1
	c-1.6-1.8-3.8-2.8-6.1-3.3c-3.5-0.7-7.1-0.5-10.6,0.1c-5.7,0.9-11.3,2.6-16.7,4.6c-6.2,2.4-12.3,5-18,8.5c-3.4-2.4-6.9-4.5-10.5-6.6
	c-6.7-4-13.6-7.8-20.4-11.5c-7-3.7-14.1-7.5-21.5-10.4c2.4-1.8,4.8-3.8,7-5.8c11,5.5,22.9,9,35.1,10.4c17.7,2.1,35.8,0.2,52.8-4.9
	c14.1-4.2,27.4-10.6,39.6-18.8c20.7-13.9,37.8-33.1,49-55.3c6.8-13.5,11.5-28.1,14-43C726.7,394.8,726.6,376.4,724.3,358.5z
	 M240.5,49.2c15.9-1.1,31.9-0.2,47.7,2.4c0.8,0.1,1.6,0.2,2.3,0.6c16.8,8.5,31.3,21.8,39.9,38.6c4.6,9,7.4,19,8.1,29.1
	c0.9,14.6-2.2,29.7-9.6,42.4c-6.2,10.7-15.5,19.5-26.3,25.4c-14.7,8.1-31.8,10.7-48.4,9.6c-17.2-1-34.4-5.8-48.8-15.4
	c-19.6-12.9-33.1-34.9-35.3-58.3c-1.5-13.4,0.8-27.2,7-39.2c6.2-12.3,16.3-22.5,28.2-29.4C216.7,51.7,228.6,50,240.5,49.2z
	 M101.6,151.3c4.5-12.6,11-24.4,18.7-35.3c3.3-4.6,6.8-9.1,10.6-13.3c-0.1,8.5-1.9,16.9-3.9,25.1c-3.5,13.8-8.2,27.3-14.1,40.3
	c-2.9,6.4-6.2,12.8-10.2,18.6c-2.1,3-4.4,6-7.5,8.2C94.1,180.1,96.6,165.2,101.6,151.3z M111.5,359.8c-6.3-6.4-12.6-12.9-18.7-19.6
	c-0.4-0.4-1-0.6-1.5-0.9c-5-2.2-9.5-6-12-11c-2.9-5.6-3.3-12.1-2.3-18.2c-1.7-3.6-3-7.3-3.9-11.2c-0.5-2.4-1-4.9-0.6-7.4
	c0.1-1.1,0.9-2.3,2.1-2.1c1.4,0.3,2.7,1.1,3.6,2.2c0.1,2.6,0.3,5.2,1.2,7.7c0.1,0.5,0.4,0.9,0.7,1.2c0.6-1.6,0.7-3.2,1-4.9
	c0.8-4.1,2-8.2,4.1-11.8c1-1.4,2.3-3.2,4.3-2.9c-1.3,3.9-2.2,7.9-2.5,12c-0.1,1.8-0.2,3.6,0.1,5.3c0.1,0.6,0.2,1.2,0.6,1.7
	c1.3-4.7,2.4-9.4,4-13.9c0.8-2.1,1.6-4.3,3.3-5.8c0.8-0.8,2.2-0.6,2.7,0.4c0.9,1.7,1.1,3.8,1.1,5.7c-2,3.6-3.5,7.5-3.8,11.6
	c-0.1,1.4-0.2,2.9,0.6,4.1c0.9-1.9,1.5-4,2.6-5.9c1.5-2.8,3.1-5.8,5.8-7.7c0.9-0.6,2.6-1,3.2,0.3c0.6,1.6,0.4,3.3,0.3,5
	c-0.7,5.9-2.4,11.7-4,17.4c-2.7,0.9-5.4,2.3-7.2,4.6c-0.4,0.4-0.6,1-0.7,1.6c2.7-0.3,5.3-1.4,8-1.9c2.6-0.5,5.3-0.8,7.9-0.1
	c1.4,0.4,2.8,1.4,3.1,3c0,1.6-1,2.9-1.9,4.1c-2.3,2.9-5,5.3-7.8,7.8c-0.6,0.6-1.5,1.1-1.9,2c4.7-0.2,9.1-2.2,12.8-4.9
	c2.5,1,4.9,1.9,7.4,3c5.8,16.7,16.1,31.5,29.6,42.6c-4.2,4.6-7.9,9.5-11.7,14.3C130.7,378.7,121,369.3,111.5,359.8z M133.6,412.9
	c6.3-10,12.8-19.8,20-29.2c1.7-2.1,3.4-4.2,5.2-6.2c1.9,1.2,3.8,2.5,5.7,3.7c-6.5,13-12.5,26.3-18.5,39.5c-3.2,6.8-6,13.6-9.1,20.4
	c-4.9-3.1-9.4-6.6-13.9-10.1C126.3,424.8,130,418.8,133.6,412.9z M120,446.3c-0.9-0.7-1.8-1.4-2.6-2.3c0.4-3.6,2.3-6.7,3.8-9.9
	c4.2,3.3,8.5,6.6,13,9.5c1.4,0.9,2.9,1.6,4.4,2.2c5.2-12.2,10.7-24.3,16.2-36.3c4.1-8.9,8.2-17.8,12.6-26.5c2,1.1,4,2.2,6,3.2
	c-5.8,13-11.3,26-16.9,39.1c-4.5,10.8-9.1,21.6-13.5,32.4c-2.2,0.4-4.3-0.8-6.5-1.6C130.7,453.4,125.2,450,120,446.3z M218.1,435.2
	c-3.6,0.5-7.3,0.3-10.9,0.1c-8.7-0.6-17.4-2-25.8-4.2c-5.7-1.6-11.5-3.4-16.5-6.5c4.7-11.9,9.3-24,14.2-35.9
	c11.4,4.7,23.6,7.3,35.9,7.2C214.7,409.1,216.4,422.2,218.1,435.2z M194.7,573.9c-3.6,5.2-7.9,10-12.8,14c-5.1,4.1-11,7.4-17.5,8.5
	c-5.6,1-11.5,0.1-16.5-2.5c-5.8-3-11-7.5-14-13.3c-3.1-5.7-4.1-12.4-3.7-18.9c0.4-7.4,2.5-14.7,5.4-21.5c3.9-9.1,9.4-17.6,16.7-24.4
	c9.6,9.7,21.9,16.4,34.8,20.6c6.7,2.2,13.6,3.7,20.5,4.9C206.2,553,201.4,564.2,194.7,573.9z M317,540.7c3.4,12.6,3.6,26.2,0.2,38.8
	c-2.4,8.7-6.8,17.2-14.1,22.8c-4.4,3.4-9.9,5.4-15.4,5.7c-5.4,0.3-10.9-0.4-15.9-2.4c-4-1.6-7.6-4.1-10.6-7.1c-4.1-4.2-7-9.5-9.1-15
	c-2.5-6.9-3.8-14.1-4.3-21.4c-0.5-7-0.3-14,0.8-20.9c12.2-2.2,24.2-6.3,34.6-13.3c6.2-4,11.7-8.9,16.3-14.6
	C308.5,519.9,314.1,530.1,317,540.7z M303.5,487.4c-4.1,11.8-11.7,22.5-21.6,30.2c-9.9,7.9-22.1,12.6-34.5,14.8
	c-8.5,1.5-17.2,1.9-25.8,1.6c-15.2-1.1-30.5-4.4-44-11.7c-10.7-5.7-19.9-14.1-26.3-24.4c-5.9-9.3-9.4-20-10.9-30.9
	c2,0.5,4.3,1.2,6.3,0.2c1.2-1.2,1.7-2.9,2.5-4.4c4.9-10.2,8.9-20.6,13.1-31c5.2,3.2,11.2,5,17,6.7c8.3,2.3,16.9,3.9,25.6,4.6
	c4.8,0.3,9.7,0.5,14.5-0.2c2.1,13.4,4.5,26.7,7.4,40c0.3,1.6,1,3.4,2.6,4c2.7,0.8,5.6,0.9,8.5,1c8.2-0.1,16.4-1.4,24.4-3.2
	c15.7-3.8,31-9.8,44.4-18.9C307.3,473.1,305.9,480.5,303.5,487.4z M318.6,440.1c-2.5,5.8-7,10.3-11.8,14.3
	c-9.7,7.9-20.9,13.6-32.5,18c-12.5,4.6-25.7,7.7-39,7.5c-1.5-3.5-2.2-7.2-3.1-10.9c-3.4-15.7-6.2-31.6-8.3-47.5
	c-1.1-8.6-2.1-17.3-2.2-26c2.8-0.3,5.6-0.7,8.3-1.4c0.5,4.5,2.4,8.6,4.9,12.3c2.1,14.5,5,28.8,7.8,43.1c1.1,5.4,2.1,10.8,3.4,16.1
	c14.2-0.2,28-4.6,40.5-11.2c6.3-3.4,12.3-7.4,17.7-12.1c3.4-3.1,6.8-6.5,9.1-10.5C315.3,434.4,317.1,437.2,318.6,440.1z
	 M282.1,417.6c1.8-2.4,2-5.6,2-8.5c-0.1-4.8-1-9.5-2.1-14.1c9.9,11,20,21.9,29,33.6c-1.1,2.8-3.1,5.1-5.2,7.3
	c-5.2,5.3-11.3,9.6-17.6,13.4c-12,7-25.5,11.9-39.4,12.6c-3.5-16.8-6.8-33.7-9.6-50.7c4.3,4.1,9.5,7.3,15.1,9.5
	c5.9,2.3,12.4,3.6,18.7,2.5C276.6,422.5,280,420.6,282.1,417.6z M276.3,407.8c0.1,1.8,0.3,3.9-1,5.4c-1.9,2.8-5.5,3.8-8.7,3.6
	c-5-0.3-9.6-2.3-13.9-4.7c-3.1-1.8-5.9-3.9-8.5-6.3c-2-2-4-4.3-4.7-7.1c-0.9-3.4-1.3-6.8-1.6-10.3c-0.9-9.6-1-19.3-0.8-29
	c0-6.9,0.3-13.9,0.6-20.8c-0.7-1.9-2.1-3.4-3.3-5c-2.9-3.7-5.9-7.2-8.3-11.2c-0.8-1.5-1.7-3.1-1.6-4.9c0-1.2,1-2.4,2.2-2.5
	c2.1-0.2,4.1,0.6,5.9,1.3c2.3,0.9,4.4,2.2,6.6,3.1c1.8-2.6,3.2-5.5,4.9-8.3c2.7-4.6,5.5-9.3,9.3-13.2c1.5-1.5,3.3-2.9,5.5-3.2
	c-2.4,3.6-4,7.8-4.6,12.1c-0.2,1.3-0.5,2.6-0.1,4c0.5-0.6,0.7-1.4,1-2.1c1.4-4,3.1-8,6-11.2c1.3-1.4,3-2.8,5.1-2.8c1.1,0,1.9,1,2,2
	c-2.4,3.3-4.3,7-5.8,10.8c-0.6,1.8-1.5,3.6-1.6,5.5c0.8-0.4,1.2-1.3,1.7-2c2.1-3.2,4-6.5,6.2-9.6c0.8-1.1,1.7-2.3,2.9-3.1
	c0.7-0.4,1.6-0.6,2.3-0.1c0.7,0.6,0.7,1.5,0.6,2.4c-0.1,2.4-0.9,4.7-1.7,7c-0.1,0.6-0.7,0.9-1,1.3c-1.7,1.5-3.2,3.2-4.6,4.9
	c-0.6,0.8-1.3,1.7-1.3,2.7c1.3-0.3,2.5-1.1,3.6-1.7c2.9-1.6,5.7-3.3,8.8-4.4c0.9-0.2,1.9-0.7,2.7-0.1c0.7,1.1-0.2,2.3-0.7,3.2
	c-2.2,3-5.1,5.3-7.7,7.8c-1.8,1.7-4,3.2-4.9,5.7c-2.7,6.4-5.1,13.1-9.5,18.5c0.4,2.8,1.4,5.6,2.3,8.4c4.4,13.2,9.1,26.3,12.8,39.7
	C274.6,398.3,275.9,403,276.3,407.8z M280.7,356.7c-2.4,2.9-4.9,5.7-7.9,7.9c-1.5-4.2-3-8.3-4.5-12.5c-0.7-2.2-1.7-4.3-2-6.6
	c3.2-5.5,5.6-11.5,7.6-17.6c0.3-0.9,1.1-1.5,1.7-2.2c2.8-2.7,5.6-5.4,8-8.5c1.4-1.8,2.7-3.8,3.2-6.1c0.4-1.4,0.2-3-0.7-4.2
	c-1.6-2.1-4.4-3.1-7-2.6c0.6-3.2,1.2-6.5,0.1-9.6c-0.9-2.5-4.1-3-6.3-2.1c-0.1-1.7-0.7-3.7-2.4-4.5c-2.3-0.9-4.7,0.3-6.6,1.5
	c-2-1.1-4.4-1.1-6.5-0.4c-3.6,1.2-6.5,3.7-9.1,6.3c-4.3,4.5-8,9.8-10.8,15.4c-3.2-0.5-6.3-1.8-9.6-1.9c-2.9-0.2-6.1,0.8-7.7,3.3
	c-1.6,2.4-1.1,5.4-0.3,8c1.7,5.1,4.7,9.7,7.7,14.1c1.6,2.3,3.3,4.4,4.8,6.8c0.2,2.8-0.3,5.5-0.5,8.2c-1.1,11.7-2.2,23.4-2.2,35.2
	c-14.1,2.6-28.9,2-42.7-2.3c-12.8-4-24.6-11.1-34.1-20.5c-8.9-8.7-16.1-19.5-20-31.4c-2.2-6.9-3.6-14-4.1-21.2
	c-0.6-8.7,0.4-17.4,2.6-25.8c1.3-6.2,4.3-11.9,7.3-17.4c5.2-9.4,11.1-18.3,16.9-27.3c1.3-1.9,2.5-4,3.9-5.9
	c17.4-3.7,35.7-2.6,52.7,2.5c24.8,7.4,47.5,21.1,65.9,39.2c7.4,7.4,14.2,15.4,20.1,24.1C299.7,319.3,293.5,340.6,280.7,356.7z
	 M359.3,284.7c-6.3,20.6-8.3,42.4-6.1,63.8c-19,7.1-39.8,9.1-59.8,5.8c7.5-13.3,11.6-28.4,12.1-43.6c1.6,2.6,2.4,5.7,4.6,7.8
	c0.6,0.7,1.4,0,1.4-0.8c0.2-3-0.8-6-1.6-8.9c-4.2-13.3-12.1-25.2-21-35.8c-11.8-13.7-25.8-25.5-41.6-34.3c-6.7-3.7-13.8-6.6-21-9.1
	c-16.5-5.6-34.2-8.7-51.6-7.1c-11.9,1.1-23.7,4.6-34,10.9c-1.8,1-3.5,2.2-4.9,3.7c-0.5,0.6-1,1.2-1,2c0.6,0.9,1.9,0.4,2.8,0.3
	c3.6-1.1,7.1-2.6,10.8-3.6c-4.7,5.7-8.7,11.9-12.6,18.2c-2.9,4.7-5.6,9.6-8.1,14.5c-9.4-11.2-17.6-23.5-23.3-37
	c-4.5-10.4-7.5-21.5-8.9-32.7c4.6-2.3,7.8-6.6,10.7-10.7c7.2-10.9,12.3-23,16.8-35.1c2.6-7.2,4.9-14.5,6.8-21.8
	c1.9-7.1,3.5-14.3,4.3-21.6c0.4-4,0.7-8.2-0.1-12.2c16.7-16.9,37.2-30.1,59.4-38.4c-9.9,8.1-17.9,18.7-22.5,30.7
	c-5.2,13.5-6.1,28.5-3.2,42.6c4.2,21.2,17.3,40.2,35.2,52.2c14.4,9.8,31.6,15,48.9,16.3c15.6,1.3,31.6-0.5,46-6.7
	c11.3-4.9,21.5-12.5,29-22.3c8.8-11.4,13.8-25.5,15-39.8c1.4-17.1-2.9-34.5-11.8-49.1c-6.9-11.4-16.7-21-27.9-28.2
	c29.7,7.2,57.9,21,81.1,40.8c19.6,16.7,35.6,37.7,45.5,61.5c3.7,8.8,6.5,18,8.5,27.4c-13.6,1-26.8,6-37.9,14
	c-10.6,7.5-19.2,17.6-25.7,28.9C363.6,244.6,358.5,264.7,359.3,284.7z M363.9,265.2c2.2-14.1,7.3-27.7,14.9-39.8
	c6.6-10.6,15.5-19.9,26.1-26.6c9.9-6.3,21.3-10.2,33-11.1c0.6,3.4,1.1,6.9,1.5,10.3c-23.1,10.2-44.1,25.9-59.4,46.1
	c-6.9,9.3-12.7,19.3-16.9,30.1C363,271.2,363.5,268.2,363.9,265.2z M371.5,557.9c-5.3-2.4-10.4-5.4-14.5-9.5
	c-3.8-3.8-6.5-8.6-7.8-13.8c-2-7.7-1.6-15.7-0.8-23.5c-4-4.2-6.1-9.7-7.6-15.1c-1.2-4.8-1.8-9.8-1.8-14.8c0.1-3.3,0.3-6.7,1.5-9.9
	c0.6-1.3,1.4-2.9,3-3.2c1.3-0.2,2.3,0.9,2.8,1.9c1.3,2.5,1.7,5.3,2.2,8.1c0.2,0.9,0.2,1.9,0.9,2.6c1.6-3.4,1.6-7.2,1-10.8
	c-0.5-2.9-1.5-6-3.9-8c0.6-1.3,1.4-2.8,2.9-3.1c2-0.1,3.2,1.8,4,3.3c2,4.3,2.2,9,2.1,13.7c0.7-0.2,0.8-1.1,1.1-1.7
	c1.2-2.9,1.2-6.1,1.1-9.2c-0.1-2.7-0.6-5.3-1.3-7.9c0.7-0.4,1.4-0.2,1.9,0.4c1.9,2.4,2.6,5.5,3.4,8.5c0.6,2.3,0.7,4.8,1.3,7.1
	c0.8-0.4,0.8-1.4,1-2.1c0.9-4.7,0.8-9.6-0.7-14.1c1.9,0.2,3.2,1.8,4.1,3.4c1.9,3.3,2.9,7,3.9,10.7c1,4.2,1.8,8.5,2.5,12.7
	c2.8-0.9,5.7-1.4,8.6-1.5c1.2,0,2.7,0,3.6,1c0.8,1.8-0.2,3.8-1,5.4c-3.5,6.4-8.5,11.8-13.1,17.3c-0.4,0.5-0.4,1.3-0.5,1.9
	c-0.1,2.6,0.6,5.1,1.3,7.6c1.1,3.1,2.4,6.2,4.6,8.8c1.5,1.9,3.8,2.9,6.1,3.5c7.4,1.9,14.9,2.8,22.4,3.7
	c-7.7,9.7-13.6,20.8-19.1,31.9C381.5,561.8,376.4,560.1,371.5,557.9z M396.6,520.9c-4-0.4-8.1-0.8-12-1.9c-0.7-0.3-1.5-0.3-1.9-1
	c-1.6-2.7-2.9-5.7-3.4-8.8c1.4-1.4,2.6-2.9,3.8-4.5C386.8,510.7,391.4,516.1,396.6,520.9z M389.1,582.4c3.8-10.3,8.1-20.4,13.2-30.1
	c3.4-6.5,7.2-12.8,11.6-18.6c1.5,0.8,3,1.7,4.6,2.5c-5.5,8.2-9.5,17.4-13,26.6c-3.4,9.2-6.2,18.5-8.7,28c-2,7.8-3.8,15.6-5.1,23.6
	c-3.9-1.4-7.7-2.9-11.3-5C382.9,600.3,385.8,591.3,389.1,582.4z M378.5,624.3c-0.4-0.4-0.9-0.9-0.7-1.6c0.2-3.4,1.1-6.7,1.8-10
	c3.9,2.2,8.1,3.9,12.4,5.2c1,0.4,2.1,0.2,3.1,0.1c-0.1-2.8,0.5-5.6,1-8.4c2.2-11,5-21.9,8.3-32.6c3.1-9.9,6.7-19.7,11.3-29
	c1.8-3.6,3.7-7,6-10.3c2,1,4,1.8,6,2.7c-2.8,4.8-4.9,10-6.8,15.2c-4.1,11.6-7.1,23.6-9.3,35.7c-2.4,13.5-3.8,27.1-3.7,40.8
	c-0.1,1.1,0.2,2.2-0.1,3.2c-1.7,0.1-3.3-0.3-4.9-0.9c-5.4-1.2-10.6-2.9-15.7-5C384.2,628,381,626.7,378.5,624.3z M506.2,560.5
	c1.7,7.9,4.5,15.8,9.9,22c2.5,2.8,5.5,5.5,9.3,6.3c7,1.8,14.2,2.4,21.4,3.1c4.9,0.5,9.7,0.8,14.6,1.1c-4,4.1-8.6,7.4-13.2,10.7
	c-5.9,4.1-12,8-18.4,11.3c-3.3,1.6-6.6,3.3-10.1,4.2c-2.2-2.8-3.8-5.9-5.5-9c-6.9-13.5-12.5-27.6-17.4-41.9
	c-2.4-7-4.6-14.1-6.1-21.4c4.7-1.1,9.3-2.6,13.8-4.5C504.3,548.5,505,554.6,506.2,560.5z M493.8,571.3c2.8,8.1,5.9,16.2,9.3,24.1
	c2.8,6.5,5.7,12.9,9.1,19.1c1.8,3,3.5,6.1,6,8.6c4-0.7,7.7-2.4,11.3-4.1c6.1-3.1,12-6.6,17.7-10.4c5.1-3.5,10.2-7.2,14.7-11.4
	c1.3-1.2,2.6-2.5,3.6-3.9c2.8,0,5.6,0.2,8.4,0.2c2.2,2.8,4.8,5.2,7.3,7.7c-4.1,4.9-9,9-14,12.8c-9.9,7.4-20.6,13.9-31.7,19.5
	c-6.2,3-12.7,5.9-19.4,7.8c-2.7,0.7-5.4,1.4-8.1,1.4c-1-0.5-1.7-1.4-2.4-2.2c-1.8-2.4-3.2-5-4.5-7.7c-3.1-6.5-5.8-13.4-8.3-20.2
	c-5.3-14.8-9.9-29.9-13.5-45.2c-1.4-6.1-2.6-12.1-3.4-18.3c3.8-0.2,7.6-0.8,11.1-1.4C488.6,555.7,491.2,563.5,493.8,571.3z
	 M476.4,596.8c-4.9,0.8-9.9,0.9-14.8,1.2c-10.6,0.3-21.2,0.2-31.7-0.8c-3.2-0.3-6.4-0.8-9.5-1.6c2.5-18.1,7.2-35.9,15.3-52.2
	c10.1,3.4,20.7,5.6,31.4,5.9C468.4,565.4,471.8,581.3,476.4,596.8z M480.6,726.3c-0.7,5.2-4.2,9.8-8.7,12.5
	c-3.4,2.2-7.4,3.3-11.4,4.1c-7,1.4-14.2,2-21.3,2.2c-9.2,0.2-18.4-0.1-27.5-1.2c-8.5-1-16.9-2.6-25-5.5c-4.9-1.8-9.7-4.1-13.4-7.7
	c-4.5-4.6-7.4-10.9-7.5-17.4c-0.1-7,2.9-13.8,7.4-19.2c5-6.1,11.8-10.6,19.3-13.1c5.9-1.9,12.2-2.6,18.3-1.5
	c9.3,8.4,20.1,15,31.7,19.7c10.6,4.4,21.9,7.3,33.2,9.6C479.2,713.8,481.6,720.1,480.6,726.3z M506,700.9
	c-14.8,0.5-29.7-1.4-44.2-4.8c-18.7-4.6-36.1-14.7-49-29.2c-5.1-5.8-9.6-12.1-12.9-19.1c-0.7-1.6-1.4-3.2-1.9-4.9
	c5.8,1.4,11.7,2.9,17.7,2.9c2.2-0.1,2.7-2.8,2.7-4.6c0-12.7,0.2-25.4,1.4-38c5.1,1.4,10.3,2.1,15.6,2.6c10,0.9,20.1,1.2,30.1,0.9
	c4.6-0.2,9.2-0.5,13.8-1.4c4.4,13,9.5,25.8,16.4,37.7c1.2,2.2,2.6,4.3,4.1,6.4c1.4,1.9,3.6,3.1,5.9,3.3c4.5,0.5,8.8-1.1,13-2.5
	c12.4-4.4,24.3-9.9,35.7-16.2c6.7-3.7,13.2-7.8,19.3-12.5c2.8,6.2,4,13.1,4.2,19.9c0.2,7.6-1.1,15.3-4.1,22.4
	c-2.6,6-6.4,11.6-11.2,16.1c-4.5,4.3-9.8,7.6-15.2,10.8C534.7,697.2,520.3,700.3,506,700.9z M584.4,669.1
	c15.8-1.1,31.9,1.5,46.2,8.2c6.1,2.9,11.9,6.6,16.8,11.2c5.1,4.8,9.3,10.8,11.1,17.6c1.3,5.5,1.3,11.5-1.3,16.6
	c-2.5,5.3-6.4,10-11.4,13.1c-6.2,3.9-13.6,5.6-20.8,6.3c-8.9,0.8-17.8,0.3-26.7-0.3c-7.5-0.5-14.9-1.7-22.1-3.7
	c-6.1-1.8-12.1-4.3-17.3-8.1c-4.6-3.4-8.5-8.2-10.3-13.7c-1.4-4.3-1.7-9-1-13.4c10.9-4.3,20.6-11.5,28.3-20.2
	C579.3,678.5,582.2,674,584.4,669.1z M538.3,545.2c10,5,20,10.3,29.6,16c2.7,1.7,5.5,3.3,7.9,5.4c5.7-3.6,12.1-6.2,18.4-8.7
	c4.4-1.7,8.8-3.2,13.3-4.5c4.2-1.2,8.5-2.4,12.9-2.2c1.2,0.1,2.9,0.3,3.2,1.7c0.6,1.7-0.7,3.3-1.9,4.3c-3-0.2-6-0.2-8.9,0.4
	c-1.1,0.2-2.1,0.6-3,1.2c4.8,1.2,9.7,2.4,14.3,4.3c-2,0.3-4,0.7-5.9,1.6c-0.8,0.4-1.8,0.8-2.2,1.7c1.2,0.3,2.5,0.1,3.8,0.1
	c3.6,0,7.2,0.3,10.6,1.4c2,0.7,4,1.7,5.2,3.5c-3.2,0.1-6.3,0.4-9.4,1.2c-1.2,0.4-2.5,0.9-3.4,1.8c0.9,0.4,1.9,0.2,2.9,0.2
	c4,0.2,8.1,0.6,11.9,2c1.4,0.6,3,1.4,3.4,3c0.3,1.5-1,2.5-2.2,3.1c-3.3,1.7-7,2.5-10.5,3.6c-6,1.7-12.3,3.3-17.4,7
	c1.6,3.6,3,7.4,3.5,11.3c0.2,1.7,0.3,3.6-0.8,5.1c-0.9,1.2-2.7,1.1-4,0.7c-2.7-0.8-5.2-2.4-7.5-4c-5.2-3.6-10-7.8-14.5-12.3
	c-2.1-2.2-4.2-4.3-5.6-7c-9.1-0.8-18.2-1.8-27.3-3c-7.9-1-15.9-2.2-23.7-3.8c-2.7-0.6-5.5-1.2-8.1-2.3c-1.5-0.6-2.5-2-3.3-3.3
	c-2-3.5-3.2-7.3-4.3-11.2c-2-7.8-3.7-15.9-4.1-24c2.1-1.1,4.1-2.2,6.1-3.4C524.5,538.6,531.4,541.9,538.3,545.2z M531,510.1
	c-5.9,5.7-12.1,11.1-19,15.4c-7.6,4.8-16.1,8.4-24.9,10.4c-12.4,2.8-25.4,2.3-37.7-0.4c-10.6-2.4-21.1-6-30.7-11.1
	c-12.2-6.5-23.2-15.8-30.6-27.7c1.9-3.5,3.6-7.2,4.4-11.1c0.4-2.2,0.5-4.6-0.5-6.7c-0.9-1.8-2.7-3-4.6-3.5c-2.4-0.7-5.1-0.7-7.4,0.3
	c-1.2-6.1-3.1-12.3-6.2-17.8c-0.4-0.5-0.3-1.2-0.3-1.8c0-14.1,4.1-28.2,12-39.9c3-4.5,6.6-8.6,10.5-12.3c4.6-4.2,8.6-9,12.4-14
	c5.6-7.5,10.8-15.4,15.2-23.7c14.9,0.4,29.7,3.6,43.4,9.5c12.8,5.5,24.7,13.3,35.2,22.5c16.5,14.7,29.7,32.9,39.3,52.8
	c3.7,7.8,6.9,15.9,9.4,24C547.2,488,540.8,500.6,531,510.1z M679.1,477.2c-8.4,9.9-18.1,18.7-28.9,25.9c-15,10-32.1,16.7-49.8,19.5
	c-7.4-17.3-10-36.8-6.5-55.4c3.7-20.2,14.6-38.8,30-52.3c14.5-12.9,33.3-20.8,52.6-22.2c12.3-0.9,24.6,0.8,36.2,4.7
	C710.2,426.7,698,454.8,679.1,477.2z M712.9,393.7c-18.6-6.2-39.1-6.5-57.8-0.5c-18.7,5.9-35.3,17.9-47,33.5
	c-6.4,8.5-11.4,18-14.7,28.1c-6.5,19.6-5.9,41.2,0.6,60.7c0.8,2.5,1.8,5,2.7,7.5c-19.1,2.4-38.6,0.1-56.9-5.6
	c6.2-7.4,12.1-15.3,15.5-24.4c0.5,2.5,0.8,5.1,1.2,7.6c0.3,1.5,0.6,3.2,1.8,4.4c0.6,0.6,1.6,0.3,2-0.4c1-1.5,1.4-3.4,1.7-5.2
	c1.6-10.6,0.3-21.4-2.5-31.7c-3.1-11.5-7.8-22.6-13.5-33.1c-5.6-10.4-12.3-20.3-19.9-29.4c-7.8-9.2-16.5-17.7-26.8-24.1
	c-11.5-7.1-23.7-13.3-36.5-17.7c-14.4-4.9-29.8-7.9-45-5.6c-6.3,1-12.5,2.9-18.1,6.1c-1.1,0.8-2.7,1.6-2.8,3.2
	c0.5,1,1.8,0.8,2.7,0.7c4.5-0.7,9-1.1,13.6-1.4c-3,5.4-6.4,10.6-10.2,15.5c-5.5,7-11.9,13-18,19.4c-4.4-5.2-7.9-11.2-10.7-17.4
	c-6-13.2-9.4-27.5-10.6-42c-1.3-17.3,0.8-34.8,6.4-51.2c4-11.7,9.6-22.9,16.7-33.1c7.3-10.5,16.2-19.9,26.2-27.8
	c21.4-16.9,47.6-27.1,74.5-31.4c33.2-5.2,67.6-1.8,99.2,9.7c24.3,8.9,46.4,23.4,65.1,41.1c15,14.5,28,31.2,37.9,49.5
	c9.8,17.9,16.6,37.4,20.3,57.5C712.2,368.6,713.7,381.1,712.9,393.7z M573.2,215.1c-11.7-7.4-25.2-11.8-38.8-13.9
	c-8.4-1.2-16.9-1.8-25.4-1.6c-17.5,0.5-35.2,4.7-50.1,14.2c-11.5,7.3-20.9,17.7-26.9,29.8c-7,14-9.3,30.3-6,45.5
	c2.6,12.5,8.9,24.2,17.7,33.5c9.1,9.8,20.8,16.9,33.3,21.5c15,5.6,31.1,8,47.1,8.1c14.2,0,28.6-2.2,41.6-7.9
	c11.4-4.9,21.7-12.7,29.3-22.7c7.9-10.2,12.7-23,13.9-36c1.4-15.2-2.2-30.8-9.8-43.9C592.8,230.9,583.8,221.7,573.2,215.1z
	 M605.2,286.9c-1.5,12.8-6.7,25.2-15,35.1c-7.9,9.5-18.4,16.5-29.9,20.8c-13.9,5.2-29,6.7-43.8,5.8c-15.4-0.9-30.8-4-44.9-10.5
	c-11.4-5.3-21.9-12.9-29.6-22.9c-9.2-11.7-14.3-26.6-13.9-41.5c0.3-14.7,5.7-29.1,14.7-40.6c8.1-10.4,19.2-18.3,31.3-23.1
	c9.4-3.8,19.5-5.9,29.6-6.6c9.8-0.7,19.8-0.2,29.5,1.2c13.5,2,26.7,6.2,38.2,13.6c10.1,6.4,18.7,15.1,24.7,25.4
	C603.6,256.6,607,272,605.2,286.9z"/>
</svg>
