<?xml version="1.0" encoding="utf-8"?>
<!-- Generator: Adobe Illustrator 21.1.0, SVG Export Plug-In . SVG Version: 6.00 Build 0)  -->
<svg version="1.0" id="Warstwa_1" xmlns="http://www.w3.org/2000/svg" xmlns:xlink="http://www.w3.org/1999/xlink" x="0px" y="0px"
	 viewBox="0 0 792 792" enable-background="new 0 0 792 792" xml:space="preserve">
<g>
	<path d="M672.8,660.9c-0.7-6.5-2.3-12.8-4.8-18.8c-3.9-9.3-9.6-17.8-17-24.6c0.2-2,0.7-4,0.8-6c0.3-3.3,0.3-6.7-0.2-10
		c-0.9-5.6-2.5-11.2-5.2-16.3c-2.5-4.8-6.1-9-10.5-12.3c-3.7-2.7-8.4-3.5-12.9-4c-2.4-3-5.1-5.8-8.4-7.7c-6.1-3.6-13.2-5.4-20.3-5.3
		c-0.8-5.7-3.2-11.3-7.5-15.2c-4.7-4.3-11.1-6.8-17.5-6.4c-3.4,0.2-6.7,0.8-10,1.7c-0.5,0.2-0.6-0.4-0.7-0.7
		c-1.2-2.9-2.4-5.8-3.5-8.8c0.4-0.8,1.1-1.6,1.6-2.4c3.8-5.4,7.5-10.9,11-16.5c7.3-12.1,13.7-24.9,17.6-38.5
		c4.1-14.7,5.8-30,5.7-45.3c-0.2-10.1-1.1-20.2-3.2-30c-0.8-3.8-1.9-7.7-4.1-10.9c-2.4-3.6-6.5-6.1-10.9-6.1c-4.5,0-8.6,2.3-12,5
		c-6.7,5.6-14.8,9.2-23.1,11.6c-3-5.1-7.4-9.4-12.8-11.9c-1-0.5-2.2-0.7-3.1-1.3c-0.5-2.5-1-5-1.7-7.5c-2.7-9.5-7.3-18.7-14.9-25.3
		c4.4-3.6,8.9-7.2,13.4-10.7c1.4-1,2.8-2.3,4.3-3.2c8,0.9,16.1-0.2,23.8-2.6c5.8-1.9,11.4-4.3,16.4-7.7c8.3-5.6,14.6-14.2,17.7-23.7
		c11.1-1.9,22.2-3.5,33.3-4.8c4.6-0.5,9-2.1,12.8-4.8c3.4-2.5,6.2-5.9,7.6-9.9c1.9-4.8,1.8-10.5-0.5-15.2c-1.9-4-5.1-7.2-8.8-9.5
		c-2.7-1.6-5.9-2.4-9-2.2c-3.4,0.2-6.7,1.2-9.8,2.5c-5.4,2.2-10.6,5.1-16.1,7c-5.7,1.9-11.7,3.2-17.7,3.8c4.5-3.7,9.1-7.2,13.8-10.5
		c2.3-1.6,4.5-3.2,7-4.3c5.2-2.5,10.7-4.7,15.2-8.4c4-3.1,7.1-7.2,8.9-11.9c1.9-5.1,2.6-10.6,1.7-16c-0.8-4.9-3.2-9.7-6.9-13
		c-4.4-4.1-10.7-6.1-16.6-5.2c-4.9,0.7-9.4,3.3-12.7,6.9c-3.5,3.8-5.6,8.6-8.4,13c-2.1,3.5-4.7,6.6-7.5,9.4
		c-4.2,4.1-8.6,7.9-13.3,11.3c-0.5-0.2-1-0.6-1.3-1c1.9-6.5,4.5-12.8,7.7-18.7c2.5-4.8,5.2-9.6,6.9-14.7c2.5-6.9,3.1-14.4,1.7-21.6
		c-1-4.9-3.1-9.8-6.7-13.3c-4-4.1-9.7-6.4-15.4-6.5c-4.7-0.2-9.6,0.7-13.5,3.4c-3.7,2.5-6.1,6.5-7.7,10.6
		c-2.3,5.8-3.2,12.1-4.3,18.2c-1,6.2-2.7,12.4-4.6,18.4c-2,6.2-4.1,12.4-6.5,18.4c-0.3,0.8-0.5,1.8-1.2,2.4
		c-3.6,3.9-6.6,8.2-9.5,12.7c-4-8-9.4-15.4-16.7-20.7c-4.4-3.2-9.6-5.5-15-6c-0.5-1.6-0.7-3.3-1.1-4.9c3.3-4.1,6.5-8.2,9.3-12.7
		c3.1-5,5.6-10.5,6.3-16.4c0.5-4.6,0-9.6-2.4-13.7c-2.2-3.8-5.5-6.9-8.9-9.7c-4.5-3.6-9.5-6.6-14.6-9.2c0-9.8-1-19.6-2.9-29.2
		c-0.1-0.6,0.3-1.2,0.4-1.8c2.6-7.5,3.4-15.4,3.3-23.3c-0.1-6.6-0.9-13.3-2.4-19.7c-1.2-5.1-2.9-10.1-5.3-14.8
		c-3-5.6-6.9-10.8-12.1-14.5c-4.1-2.9-9-4.5-13.9-5.2c-5.9-0.9-12.1-0.3-17.7,1.6c-5.9,2-11.3,5.5-16.1,9.5c-1.4-5.2-4-10.2-8-13.8
		c-3.5-3.1-7.9-5-12.6-5.4c-4.8-0.4-9.7,0.7-14.2,2.4c-5,1.9-9.6,4.7-13.9,7.8c-8.3,6.1-15.4,13.8-21.3,22.2
		c-6.4,9.3-10.8,20-12.8,31.1c-12.5-7.1-26.3-12.2-40.6-14.3c-25.2-3.9-51.4,1.5-73.6,13.7c-8.4,4.6-16.3,10.1-23.2,16.8
		c-8.3,8.1-15,17.7-20.3,28c-5.1,9.9-8.8,20.4-11.1,31.3c-3,14-3.5,28.6-1,42.7c1.8,10.7,5.5,21,10.6,30.5
		c10.6,20.1,27.4,36.6,47.1,47.7c-4,3.5-6.6,8.4-7.5,13.6c-1.3,6.9,0,14.1,2.2,20.7c-0.8-0.1-1.7,0.2-2.4-0.1
		c-3.4-2.8-6.7-5.7-9.9-8.7c-3.7-3.6-7.5-7.3-10.2-11.7c-4.2-6.7-11.4-11.9-19.4-12.5c-6.6-0.6-13.2,2.3-17.9,6.9
		c-3.6,3.6-6.4,8.2-7.3,13.2c-0.8,5.8,1,11.7,3.9,16.7c2.7,4.6,7.1,8.1,12,10.3c5.1,2.4,10.7,3.3,16,5c2,0.6,3.7,1.9,5.4,3.2
		c2.4,1.9,4.6,4.1,6.7,6.3c-0.4,1.5-0.8,3-1.1,4.4c-4.7,0.4-9.5,0.7-14.1,0c-5.8-0.9-11.8-1-17.4,0.9c-4.1,1.4-7.7,4.1-10.1,7.7
		c-3.7,5.3-5.2,12-4,18.3c0.8,4.5,2.9,8.7,5.9,12c3,3.2,7.2,5.1,11.6,5.6c6.1,0.7,12.3-0.9,17.7-3.6c2.4-1.1,4.7-2.6,7.1-3.7
		c2.4-1.1,4.9-1.8,7.5-1.9c0.2,0.6,0.5,1.2,0.7,1.8c-6.4,6.5-13.2,12.5-19.9,18.6c-6.1,5.7-8.1,14.8-6.4,22.8
		c1.1,5.1,3.6,9.9,7.1,13.7c2,2.1,4.6,3.6,7.3,4.4c5.6,1.6,11.9,0.8,16.7-2.5c4.6-3,7.7-7.9,9.8-12.9c1.9-4.4,2.2-9.3,4.1-13.7
		c1.3-3.1,3-5.9,4.9-8.6c0.2-0.3,0.4-0.7,0.9-0.7c3.5-0.5,7-1.3,10.4-2.4c9.2-2.9,18-8.1,24-15.9c4.5,1.2,8.9,2.6,13.3,4.1
		c21,7.2,41.2,16.8,60.3,28.2c0.5,0.2,0.2,0.8,0.2,1.2c-0.7,6-0.9,12-0.7,18.1c0.2,6.3,1,12.5,1.8,18.8c2.4,18.1,7.8,36,16.9,52
		c8.4,14.9,20.2,27.8,34.1,37.8c6.4,4.7,13.3,8.8,20.4,12.3c13.3,6.4,28.1,9.2,42.8,9.9c1,0.8,1.8,1.8,2.7,2.6
		c2.4,2.4,5,4.5,7.5,6.7c-3.5,8.8-3.4,19.3,1.4,27.6c1.6,2.7,4,5,6.6,6.7c3.8,2.6,8.3,4.3,12.8,5c3.6,0.5,7.3,0.2,10.8-0.3
		c1.2,6.9,3.4,13.6,6,20.1c-10.4,6.2-18.8,16.1-22.6,27.6c-3.7,11.6-2.9,24.4,1.2,35.8c2,5.3,4.8,10.5,8.6,14.7
		c2.1,2.3,4.6,4.1,7.2,5.9c6.9,4.6,15,7.3,23.3,7.5c4.1,4.9,9.8,8.3,15.9,10.1c6.5,1.3,13.3,0.4,19.8-1c10.9-2.6,21.5-7.4,29.8-14.9
		c4.8,1.6,9.8,2.3,14.9,2.6c2.3,1.7,4.4,3.5,6.8,5c4.9,3.3,10.5,6.1,16.5,6.5c6.7,0.5,13.4-0.5,19.9-2.2c5.7-1.5,11.2-3.6,16.6-6.2
		c9.5-4.6,18.5-10.6,26.3-17.8c8.4-7.8,15.3-17.5,19.1-28.3C673.3,686.9,674.2,673.7,672.8,660.9 M227.1,325.6
		c1-5.2,1.6-10.4,1.7-15.7c10.2,2.5,20.6,3.9,31.1,4.1c-0.9,13.2,0.1,26.7,4.5,39.3c0.8,2.3,1.8,4.6,2.9,6.8
		c-11-1.3-22.1-2.2-33.2-2.6c-1.1-5.3-2.3-10.6-4.4-15.6c-1.1-2.7-2.6-5.3-3.2-8.2C226,331,226.6,328.3,227.1,325.6 M419.6,338.8
		c-5.9,3.9-11.9,7.7-17.8,11.6c-2.1-3.4-4.1-6.9-6-10.4c3-1.7,5.9-3.5,8.8-5.3C409.3,337,414.5,338.1,419.6,338.8 M453.8,317.2
		c-0.2-7.9-1.2-15.8-3-23.5c-0.1-0.3,0.1-0.6,0.3-0.9c0.6-0.9,1.2-1.8,1.9-2.6c7.8-0.8,15.5-2.7,22.8-5.4c1.1,5.5,2.5,10.9,4.4,16.2
		C471.3,306.2,462.6,311.7,453.8,317.2"/>
	<path fill="#D3546A" d="M296.7,310.4c0.2-0.3,0.6-0.3,0.9-0.4c12.1-2.9,23.8-7.3,34.7-13.3c1,1.6,2.1,3.1,3.3,4.5
		c-2.7,11.7-7.8,22.8-14.8,32.5c-2.5,3.4-5.2,6.6-8.2,9.6c-2.2,2.1-4.7,4.2-7.5,5.6c-1.9,1-4.1,1.6-6.3,1.2
		c-2.2-0.4-4.1-1.9-5.6-3.6c-2.3-2.8-3.8-6.1-5-9.4c-0.2-0.6-0.5-1.3-0.4-2c0.3-6,1.4-11.9,3.9-17.4
		C293.1,315.1,294.7,312.5,296.7,310.4"/>
	<path fill="#FF0122" d="M473.3,191.5c-2.2,5.5-5.7,10.5-9.4,15.1c-2.8-8.2-7-15.9-12.2-22.7c2.3-7.6,3.6-15.6,4.1-23.6
		c5.2,2.9,10.2,6.2,14.5,10.4c1.9,2,3.7,4.2,4.5,6.9C475.7,182.3,475.1,187.2,473.3,191.5 M464.3,266.8c-1.6,5.6-4.1,10.9-6.8,16
		c5.9-1,11.6-2.5,17.1-4.8c-0.2-1.8-0.5-3.7-0.7-5.5C470.9,270.2,467.6,268.4,464.3,266.8 M427.1,333.2c0.6-0.1,1.4,0.1,1.9-0.3
		c6-3.8,12-7.6,17.9-11.4c0.2-7.1-0.4-14.2-1.7-21.1c-9.9,11.6-21.7,21.5-34.2,30.2C416.1,332.6,421.6,333.3,427.1,333.2
		 M499.8,352.1c-14.8,12.6-29,25.9-42.4,40c2,1.9,4.1,3.7,6.3,5.4c8.2,6.4,17.4,11.8,27.6,14c6.3,1.4,13,1.4,19.1-0.8
		c1.8-2.6,3-5.6,3.8-8.7c2-7.2,1.9-14.9,0.4-22.2c-1.3-6.1-3.3-12.2-6.4-17.6C506,358.4,503.3,354.9,499.8,352.1"/>
	<path fill="#FFFFFF" d="M335,104.3c-1.6,4.2-2.7,8.6-3,13.2c-6.3-5.2-12.9-10-19.9-14.4c2.1-11.3,6.6-22.2,13.2-31.8
		c0.5-0.7,1-1.3,1.7-1.9c3.8-3.6,8.2-6.7,13.1-8.5c4.1-1.5,8.7-2,12.8-0.6c3,1,5.4,3.3,7.1,5.9c2.4,3.7,3.8,7.9,4.8,12.1
		c0.6,2.5,1.1,5.1,1.4,7.7c-2.8,5.5-5.2,11.2-7.4,17c-4,10.4-7.2,21-8.9,32c-2.1-2.4-4.3-4.6-6.4-7c2.4-1.9,4.1-4.4,5.5-7.1
		c2.2-4.2,3.9-8.7,4.9-13.4c0.7-3.7,1.1-7.6,0.1-11.3c-0.5-1.7-1.5-3.6-3.3-4.2c-2.7-1-5.7,0-7.9,1.5
		C339,96.1,336.7,100.2,335,104.3 M359.1,124.2c1.9-7.3,4.3-14.5,7.1-21.5c2.1-5.3,4.3-10.6,7.1-15.6c4.8-4.4,10.2-8.1,16.1-10.8
		c3.2-1.4,6.5-2.4,10-2.7c3.7-0.4,7.7,0.1,11.1,1.7c4.9,2.3,8.7,6.5,11.4,11c3.2,5.2,5.1,11.2,6.1,17.2c2.4,14,1.4,28.4-1.6,42.2
		c-0.4,1.3-0.4,2.8-1.3,4c-3.6,5.7-7.7,11.2-12.3,16.3c-5.6-2.7-11.9-3.8-18.1-4.3c-8.8-0.6-17.6,0.2-26.2,2.3
		c-3.2-7.8-7.8-15-12.7-21.8C356.4,136.2,357.6,130.2,359.1,124.2 M385.4,139.2c-0.5,3.9-0.6,8,0.9,11.8c0.9,2.3,2.6,4.6,5.1,5.2
		c2.7,0.8,5.7-0.2,7.8-2c3.3-2.8,5.3-6.7,6.9-10.6c2.3-5.7,4.1-11.9,3.7-18.2c-0.3-3-1.1-6.1-3.2-8.3c-1.5-1.6-3.9-2.1-6-1.9
		c-4.3,0.6-7.6,3.9-9.7,7.5C387.9,127.7,386.3,133.4,385.4,139.2 M347.5,106.5c0.5-1.7,0.5-3.6-0.3-5.2c-0.5-1-1.7-1.6-2.9-1.3
		c-0.9,0.2-1.7,0.9-2.2,1.6c-1.2,1.6-1.7,3.7-1.5,5.7c0.2,1,0.5,2,1.3,2.6c0.8,0.8,2.1,0.8,3,0.2C346.1,109.4,347,108,347.5,106.5
		 M397.7,135.2c1.3,0.1,2.6-0.8,3.3-1.8c1.7-2.2,2.3-5.3,1.2-7.9c-0.5-1.2-1.7-2.2-3.1-1.9c-1.5,0.3-2.6,1.5-3.3,2.8
		c-1.1,2-1.5,4.4-0.7,6.6C395.5,134.1,396.5,135.1,397.7,135.2 M432.4,526.8c-1.8-1.1-3.7-1.8-5.5-2.8c-10.4-5.6-19.9-13-28.1-21.5
		c-14.9-15.4-26.1-34.1-34-54c-4.3-10.8-7.6-22-9.7-33.4c-2.5-13.9-2.7-28.3-0.7-42.3c0.9-6.2,2.2-12.4,4.3-18.4
		c-0.1-0.2-0.3-0.5-0.4-0.7c1.4-0.9,2.9-1.4,4.4-2.1c10.9-5.4,21.5-11.4,31.7-18c8.5-5.6,16.8-11.5,24.6-18.1
		c7.7-6.5,15-13.5,21.4-21.3c7.3-8.9,13.4-18.9,16.8-29.9c-2-0.6-4.1-1-6-2.1c-6.7-3.5-11-10.8-11.5-18.3c-0.4-5.4,1.4-10.8,4.8-15
		c-3.4-3.8-7.5-7-11.9-9.4c-9.9-5.4-21.4-7.2-32.5-6.1c-12,1.2-23.5,5.5-33.8,11.7c-9.9,6-18.7,14-25.3,23.5
		c-3.5,5.1-6.7,10.6-8.8,16.5c1.1,7,2.8,13.9,5.3,20.5c3.2,8.6,7.8,16.9,14.6,23.1c1.2,1.2,2.8,1.9,3.8,3.2
		c-1.7,0.5-3.6,0.1-5.3-0.3c-3.3-0.9-6.1-2.7-8.9-4.6c-3.2,11.4-8.8,22.1-16,31.5c-3.9,5.1-8.2,10-13.4,13.8
		c-3.9,2.8-8.6,5-13.5,4.6c-4.5-0.3-8.4-3-11.1-6.4c-3.9-4.8-6.1-10.8-7.4-16.8c-1.4-6.7-1.9-13.5-1.9-20.3
		c-3.9,0.4-7.8,0.7-11.8,0.7c-0.3,6.6-0.1,13.2,0.8,19.7c0.8,6.4,2.3,12.8,4.7,18.9c1.8,4.5,4.4,8.7,7.8,12.2
		c3.7,3.9,8.3,7,13.3,8.9c2.8,1.1,5.7,1.9,8.7,1.8c6.5-0.2,12.8-2.2,18.8-4.5c5.5-2.1,10.7-5,15.9-7.7c1-0.5,2-1.2,3.1-1.5
		c-0.3,1.3-1.2,2.2-1.9,3.3c-2.5,3.7-5.1,7.4-7.3,11.3c-6,10.7-10.9,22-14.5,33.8c-3.9,12.8-6.3,26.1-6.4,39.4
		c-0.1,6.7,0.5,13.3,1.4,19.9c1.8,13.3,5,26.5,10.3,38.9c3.7,8.7,8.4,17,14.1,24.5c10.4,13.8,24.1,24.9,39.2,33.2
		c13.2,7.5,28.4,10.9,43.5,11.8c16.6,0.9,33.3-1,49.4-4.8C452.7,560.4,440.3,544.7,432.4,526.8 M515.4,414.8
		c-5.4,3.5-12,4.8-18.4,4.8c-6.3-0.1-12.5-1.6-18.2-4.2c-4.4-1.9-8.3-4.5-12.3-7.1c-4.9-3.3-9.8-6.6-14.2-10.7
		c-3.8,4.2-7.6,8.5-11.2,12.8c9.6,10.3,21.7,18.4,35,23.1c9.7,3.3,20.1,4.8,30.3,3.2c5-0.8,9.9-2.1,14.4-4.4
		c4.1-2.1,7.9-5.1,10.5-8.9c2.1-3.1,3.3-6.7,3.7-10.4c0.4-4.8-0.6-9.7-2.5-14.1c-2-4.7-5.4-8.9-10-11.1c0.2,6.3-0.8,12.7-3.4,18.5
		c1.1-0.7,2-1.7,3.1-2.3c0.3,1.6-0.3,3.1-1.1,4.5C519.7,411.1,517.8,413.3,515.4,414.8 M546.7,502.6c1.7,5.2,3.4,10.4,5.3,15.5
		c3.6-5,6.9-10.2,10-15.5c6.8-11.8,12.6-24.3,16.1-37.6c-1.8,3.7-3.8,7.3-6,10.7C565.4,486.1,557,495.5,546.7,502.6"/>
	<path fill="#77F861" d="M360.7,57c-3.3-2.5-7.4-4-11.6-3.9c-3.3,0.1-6.5,1.1-9.5,2.4c3.1-2.8,6.6-5.3,10.2-7.4
		c4.8-2.7,10.1-5.1,15.7-5.3c3.6-0.2,7.3,0.9,10.1,3.2c4.5,3.7,6.6,9.5,7.7,15.1c-4.6,4.9-8.6,10.4-12.1,16.2
		c-0.8-4.3-2-8.6-4.1-12.4C365.5,61.8,363.4,59,360.7,57 M296.1,303.1c-25.4,5.9-52.6,4.7-77.2-4.2c-21.8-7.8-41.5-21.7-55.5-40.2
		c-4.5-6-8.4-12.5-11.5-19.3c-4.8-10.3-7.7-21.4-8.7-32.7c-2-24.9,4.9-50.4,18.8-71.1c5.7-8.4,12.7-16.1,20.9-22.1
		c19.5-14.7,44-23,68.6-22.1c13.1,0.4,26.1,3.5,38.1,8.7c8.6,3.6,16.6,8.5,24.3,13.7c12.3,8.5,23.8,18.4,33.4,29.8
		c3.5,4.2,6.8,8.6,9.7,13.3c2.9,4.8,5.7,9.7,7.2,15.2c7.1-2,14.4-2.9,21.8-3.3c10.8-0.5,21.9,0.3,31.9,4.7c1.5,0.6,2.9,1.6,4.5,2
		c-0.6-2.5-2.6-4.3-4.4-6c3.6-4.2,6.8-8.8,9.6-13.5c1.1-2,2.3-3.9,3.2-6c3.1-12.5,5-25.4,4.5-38.4c-0.3-7.2-1.4-14.5-3.7-21.4
		c-1.7-5-4.1-9.8-7.5-13.9c-3.3-3.9-7.6-7.1-12.5-8.7c-6.5-2-13.6-1.5-19.9,1c-3.6,1.4-7,3.4-10.2,5.5c3.3-4.7,7.3-9,11.7-12.6
		c4.8-4,10.4-7.3,16.5-8.7c6.6-1.6,13.6-1,19.9,1.6c3.8,1.6,7,4.6,9.3,7.9c3,4.3,5.1,9.2,6.6,14.2c1.9,6.6,2.8,13.5,3,20.3
		c0.2,8-0.5,15.9-2.2,23.7c-1.1,5-2.5,9.9-4.4,14.7c-0.7,1.7-1.7,3.2-1.8,5.1c2.6-1.3,4.5-3.7,6.5-5.8c3,16.9,2.5,34.6-2.4,51.1
		c3.9,4.4,6.8,9.5,9.3,14.7c2.9,6.2,5.1,12.8,6.4,19.5c-5.4,1.1-10.5,3.9-14.3,7.9c-7.3-8.3-17.7-13.5-28.5-15.3
		c-13-2.2-26.6-0.1-38.8,4.9c-10.4,4.2-20,10.3-28.1,18c-7.9,7.5-14.2,16.6-18.6,26.5c-0.6-4.1-1-8.3-1.3-12.5
		c-0.1-1.6-0.1-3.2-0.3-4.8c-0.8,0.5-1.1,1.4-1.5,2.1c-2.8,5.9-3.6,12.6-3.8,19.1c-0.3,8.5,1.1,17.1,4.5,25
		C318.9,296.4,307.6,300.4,296.1,303.1 M227.2,129.7c-0.4,0.9-0.6,1.9-0.6,3c0.3-0.2,0.7-0.4,1-0.7c3.6-2.9,7.3-5.6,11.5-7.7
		c3.2-1.5,6.8-2.7,10.5-2.4c4.9,0.3,9.6,2.7,12.8,6.4c0.2,0.2,0.4,0.5,0.8,0.6c1.1-1.3,0.7-3.2,0.3-4.7c-1.4-3.6-4-6.9-7.5-8.6
		c-3.7-1.8-8-1.6-11.9-0.9c-4.3,0.9-8,3.6-11.2,6.7C230.5,123.9,228.3,126.5,227.2,129.7 M205.1,120.7c1.1-2.8,1.6-6,1-9
		c-0.3-1.8-1.8-3.6-3.8-3.6c-1.1-0.1-2,0.7-2.7,1.4c1,1,1.4,2.5,1.7,3.9c0.6,4.2,0.1,8.4-0.3,12.5
		C203.1,124.8,204.3,122.7,205.1,120.7 M460.7,226.5c-3.9,0.8-7.7,2.9-10.3,6c-2.4,2.9-3.3,6.8-3,10.6c0.3,4.7,2.7,9.4,6.7,12.1
		c1.6,1.1,3.5,1.6,5.3,2.2c6.1,2.1,12,5,17.2,8.8c1.3,0.9,2.6,1.9,3.7,3c0.6,5.7,1.4,11.4,2.7,17c1.4,5.9,3,11.8,5.7,17.3
		c-32.9,20.1-65.5,40.7-97.6,61.9c-1.3-1.8-2.5-3.7-3.8-5.5c2.7-1.8,5.4-3.6,8.1-5.3c-2.2-3.5-4.3-7.2-6.3-10.9
		c-6.7,3.4-13.5,6.7-20.6,9.2c-2.6,0.8-5.3,1.7-8.1,1.6c-3.3,9.8-4.9,20.1-5.5,30.4c-0.8,13.6,0.7,27.4,4.1,40.6
		c3,12,7.4,23.7,12.9,34.8c8.8,17.9,20.5,34.5,35.4,47.8c7.3,6.5,15.4,12.2,24.3,16.5c-0.6-1.7-1.3-3.3-1.7-5
		c2.5-0.7,5.1-1.5,7.6-2.2c0.5,1.1,0.9,2.2,1.4,3.3c6.1,13.2,14.5,25.2,24.3,35.9c8.2,8.9,17.4,16.8,27.5,23.5
		c9.3,6.2,19.4,11.4,29.8,15.4c0.3,0.2,0.6-0.1,1-0.2c5.7-2.6,11.2-5.6,16.3-9.3c8.5-6.1,15-14.4,20.9-22.9c1.1-1.6,2.3-3.2,3.2-5
		c-3.8-6.5-7.1-13.3-10.1-20.2c-5.4-12.2-9.9-24.8-13.9-37.5c2.5-1.1,4.9-2.1,7.4-3.2c0.4,1.3,0.8,2.5,1.2,3.8
		c4-2.7,7.7-5.9,11.1-9.3c9.5-9.5,17-21,22.1-33.4c0.8-1.7,1-3.6,1.4-5.4c2-11,2.7-22.1,2.4-33.2c-0.3-8.8-1.3-17.5-3.3-26.1
		c-0.5-2.3-1.2-4.5-2.4-6.5c-0.7-1.2-1.6-2.5-2.9-3.1c-1.3-0.6-2.9-0.3-4.2,0.2c-2.7,1-4.9,2.8-7.1,4.6c-6.8,5.3-14.6,9-22.7,11.9
		c2.3,7,2.6,14.9-0.2,21.9c-3.1,8-9.9,14.1-17.7,17.6c-9.1,4-19.3,5.5-29.2,4.7c-10.8-0.9-21.3-4.4-30.9-9.4
		c-9.7-5-18.4-11.7-26-19.5c-2.7,3.3-5.2,6.7-7.8,10.1c-2.1-1.5-4.2-3.1-6.2-4.7c13.1-17.7,28-34,43.8-49.3
		c15.2-14.7,31.3-28.6,48.1-41.5c2-1.4,3.9-3,6-4.3c6.8,1.4,13.9,0.7,20.6-1c5.4-1.4,10.7-3.6,15.5-6.4c4.6-2.7,8.7-6.3,11.9-10.6
		c3.2-4.2,5.6-8.9,6.6-14.1c12.6-2.2,25.3-4.1,38-5.6c3-0.4,5.9-1.2,8.5-2.8c3.4-2.1,6.1-5.5,7-9.4c0.8-3.7-0.1-7.8-2.5-10.7
		c-1.5-1.8-3.3-3.5-5.5-4.5c-1.7-0.8-3.7-1-5.6-0.7c-2.3,0.4-4.6,1.2-6.7,2.1c-5.3,2.2-10.3,5-15.7,6.8c-6.8,2.4-14,3.8-21.2,4.4
		c-0.3,1.1-0.8,2.2-1.8,2.8c-0.9-1.8-1.6-3.7-2.5-5.6c-2.5-5.5-5.4-10.8-8.8-15.9c-5.8-8.7-13.1-16.7-21.9-22.5
		c-0.8-0.6-1.7-1-2.2-1.8c1.7-0.3,3.4-0.1,5,0.2c2.4,0.4,4.8,1.3,6.9,2.4c1.1-3.3,2.3-6.6,3.6-9.8c2.1-4.9,4.7-9.6,7.1-14.3
		c2.8-5.5,5-11.4,5.3-17.6c0.2-5.4-0.5-11.1-3.5-15.8c-2-3.2-5.5-5.4-9.2-6c-3.1-0.5-6.4-0.5-9.5,0.4c-2.2,0.7-4.2,2-5.5,3.8
		c-1.8,2.3-2.8,5-3.6,7.8c-1.9,6.7-2.5,13.7-4.2,20.5c-2.9,11.5-7.1,22.6-11.7,33.6c-0.4,1-1.2,1.7-1.9,2.5
		c-3.3,3.7-6.2,7.7-8.7,11.9c5.8-0.3,11.6,2,15.9,5.9c3.7,3.3,6.3,8.1,5.9,13.2c-0.2,1.9-0.3,4-1.4,5.6c-0.4-1.1-0.6-2.3-1-3.5
		c-1.1-3.1-2.9-6-5.3-8.3c-3.8-3.7-9.2-5.6-14.5-5.9c-2.6-0.2-5.1,0.3-7.7,0.3c-0.3-0.3-0.4-0.7-0.5-1.1c-2.1-6-5-11.7-8.9-16.7
		c-3.1-4-6.9-7.6-11.3-10.1C471.3,226.9,465.9,225.5,460.7,226.5 M578.6,253.4c4.1-3,8.2-6.1,13-8.1c4.9-2.3,10-4.5,14-8.2
		c3.3-3,5.6-7.1,6.4-11.5c1.1-5.2,0.8-10.9-2.3-15.4c-2.8-4.3-8.1-6.9-13.2-6.2c-3.1,0.4-6,1.9-8.1,4.1c-3.3,3.3-5.2,7.7-7.6,11.6
		c-2.3,4-5.1,7.6-8.3,10.8c-4.3,4.4-9.1,8.5-14.1,12.2c4.7,5.2,8.2,11.5,10.6,18.1C572.2,258.2,575.4,255.8,578.6,253.4
		 M303.1,383.7c-6.4,0.3-12.6-1.8-18.1-5c-4.5-2.6-8.6-6-11.9-10c-0.4-0.5-1-0.5-1.6-0.6c-14.4-1.8-28.9-3.2-43.4-3.7
		c-0.7-6.1-1.7-12.2-3.8-17.9c-1.2-3.3-2.9-6.3-4-9.6c-1.1-3.4-0.9-7.1-0.2-10.5c1.2-6,2.1-12.2,1.9-18.3c-7.3-2.2-14.4-5-21.2-8.5
		c-2.6,1.5-4.6,3.9-5.9,6.6c-1.9,4.2-2.1,8.9-1.6,13.4c0.8,6.1,3,11.8,5.4,17.4c-3.7,3.7-6.1,8.5-7.5,13.5
		c-1.8,6.8-1.1,14.1,1.6,20.5c0.4,0.9,0.9,1.7,1.1,2.6c-0.9-0.2-1.7-0.7-2.5-1.2c-3.8-2.7-6.2-7.1-6.8-11.7
		c-1.4-8.2,0.7-16.8,5.4-23.7c-1.6,0-3.2-0.1-4.8,0c-0.4,0-0.9,0.1-1.2-0.2c-3.6-2.9-7-6-10.4-9.1c-4-3.8-8-7.7-11.4-12.2
		c-1.5-2-2.9-4.1-4.7-5.8c-3.5-3.4-8.2-5.9-13.2-5.4c-4.5,0.5-8.4,3.3-11.2,6.8c-3.5,4.3-4.9,10.4-3,15.7c1.9,5.4,6.6,9.4,11.7,11.6
		c4.9,2.3,10.2,3.2,15.3,5c4.4,1.9,7.9,5.2,11.3,8.4c1.4-2.8,3-5.5,5.1-7.8c1.2-1.3,2.7-2.7,4.5-2.6c-0.2,1.3-1.1,2.3-1.7,3.5
		c-6.1,12.2-7.7,26.6-4.9,39.9c1.1,5.6,3.1,11,5.6,16.1c-7.2,7.9-14.6,15.6-22.6,22.7c-2.6,2.3-4.1,5.6-4.5,9
		c-0.6,4.9,0.8,9.9,3.4,14.1c1.3,2,2.9,4,5,5.3c2.8,1.8,6.3,2.2,9.4,1.2c3.5-1.1,6.3-3.8,8.1-6.8c1.6-2.7,2.8-5.6,3.5-8.6
		c0.7-2.9,1.3-5.9,2.4-8.8c1.9-5.1,5.1-9.7,8.3-14c3.9-0.3,7.7-1.1,11.4-2.2c5.5-1.6,10.9-4,15.6-7.4c3.9-2.7,7-6.4,9.5-10.4
		c5,1.1,10,2.4,15,3.9c21.9,6.8,42.7,16.6,62.4,28.1c3.1-17.1,9.3-33.5,17.4-48.8C315.2,380.7,309.4,383.5,303.1,383.7 M163.7,370.1
		c-3.7,0.3-7.3,0.5-11,0.2c-2.6-0.1-5.2-0.7-7.8-0.9c-3.9-0.2-8,0-11.5,1.9c-3.3,1.7-5.5,5.1-6.7,8.5c-1.9,5.6-1,12.1,2.6,16.8
		c1.4,1.9,3.4,3.3,5.6,4c2.2,0.7,4.5,0.7,6.8,0.5c3.9-0.5,7.7-1.9,11.1-3.8c4.1-2.4,8.6-4.6,13.4-5.2
		C164,385.2,163.2,377.6,163.7,370.1 M483.8,585c-3-2-6-3.9-8.9-6.1c-0.3-0.2-0.6-0.6-1-0.5c-14.3,4.1-29.1,6.5-44,7.1
		c8.1,6.7,16.7,12.7,26,17.6C466.5,599.2,476.2,593.2,483.8,585"/>
	<path fill="#DC5A0F" d="M609,725.1c-5.9,2.7-11.9,4.8-18.1,6.5c-5.2,1.4-10.4,2.7-15.7,3.2c-7.2,0.7-14.5,0.1-21.4-2.1
		c-6-1.9-11.6-5.1-16.2-9.3c-7.6-6.9-12.7-16.3-15.1-26.3c-2.8-11.8-0.2-24.7,6.6-34.8c5.4-8,13.3-14,21.7-18.5
		c3.6-1.8,7.3-3.4,11-4.7c1.3-0.5,2.7-0.8,4-1.4c-2.3-1.1-4.9-0.9-7.3-0.7c-7.1,0.8-13.9,3.3-20.1,6.7c-2.8-5.4-4.8-11.2-5.7-17.2
		c4.7-0.9,9.5-2.5,13.3-5.5c1.9-1.5,3.6-3.4,4.5-5.8c-2.1,0.6-4,1.6-6.1,2.2c-6.5,2.2-13.4,3.6-20.4,3.2c-6-0.3-12-2.4-16.6-6.4
		c-3.2-2.7-5.5-6.5-6.6-10.6c-0.9-3.2-1-6.5-0.6-9.8c3.8,1.8,7.6,3.4,11.4,5c-1.4,0.5-2.8,0.8-4.1,1.5c2.3,1.1,5,1.5,7.6,1.6
		c6.5,0.1,12.8-2,18.4-5.1c5.3-2.9,10.1-6.6,14.6-10.7c7.1-6.6,13.6-14.3,17.5-23.3c1.5-3.6,2.6-7.4,2.8-11.3
		c0.1-1.2,0.2-2.5-0.2-3.7c-1.1,0.9-1.6,2.2-2.4,3.4c-1.3-2.7-2.6-5.3-3.8-8c5.9-2,12.6-1.2,17.7,2.3c3.6,2.3,6,6.1,7.3,10.1
		c1.8,5.5,2,11.4,1.5,17.1c-0.1,1.3-0.3,2.6,0,3.9c2-1.4,3.2-3.7,4.2-5.9c1.2-2.4,1.6-5.2,1.8-7.8c6,0,12.1,1.7,17.1,5
		c3.9,2.7,6.8,6.6,9.3,10.6c5.8,9.9,8.7,21.3,9.2,32.7c0.1,2.9,0.2,5.8-0.1,8.6c2.1,1.8,3.7,3.9,5.4,6c6.4,8.3,11.5,17.8,14.1,28.1
		c1.6,6.8,2,13.9,0.8,20.8c-2.1,11.1-6.9,21.7-14.3,30.3C629,713.9,619.3,720.4,609,725.1 M527.8,725.6c-3.5-4.1-6.4-8.8-8.7-13.7
		c-2.4-5.4-4.4-11.1-5.3-17c-2-12.5,0.8-25.8,7.9-36.3c2.6-3.9,6-7.2,9.7-10.1c-3.4-6.4-5.8-13.4-6.8-20.6c-3.2,0.3-6.5,0.3-9.6-0.3
		c-4.3-0.7-8.4-2.7-11.7-5.5c-4.5-3.8-8.2-8.8-10-14.4c-1.9-5.6-2-11.7-0.5-17.4c-0.9-0.5-1.9-1.1-2.8-1.6
		c-7.4,7.5-15.8,14.2-25.7,18.1c-6.2,2.4-13.1,3.5-19.7,2c-1.5-0.4-3.1-0.6-4.3-1.5c1.7-0.4,3.4-0.6,5-1c-4-2.1-7.9-4.4-11.6-7
		c-1.6,6.8-0.5,14.3,3.4,20.1c1.9,2.5,4.6,4.3,7.6,5.5c5,1.9,10.5,2.1,15.8,1.7c6.5-0.6,13-2.4,18.7-5.7c1.9-1,3.4-2.4,5.2-3.6
		c0.1,2.8-1.6,5.2-3.5,7.1c-3.9,3.7-8.9,5.9-13.8,7.6c1.1,6.3,3,12.5,5.4,18.4c3.9-1.6,8-2.8,12.2-3.4c2.7-0.3,5.5-0.6,8.1,0.2
		c0.4,0.2,1.1,0.3,1,0.8c-7.1,1.9-14,4.8-20.2,8.8c-8.7,5.5-16.4,13.2-20.6,22.7c-4.9,11.4-4.4,24.7,0.2,36.1
		c2.1,5.2,5.1,10.4,9.7,13.9c3.6,2.9,7.5,5.5,11.9,6.9c6.7,2.3,13.9,2.3,20.8,1.1C506.9,735.4,517.6,730.8,527.8,725.6"/>
	<path fill="#FDFD02" d="M653.9,631.2c6.8,9.7,10.8,21.3,11.5,33.2c1,12.8-0.8,26.1-6.9,37.5c-4.7,9.1-11.9,16.8-19.9,23.1
		c-8.7,6.9-18.4,12.8-28.9,16.7c-6.5,2.3-13.2,4.1-20.1,4.3c-2.6,0.1-5.2-0.8-7.6-1.9c-1.7-0.8-3.5-1.6-5.1-2.7
		c6.3-0.8,12.5-2.3,18.7-4c10.6-3,20.9-7.3,30.1-13.5c8.7-5.8,16.2-13.5,21.5-22.6c3.1-5.3,5.5-11,7.3-16.9c1.9-6.5,3.2-13.2,2.9-20
		c-0.3-11.5-4.4-22.6-10.5-32.2c-3.1-5-6.8-9.6-11-13.7c-0.5-0.4-0.2-1-0.2-1.5c1.1-13.7-1.4-27.7-7.7-40c5.1,1.7,9.2,5.8,11.5,10.7
		c2.3,4.8,3.5,10.1,4.2,15.4c0.7,5.7,0.8,11.5-0.2,17.1C647.7,623.2,651,627.1,653.9,631.2 M494.1,744.7c1.7,1.4,3.5,2.5,5.5,3.4
		c2.9,1.3,6.2,1.5,9.3,1.3c6.3-0.5,12.4-2.4,18.2-4.9c5-2.2,9.8-4.9,14.3-8.1c-3-1.7-6-3.6-8.6-5.8
		C520.6,736.9,507.8,742.5,494.1,744.7"/>
</g>
</svg>
